%TF.GenerationSoftware,KiCad,Pcbnew,6.99.0-unknown-08a8a20794~162~ubuntu22.04.1*%
%TF.CreationDate,2022-12-21T10:25:03+01:00*%
%TF.ProjectId,usb_relay,7573625f-7265-46c6-9179-2e6b69636164,rev?*%
%TF.SameCoordinates,Original*%
%TF.FileFunction,Paste,Top*%
%TF.FilePolarity,Positive*%
%FSLAX46Y46*%
G04 Gerber Fmt 4.6, Leading zero omitted, Abs format (unit mm)*
G04 Created by KiCad (PCBNEW 6.99.0-unknown-08a8a20794~162~ubuntu22.04.1) date 2022-12-21 10:25:03*
%MOMM*%
%LPD*%
G01*
G04 APERTURE LIST*
G04 Aperture macros list*
%AMRoundRect*
0 Rectangle with rounded corners*
0 $1 Rounding radius*
0 $2 $3 $4 $5 $6 $7 $8 $9 X,Y pos of 4 corners*
0 Add a 4 corners polygon primitive as box body*
4,1,4,$2,$3,$4,$5,$6,$7,$8,$9,$2,$3,0*
0 Add four circle primitives for the rounded corners*
1,1,$1+$1,$2,$3*
1,1,$1+$1,$4,$5*
1,1,$1+$1,$6,$7*
1,1,$1+$1,$8,$9*
0 Add four rect primitives between the rounded corners*
20,1,$1+$1,$2,$3,$4,$5,0*
20,1,$1+$1,$4,$5,$6,$7,0*
20,1,$1+$1,$6,$7,$8,$9,0*
20,1,$1+$1,$8,$9,$2,$3,0*%
G04 Aperture macros list end*
%ADD10RoundRect,0.250000X-0.650000X0.325000X-0.650000X-0.325000X0.650000X-0.325000X0.650000X0.325000X0*%
%ADD11RoundRect,0.250000X-0.262500X-0.450000X0.262500X-0.450000X0.262500X0.450000X-0.262500X0.450000X0*%
%ADD12RoundRect,0.250000X-0.450000X0.262500X-0.450000X-0.262500X0.450000X-0.262500X0.450000X0.262500X0*%
%ADD13RoundRect,0.250000X-0.475000X0.250000X-0.475000X-0.250000X0.475000X-0.250000X0.475000X0.250000X0*%
%ADD14RoundRect,0.250000X-0.625000X0.375000X-0.625000X-0.375000X0.625000X-0.375000X0.625000X0.375000X0*%
%ADD15RoundRect,0.250000X0.450000X-0.262500X0.450000X0.262500X-0.450000X0.262500X-0.450000X-0.262500X0*%
%ADD16RoundRect,0.250000X0.650000X-0.325000X0.650000X0.325000X-0.650000X0.325000X-0.650000X-0.325000X0*%
%ADD17RoundRect,0.125000X-0.825000X-0.125000X0.825000X-0.125000X0.825000X0.125000X-0.825000X0.125000X0*%
%ADD18RoundRect,0.250000X0.262500X0.450000X-0.262500X0.450000X-0.262500X-0.450000X0.262500X-0.450000X0*%
G04 APERTURE END LIST*
D10*
%TO.C,C4*%
X208280000Y-97380000D03*
X208280000Y-100330000D03*
%TD*%
D11*
%TO.C,R6*%
X191469000Y-92329000D03*
X193294000Y-92329000D03*
%TD*%
D12*
%TO.C,R1*%
X192913000Y-88011000D03*
X192913000Y-89836000D03*
%TD*%
D11*
%TO.C,R8*%
X191469000Y-96393000D03*
X193294000Y-96393000D03*
%TD*%
D13*
%TO.C,C2*%
X192887600Y-84460000D03*
X192887600Y-86360000D03*
%TD*%
%TO.C,C1*%
X208229200Y-84444800D03*
X208229200Y-86344800D03*
%TD*%
D14*
%TO.C,D4*%
X201041000Y-105785000D03*
X201041000Y-108585000D03*
%TD*%
%TO.C,D2*%
X194818000Y-105788000D03*
X194818000Y-108588000D03*
%TD*%
%TO.C,D3*%
X204216000Y-105785000D03*
X204216000Y-108585000D03*
%TD*%
D12*
%TO.C,R4*%
X198120000Y-101322500D03*
X198120000Y-103147500D03*
%TD*%
D15*
%TO.C,R2*%
X204216000Y-103147500D03*
X204216000Y-101322500D03*
%TD*%
D16*
%TO.C,C3*%
X208280000Y-95328000D03*
X208280000Y-92378000D03*
%TD*%
D17*
%TO.C,U1*%
X196652000Y-89429400D03*
X196652000Y-90079400D03*
X196652000Y-90729400D03*
X196652000Y-91379400D03*
X196652000Y-92029400D03*
X196652000Y-92679400D03*
X196652000Y-93329400D03*
X196652000Y-93979400D03*
X196652000Y-94629400D03*
X196652000Y-95279400D03*
X203652000Y-95279400D03*
X203652000Y-94629400D03*
X203652000Y-93979400D03*
X203652000Y-93329400D03*
X203652000Y-92679400D03*
X203652000Y-92029400D03*
X203652000Y-91379400D03*
X203652000Y-90729400D03*
X203652000Y-90079400D03*
X203652000Y-89429400D03*
%TD*%
D11*
%TO.C,R9*%
X191469000Y-94361000D03*
X193294000Y-94361000D03*
%TD*%
D18*
%TO.C,R7*%
X193294000Y-98425000D03*
X191469000Y-98425000D03*
%TD*%
D12*
%TO.C,R3*%
X201041000Y-101322500D03*
X201041000Y-103147500D03*
%TD*%
D14*
%TO.C,D1*%
X198120000Y-105788000D03*
X198120000Y-108588000D03*
%TD*%
D12*
%TO.C,R5*%
X194818000Y-101322500D03*
X194818000Y-103147500D03*
%TD*%
M02*
