%TF.GenerationSoftware,KiCad,Pcbnew,6.99.0-unknown-08a8a20794~162~ubuntu22.04.1*%
%TF.CreationDate,2022-12-21T10:25:03+01:00*%
%TF.ProjectId,usb_relay,7573625f-7265-46c6-9179-2e6b69636164,rev?*%
%TF.SameCoordinates,Original*%
%TF.FileFunction,Legend,Top*%
%TF.FilePolarity,Positive*%
%FSLAX46Y46*%
G04 Gerber Fmt 4.6, Leading zero omitted, Abs format (unit mm)*
G04 Created by KiCad (PCBNEW 6.99.0-unknown-08a8a20794~162~ubuntu22.04.1) date 2022-12-21 10:25:03*
%MOMM*%
%LPD*%
G01*
G04 APERTURE LIST*
%ADD10C,0.300000*%
%ADD11C,0.150000*%
%ADD12C,0.120000*%
G04 APERTURE END LIST*
D10*
X177638057Y-125427571D02*
X178495200Y-125427571D01*
X178066628Y-126927571D02*
X178066628Y-125427571D01*
X178852342Y-125427571D02*
X179852342Y-126927571D01*
X179852342Y-125427571D02*
X178852342Y-126927571D01*
X191903314Y-125072761D02*
X193141409Y-125072761D01*
X193141409Y-125072761D02*
X192474742Y-125834666D01*
X192474742Y-125834666D02*
X192760457Y-125834666D01*
X192760457Y-125834666D02*
X192950933Y-125929904D01*
X192950933Y-125929904D02*
X193046171Y-126025142D01*
X193046171Y-126025142D02*
X193141409Y-126215619D01*
X193141409Y-126215619D02*
X193141409Y-126691809D01*
X193141409Y-126691809D02*
X193046171Y-126882285D01*
X193046171Y-126882285D02*
X192950933Y-126977523D01*
X192950933Y-126977523D02*
X192760457Y-127072761D01*
X192760457Y-127072761D02*
X192189028Y-127072761D01*
X192189028Y-127072761D02*
X191998552Y-126977523D01*
X191998552Y-126977523D02*
X191903314Y-126882285D01*
X156713085Y-122355571D02*
X156213085Y-121641285D01*
X155855942Y-122355571D02*
X155855942Y-120855571D01*
X155855942Y-120855571D02*
X156427371Y-120855571D01*
X156427371Y-120855571D02*
X156570228Y-120927000D01*
X156570228Y-120927000D02*
X156641657Y-120998428D01*
X156641657Y-120998428D02*
X156713085Y-121141285D01*
X156713085Y-121141285D02*
X156713085Y-121355571D01*
X156713085Y-121355571D02*
X156641657Y-121498428D01*
X156641657Y-121498428D02*
X156570228Y-121569857D01*
X156570228Y-121569857D02*
X156427371Y-121641285D01*
X156427371Y-121641285D02*
X155855942Y-121641285D01*
X157998800Y-122355571D02*
X157998800Y-121569857D01*
X157998800Y-121569857D02*
X157927371Y-121427000D01*
X157927371Y-121427000D02*
X157784514Y-121355571D01*
X157784514Y-121355571D02*
X157498800Y-121355571D01*
X157498800Y-121355571D02*
X157355942Y-121427000D01*
X157998800Y-122284142D02*
X157855942Y-122355571D01*
X157855942Y-122355571D02*
X157498800Y-122355571D01*
X157498800Y-122355571D02*
X157355942Y-122284142D01*
X157355942Y-122284142D02*
X157284514Y-122141285D01*
X157284514Y-122141285D02*
X157284514Y-121998428D01*
X157284514Y-121998428D02*
X157355942Y-121855571D01*
X157355942Y-121855571D02*
X157498800Y-121784142D01*
X157498800Y-121784142D02*
X157855942Y-121784142D01*
X157855942Y-121784142D02*
X157998800Y-121712714D01*
X159355943Y-122355571D02*
X159355943Y-120855571D01*
X159355943Y-122284142D02*
X159213085Y-122355571D01*
X159213085Y-122355571D02*
X158927371Y-122355571D01*
X158927371Y-122355571D02*
X158784514Y-122284142D01*
X158784514Y-122284142D02*
X158713085Y-122212714D01*
X158713085Y-122212714D02*
X158641657Y-122069857D01*
X158641657Y-122069857D02*
X158641657Y-121641285D01*
X158641657Y-121641285D02*
X158713085Y-121498428D01*
X158713085Y-121498428D02*
X158784514Y-121427000D01*
X158784514Y-121427000D02*
X158927371Y-121355571D01*
X158927371Y-121355571D02*
X159213085Y-121355571D01*
X159213085Y-121355571D02*
X159355943Y-121427000D01*
X160070228Y-122355571D02*
X160070228Y-121355571D01*
X160070228Y-120855571D02*
X159998800Y-120927000D01*
X159998800Y-120927000D02*
X160070228Y-120998428D01*
X160070228Y-120998428D02*
X160141657Y-120927000D01*
X160141657Y-120927000D02*
X160070228Y-120855571D01*
X160070228Y-120855571D02*
X160070228Y-120998428D01*
X160998800Y-122355571D02*
X160855943Y-122284142D01*
X160855943Y-122284142D02*
X160784514Y-122212714D01*
X160784514Y-122212714D02*
X160713086Y-122069857D01*
X160713086Y-122069857D02*
X160713086Y-121641285D01*
X160713086Y-121641285D02*
X160784514Y-121498428D01*
X160784514Y-121498428D02*
X160855943Y-121427000D01*
X160855943Y-121427000D02*
X160998800Y-121355571D01*
X160998800Y-121355571D02*
X161213086Y-121355571D01*
X161213086Y-121355571D02*
X161355943Y-121427000D01*
X161355943Y-121427000D02*
X161427372Y-121498428D01*
X161427372Y-121498428D02*
X161498800Y-121641285D01*
X161498800Y-121641285D02*
X161498800Y-122069857D01*
X161498800Y-122069857D02*
X161427372Y-122212714D01*
X161427372Y-122212714D02*
X161355943Y-122284142D01*
X161355943Y-122284142D02*
X161213086Y-122355571D01*
X161213086Y-122355571D02*
X160998800Y-122355571D01*
X162713086Y-122284142D02*
X162570229Y-122355571D01*
X162570229Y-122355571D02*
X162284515Y-122355571D01*
X162284515Y-122355571D02*
X162141657Y-122284142D01*
X162141657Y-122284142D02*
X162070229Y-122141285D01*
X162070229Y-122141285D02*
X162070229Y-121569857D01*
X162070229Y-121569857D02*
X162141657Y-121427000D01*
X162141657Y-121427000D02*
X162284515Y-121355571D01*
X162284515Y-121355571D02*
X162570229Y-121355571D01*
X162570229Y-121355571D02*
X162713086Y-121427000D01*
X162713086Y-121427000D02*
X162784515Y-121569857D01*
X162784515Y-121569857D02*
X162784515Y-121712714D01*
X162784515Y-121712714D02*
X162070229Y-121855571D01*
X163641657Y-122355571D02*
X163498800Y-122284142D01*
X163498800Y-122284142D02*
X163427371Y-122141285D01*
X163427371Y-122141285D02*
X163427371Y-120855571D01*
X163998800Y-121355571D02*
X164570228Y-121355571D01*
X164213085Y-122355571D02*
X164213085Y-121069857D01*
X164213085Y-121069857D02*
X164284514Y-120927000D01*
X164284514Y-120927000D02*
X164427371Y-120855571D01*
X164427371Y-120855571D02*
X164570228Y-120855571D01*
X199053390Y-126260057D02*
X200577200Y-126260057D01*
X181909885Y-126927571D02*
X181409885Y-126213285D01*
X181052742Y-126927571D02*
X181052742Y-125427571D01*
X181052742Y-125427571D02*
X181624171Y-125427571D01*
X181624171Y-125427571D02*
X181767028Y-125499000D01*
X181767028Y-125499000D02*
X181838457Y-125570428D01*
X181838457Y-125570428D02*
X181909885Y-125713285D01*
X181909885Y-125713285D02*
X181909885Y-125927571D01*
X181909885Y-125927571D02*
X181838457Y-126070428D01*
X181838457Y-126070428D02*
X181767028Y-126141857D01*
X181767028Y-126141857D02*
X181624171Y-126213285D01*
X181624171Y-126213285D02*
X181052742Y-126213285D01*
X182409885Y-125427571D02*
X183409885Y-126927571D01*
X183409885Y-125427571D02*
X182409885Y-126927571D01*
X196557733Y-125739428D02*
X196557733Y-127072761D01*
X196081542Y-124977523D02*
X195605352Y-126406095D01*
X195605352Y-126406095D02*
X196843447Y-126406095D01*
X188391752Y-125263238D02*
X188486990Y-125168000D01*
X188486990Y-125168000D02*
X188677466Y-125072761D01*
X188677466Y-125072761D02*
X189153657Y-125072761D01*
X189153657Y-125072761D02*
X189344133Y-125168000D01*
X189344133Y-125168000D02*
X189439371Y-125263238D01*
X189439371Y-125263238D02*
X189534609Y-125453714D01*
X189534609Y-125453714D02*
X189534609Y-125644190D01*
X189534609Y-125644190D02*
X189439371Y-125929904D01*
X189439371Y-125929904D02*
X188296514Y-127072761D01*
X188296514Y-127072761D02*
X189534609Y-127072761D01*
X186181809Y-127072761D02*
X185038952Y-127072761D01*
X185610380Y-127072761D02*
X185610380Y-125072761D01*
X185610380Y-125072761D02*
X185419904Y-125358476D01*
X185419904Y-125358476D02*
X185229428Y-125548952D01*
X185229428Y-125548952D02*
X185038952Y-125644190D01*
X174466190Y-126310857D02*
X175990000Y-126310857D01*
X175228095Y-127072761D02*
X175228095Y-125548952D01*
D11*
%TO.C,C4*%
X208240333Y-103142142D02*
X208192714Y-103189761D01*
X208192714Y-103189761D02*
X208049857Y-103237380D01*
X208049857Y-103237380D02*
X207954619Y-103237380D01*
X207954619Y-103237380D02*
X207811762Y-103189761D01*
X207811762Y-103189761D02*
X207716524Y-103094523D01*
X207716524Y-103094523D02*
X207668905Y-102999285D01*
X207668905Y-102999285D02*
X207621286Y-102808809D01*
X207621286Y-102808809D02*
X207621286Y-102665952D01*
X207621286Y-102665952D02*
X207668905Y-102475476D01*
X207668905Y-102475476D02*
X207716524Y-102380238D01*
X207716524Y-102380238D02*
X207811762Y-102285000D01*
X207811762Y-102285000D02*
X207954619Y-102237380D01*
X207954619Y-102237380D02*
X208049857Y-102237380D01*
X208049857Y-102237380D02*
X208192714Y-102285000D01*
X208192714Y-102285000D02*
X208240333Y-102332619D01*
X209097476Y-102570714D02*
X209097476Y-103237380D01*
X208859381Y-102189761D02*
X208621286Y-102904047D01*
X208621286Y-102904047D02*
X209240333Y-102904047D01*
%TO.C,J4*%
X132254666Y-116816980D02*
X132254666Y-117531266D01*
X132254666Y-117531266D02*
X132207047Y-117674123D01*
X132207047Y-117674123D02*
X132111809Y-117769361D01*
X132111809Y-117769361D02*
X131968952Y-117816980D01*
X131968952Y-117816980D02*
X131873714Y-117816980D01*
X133159428Y-117150314D02*
X133159428Y-117816980D01*
X132921333Y-116769361D02*
X132683238Y-117483647D01*
X132683238Y-117483647D02*
X133302285Y-117483647D01*
%TO.C,J7*%
X212975866Y-81256980D02*
X212975866Y-81971266D01*
X212975866Y-81971266D02*
X212928247Y-82114123D01*
X212928247Y-82114123D02*
X212833009Y-82209361D01*
X212833009Y-82209361D02*
X212690152Y-82256980D01*
X212690152Y-82256980D02*
X212594914Y-82256980D01*
X213356819Y-81256980D02*
X214023485Y-81256980D01*
X214023485Y-81256980D02*
X213594914Y-82256980D01*
%TO.C,USB-Relay*%
X201073238Y-56867900D02*
X201073238Y-57677424D01*
X201073238Y-57677424D02*
X201120857Y-57772662D01*
X201120857Y-57772662D02*
X201168476Y-57820281D01*
X201168476Y-57820281D02*
X201263714Y-57867900D01*
X201263714Y-57867900D02*
X201454190Y-57867900D01*
X201454190Y-57867900D02*
X201549428Y-57820281D01*
X201549428Y-57820281D02*
X201597047Y-57772662D01*
X201597047Y-57772662D02*
X201644666Y-57677424D01*
X201644666Y-57677424D02*
X201644666Y-56867900D01*
X202073238Y-57820281D02*
X202216095Y-57867900D01*
X202216095Y-57867900D02*
X202454190Y-57867900D01*
X202454190Y-57867900D02*
X202549428Y-57820281D01*
X202549428Y-57820281D02*
X202597047Y-57772662D01*
X202597047Y-57772662D02*
X202644666Y-57677424D01*
X202644666Y-57677424D02*
X202644666Y-57582186D01*
X202644666Y-57582186D02*
X202597047Y-57486948D01*
X202597047Y-57486948D02*
X202549428Y-57439329D01*
X202549428Y-57439329D02*
X202454190Y-57391710D01*
X202454190Y-57391710D02*
X202263714Y-57344091D01*
X202263714Y-57344091D02*
X202168476Y-57296472D01*
X202168476Y-57296472D02*
X202120857Y-57248853D01*
X202120857Y-57248853D02*
X202073238Y-57153615D01*
X202073238Y-57153615D02*
X202073238Y-57058377D01*
X202073238Y-57058377D02*
X202120857Y-56963139D01*
X202120857Y-56963139D02*
X202168476Y-56915520D01*
X202168476Y-56915520D02*
X202263714Y-56867900D01*
X202263714Y-56867900D02*
X202501809Y-56867900D01*
X202501809Y-56867900D02*
X202644666Y-56915520D01*
X203406571Y-57344091D02*
X203549428Y-57391710D01*
X203549428Y-57391710D02*
X203597047Y-57439329D01*
X203597047Y-57439329D02*
X203644666Y-57534567D01*
X203644666Y-57534567D02*
X203644666Y-57677424D01*
X203644666Y-57677424D02*
X203597047Y-57772662D01*
X203597047Y-57772662D02*
X203549428Y-57820281D01*
X203549428Y-57820281D02*
X203454190Y-57867900D01*
X203454190Y-57867900D02*
X203073238Y-57867900D01*
X203073238Y-57867900D02*
X203073238Y-56867900D01*
X203073238Y-56867900D02*
X203406571Y-56867900D01*
X203406571Y-56867900D02*
X203501809Y-56915520D01*
X203501809Y-56915520D02*
X203549428Y-56963139D01*
X203549428Y-56963139D02*
X203597047Y-57058377D01*
X203597047Y-57058377D02*
X203597047Y-57153615D01*
X203597047Y-57153615D02*
X203549428Y-57248853D01*
X203549428Y-57248853D02*
X203501809Y-57296472D01*
X203501809Y-57296472D02*
X203406571Y-57344091D01*
X203406571Y-57344091D02*
X203073238Y-57344091D01*
X204073238Y-57486948D02*
X204835143Y-57486948D01*
X205882761Y-57867900D02*
X205549428Y-57391710D01*
X205311333Y-57867900D02*
X205311333Y-56867900D01*
X205311333Y-56867900D02*
X205692285Y-56867900D01*
X205692285Y-56867900D02*
X205787523Y-56915520D01*
X205787523Y-56915520D02*
X205835142Y-56963139D01*
X205835142Y-56963139D02*
X205882761Y-57058377D01*
X205882761Y-57058377D02*
X205882761Y-57201234D01*
X205882761Y-57201234D02*
X205835142Y-57296472D01*
X205835142Y-57296472D02*
X205787523Y-57344091D01*
X205787523Y-57344091D02*
X205692285Y-57391710D01*
X205692285Y-57391710D02*
X205311333Y-57391710D01*
X206692285Y-57820281D02*
X206597047Y-57867900D01*
X206597047Y-57867900D02*
X206406571Y-57867900D01*
X206406571Y-57867900D02*
X206311333Y-57820281D01*
X206311333Y-57820281D02*
X206263714Y-57725043D01*
X206263714Y-57725043D02*
X206263714Y-57344091D01*
X206263714Y-57344091D02*
X206311333Y-57248853D01*
X206311333Y-57248853D02*
X206406571Y-57201234D01*
X206406571Y-57201234D02*
X206597047Y-57201234D01*
X206597047Y-57201234D02*
X206692285Y-57248853D01*
X206692285Y-57248853D02*
X206739904Y-57344091D01*
X206739904Y-57344091D02*
X206739904Y-57439329D01*
X206739904Y-57439329D02*
X206263714Y-57534567D01*
X207311333Y-57867900D02*
X207216095Y-57820281D01*
X207216095Y-57820281D02*
X207168476Y-57725043D01*
X207168476Y-57725043D02*
X207168476Y-56867900D01*
X208120857Y-57867900D02*
X208120857Y-57344091D01*
X208120857Y-57344091D02*
X208073238Y-57248853D01*
X208073238Y-57248853D02*
X207978000Y-57201234D01*
X207978000Y-57201234D02*
X207787524Y-57201234D01*
X207787524Y-57201234D02*
X207692286Y-57248853D01*
X208120857Y-57820281D02*
X208025619Y-57867900D01*
X208025619Y-57867900D02*
X207787524Y-57867900D01*
X207787524Y-57867900D02*
X207692286Y-57820281D01*
X207692286Y-57820281D02*
X207644667Y-57725043D01*
X207644667Y-57725043D02*
X207644667Y-57629805D01*
X207644667Y-57629805D02*
X207692286Y-57534567D01*
X207692286Y-57534567D02*
X207787524Y-57486948D01*
X207787524Y-57486948D02*
X208025619Y-57486948D01*
X208025619Y-57486948D02*
X208120857Y-57439329D01*
X208501810Y-57201234D02*
X208739905Y-57867900D01*
X208978000Y-57201234D02*
X208739905Y-57867900D01*
X208739905Y-57867900D02*
X208644667Y-58105996D01*
X208644667Y-58105996D02*
X208597048Y-58153615D01*
X208597048Y-58153615D02*
X208501810Y-58201234D01*
%TO.C,R6*%
X194702133Y-92874180D02*
X194368800Y-92397990D01*
X194130705Y-92874180D02*
X194130705Y-91874180D01*
X194130705Y-91874180D02*
X194511657Y-91874180D01*
X194511657Y-91874180D02*
X194606895Y-91921800D01*
X194606895Y-91921800D02*
X194654514Y-91969419D01*
X194654514Y-91969419D02*
X194702133Y-92064657D01*
X194702133Y-92064657D02*
X194702133Y-92207514D01*
X194702133Y-92207514D02*
X194654514Y-92302752D01*
X194654514Y-92302752D02*
X194606895Y-92350371D01*
X194606895Y-92350371D02*
X194511657Y-92397990D01*
X194511657Y-92397990D02*
X194130705Y-92397990D01*
X195559276Y-91874180D02*
X195368800Y-91874180D01*
X195368800Y-91874180D02*
X195273562Y-91921800D01*
X195273562Y-91921800D02*
X195225943Y-91969419D01*
X195225943Y-91969419D02*
X195130705Y-92112276D01*
X195130705Y-92112276D02*
X195083086Y-92302752D01*
X195083086Y-92302752D02*
X195083086Y-92683704D01*
X195083086Y-92683704D02*
X195130705Y-92778942D01*
X195130705Y-92778942D02*
X195178324Y-92826561D01*
X195178324Y-92826561D02*
X195273562Y-92874180D01*
X195273562Y-92874180D02*
X195464038Y-92874180D01*
X195464038Y-92874180D02*
X195559276Y-92826561D01*
X195559276Y-92826561D02*
X195606895Y-92778942D01*
X195606895Y-92778942D02*
X195654514Y-92683704D01*
X195654514Y-92683704D02*
X195654514Y-92445609D01*
X195654514Y-92445609D02*
X195606895Y-92350371D01*
X195606895Y-92350371D02*
X195559276Y-92302752D01*
X195559276Y-92302752D02*
X195464038Y-92255133D01*
X195464038Y-92255133D02*
X195273562Y-92255133D01*
X195273562Y-92255133D02*
X195178324Y-92302752D01*
X195178324Y-92302752D02*
X195130705Y-92350371D01*
X195130705Y-92350371D02*
X195083086Y-92445609D01*
%TO.C,R1*%
X191222333Y-89394380D02*
X190889000Y-88918190D01*
X190650905Y-89394380D02*
X190650905Y-88394380D01*
X190650905Y-88394380D02*
X191031857Y-88394380D01*
X191031857Y-88394380D02*
X191127095Y-88442000D01*
X191127095Y-88442000D02*
X191174714Y-88489619D01*
X191174714Y-88489619D02*
X191222333Y-88584857D01*
X191222333Y-88584857D02*
X191222333Y-88727714D01*
X191222333Y-88727714D02*
X191174714Y-88822952D01*
X191174714Y-88822952D02*
X191127095Y-88870571D01*
X191127095Y-88870571D02*
X191031857Y-88918190D01*
X191031857Y-88918190D02*
X190650905Y-88918190D01*
X192174714Y-89394380D02*
X191603286Y-89394380D01*
X191889000Y-89394380D02*
X191889000Y-88394380D01*
X191889000Y-88394380D02*
X191793762Y-88537238D01*
X191793762Y-88537238D02*
X191698524Y-88632476D01*
X191698524Y-88632476D02*
X191603286Y-88680095D01*
%TO.C,R8*%
X194702133Y-96887380D02*
X194368800Y-96411190D01*
X194130705Y-96887380D02*
X194130705Y-95887380D01*
X194130705Y-95887380D02*
X194511657Y-95887380D01*
X194511657Y-95887380D02*
X194606895Y-95935000D01*
X194606895Y-95935000D02*
X194654514Y-95982619D01*
X194654514Y-95982619D02*
X194702133Y-96077857D01*
X194702133Y-96077857D02*
X194702133Y-96220714D01*
X194702133Y-96220714D02*
X194654514Y-96315952D01*
X194654514Y-96315952D02*
X194606895Y-96363571D01*
X194606895Y-96363571D02*
X194511657Y-96411190D01*
X194511657Y-96411190D02*
X194130705Y-96411190D01*
X195273562Y-96315952D02*
X195178324Y-96268333D01*
X195178324Y-96268333D02*
X195130705Y-96220714D01*
X195130705Y-96220714D02*
X195083086Y-96125476D01*
X195083086Y-96125476D02*
X195083086Y-96077857D01*
X195083086Y-96077857D02*
X195130705Y-95982619D01*
X195130705Y-95982619D02*
X195178324Y-95935000D01*
X195178324Y-95935000D02*
X195273562Y-95887380D01*
X195273562Y-95887380D02*
X195464038Y-95887380D01*
X195464038Y-95887380D02*
X195559276Y-95935000D01*
X195559276Y-95935000D02*
X195606895Y-95982619D01*
X195606895Y-95982619D02*
X195654514Y-96077857D01*
X195654514Y-96077857D02*
X195654514Y-96125476D01*
X195654514Y-96125476D02*
X195606895Y-96220714D01*
X195606895Y-96220714D02*
X195559276Y-96268333D01*
X195559276Y-96268333D02*
X195464038Y-96315952D01*
X195464038Y-96315952D02*
X195273562Y-96315952D01*
X195273562Y-96315952D02*
X195178324Y-96363571D01*
X195178324Y-96363571D02*
X195130705Y-96411190D01*
X195130705Y-96411190D02*
X195083086Y-96506428D01*
X195083086Y-96506428D02*
X195083086Y-96696904D01*
X195083086Y-96696904D02*
X195130705Y-96792142D01*
X195130705Y-96792142D02*
X195178324Y-96839761D01*
X195178324Y-96839761D02*
X195273562Y-96887380D01*
X195273562Y-96887380D02*
X195464038Y-96887380D01*
X195464038Y-96887380D02*
X195559276Y-96839761D01*
X195559276Y-96839761D02*
X195606895Y-96792142D01*
X195606895Y-96792142D02*
X195654514Y-96696904D01*
X195654514Y-96696904D02*
X195654514Y-96506428D01*
X195654514Y-96506428D02*
X195606895Y-96411190D01*
X195606895Y-96411190D02*
X195559276Y-96363571D01*
X195559276Y-96363571D02*
X195464038Y-96315952D01*
%TO.C,U5*%
X149221595Y-71673880D02*
X149221595Y-72483404D01*
X149221595Y-72483404D02*
X149269214Y-72578642D01*
X149269214Y-72578642D02*
X149316833Y-72626261D01*
X149316833Y-72626261D02*
X149412071Y-72673880D01*
X149412071Y-72673880D02*
X149602547Y-72673880D01*
X149602547Y-72673880D02*
X149697785Y-72626261D01*
X149697785Y-72626261D02*
X149745404Y-72578642D01*
X149745404Y-72578642D02*
X149793023Y-72483404D01*
X149793023Y-72483404D02*
X149793023Y-71673880D01*
X150745404Y-71673880D02*
X150269214Y-71673880D01*
X150269214Y-71673880D02*
X150221595Y-72150071D01*
X150221595Y-72150071D02*
X150269214Y-72102452D01*
X150269214Y-72102452D02*
X150364452Y-72054833D01*
X150364452Y-72054833D02*
X150602547Y-72054833D01*
X150602547Y-72054833D02*
X150697785Y-72102452D01*
X150697785Y-72102452D02*
X150745404Y-72150071D01*
X150745404Y-72150071D02*
X150793023Y-72245309D01*
X150793023Y-72245309D02*
X150793023Y-72483404D01*
X150793023Y-72483404D02*
X150745404Y-72578642D01*
X150745404Y-72578642D02*
X150697785Y-72626261D01*
X150697785Y-72626261D02*
X150602547Y-72673880D01*
X150602547Y-72673880D02*
X150364452Y-72673880D01*
X150364452Y-72673880D02*
X150269214Y-72626261D01*
X150269214Y-72626261D02*
X150221595Y-72578642D01*
%TO.C,C2*%
X192771733Y-83279342D02*
X192724114Y-83326961D01*
X192724114Y-83326961D02*
X192581257Y-83374580D01*
X192581257Y-83374580D02*
X192486019Y-83374580D01*
X192486019Y-83374580D02*
X192343162Y-83326961D01*
X192343162Y-83326961D02*
X192247924Y-83231723D01*
X192247924Y-83231723D02*
X192200305Y-83136485D01*
X192200305Y-83136485D02*
X192152686Y-82946009D01*
X192152686Y-82946009D02*
X192152686Y-82803152D01*
X192152686Y-82803152D02*
X192200305Y-82612676D01*
X192200305Y-82612676D02*
X192247924Y-82517438D01*
X192247924Y-82517438D02*
X192343162Y-82422200D01*
X192343162Y-82422200D02*
X192486019Y-82374580D01*
X192486019Y-82374580D02*
X192581257Y-82374580D01*
X192581257Y-82374580D02*
X192724114Y-82422200D01*
X192724114Y-82422200D02*
X192771733Y-82469819D01*
X193152686Y-82469819D02*
X193200305Y-82422200D01*
X193200305Y-82422200D02*
X193295543Y-82374580D01*
X193295543Y-82374580D02*
X193533638Y-82374580D01*
X193533638Y-82374580D02*
X193628876Y-82422200D01*
X193628876Y-82422200D02*
X193676495Y-82469819D01*
X193676495Y-82469819D02*
X193724114Y-82565057D01*
X193724114Y-82565057D02*
X193724114Y-82660295D01*
X193724114Y-82660295D02*
X193676495Y-82803152D01*
X193676495Y-82803152D02*
X193105067Y-83374580D01*
X193105067Y-83374580D02*
X193724114Y-83374580D01*
%TO.C,C1*%
X207910133Y-83330142D02*
X207862514Y-83377761D01*
X207862514Y-83377761D02*
X207719657Y-83425380D01*
X207719657Y-83425380D02*
X207624419Y-83425380D01*
X207624419Y-83425380D02*
X207481562Y-83377761D01*
X207481562Y-83377761D02*
X207386324Y-83282523D01*
X207386324Y-83282523D02*
X207338705Y-83187285D01*
X207338705Y-83187285D02*
X207291086Y-82996809D01*
X207291086Y-82996809D02*
X207291086Y-82853952D01*
X207291086Y-82853952D02*
X207338705Y-82663476D01*
X207338705Y-82663476D02*
X207386324Y-82568238D01*
X207386324Y-82568238D02*
X207481562Y-82473000D01*
X207481562Y-82473000D02*
X207624419Y-82425380D01*
X207624419Y-82425380D02*
X207719657Y-82425380D01*
X207719657Y-82425380D02*
X207862514Y-82473000D01*
X207862514Y-82473000D02*
X207910133Y-82520619D01*
X208862514Y-83425380D02*
X208291086Y-83425380D01*
X208576800Y-83425380D02*
X208576800Y-82425380D01*
X208576800Y-82425380D02*
X208481562Y-82568238D01*
X208481562Y-82568238D02*
X208386324Y-82663476D01*
X208386324Y-82663476D02*
X208291086Y-82711095D01*
%TO.C,D4*%
X200429905Y-110857380D02*
X200429905Y-109857380D01*
X200429905Y-109857380D02*
X200668000Y-109857380D01*
X200668000Y-109857380D02*
X200810857Y-109905000D01*
X200810857Y-109905000D02*
X200906095Y-110000238D01*
X200906095Y-110000238D02*
X200953714Y-110095476D01*
X200953714Y-110095476D02*
X201001333Y-110285952D01*
X201001333Y-110285952D02*
X201001333Y-110428809D01*
X201001333Y-110428809D02*
X200953714Y-110619285D01*
X200953714Y-110619285D02*
X200906095Y-110714523D01*
X200906095Y-110714523D02*
X200810857Y-110809761D01*
X200810857Y-110809761D02*
X200668000Y-110857380D01*
X200668000Y-110857380D02*
X200429905Y-110857380D01*
X201858476Y-110190714D02*
X201858476Y-110857380D01*
X201620381Y-109809761D02*
X201382286Y-110524047D01*
X201382286Y-110524047D02*
X202001333Y-110524047D01*
%TO.C,D2*%
X194079905Y-110603380D02*
X194079905Y-109603380D01*
X194079905Y-109603380D02*
X194318000Y-109603380D01*
X194318000Y-109603380D02*
X194460857Y-109651000D01*
X194460857Y-109651000D02*
X194556095Y-109746238D01*
X194556095Y-109746238D02*
X194603714Y-109841476D01*
X194603714Y-109841476D02*
X194651333Y-110031952D01*
X194651333Y-110031952D02*
X194651333Y-110174809D01*
X194651333Y-110174809D02*
X194603714Y-110365285D01*
X194603714Y-110365285D02*
X194556095Y-110460523D01*
X194556095Y-110460523D02*
X194460857Y-110555761D01*
X194460857Y-110555761D02*
X194318000Y-110603380D01*
X194318000Y-110603380D02*
X194079905Y-110603380D01*
X195032286Y-109698619D02*
X195079905Y-109651000D01*
X195079905Y-109651000D02*
X195175143Y-109603380D01*
X195175143Y-109603380D02*
X195413238Y-109603380D01*
X195413238Y-109603380D02*
X195508476Y-109651000D01*
X195508476Y-109651000D02*
X195556095Y-109698619D01*
X195556095Y-109698619D02*
X195603714Y-109793857D01*
X195603714Y-109793857D02*
X195603714Y-109889095D01*
X195603714Y-109889095D02*
X195556095Y-110031952D01*
X195556095Y-110031952D02*
X194984667Y-110603380D01*
X194984667Y-110603380D02*
X195603714Y-110603380D01*
%TO.C,D3*%
X203477905Y-110730380D02*
X203477905Y-109730380D01*
X203477905Y-109730380D02*
X203716000Y-109730380D01*
X203716000Y-109730380D02*
X203858857Y-109778000D01*
X203858857Y-109778000D02*
X203954095Y-109873238D01*
X203954095Y-109873238D02*
X204001714Y-109968476D01*
X204001714Y-109968476D02*
X204049333Y-110158952D01*
X204049333Y-110158952D02*
X204049333Y-110301809D01*
X204049333Y-110301809D02*
X204001714Y-110492285D01*
X204001714Y-110492285D02*
X203954095Y-110587523D01*
X203954095Y-110587523D02*
X203858857Y-110682761D01*
X203858857Y-110682761D02*
X203716000Y-110730380D01*
X203716000Y-110730380D02*
X203477905Y-110730380D01*
X204382667Y-109730380D02*
X205001714Y-109730380D01*
X205001714Y-109730380D02*
X204668381Y-110111333D01*
X204668381Y-110111333D02*
X204811238Y-110111333D01*
X204811238Y-110111333D02*
X204906476Y-110158952D01*
X204906476Y-110158952D02*
X204954095Y-110206571D01*
X204954095Y-110206571D02*
X205001714Y-110301809D01*
X205001714Y-110301809D02*
X205001714Y-110539904D01*
X205001714Y-110539904D02*
X204954095Y-110635142D01*
X204954095Y-110635142D02*
X204906476Y-110682761D01*
X204906476Y-110682761D02*
X204811238Y-110730380D01*
X204811238Y-110730380D02*
X204525524Y-110730380D01*
X204525524Y-110730380D02*
X204430286Y-110682761D01*
X204430286Y-110682761D02*
X204382667Y-110635142D01*
%TO.C,R4*%
X200137380Y-102401666D02*
X199661190Y-102734999D01*
X200137380Y-102973094D02*
X199137380Y-102973094D01*
X199137380Y-102973094D02*
X199137380Y-102592142D01*
X199137380Y-102592142D02*
X199185000Y-102496904D01*
X199185000Y-102496904D02*
X199232619Y-102449285D01*
X199232619Y-102449285D02*
X199327857Y-102401666D01*
X199327857Y-102401666D02*
X199470714Y-102401666D01*
X199470714Y-102401666D02*
X199565952Y-102449285D01*
X199565952Y-102449285D02*
X199613571Y-102496904D01*
X199613571Y-102496904D02*
X199661190Y-102592142D01*
X199661190Y-102592142D02*
X199661190Y-102973094D01*
X199470714Y-101544523D02*
X200137380Y-101544523D01*
X199089761Y-101782618D02*
X199804047Y-102020713D01*
X199804047Y-102020713D02*
X199804047Y-101401666D01*
%TO.C,R2*%
X206107380Y-102401666D02*
X205631190Y-102734999D01*
X206107380Y-102973094D02*
X205107380Y-102973094D01*
X205107380Y-102973094D02*
X205107380Y-102592142D01*
X205107380Y-102592142D02*
X205155000Y-102496904D01*
X205155000Y-102496904D02*
X205202619Y-102449285D01*
X205202619Y-102449285D02*
X205297857Y-102401666D01*
X205297857Y-102401666D02*
X205440714Y-102401666D01*
X205440714Y-102401666D02*
X205535952Y-102449285D01*
X205535952Y-102449285D02*
X205583571Y-102496904D01*
X205583571Y-102496904D02*
X205631190Y-102592142D01*
X205631190Y-102592142D02*
X205631190Y-102973094D01*
X205202619Y-102020713D02*
X205155000Y-101973094D01*
X205155000Y-101973094D02*
X205107380Y-101877856D01*
X205107380Y-101877856D02*
X205107380Y-101639761D01*
X205107380Y-101639761D02*
X205155000Y-101544523D01*
X205155000Y-101544523D02*
X205202619Y-101496904D01*
X205202619Y-101496904D02*
X205297857Y-101449285D01*
X205297857Y-101449285D02*
X205393095Y-101449285D01*
X205393095Y-101449285D02*
X205535952Y-101496904D01*
X205535952Y-101496904D02*
X206107380Y-102068332D01*
X206107380Y-102068332D02*
X206107380Y-101449285D01*
%TO.C,U4*%
X149094595Y-85643880D02*
X149094595Y-86453404D01*
X149094595Y-86453404D02*
X149142214Y-86548642D01*
X149142214Y-86548642D02*
X149189833Y-86596261D01*
X149189833Y-86596261D02*
X149285071Y-86643880D01*
X149285071Y-86643880D02*
X149475547Y-86643880D01*
X149475547Y-86643880D02*
X149570785Y-86596261D01*
X149570785Y-86596261D02*
X149618404Y-86548642D01*
X149618404Y-86548642D02*
X149666023Y-86453404D01*
X149666023Y-86453404D02*
X149666023Y-85643880D01*
X150570785Y-85977214D02*
X150570785Y-86643880D01*
X150332690Y-85596261D02*
X150094595Y-86310547D01*
X150094595Y-86310547D02*
X150713642Y-86310547D01*
%TO.C,U2*%
X149221595Y-57576880D02*
X149221595Y-58386404D01*
X149221595Y-58386404D02*
X149269214Y-58481642D01*
X149269214Y-58481642D02*
X149316833Y-58529261D01*
X149316833Y-58529261D02*
X149412071Y-58576880D01*
X149412071Y-58576880D02*
X149602547Y-58576880D01*
X149602547Y-58576880D02*
X149697785Y-58529261D01*
X149697785Y-58529261D02*
X149745404Y-58481642D01*
X149745404Y-58481642D02*
X149793023Y-58386404D01*
X149793023Y-58386404D02*
X149793023Y-57576880D01*
X150221595Y-57672119D02*
X150269214Y-57624500D01*
X150269214Y-57624500D02*
X150364452Y-57576880D01*
X150364452Y-57576880D02*
X150602547Y-57576880D01*
X150602547Y-57576880D02*
X150697785Y-57624500D01*
X150697785Y-57624500D02*
X150745404Y-57672119D01*
X150745404Y-57672119D02*
X150793023Y-57767357D01*
X150793023Y-57767357D02*
X150793023Y-57862595D01*
X150793023Y-57862595D02*
X150745404Y-58005452D01*
X150745404Y-58005452D02*
X150173976Y-58576880D01*
X150173976Y-58576880D02*
X150793023Y-58576880D01*
%TO.C,J5*%
X132305466Y-99392580D02*
X132305466Y-100106866D01*
X132305466Y-100106866D02*
X132257847Y-100249723D01*
X132257847Y-100249723D02*
X132162609Y-100344961D01*
X132162609Y-100344961D02*
X132019752Y-100392580D01*
X132019752Y-100392580D02*
X131924514Y-100392580D01*
X133257847Y-99392580D02*
X132781657Y-99392580D01*
X132781657Y-99392580D02*
X132734038Y-99868771D01*
X132734038Y-99868771D02*
X132781657Y-99821152D01*
X132781657Y-99821152D02*
X132876895Y-99773533D01*
X132876895Y-99773533D02*
X133114990Y-99773533D01*
X133114990Y-99773533D02*
X133210228Y-99821152D01*
X133210228Y-99821152D02*
X133257847Y-99868771D01*
X133257847Y-99868771D02*
X133305466Y-99964009D01*
X133305466Y-99964009D02*
X133305466Y-100202104D01*
X133305466Y-100202104D02*
X133257847Y-100297342D01*
X133257847Y-100297342D02*
X133210228Y-100344961D01*
X133210228Y-100344961D02*
X133114990Y-100392580D01*
X133114990Y-100392580D02*
X132876895Y-100392580D01*
X132876895Y-100392580D02*
X132781657Y-100344961D01*
X132781657Y-100344961D02*
X132734038Y-100297342D01*
%TO.C,J6*%
X132508666Y-82171380D02*
X132508666Y-82885666D01*
X132508666Y-82885666D02*
X132461047Y-83028523D01*
X132461047Y-83028523D02*
X132365809Y-83123761D01*
X132365809Y-83123761D02*
X132222952Y-83171380D01*
X132222952Y-83171380D02*
X132127714Y-83171380D01*
X133413428Y-82171380D02*
X133222952Y-82171380D01*
X133222952Y-82171380D02*
X133127714Y-82219000D01*
X133127714Y-82219000D02*
X133080095Y-82266619D01*
X133080095Y-82266619D02*
X132984857Y-82409476D01*
X132984857Y-82409476D02*
X132937238Y-82599952D01*
X132937238Y-82599952D02*
X132937238Y-82980904D01*
X132937238Y-82980904D02*
X132984857Y-83076142D01*
X132984857Y-83076142D02*
X133032476Y-83123761D01*
X133032476Y-83123761D02*
X133127714Y-83171380D01*
X133127714Y-83171380D02*
X133318190Y-83171380D01*
X133318190Y-83171380D02*
X133413428Y-83123761D01*
X133413428Y-83123761D02*
X133461047Y-83076142D01*
X133461047Y-83076142D02*
X133508666Y-82980904D01*
X133508666Y-82980904D02*
X133508666Y-82742809D01*
X133508666Y-82742809D02*
X133461047Y-82647571D01*
X133461047Y-82647571D02*
X133413428Y-82599952D01*
X133413428Y-82599952D02*
X133318190Y-82552333D01*
X133318190Y-82552333D02*
X133127714Y-82552333D01*
X133127714Y-82552333D02*
X133032476Y-82599952D01*
X133032476Y-82599952D02*
X132984857Y-82647571D01*
X132984857Y-82647571D02*
X132937238Y-82742809D01*
%TO.C,U3*%
X149094595Y-99867880D02*
X149094595Y-100677404D01*
X149094595Y-100677404D02*
X149142214Y-100772642D01*
X149142214Y-100772642D02*
X149189833Y-100820261D01*
X149189833Y-100820261D02*
X149285071Y-100867880D01*
X149285071Y-100867880D02*
X149475547Y-100867880D01*
X149475547Y-100867880D02*
X149570785Y-100820261D01*
X149570785Y-100820261D02*
X149618404Y-100772642D01*
X149618404Y-100772642D02*
X149666023Y-100677404D01*
X149666023Y-100677404D02*
X149666023Y-99867880D01*
X150046976Y-99867880D02*
X150666023Y-99867880D01*
X150666023Y-99867880D02*
X150332690Y-100248833D01*
X150332690Y-100248833D02*
X150475547Y-100248833D01*
X150475547Y-100248833D02*
X150570785Y-100296452D01*
X150570785Y-100296452D02*
X150618404Y-100344071D01*
X150618404Y-100344071D02*
X150666023Y-100439309D01*
X150666023Y-100439309D02*
X150666023Y-100677404D01*
X150666023Y-100677404D02*
X150618404Y-100772642D01*
X150618404Y-100772642D02*
X150570785Y-100820261D01*
X150570785Y-100820261D02*
X150475547Y-100867880D01*
X150475547Y-100867880D02*
X150189833Y-100867880D01*
X150189833Y-100867880D02*
X150094595Y-100820261D01*
X150094595Y-100820261D02*
X150046976Y-100772642D01*
%TO.C,C3*%
X208113333Y-91331142D02*
X208065714Y-91378761D01*
X208065714Y-91378761D02*
X207922857Y-91426380D01*
X207922857Y-91426380D02*
X207827619Y-91426380D01*
X207827619Y-91426380D02*
X207684762Y-91378761D01*
X207684762Y-91378761D02*
X207589524Y-91283523D01*
X207589524Y-91283523D02*
X207541905Y-91188285D01*
X207541905Y-91188285D02*
X207494286Y-90997809D01*
X207494286Y-90997809D02*
X207494286Y-90854952D01*
X207494286Y-90854952D02*
X207541905Y-90664476D01*
X207541905Y-90664476D02*
X207589524Y-90569238D01*
X207589524Y-90569238D02*
X207684762Y-90474000D01*
X207684762Y-90474000D02*
X207827619Y-90426380D01*
X207827619Y-90426380D02*
X207922857Y-90426380D01*
X207922857Y-90426380D02*
X208065714Y-90474000D01*
X208065714Y-90474000D02*
X208113333Y-90521619D01*
X208446667Y-90426380D02*
X209065714Y-90426380D01*
X209065714Y-90426380D02*
X208732381Y-90807333D01*
X208732381Y-90807333D02*
X208875238Y-90807333D01*
X208875238Y-90807333D02*
X208970476Y-90854952D01*
X208970476Y-90854952D02*
X209018095Y-90902571D01*
X209018095Y-90902571D02*
X209065714Y-90997809D01*
X209065714Y-90997809D02*
X209065714Y-91235904D01*
X209065714Y-91235904D02*
X209018095Y-91331142D01*
X209018095Y-91331142D02*
X208970476Y-91378761D01*
X208970476Y-91378761D02*
X208875238Y-91426380D01*
X208875238Y-91426380D02*
X208589524Y-91426380D01*
X208589524Y-91426380D02*
X208494286Y-91378761D01*
X208494286Y-91378761D02*
X208446667Y-91331142D01*
%TO.C,U1*%
X199390095Y-87171780D02*
X199390095Y-87981304D01*
X199390095Y-87981304D02*
X199437714Y-88076542D01*
X199437714Y-88076542D02*
X199485333Y-88124161D01*
X199485333Y-88124161D02*
X199580571Y-88171780D01*
X199580571Y-88171780D02*
X199771047Y-88171780D01*
X199771047Y-88171780D02*
X199866285Y-88124161D01*
X199866285Y-88124161D02*
X199913904Y-88076542D01*
X199913904Y-88076542D02*
X199961523Y-87981304D01*
X199961523Y-87981304D02*
X199961523Y-87171780D01*
X200961523Y-88171780D02*
X200390095Y-88171780D01*
X200675809Y-88171780D02*
X200675809Y-87171780D01*
X200675809Y-87171780D02*
X200580571Y-87314638D01*
X200580571Y-87314638D02*
X200485333Y-87409876D01*
X200485333Y-87409876D02*
X200390095Y-87457495D01*
%TO.C,J2*%
X187019666Y-115684380D02*
X187019666Y-116398666D01*
X187019666Y-116398666D02*
X186972047Y-116541523D01*
X186972047Y-116541523D02*
X186876809Y-116636761D01*
X186876809Y-116636761D02*
X186733952Y-116684380D01*
X186733952Y-116684380D02*
X186638714Y-116684380D01*
X187448238Y-115779619D02*
X187495857Y-115732000D01*
X187495857Y-115732000D02*
X187591095Y-115684380D01*
X187591095Y-115684380D02*
X187829190Y-115684380D01*
X187829190Y-115684380D02*
X187924428Y-115732000D01*
X187924428Y-115732000D02*
X187972047Y-115779619D01*
X187972047Y-115779619D02*
X188019666Y-115874857D01*
X188019666Y-115874857D02*
X188019666Y-115970095D01*
X188019666Y-115970095D02*
X187972047Y-116112952D01*
X187972047Y-116112952D02*
X187400619Y-116684380D01*
X187400619Y-116684380D02*
X188019666Y-116684380D01*
%TO.C,R9*%
X194498933Y-94804580D02*
X194165600Y-94328390D01*
X193927505Y-94804580D02*
X193927505Y-93804580D01*
X193927505Y-93804580D02*
X194308457Y-93804580D01*
X194308457Y-93804580D02*
X194403695Y-93852200D01*
X194403695Y-93852200D02*
X194451314Y-93899819D01*
X194451314Y-93899819D02*
X194498933Y-93995057D01*
X194498933Y-93995057D02*
X194498933Y-94137914D01*
X194498933Y-94137914D02*
X194451314Y-94233152D01*
X194451314Y-94233152D02*
X194403695Y-94280771D01*
X194403695Y-94280771D02*
X194308457Y-94328390D01*
X194308457Y-94328390D02*
X193927505Y-94328390D01*
X194975124Y-94804580D02*
X195165600Y-94804580D01*
X195165600Y-94804580D02*
X195260838Y-94756961D01*
X195260838Y-94756961D02*
X195308457Y-94709342D01*
X195308457Y-94709342D02*
X195403695Y-94566485D01*
X195403695Y-94566485D02*
X195451314Y-94376009D01*
X195451314Y-94376009D02*
X195451314Y-93995057D01*
X195451314Y-93995057D02*
X195403695Y-93899819D01*
X195403695Y-93899819D02*
X195356076Y-93852200D01*
X195356076Y-93852200D02*
X195260838Y-93804580D01*
X195260838Y-93804580D02*
X195070362Y-93804580D01*
X195070362Y-93804580D02*
X194975124Y-93852200D01*
X194975124Y-93852200D02*
X194927505Y-93899819D01*
X194927505Y-93899819D02*
X194879886Y-93995057D01*
X194879886Y-93995057D02*
X194879886Y-94233152D01*
X194879886Y-94233152D02*
X194927505Y-94328390D01*
X194927505Y-94328390D02*
X194975124Y-94376009D01*
X194975124Y-94376009D02*
X195070362Y-94423628D01*
X195070362Y-94423628D02*
X195260838Y-94423628D01*
X195260838Y-94423628D02*
X195356076Y-94376009D01*
X195356076Y-94376009D02*
X195403695Y-94328390D01*
X195403695Y-94328390D02*
X195451314Y-94233152D01*
%TO.C,R7*%
X194752933Y-98919380D02*
X194419600Y-98443190D01*
X194181505Y-98919380D02*
X194181505Y-97919380D01*
X194181505Y-97919380D02*
X194562457Y-97919380D01*
X194562457Y-97919380D02*
X194657695Y-97967000D01*
X194657695Y-97967000D02*
X194705314Y-98014619D01*
X194705314Y-98014619D02*
X194752933Y-98109857D01*
X194752933Y-98109857D02*
X194752933Y-98252714D01*
X194752933Y-98252714D02*
X194705314Y-98347952D01*
X194705314Y-98347952D02*
X194657695Y-98395571D01*
X194657695Y-98395571D02*
X194562457Y-98443190D01*
X194562457Y-98443190D02*
X194181505Y-98443190D01*
X195086267Y-97919380D02*
X195752933Y-97919380D01*
X195752933Y-97919380D02*
X195324362Y-98919380D01*
%TO.C,R3*%
X203058380Y-102401666D02*
X202582190Y-102734999D01*
X203058380Y-102973094D02*
X202058380Y-102973094D01*
X202058380Y-102973094D02*
X202058380Y-102592142D01*
X202058380Y-102592142D02*
X202106000Y-102496904D01*
X202106000Y-102496904D02*
X202153619Y-102449285D01*
X202153619Y-102449285D02*
X202248857Y-102401666D01*
X202248857Y-102401666D02*
X202391714Y-102401666D01*
X202391714Y-102401666D02*
X202486952Y-102449285D01*
X202486952Y-102449285D02*
X202534571Y-102496904D01*
X202534571Y-102496904D02*
X202582190Y-102592142D01*
X202582190Y-102592142D02*
X202582190Y-102973094D01*
X202058380Y-102068332D02*
X202058380Y-101449285D01*
X202058380Y-101449285D02*
X202439333Y-101782618D01*
X202439333Y-101782618D02*
X202439333Y-101639761D01*
X202439333Y-101639761D02*
X202486952Y-101544523D01*
X202486952Y-101544523D02*
X202534571Y-101496904D01*
X202534571Y-101496904D02*
X202629809Y-101449285D01*
X202629809Y-101449285D02*
X202867904Y-101449285D01*
X202867904Y-101449285D02*
X202963142Y-101496904D01*
X202963142Y-101496904D02*
X203010761Y-101544523D01*
X203010761Y-101544523D02*
X203058380Y-101639761D01*
X203058380Y-101639761D02*
X203058380Y-101925475D01*
X203058380Y-101925475D02*
X203010761Y-102020713D01*
X203010761Y-102020713D02*
X202963142Y-102068332D01*
%TO.C,D1*%
X197508905Y-110730380D02*
X197508905Y-109730380D01*
X197508905Y-109730380D02*
X197747000Y-109730380D01*
X197747000Y-109730380D02*
X197889857Y-109778000D01*
X197889857Y-109778000D02*
X197985095Y-109873238D01*
X197985095Y-109873238D02*
X198032714Y-109968476D01*
X198032714Y-109968476D02*
X198080333Y-110158952D01*
X198080333Y-110158952D02*
X198080333Y-110301809D01*
X198080333Y-110301809D02*
X198032714Y-110492285D01*
X198032714Y-110492285D02*
X197985095Y-110587523D01*
X197985095Y-110587523D02*
X197889857Y-110682761D01*
X197889857Y-110682761D02*
X197747000Y-110730380D01*
X197747000Y-110730380D02*
X197508905Y-110730380D01*
X199032714Y-110730380D02*
X198461286Y-110730380D01*
X198747000Y-110730380D02*
X198747000Y-109730380D01*
X198747000Y-109730380D02*
X198651762Y-109873238D01*
X198651762Y-109873238D02*
X198556524Y-109968476D01*
X198556524Y-109968476D02*
X198461286Y-110016095D01*
%TO.C,R5*%
X196835380Y-102401666D02*
X196359190Y-102734999D01*
X196835380Y-102973094D02*
X195835380Y-102973094D01*
X195835380Y-102973094D02*
X195835380Y-102592142D01*
X195835380Y-102592142D02*
X195883000Y-102496904D01*
X195883000Y-102496904D02*
X195930619Y-102449285D01*
X195930619Y-102449285D02*
X196025857Y-102401666D01*
X196025857Y-102401666D02*
X196168714Y-102401666D01*
X196168714Y-102401666D02*
X196263952Y-102449285D01*
X196263952Y-102449285D02*
X196311571Y-102496904D01*
X196311571Y-102496904D02*
X196359190Y-102592142D01*
X196359190Y-102592142D02*
X196359190Y-102973094D01*
X195835380Y-101496904D02*
X195835380Y-101973094D01*
X195835380Y-101973094D02*
X196311571Y-102020713D01*
X196311571Y-102020713D02*
X196263952Y-101973094D01*
X196263952Y-101973094D02*
X196216333Y-101877856D01*
X196216333Y-101877856D02*
X196216333Y-101639761D01*
X196216333Y-101639761D02*
X196263952Y-101544523D01*
X196263952Y-101544523D02*
X196311571Y-101496904D01*
X196311571Y-101496904D02*
X196406809Y-101449285D01*
X196406809Y-101449285D02*
X196644904Y-101449285D01*
X196644904Y-101449285D02*
X196740142Y-101496904D01*
X196740142Y-101496904D02*
X196787761Y-101544523D01*
X196787761Y-101544523D02*
X196835380Y-101639761D01*
X196835380Y-101639761D02*
X196835380Y-101877856D01*
X196835380Y-101877856D02*
X196787761Y-101973094D01*
X196787761Y-101973094D02*
X196740142Y-102020713D01*
%TO.C,Y1*%
X195865809Y-81299990D02*
X195865809Y-81776180D01*
X195532476Y-80776180D02*
X195865809Y-81299990D01*
X195865809Y-81299990D02*
X196199142Y-80776180D01*
X197056285Y-81776180D02*
X196484857Y-81776180D01*
X196770571Y-81776180D02*
X196770571Y-80776180D01*
X196770571Y-80776180D02*
X196675333Y-80919038D01*
X196675333Y-80919038D02*
X196580095Y-81014276D01*
X196580095Y-81014276D02*
X196484857Y-81061895D01*
X199193352Y-81729180D02*
X198621924Y-81729180D01*
X198907638Y-81729180D02*
X198907638Y-80729180D01*
X198907638Y-80729180D02*
X198812400Y-80872038D01*
X198812400Y-80872038D02*
X198717162Y-80967276D01*
X198717162Y-80967276D02*
X198621924Y-81014895D01*
X199574305Y-80824419D02*
X199621924Y-80776800D01*
X199621924Y-80776800D02*
X199717162Y-80729180D01*
X199717162Y-80729180D02*
X199955257Y-80729180D01*
X199955257Y-80729180D02*
X200050495Y-80776800D01*
X200050495Y-80776800D02*
X200098114Y-80824419D01*
X200098114Y-80824419D02*
X200145733Y-80919657D01*
X200145733Y-80919657D02*
X200145733Y-81014895D01*
X200145733Y-81014895D02*
X200098114Y-81157752D01*
X200098114Y-81157752D02*
X199526686Y-81729180D01*
X199526686Y-81729180D02*
X200145733Y-81729180D01*
X200574305Y-81729180D02*
X200574305Y-80729180D01*
X200574305Y-80729180D02*
X200907638Y-81443466D01*
X200907638Y-81443466D02*
X201240971Y-80729180D01*
X201240971Y-80729180D02*
X201240971Y-81729180D01*
X201717162Y-81729180D02*
X201717162Y-80729180D01*
X202145733Y-81729180D02*
X202145733Y-81205371D01*
X202145733Y-81205371D02*
X202098114Y-81110133D01*
X202098114Y-81110133D02*
X202002876Y-81062514D01*
X202002876Y-81062514D02*
X201860019Y-81062514D01*
X201860019Y-81062514D02*
X201764781Y-81110133D01*
X201764781Y-81110133D02*
X201717162Y-81157752D01*
X202526686Y-81062514D02*
X203050495Y-81062514D01*
X203050495Y-81062514D02*
X202526686Y-81729180D01*
X202526686Y-81729180D02*
X203050495Y-81729180D01*
%TO.C,J3*%
X132407066Y-64772380D02*
X132407066Y-65486666D01*
X132407066Y-65486666D02*
X132359447Y-65629523D01*
X132359447Y-65629523D02*
X132264209Y-65724761D01*
X132264209Y-65724761D02*
X132121352Y-65772380D01*
X132121352Y-65772380D02*
X132026114Y-65772380D01*
X132788019Y-64772380D02*
X133407066Y-64772380D01*
X133407066Y-64772380D02*
X133073733Y-65153333D01*
X133073733Y-65153333D02*
X133216590Y-65153333D01*
X133216590Y-65153333D02*
X133311828Y-65200952D01*
X133311828Y-65200952D02*
X133359447Y-65248571D01*
X133359447Y-65248571D02*
X133407066Y-65343809D01*
X133407066Y-65343809D02*
X133407066Y-65581904D01*
X133407066Y-65581904D02*
X133359447Y-65677142D01*
X133359447Y-65677142D02*
X133311828Y-65724761D01*
X133311828Y-65724761D02*
X133216590Y-65772380D01*
X133216590Y-65772380D02*
X132930876Y-65772380D01*
X132930876Y-65772380D02*
X132835638Y-65724761D01*
X132835638Y-65724761D02*
X132788019Y-65677142D01*
D12*
%TO.C,C4*%
X209190000Y-98143748D02*
X209190000Y-99566252D01*
X207370000Y-98143748D02*
X207370000Y-99566252D01*
%TO.C,J4*%
X133988500Y-125085000D02*
X142808500Y-125085000D01*
X134798500Y-125085000D02*
X134798500Y-122335000D01*
X142808500Y-125085000D02*
X142808500Y-109865000D01*
X135798500Y-124175000D02*
X135798500Y-110775000D01*
X141098500Y-124175000D02*
X135798500Y-124175000D01*
X141098500Y-123225000D02*
X141098500Y-124175000D01*
X133988500Y-122225000D02*
X133988500Y-120225000D01*
X135798500Y-122225000D02*
X133988500Y-122225000D01*
X133188500Y-121525000D02*
X133188500Y-120925000D01*
X133788500Y-121225000D02*
X133188500Y-121525000D01*
X133188500Y-120925000D02*
X133788500Y-121225000D01*
X133988500Y-120225000D02*
X135798500Y-120225000D01*
X134798500Y-120225000D02*
X134798500Y-114725000D01*
X135798500Y-120225000D02*
X135798500Y-122225000D01*
X141098500Y-119225000D02*
X141098500Y-115725000D01*
X133988500Y-114725000D02*
X133988500Y-112725000D01*
X135798500Y-114725000D02*
X133988500Y-114725000D01*
X133988500Y-112725000D02*
X135798500Y-112725000D01*
X135798500Y-112725000D02*
X135798500Y-114725000D01*
X135798500Y-110775000D02*
X141098500Y-110775000D01*
X141098500Y-110775000D02*
X141098500Y-111725000D01*
X133988500Y-109865000D02*
X133988500Y-125085000D01*
X134798500Y-109865000D02*
X134798500Y-112615000D01*
X142808500Y-109865000D02*
X133988500Y-109865000D01*
X141098500Y-123225000D02*
G75*
G03*
X141114321Y-119238158I-1650000J2000000D01*
G01*
X141098500Y-115725000D02*
G75*
G03*
X141114321Y-111738158I-1650000J2000000D01*
G01*
%TO.C,J7*%
X209246900Y-89385200D02*
X209246900Y-90385200D01*
X209246900Y-90385200D02*
X209746900Y-89885200D01*
X209746900Y-89885200D02*
X209246900Y-89385200D01*
X209946900Y-85025200D02*
X213696900Y-85025200D01*
X209946900Y-97245200D02*
X209946900Y-85025200D01*
X209946900Y-97245200D02*
X213696900Y-97245200D01*
X226566900Y-85025200D02*
X218596900Y-85025200D01*
X226566900Y-97245200D02*
X218596900Y-97245200D01*
X226566900Y-97245200D02*
X226566900Y-85025200D01*
D11*
%TO.C,USB-Relay*%
X198577200Y-69400420D02*
X198577200Y-69850000D01*
X198577200Y-69850000D02*
X198727060Y-70251320D01*
X198727060Y-70251320D02*
X199026780Y-70401180D01*
X198777860Y-69001640D02*
X198577200Y-69400420D01*
X199026780Y-70401180D02*
X199428100Y-70401180D01*
X199227440Y-68851780D02*
X198777860Y-69001640D01*
X199428100Y-68950840D02*
X199227440Y-68851780D01*
X199428100Y-70401180D02*
X199478900Y-69850000D01*
X199478900Y-69850000D02*
X199227440Y-69750940D01*
X200177400Y-68900040D02*
X201028300Y-70401180D01*
X200177400Y-70451980D02*
X200177400Y-68900040D01*
X200228200Y-61899800D02*
X200527920Y-62801500D01*
X200279000Y-61749940D02*
X201576940Y-61401960D01*
X200327260Y-61201300D02*
X200228200Y-61899800D01*
X200378060Y-62202060D02*
X200279000Y-61749940D01*
X200428860Y-61150500D02*
X201678540Y-60751720D01*
X200527920Y-62801500D02*
X201079100Y-63301880D01*
X200728580Y-62849760D02*
X201427080Y-61551820D01*
X200776840Y-60401200D02*
X200327260Y-61201300D01*
X201028300Y-70401180D02*
X201028300Y-68900040D01*
X201079100Y-63301880D02*
X201726800Y-63550800D01*
X201178160Y-60251340D02*
X202227180Y-60500260D01*
X201228960Y-63200280D02*
X201678540Y-62049660D01*
X201378820Y-59999880D02*
X200776840Y-60401200D01*
X201427080Y-61551820D02*
X200378060Y-62202060D01*
X201477880Y-64650620D02*
X202877420Y-64101980D01*
X201528680Y-61600080D02*
X201627740Y-60949840D01*
X201576940Y-61401960D02*
X200428860Y-61150500D01*
X201627740Y-60949840D02*
X201927460Y-60700920D01*
X201678540Y-60751720D02*
X201178160Y-60251340D01*
X201678540Y-62049660D02*
X200728580Y-62849760D01*
X201726800Y-59850020D02*
X201378820Y-59999880D01*
X201726800Y-62100460D02*
X201528680Y-61600080D01*
X201726800Y-63550800D02*
X202478640Y-62351920D01*
X201726800Y-68900040D02*
X201726800Y-70050660D01*
X201726800Y-70050660D02*
X201879200Y-70299580D01*
X201879200Y-70299580D02*
X202227180Y-70451980D01*
X201927460Y-60700920D02*
X202377040Y-60551060D01*
X201978260Y-63301880D02*
X201978260Y-63901320D01*
X201978260Y-63901320D02*
X201477880Y-64650620D01*
X202128120Y-59801760D02*
X201726800Y-59850020D01*
X202178920Y-59850020D02*
X203278740Y-60350400D01*
X202178920Y-62250320D02*
X201726800Y-62100460D01*
X202227180Y-60500260D02*
X202178920Y-59850020D01*
X202227180Y-62400180D02*
X201228960Y-63200280D01*
X202227180Y-64899540D02*
X202227180Y-64401700D01*
X202227180Y-65399920D02*
X202227180Y-64899540D01*
X202227180Y-70451980D02*
X202526900Y-70299580D01*
X202277980Y-65801240D02*
X202227180Y-65399920D01*
X202328780Y-66200020D02*
X202277980Y-65801240D01*
X202377040Y-60551060D02*
X203027280Y-60401200D01*
X202427840Y-66601340D02*
X202328780Y-66200020D01*
X202478640Y-62351920D02*
X203177140Y-61701680D01*
X202478640Y-66901060D02*
X202427840Y-66601340D01*
X202526900Y-61851540D02*
X202178920Y-62250320D01*
X202526900Y-70299580D02*
X202628500Y-69999860D01*
X202628500Y-69999860D02*
X202628500Y-68900040D01*
X202727560Y-67149980D02*
X202478640Y-66901060D01*
X202778360Y-64401700D02*
X203078080Y-64851280D01*
X202877420Y-64101980D02*
X203377800Y-63751460D01*
X202877420Y-67350640D02*
X202727560Y-67149980D01*
X202928220Y-62001400D02*
X203428600Y-61701680D01*
X202979020Y-61401960D02*
X202526900Y-61851540D01*
X202979020Y-65300860D02*
X203428600Y-65600580D01*
X203027280Y-60401200D02*
X203377800Y-60452000D01*
X203078080Y-59951620D02*
X202128120Y-59801760D01*
X203078080Y-64851280D02*
X202979020Y-65300860D01*
X203128880Y-67551300D02*
X202877420Y-67350640D01*
X203177140Y-61701680D02*
X203779120Y-61249560D01*
X203227940Y-66250820D02*
X203779120Y-66649600D01*
X203227940Y-67551300D02*
X203428600Y-67500500D01*
X203377800Y-60452000D02*
X203928980Y-60200540D01*
X203377800Y-63751460D02*
X203527660Y-62801500D01*
X203428600Y-61701680D02*
X204177900Y-61351160D01*
X203428600Y-65600580D02*
X203227940Y-66250820D01*
X203527660Y-62801500D02*
X204127100Y-62250320D01*
X203578460Y-61000640D02*
X202979020Y-61401960D01*
X203578460Y-67350640D02*
X204127100Y-67800220D01*
X203728320Y-59999880D02*
X203078080Y-59951620D01*
X203779120Y-61249560D02*
X204327760Y-61201300D01*
X203779120Y-66649600D02*
X203578460Y-67350640D01*
X203928980Y-60200540D02*
X204127100Y-59850020D01*
X203977240Y-63101220D02*
X204177900Y-63350140D01*
X203977240Y-68701920D02*
X204327760Y-69049900D01*
X204078840Y-60949840D02*
X203578460Y-61000640D01*
X204078840Y-67901820D02*
X204276960Y-68300600D01*
X204127100Y-59850020D02*
X203728320Y-59999880D01*
X204127100Y-64650620D02*
X203827380Y-64599820D01*
X204177900Y-61351160D02*
X204528420Y-61351160D01*
X204177900Y-63350140D02*
X204579220Y-63350140D01*
X204228700Y-62849760D02*
X203977240Y-63101220D01*
X204276960Y-64899540D02*
X204127100Y-64650620D01*
X204276960Y-68300600D02*
X204378560Y-68600320D01*
X204276960Y-69349620D02*
X204327760Y-69502020D01*
X204327760Y-61201300D02*
X204777340Y-61401960D01*
X204327760Y-69049900D02*
X204276960Y-69349620D01*
X204378560Y-68600320D02*
X203977240Y-68701920D01*
X204378560Y-69550280D02*
X204327760Y-69651880D01*
X204426820Y-65399920D02*
X204276960Y-64899540D01*
X204579220Y-61051440D02*
X204078840Y-60949840D01*
X204579220Y-63350140D02*
X204978000Y-63152020D01*
X204627480Y-65750440D02*
X204426820Y-65399920D01*
X204678280Y-62951360D02*
X204228700Y-62849760D01*
X204678280Y-67650360D02*
X204777340Y-67851020D01*
X204777340Y-61401960D02*
X205178660Y-61501020D01*
X204777340Y-65951100D02*
X204627480Y-65750440D01*
X204777340Y-67851020D02*
X205028800Y-68051680D01*
X204828140Y-67251580D02*
X204678280Y-67650360D01*
X204878940Y-61201300D02*
X204579220Y-61051440D01*
X204878940Y-63949580D02*
X204678280Y-64000380D01*
X204978000Y-62001400D02*
X205376780Y-61851540D01*
X205028800Y-63101220D02*
X204678280Y-62951360D01*
X205028800Y-64500760D02*
X205077060Y-64899540D01*
X205028800Y-68051680D02*
X205178660Y-68249800D01*
X205077060Y-61249560D02*
X204878940Y-61201300D01*
X205077060Y-63850520D02*
X204878940Y-63949580D01*
X205077060Y-64899540D02*
X205328520Y-65051940D01*
X205077060Y-68750180D02*
X205127860Y-69301360D01*
X205127860Y-68552060D02*
X205077060Y-68750180D01*
X205127860Y-69301360D02*
X205328520Y-69502020D01*
X205178660Y-61501020D02*
X205628240Y-61351160D01*
X205178660Y-68249800D02*
X205127860Y-68552060D01*
X205226920Y-63850520D02*
X205077060Y-63850520D01*
X205226920Y-66100960D02*
X204777340Y-65951100D01*
X205226920Y-67299840D02*
X205529180Y-67599560D01*
X205328520Y-65051940D02*
X205628240Y-65051940D01*
X205376780Y-61851540D02*
X205628240Y-61501020D01*
X205427580Y-64350900D02*
X205028800Y-64500760D01*
X205427580Y-66850260D02*
X205226920Y-67299840D01*
X205529180Y-63850520D02*
X205226920Y-63850520D01*
X205529180Y-67599560D02*
X205927960Y-67800220D01*
X205577440Y-61000640D02*
X205077060Y-61249560D01*
X205577440Y-66200020D02*
X205978760Y-66451480D01*
X205628240Y-61351160D02*
X206077820Y-61450220D01*
X205628240Y-62999620D02*
X205679040Y-63451740D01*
X205628240Y-65051940D02*
X205727300Y-64950340D01*
X205679040Y-63451740D02*
X205828900Y-63850520D01*
X205727300Y-61551820D02*
X206377540Y-61749940D01*
X205727300Y-64950340D02*
X205877160Y-64701420D01*
X205727300Y-66151760D02*
X205226920Y-66100960D01*
X205727300Y-68651120D02*
X205877160Y-68900040D01*
X205828900Y-61249560D02*
X206077820Y-61300360D01*
X205828900Y-63850520D02*
X205927960Y-64000380D01*
X205828900Y-64000380D02*
X205529180Y-63850520D01*
X205877160Y-64701420D02*
X205427580Y-64350900D01*
X205877160Y-68249800D02*
X205727300Y-68651120D01*
X205927960Y-66901060D02*
X205978760Y-67101720D01*
X205927960Y-67800220D02*
X205877160Y-68249800D01*
X205978760Y-61000640D02*
X205577440Y-61000640D01*
X205978760Y-64051180D02*
X206077820Y-64201040D01*
X205978760Y-66451480D02*
X206227680Y-66451480D01*
X205978760Y-66751200D02*
X205927960Y-66901060D01*
X205978760Y-67101720D02*
X206176880Y-67299840D01*
X206077820Y-60050680D02*
X206527400Y-60650120D01*
X206077820Y-61450220D02*
X206677260Y-61749940D01*
X206077820Y-64201040D02*
X206227680Y-64350900D01*
X206128620Y-59951620D02*
X206728060Y-60200540D01*
X206176880Y-62951360D02*
X206326740Y-62600840D01*
X206176880Y-66200020D02*
X205727300Y-66151760D01*
X206176880Y-67299840D02*
X206428340Y-67500500D01*
X206227680Y-64350900D02*
X206377540Y-64350900D01*
X206227680Y-65501520D02*
X206377540Y-65852040D01*
X206227680Y-66499740D02*
X206479140Y-66601340D01*
X206278480Y-61150500D02*
X205978760Y-61000640D01*
X206278480Y-68450460D02*
X206326740Y-68450460D01*
X206326740Y-62600840D02*
X206728060Y-62699900D01*
X206377540Y-61749940D02*
X206778860Y-61950600D01*
X206377540Y-64350900D02*
X206578200Y-64251840D01*
X206377540Y-65852040D02*
X206728060Y-66050160D01*
X206428340Y-67500500D02*
X206527400Y-67851020D01*
X206428340Y-68150740D02*
X206278480Y-68450460D01*
X206479140Y-66601340D02*
X206728060Y-66601340D01*
X206527400Y-60650120D02*
X206877920Y-60751720D01*
X206527400Y-61351160D02*
X206278480Y-61150500D01*
X206527400Y-66649600D02*
X205978760Y-66751200D01*
X206527400Y-67851020D02*
X206428340Y-68150740D01*
X206578200Y-64251840D02*
X206778860Y-64251840D01*
X206629000Y-65399920D02*
X206227680Y-65501520D01*
X206677260Y-61749940D02*
X206877920Y-62001400D01*
X206728060Y-60200540D02*
X207177640Y-60101480D01*
X206728060Y-62699900D02*
X206827120Y-62900560D01*
X206728060Y-63152020D02*
X206278480Y-63050420D01*
X206728060Y-63550800D02*
X206677260Y-64201040D01*
X206728060Y-64251840D02*
X207126840Y-64251840D01*
X206728060Y-64800480D02*
X206629000Y-64950340D01*
X206728060Y-66601340D02*
X206527400Y-66649600D01*
X206778860Y-61950600D02*
X208076800Y-62801500D01*
X206778860Y-65399920D02*
X206629000Y-65399920D01*
X206778860Y-66100960D02*
X206176880Y-66200020D01*
X206827120Y-62900560D02*
X206728060Y-63152020D01*
X206877920Y-60751720D02*
X207327500Y-60751720D01*
X206877920Y-62001400D02*
X207578960Y-63101220D01*
X206976980Y-61650880D02*
X206527400Y-61351160D01*
X207027780Y-69750940D02*
X207177640Y-70200520D01*
X207078580Y-69250560D02*
X207027780Y-69750940D01*
X207126840Y-64251840D02*
X207279240Y-64401700D01*
X207177640Y-60101480D02*
X207678020Y-59850020D01*
X207177640Y-70200520D02*
X207528160Y-70350380D01*
X207279240Y-60601860D02*
X207777080Y-59900820D01*
X207279240Y-63850520D02*
X206827120Y-63451740D01*
X207279240Y-64401700D02*
X206778860Y-65399920D01*
X207327500Y-60751720D02*
X207678020Y-60799980D01*
X207327500Y-61800740D02*
X206976980Y-61650880D01*
X207378300Y-68900040D02*
X207078580Y-69250560D01*
X207528160Y-70350380D02*
X207977740Y-70251320D01*
X207578960Y-63101220D02*
X207878680Y-63751460D01*
X207627220Y-61749940D02*
X207327500Y-61800740D01*
X207678020Y-59850020D02*
X208127600Y-59801760D01*
X207678020Y-60799980D02*
X207878680Y-61201300D01*
X207678020Y-68851780D02*
X207378300Y-68900040D01*
X207777080Y-59900820D02*
X206629000Y-60601860D01*
X207827880Y-61701680D02*
X208577180Y-62400180D01*
X207878680Y-60850780D02*
X209026760Y-60401200D01*
X207878680Y-61201300D02*
X207926940Y-61501020D01*
X207878680Y-63751460D02*
X207279240Y-63850520D01*
X207926940Y-61501020D02*
X207627220Y-61749940D01*
X207926940Y-68950840D02*
X207678020Y-68851780D01*
X207977740Y-69750940D02*
X207678020Y-69750940D01*
X207977740Y-70251320D02*
X207977740Y-69750940D01*
X208076800Y-62801500D02*
X207827880Y-61701680D01*
X208127600Y-59801760D02*
X208577180Y-60050680D01*
X208127600Y-61300360D02*
X209128360Y-61551820D01*
X208427320Y-62699900D02*
X207878680Y-63101220D01*
X208577180Y-60050680D02*
X209026760Y-60350400D01*
X208577180Y-62400180D02*
X208127600Y-61300360D01*
X208627980Y-68900040D02*
X209179160Y-68851780D01*
X208627980Y-70350380D02*
X208627980Y-68900040D01*
X208876900Y-62301120D02*
X208427320Y-62699900D01*
X209026760Y-60350400D02*
X209227420Y-60901580D01*
X209026760Y-60401200D02*
X207279240Y-60601860D01*
X209128360Y-61551820D02*
X207878680Y-60850780D01*
X209128360Y-61749940D02*
X208876900Y-62301120D01*
X209179160Y-68851780D02*
X209428080Y-69049900D01*
X209227420Y-60901580D02*
X209227420Y-61351160D01*
X209227420Y-61351160D02*
X209128360Y-61749940D01*
X209227420Y-69601080D02*
X208727040Y-69550280D01*
X209428080Y-69049900D02*
X209527140Y-69451220D01*
X209527140Y-69451220D02*
X209227420Y-69601080D01*
X210177380Y-68800980D02*
X210177380Y-70401180D01*
X210177380Y-70401180D02*
X210878420Y-70401180D01*
D12*
%TO.C,R6*%
X192154436Y-91594000D02*
X192608564Y-91594000D01*
X192154436Y-93064000D02*
X192608564Y-93064000D01*
%TO.C,R1*%
X193648000Y-88696436D02*
X193648000Y-89150564D01*
X192178000Y-88696436D02*
X192178000Y-89150564D01*
%TO.C,R8*%
X192154436Y-95658000D02*
X192608564Y-95658000D01*
X192154436Y-97128000D02*
X192608564Y-97128000D01*
%TO.C,U5*%
X146383500Y-72906500D02*
X147233500Y-72906500D01*
X146383500Y-73756500D02*
X146383500Y-72906500D01*
X146583500Y-73106500D02*
X190201500Y-73106500D01*
X146594500Y-86132500D02*
X146583500Y-73106500D01*
X176739500Y-82576500D02*
X178771500Y-82576500D01*
X177755500Y-81560500D02*
X177755500Y-83592500D01*
X181819500Y-82830500D02*
X183851500Y-82830500D01*
X190201500Y-73106500D02*
X190201500Y-86132500D01*
X190201500Y-86132500D02*
X146594500Y-86132500D01*
X160819339Y-79476474D02*
G75*
G03*
X158253503Y-79645157I-1265769J-345196D01*
G01*
X160909661Y-79580526D02*
G75*
G03*
X163475497Y-79411843I1265769J345196D01*
G01*
%TO.C,C2*%
X193622600Y-85148748D02*
X193622600Y-85671252D01*
X192152600Y-85148748D02*
X192152600Y-85671252D01*
%TO.C,C1*%
X208964200Y-85133548D02*
X208964200Y-85656052D01*
X207494200Y-85133548D02*
X207494200Y-85656052D01*
%TO.C,D4*%
X202176000Y-104900000D02*
X199906000Y-104900000D01*
X199906000Y-104900000D02*
X199906000Y-108785000D01*
X202176000Y-108785000D02*
X202176000Y-104900000D01*
%TO.C,D2*%
X195953000Y-104903000D02*
X193683000Y-104903000D01*
X193683000Y-104903000D02*
X193683000Y-108788000D01*
X195953000Y-108788000D02*
X195953000Y-104903000D01*
%TO.C,D3*%
X205351000Y-104900000D02*
X203081000Y-104900000D01*
X203081000Y-104900000D02*
X203081000Y-108785000D01*
X205351000Y-108785000D02*
X205351000Y-104900000D01*
%TO.C,R4*%
X198855000Y-102007936D02*
X198855000Y-102462064D01*
X197385000Y-102007936D02*
X197385000Y-102462064D01*
%TO.C,R2*%
X203481000Y-102462064D02*
X203481000Y-102007936D01*
X204951000Y-102462064D02*
X204951000Y-102007936D01*
%TO.C,U4*%
X146256500Y-86876500D02*
X147106500Y-86876500D01*
X146256500Y-87726500D02*
X146256500Y-86876500D01*
X146456500Y-87076500D02*
X190074500Y-87076500D01*
X146467500Y-100102500D02*
X146456500Y-87076500D01*
X176612500Y-96546500D02*
X178644500Y-96546500D01*
X177628500Y-95530500D02*
X177628500Y-97562500D01*
X181692500Y-96800500D02*
X183724500Y-96800500D01*
X190074500Y-87076500D02*
X190074500Y-100102500D01*
X190074500Y-100102500D02*
X146467500Y-100102500D01*
X160692339Y-93446474D02*
G75*
G03*
X158126503Y-93615157I-1265769J-345196D01*
G01*
X160782661Y-93550526D02*
G75*
G03*
X163348497Y-93381843I1265769J345196D01*
G01*
%TO.C,U2*%
X146383500Y-58809500D02*
X147233500Y-58809500D01*
X146383500Y-59659500D02*
X146383500Y-58809500D01*
X146583500Y-59009500D02*
X190201500Y-59009500D01*
X146594500Y-72035500D02*
X146583500Y-59009500D01*
X176739500Y-68479500D02*
X178771500Y-68479500D01*
X177755500Y-67463500D02*
X177755500Y-69495500D01*
X181819500Y-68733500D02*
X183851500Y-68733500D01*
X190201500Y-59009500D02*
X190201500Y-72035500D01*
X190201500Y-72035500D02*
X146594500Y-72035500D01*
X160819339Y-65379474D02*
G75*
G03*
X158253503Y-65548157I-1265769J-345196D01*
G01*
X160909661Y-65483526D02*
G75*
G03*
X163475497Y-65314843I1265769J345196D01*
G01*
%TO.C,J5*%
X133988500Y-107686000D02*
X142808500Y-107686000D01*
X134798500Y-107686000D02*
X134798500Y-104936000D01*
X142808500Y-107686000D02*
X142808500Y-92466000D01*
X135798500Y-106776000D02*
X135798500Y-93376000D01*
X141098500Y-106776000D02*
X135798500Y-106776000D01*
X141098500Y-105826000D02*
X141098500Y-106776000D01*
X133988500Y-104826000D02*
X133988500Y-102826000D01*
X135798500Y-104826000D02*
X133988500Y-104826000D01*
X133188500Y-104126000D02*
X133188500Y-103526000D01*
X133788500Y-103826000D02*
X133188500Y-104126000D01*
X133188500Y-103526000D02*
X133788500Y-103826000D01*
X133988500Y-102826000D02*
X135798500Y-102826000D01*
X134798500Y-102826000D02*
X134798500Y-97326000D01*
X135798500Y-102826000D02*
X135798500Y-104826000D01*
X141098500Y-101826000D02*
X141098500Y-98326000D01*
X133988500Y-97326000D02*
X133988500Y-95326000D01*
X135798500Y-97326000D02*
X133988500Y-97326000D01*
X133988500Y-95326000D02*
X135798500Y-95326000D01*
X135798500Y-95326000D02*
X135798500Y-97326000D01*
X135798500Y-93376000D02*
X141098500Y-93376000D01*
X141098500Y-93376000D02*
X141098500Y-94326000D01*
X133988500Y-92466000D02*
X133988500Y-107686000D01*
X134798500Y-92466000D02*
X134798500Y-95216000D01*
X142808500Y-92466000D02*
X133988500Y-92466000D01*
X141098500Y-105826000D02*
G75*
G03*
X141114321Y-101839158I-1650000J2000000D01*
G01*
X141098500Y-98326000D02*
G75*
G03*
X141114321Y-94339158I-1650000J2000000D01*
G01*
%TO.C,J6*%
X134282000Y-90474000D02*
X143102000Y-90474000D01*
X135092000Y-90474000D02*
X135092000Y-87724000D01*
X143102000Y-90474000D02*
X143102000Y-75254000D01*
X136092000Y-89564000D02*
X136092000Y-76164000D01*
X141392000Y-89564000D02*
X136092000Y-89564000D01*
X141392000Y-88614000D02*
X141392000Y-89564000D01*
X134282000Y-87614000D02*
X134282000Y-85614000D01*
X136092000Y-87614000D02*
X134282000Y-87614000D01*
X133482000Y-86914000D02*
X133482000Y-86314000D01*
X134082000Y-86614000D02*
X133482000Y-86914000D01*
X133482000Y-86314000D02*
X134082000Y-86614000D01*
X134282000Y-85614000D02*
X136092000Y-85614000D01*
X135092000Y-85614000D02*
X135092000Y-80114000D01*
X136092000Y-85614000D02*
X136092000Y-87614000D01*
X141392000Y-84614000D02*
X141392000Y-81114000D01*
X134282000Y-80114000D02*
X134282000Y-78114000D01*
X136092000Y-80114000D02*
X134282000Y-80114000D01*
X134282000Y-78114000D02*
X136092000Y-78114000D01*
X136092000Y-78114000D02*
X136092000Y-80114000D01*
X136092000Y-76164000D02*
X141392000Y-76164000D01*
X141392000Y-76164000D02*
X141392000Y-77114000D01*
X134282000Y-75254000D02*
X134282000Y-90474000D01*
X135092000Y-75254000D02*
X135092000Y-78004000D01*
X143102000Y-75254000D02*
X134282000Y-75254000D01*
X141392000Y-88614000D02*
G75*
G03*
X141407821Y-84627158I-1650000J2000000D01*
G01*
X141392000Y-81114000D02*
G75*
G03*
X141407821Y-77127158I-1650000J2000000D01*
G01*
%TO.C,U3*%
X146256500Y-101100500D02*
X147106500Y-101100500D01*
X146256500Y-101950500D02*
X146256500Y-101100500D01*
X146456500Y-101300500D02*
X190074500Y-101300500D01*
X146467500Y-114326500D02*
X146456500Y-101300500D01*
X176612500Y-110770500D02*
X178644500Y-110770500D01*
X177628500Y-109754500D02*
X177628500Y-111786500D01*
X181692500Y-111024500D02*
X183724500Y-111024500D01*
X190074500Y-101300500D02*
X190074500Y-114326500D01*
X190074500Y-114326500D02*
X146467500Y-114326500D01*
X160692339Y-107670474D02*
G75*
G03*
X158126503Y-107839157I-1265769J-345196D01*
G01*
X160782661Y-107774526D02*
G75*
G03*
X163348497Y-107605843I1265769J345196D01*
G01*
%TO.C,C3*%
X207370000Y-94564252D02*
X207370000Y-93141748D01*
X209190000Y-94564252D02*
X209190000Y-93141748D01*
%TO.C,U1*%
X197392000Y-88644400D02*
X197392000Y-88919400D01*
X197392000Y-88919400D02*
X195702000Y-88919400D01*
X197392000Y-96064400D02*
X197392000Y-95789400D01*
X200152000Y-88644400D02*
X197392000Y-88644400D01*
X200152000Y-88644400D02*
X202912000Y-88644400D01*
X200152000Y-96064400D02*
X197392000Y-96064400D01*
X200152000Y-96064400D02*
X202912000Y-96064400D01*
X202912000Y-88644400D02*
X202912000Y-88919400D01*
X202912000Y-96064400D02*
X202912000Y-95789400D01*
%TO.C,J2*%
X172703000Y-122937000D02*
X172703000Y-124677000D01*
X172703000Y-124677000D02*
X174203000Y-124677000D01*
X172943000Y-117317000D02*
X172943000Y-124437000D01*
X172943000Y-117317000D02*
X201763000Y-117317000D01*
X172943000Y-122877000D02*
X201763000Y-122877000D01*
X172943000Y-124437000D02*
X201763000Y-124437000D01*
X201763000Y-117317000D02*
X201763000Y-124437000D01*
X173671000Y-120169000D02*
G75*
G03*
X173670891Y-121384742I1432000J-608000D01*
G01*
X175711000Y-119345000D02*
G75*
G03*
X174495258Y-119344891I-608000J-1432000D01*
G01*
X174495000Y-122208999D02*
G75*
G03*
X175130011Y-122332492I607998J1431987D01*
G01*
X175103000Y-122331999D02*
G75*
G03*
X175710587Y-122208384I0J1554999D01*
G01*
X176535000Y-121385000D02*
G75*
G03*
X176535109Y-120169258I-1432003J607999D01*
G01*
X180158000Y-120777000D02*
G75*
G03*
X180158000Y-120777000I-1555000J0D01*
G01*
X183658000Y-120777000D02*
G75*
G03*
X183658000Y-120777000I-1555000J0D01*
G01*
X187158000Y-120777000D02*
G75*
G03*
X187158000Y-120777000I-1555000J0D01*
G01*
X190658000Y-120777000D02*
G75*
G03*
X190658000Y-120777000I-1555000J0D01*
G01*
X194158000Y-120777000D02*
G75*
G03*
X194158000Y-120777000I-1555000J0D01*
G01*
X197658000Y-120777000D02*
G75*
G03*
X197658000Y-120777000I-1555000J0D01*
G01*
X201158000Y-120777000D02*
G75*
G03*
X201158000Y-120777000I-1555000J0D01*
G01*
%TO.C,R9*%
X192154436Y-93626000D02*
X192608564Y-93626000D01*
X192154436Y-95096000D02*
X192608564Y-95096000D01*
%TO.C,R7*%
X192608564Y-99160000D02*
X192154436Y-99160000D01*
X192608564Y-97690000D02*
X192154436Y-97690000D01*
%TO.C,R3*%
X201776000Y-102007936D02*
X201776000Y-102462064D01*
X200306000Y-102007936D02*
X200306000Y-102462064D01*
%TO.C,D1*%
X199255000Y-104903000D02*
X196985000Y-104903000D01*
X196985000Y-104903000D02*
X196985000Y-108788000D01*
X199255000Y-108788000D02*
X199255000Y-104903000D01*
%TO.C,R5*%
X195553000Y-102007936D02*
X195553000Y-102462064D01*
X194083000Y-102007936D02*
X194083000Y-102462064D01*
%TO.C,Y1*%
X203937400Y-87411800D02*
X197687400Y-87411800D01*
X203937400Y-82361800D02*
X197687400Y-82361800D01*
X203937400Y-87411800D02*
G75*
G03*
X203937400Y-82361800I0J2525000D01*
G01*
X197687400Y-82361800D02*
G75*
G03*
X197687400Y-87411800I0J-2525000D01*
G01*
%TO.C,J3*%
X134115500Y-73015000D02*
X142935500Y-73015000D01*
X134925500Y-73015000D02*
X134925500Y-70265000D01*
X142935500Y-73015000D02*
X142935500Y-57795000D01*
X135925500Y-72105000D02*
X135925500Y-58705000D01*
X141225500Y-72105000D02*
X135925500Y-72105000D01*
X141225500Y-71155000D02*
X141225500Y-72105000D01*
X134115500Y-70155000D02*
X134115500Y-68155000D01*
X135925500Y-70155000D02*
X134115500Y-70155000D01*
X133315500Y-69455000D02*
X133315500Y-68855000D01*
X133915500Y-69155000D02*
X133315500Y-69455000D01*
X133315500Y-68855000D02*
X133915500Y-69155000D01*
X134115500Y-68155000D02*
X135925500Y-68155000D01*
X134925500Y-68155000D02*
X134925500Y-62655000D01*
X135925500Y-68155000D02*
X135925500Y-70155000D01*
X141225500Y-67155000D02*
X141225500Y-63655000D01*
X134115500Y-62655000D02*
X134115500Y-60655000D01*
X135925500Y-62655000D02*
X134115500Y-62655000D01*
X134115500Y-60655000D02*
X135925500Y-60655000D01*
X135925500Y-60655000D02*
X135925500Y-62655000D01*
X135925500Y-58705000D02*
X141225500Y-58705000D01*
X141225500Y-58705000D02*
X141225500Y-59655000D01*
X134115500Y-57795000D02*
X134115500Y-73015000D01*
X134925500Y-57795000D02*
X134925500Y-60545000D01*
X142935500Y-57795000D02*
X134115500Y-57795000D01*
X141225500Y-71155000D02*
G75*
G03*
X141241321Y-67168158I-1650000J2000000D01*
G01*
X141225500Y-63655000D02*
G75*
G03*
X141241321Y-59668158I-1650000J2000000D01*
G01*
%TD*%
M02*
