%TF.GenerationSoftware,KiCad,Pcbnew,6.99.0-unknown-08a8a20794~162~ubuntu22.04.1*%
%TF.CreationDate,2022-12-21T10:24:56+01:00*%
%TF.ProjectId,usb_relay,7573625f-7265-46c6-9179-2e6b69636164,rev?*%
%TF.SameCoordinates,Original*%
%TF.FileFunction,Drillmap*%
%TF.FilePolarity,Positive*%
%FSLAX45Y45*%
G04 Gerber Fmt 4.5, Leading zero omitted, Abs format (unit mm)*
G04 Created by KiCad (PCBNEW 6.99.0-unknown-08a8a20794~162~ubuntu22.04.1) date 2022-12-21 10:24:56*
%MOMM*%
%LPD*%
G01*
G04 APERTURE LIST*
%ADD10C,0.100000*%
%ADD11C,0.200000*%
%ADD12C,0.270000*%
G04 APERTURE END LIST*
D10*
X13136880Y-5323840D02*
X13131800Y-12827000D01*
X21899880Y-5318760D02*
X13136880Y-5323840D01*
X13131800Y-12827000D02*
X21899880Y-12839700D01*
X21899880Y-12839700D02*
X21899880Y-5318760D01*
D11*
D12*
X14475080Y-5483480D02*
X14745080Y-5753480D01*
X14745080Y-5483480D02*
X14475080Y-5753480D01*
X14485240Y-12356720D02*
X14755240Y-12626720D01*
X14755240Y-12356720D02*
X14485240Y-12626720D01*
X21353400Y-5493640D02*
X21623400Y-5763640D01*
X21623400Y-5493640D02*
X21353400Y-5763640D01*
X21363560Y-12366880D02*
X21633560Y-12636880D01*
X21633560Y-12366880D02*
X21363560Y-12636880D01*
D11*
X13374419Y-13138176D02*
X13374419Y-12938176D01*
X13374419Y-12938176D02*
X13422038Y-12938176D01*
X13422038Y-12938176D02*
X13450609Y-12947700D01*
X13450609Y-12947700D02*
X13469657Y-12966748D01*
X13469657Y-12966748D02*
X13479181Y-12985795D01*
X13479181Y-12985795D02*
X13488705Y-13023890D01*
X13488705Y-13023890D02*
X13488705Y-13052462D01*
X13488705Y-13052462D02*
X13479181Y-13090557D01*
X13479181Y-13090557D02*
X13469657Y-13109605D01*
X13469657Y-13109605D02*
X13450609Y-13128652D01*
X13450609Y-13128652D02*
X13422038Y-13138176D01*
X13422038Y-13138176D02*
X13374419Y-13138176D01*
X13574419Y-13138176D02*
X13574419Y-13004843D01*
X13574419Y-13042938D02*
X13583943Y-13023890D01*
X13583943Y-13023890D02*
X13593467Y-13014367D01*
X13593467Y-13014367D02*
X13612514Y-13004843D01*
X13612514Y-13004843D02*
X13631562Y-13004843D01*
X13698228Y-13138176D02*
X13698228Y-13004843D01*
X13698228Y-12938176D02*
X13688705Y-12947700D01*
X13688705Y-12947700D02*
X13698228Y-12957224D01*
X13698228Y-12957224D02*
X13707752Y-12947700D01*
X13707752Y-12947700D02*
X13698228Y-12938176D01*
X13698228Y-12938176D02*
X13698228Y-12957224D01*
X13822038Y-13138176D02*
X13802990Y-13128652D01*
X13802990Y-13128652D02*
X13793467Y-13109605D01*
X13793467Y-13109605D02*
X13793467Y-12938176D01*
X13926800Y-13138176D02*
X13907752Y-13128652D01*
X13907752Y-13128652D02*
X13898228Y-13109605D01*
X13898228Y-13109605D02*
X13898228Y-12938176D01*
X14122990Y-13138176D02*
X14122990Y-12938176D01*
X14122990Y-12938176D02*
X14189657Y-13081033D01*
X14189657Y-13081033D02*
X14256324Y-12938176D01*
X14256324Y-12938176D02*
X14256324Y-13138176D01*
X14437276Y-13138176D02*
X14437276Y-13033414D01*
X14437276Y-13033414D02*
X14427752Y-13014367D01*
X14427752Y-13014367D02*
X14408705Y-13004843D01*
X14408705Y-13004843D02*
X14370609Y-13004843D01*
X14370609Y-13004843D02*
X14351562Y-13014367D01*
X14437276Y-13128652D02*
X14418228Y-13138176D01*
X14418228Y-13138176D02*
X14370609Y-13138176D01*
X14370609Y-13138176D02*
X14351562Y-13128652D01*
X14351562Y-13128652D02*
X14342038Y-13109605D01*
X14342038Y-13109605D02*
X14342038Y-13090557D01*
X14342038Y-13090557D02*
X14351562Y-13071509D01*
X14351562Y-13071509D02*
X14370609Y-13061986D01*
X14370609Y-13061986D02*
X14418228Y-13061986D01*
X14418228Y-13061986D02*
X14437276Y-13052462D01*
X14532514Y-13004843D02*
X14532514Y-13204843D01*
X14532514Y-13014367D02*
X14551562Y-13004843D01*
X14551562Y-13004843D02*
X14589657Y-13004843D01*
X14589657Y-13004843D02*
X14608705Y-13014367D01*
X14608705Y-13014367D02*
X14618228Y-13023890D01*
X14618228Y-13023890D02*
X14627752Y-13042938D01*
X14627752Y-13042938D02*
X14627752Y-13100081D01*
X14627752Y-13100081D02*
X14618228Y-13119128D01*
X14618228Y-13119128D02*
X14608705Y-13128652D01*
X14608705Y-13128652D02*
X14589657Y-13138176D01*
X14589657Y-13138176D02*
X14551562Y-13138176D01*
X14551562Y-13138176D02*
X14532514Y-13128652D01*
X14713467Y-13119128D02*
X14722990Y-13128652D01*
X14722990Y-13128652D02*
X14713467Y-13138176D01*
X14713467Y-13138176D02*
X14703943Y-13128652D01*
X14703943Y-13128652D02*
X14713467Y-13119128D01*
X14713467Y-13119128D02*
X14713467Y-13138176D01*
X14713467Y-13014367D02*
X14722990Y-13023890D01*
X14722990Y-13023890D02*
X14713467Y-13033414D01*
X14713467Y-13033414D02*
X14703943Y-13023890D01*
X14703943Y-13023890D02*
X14713467Y-13014367D01*
X14713467Y-13014367D02*
X14713467Y-13033414D01*
X12926800Y-13384700D02*
X13126800Y-13584700D01*
X13126800Y-13384700D02*
X12926800Y-13584700D01*
X13364895Y-13377224D02*
X13374419Y-13367700D01*
X13374419Y-13367700D02*
X13393467Y-13358176D01*
X13393467Y-13358176D02*
X13441086Y-13358176D01*
X13441086Y-13358176D02*
X13460133Y-13367700D01*
X13460133Y-13367700D02*
X13469657Y-13377224D01*
X13469657Y-13377224D02*
X13479181Y-13396271D01*
X13479181Y-13396271D02*
X13479181Y-13415319D01*
X13479181Y-13415319D02*
X13469657Y-13443890D01*
X13469657Y-13443890D02*
X13355371Y-13558176D01*
X13355371Y-13558176D02*
X13479181Y-13558176D01*
X13564895Y-13539128D02*
X13574419Y-13548652D01*
X13574419Y-13548652D02*
X13564895Y-13558176D01*
X13564895Y-13558176D02*
X13555371Y-13548652D01*
X13555371Y-13548652D02*
X13564895Y-13539128D01*
X13564895Y-13539128D02*
X13564895Y-13558176D01*
X13641086Y-13358176D02*
X13774419Y-13358176D01*
X13774419Y-13358176D02*
X13688705Y-13558176D01*
X13888705Y-13358176D02*
X13907752Y-13358176D01*
X13907752Y-13358176D02*
X13926800Y-13367700D01*
X13926800Y-13367700D02*
X13936324Y-13377224D01*
X13936324Y-13377224D02*
X13945848Y-13396271D01*
X13945848Y-13396271D02*
X13955371Y-13434367D01*
X13955371Y-13434367D02*
X13955371Y-13481986D01*
X13955371Y-13481986D02*
X13945848Y-13520081D01*
X13945848Y-13520081D02*
X13936324Y-13539128D01*
X13936324Y-13539128D02*
X13926800Y-13548652D01*
X13926800Y-13548652D02*
X13907752Y-13558176D01*
X13907752Y-13558176D02*
X13888705Y-13558176D01*
X13888705Y-13558176D02*
X13869657Y-13548652D01*
X13869657Y-13548652D02*
X13860133Y-13539128D01*
X13860133Y-13539128D02*
X13850609Y-13520081D01*
X13850609Y-13520081D02*
X13841086Y-13481986D01*
X13841086Y-13481986D02*
X13841086Y-13434367D01*
X13841086Y-13434367D02*
X13850609Y-13396271D01*
X13850609Y-13396271D02*
X13860133Y-13377224D01*
X13860133Y-13377224D02*
X13869657Y-13367700D01*
X13869657Y-13367700D02*
X13888705Y-13358176D01*
X14079181Y-13358176D02*
X14098229Y-13358176D01*
X14098229Y-13358176D02*
X14117276Y-13367700D01*
X14117276Y-13367700D02*
X14126800Y-13377224D01*
X14126800Y-13377224D02*
X14136324Y-13396271D01*
X14136324Y-13396271D02*
X14145848Y-13434367D01*
X14145848Y-13434367D02*
X14145848Y-13481986D01*
X14145848Y-13481986D02*
X14136324Y-13520081D01*
X14136324Y-13520081D02*
X14126800Y-13539128D01*
X14126800Y-13539128D02*
X14117276Y-13548652D01*
X14117276Y-13548652D02*
X14098229Y-13558176D01*
X14098229Y-13558176D02*
X14079181Y-13558176D01*
X14079181Y-13558176D02*
X14060133Y-13548652D01*
X14060133Y-13548652D02*
X14050609Y-13539128D01*
X14050609Y-13539128D02*
X14041086Y-13520081D01*
X14041086Y-13520081D02*
X14031562Y-13481986D01*
X14031562Y-13481986D02*
X14031562Y-13434367D01*
X14031562Y-13434367D02*
X14041086Y-13396271D01*
X14041086Y-13396271D02*
X14050609Y-13377224D01*
X14050609Y-13377224D02*
X14060133Y-13367700D01*
X14060133Y-13367700D02*
X14079181Y-13358176D01*
X14231562Y-13558176D02*
X14231562Y-13424843D01*
X14231562Y-13443890D02*
X14241086Y-13434367D01*
X14241086Y-13434367D02*
X14260133Y-13424843D01*
X14260133Y-13424843D02*
X14288705Y-13424843D01*
X14288705Y-13424843D02*
X14307752Y-13434367D01*
X14307752Y-13434367D02*
X14317276Y-13453414D01*
X14317276Y-13453414D02*
X14317276Y-13558176D01*
X14317276Y-13453414D02*
X14326800Y-13434367D01*
X14326800Y-13434367D02*
X14345848Y-13424843D01*
X14345848Y-13424843D02*
X14374419Y-13424843D01*
X14374419Y-13424843D02*
X14393467Y-13434367D01*
X14393467Y-13434367D02*
X14402990Y-13453414D01*
X14402990Y-13453414D02*
X14402990Y-13558176D01*
X14498229Y-13558176D02*
X14498229Y-13424843D01*
X14498229Y-13443890D02*
X14507752Y-13434367D01*
X14507752Y-13434367D02*
X14526800Y-13424843D01*
X14526800Y-13424843D02*
X14555371Y-13424843D01*
X14555371Y-13424843D02*
X14574419Y-13434367D01*
X14574419Y-13434367D02*
X14583943Y-13453414D01*
X14583943Y-13453414D02*
X14583943Y-13558176D01*
X14583943Y-13453414D02*
X14593467Y-13434367D01*
X14593467Y-13434367D02*
X14612514Y-13424843D01*
X14612514Y-13424843D02*
X14641086Y-13424843D01*
X14641086Y-13424843D02*
X14660133Y-13434367D01*
X14660133Y-13434367D02*
X14669657Y-13453414D01*
X14669657Y-13453414D02*
X14669657Y-13558176D01*
X15027752Y-13348652D02*
X14856324Y-13605795D01*
X15252514Y-13358176D02*
X15271562Y-13358176D01*
X15271562Y-13358176D02*
X15290610Y-13367700D01*
X15290610Y-13367700D02*
X15300133Y-13377224D01*
X15300133Y-13377224D02*
X15309657Y-13396271D01*
X15309657Y-13396271D02*
X15319181Y-13434367D01*
X15319181Y-13434367D02*
X15319181Y-13481986D01*
X15319181Y-13481986D02*
X15309657Y-13520081D01*
X15309657Y-13520081D02*
X15300133Y-13539128D01*
X15300133Y-13539128D02*
X15290610Y-13548652D01*
X15290610Y-13548652D02*
X15271562Y-13558176D01*
X15271562Y-13558176D02*
X15252514Y-13558176D01*
X15252514Y-13558176D02*
X15233467Y-13548652D01*
X15233467Y-13548652D02*
X15223943Y-13539128D01*
X15223943Y-13539128D02*
X15214419Y-13520081D01*
X15214419Y-13520081D02*
X15204895Y-13481986D01*
X15204895Y-13481986D02*
X15204895Y-13434367D01*
X15204895Y-13434367D02*
X15214419Y-13396271D01*
X15214419Y-13396271D02*
X15223943Y-13377224D01*
X15223943Y-13377224D02*
X15233467Y-13367700D01*
X15233467Y-13367700D02*
X15252514Y-13358176D01*
X15404895Y-13539128D02*
X15414419Y-13548652D01*
X15414419Y-13548652D02*
X15404895Y-13558176D01*
X15404895Y-13558176D02*
X15395371Y-13548652D01*
X15395371Y-13548652D02*
X15404895Y-13539128D01*
X15404895Y-13539128D02*
X15404895Y-13558176D01*
X15604895Y-13558176D02*
X15490610Y-13558176D01*
X15547752Y-13558176D02*
X15547752Y-13358176D01*
X15547752Y-13358176D02*
X15528705Y-13386748D01*
X15528705Y-13386748D02*
X15509657Y-13405795D01*
X15509657Y-13405795D02*
X15490610Y-13415319D01*
X15728705Y-13358176D02*
X15747752Y-13358176D01*
X15747752Y-13358176D02*
X15766800Y-13367700D01*
X15766800Y-13367700D02*
X15776324Y-13377224D01*
X15776324Y-13377224D02*
X15785848Y-13396271D01*
X15785848Y-13396271D02*
X15795371Y-13434367D01*
X15795371Y-13434367D02*
X15795371Y-13481986D01*
X15795371Y-13481986D02*
X15785848Y-13520081D01*
X15785848Y-13520081D02*
X15776324Y-13539128D01*
X15776324Y-13539128D02*
X15766800Y-13548652D01*
X15766800Y-13548652D02*
X15747752Y-13558176D01*
X15747752Y-13558176D02*
X15728705Y-13558176D01*
X15728705Y-13558176D02*
X15709657Y-13548652D01*
X15709657Y-13548652D02*
X15700133Y-13539128D01*
X15700133Y-13539128D02*
X15690610Y-13520081D01*
X15690610Y-13520081D02*
X15681086Y-13481986D01*
X15681086Y-13481986D02*
X15681086Y-13434367D01*
X15681086Y-13434367D02*
X15690610Y-13396271D01*
X15690610Y-13396271D02*
X15700133Y-13377224D01*
X15700133Y-13377224D02*
X15709657Y-13367700D01*
X15709657Y-13367700D02*
X15728705Y-13358176D01*
X15966800Y-13358176D02*
X15928705Y-13358176D01*
X15928705Y-13358176D02*
X15909657Y-13367700D01*
X15909657Y-13367700D02*
X15900133Y-13377224D01*
X15900133Y-13377224D02*
X15881086Y-13405795D01*
X15881086Y-13405795D02*
X15871562Y-13443890D01*
X15871562Y-13443890D02*
X15871562Y-13520081D01*
X15871562Y-13520081D02*
X15881086Y-13539128D01*
X15881086Y-13539128D02*
X15890610Y-13548652D01*
X15890610Y-13548652D02*
X15909657Y-13558176D01*
X15909657Y-13558176D02*
X15947752Y-13558176D01*
X15947752Y-13558176D02*
X15966800Y-13548652D01*
X15966800Y-13548652D02*
X15976324Y-13539128D01*
X15976324Y-13539128D02*
X15985848Y-13520081D01*
X15985848Y-13520081D02*
X15985848Y-13472462D01*
X15985848Y-13472462D02*
X15976324Y-13453414D01*
X15976324Y-13453414D02*
X15966800Y-13443890D01*
X15966800Y-13443890D02*
X15947752Y-13434367D01*
X15947752Y-13434367D02*
X15909657Y-13434367D01*
X15909657Y-13434367D02*
X15890610Y-13443890D01*
X15890610Y-13443890D02*
X15881086Y-13453414D01*
X15881086Y-13453414D02*
X15871562Y-13472462D01*
X16052514Y-13358176D02*
X16176324Y-13358176D01*
X16176324Y-13358176D02*
X16109657Y-13434367D01*
X16109657Y-13434367D02*
X16138229Y-13434367D01*
X16138229Y-13434367D02*
X16157276Y-13443890D01*
X16157276Y-13443890D02*
X16166800Y-13453414D01*
X16166800Y-13453414D02*
X16176324Y-13472462D01*
X16176324Y-13472462D02*
X16176324Y-13520081D01*
X16176324Y-13520081D02*
X16166800Y-13539128D01*
X16166800Y-13539128D02*
X16157276Y-13548652D01*
X16157276Y-13548652D02*
X16138229Y-13558176D01*
X16138229Y-13558176D02*
X16081086Y-13558176D01*
X16081086Y-13558176D02*
X16062038Y-13548652D01*
X16062038Y-13548652D02*
X16052514Y-13539128D01*
X16252514Y-13358176D02*
X16252514Y-13396271D01*
X16328705Y-13358176D02*
X16328705Y-13396271D01*
X16591562Y-13634367D02*
X16582038Y-13624843D01*
X16582038Y-13624843D02*
X16562991Y-13596271D01*
X16562991Y-13596271D02*
X16553467Y-13577224D01*
X16553467Y-13577224D02*
X16543943Y-13548652D01*
X16543943Y-13548652D02*
X16534419Y-13501033D01*
X16534419Y-13501033D02*
X16534419Y-13462938D01*
X16534419Y-13462938D02*
X16543943Y-13415319D01*
X16543943Y-13415319D02*
X16553467Y-13386748D01*
X16553467Y-13386748D02*
X16562991Y-13367700D01*
X16562991Y-13367700D02*
X16582038Y-13339128D01*
X16582038Y-13339128D02*
X16591562Y-13329605D01*
X16753467Y-13424843D02*
X16753467Y-13558176D01*
X16705848Y-13348652D02*
X16658229Y-13491509D01*
X16658229Y-13491509D02*
X16782038Y-13491509D01*
X16978229Y-13558176D02*
X16978229Y-13358176D01*
X17063943Y-13558176D02*
X17063943Y-13453414D01*
X17063943Y-13453414D02*
X17054419Y-13434367D01*
X17054419Y-13434367D02*
X17035372Y-13424843D01*
X17035372Y-13424843D02*
X17006800Y-13424843D01*
X17006800Y-13424843D02*
X16987753Y-13434367D01*
X16987753Y-13434367D02*
X16978229Y-13443890D01*
X17187753Y-13558176D02*
X17168705Y-13548652D01*
X17168705Y-13548652D02*
X17159181Y-13539128D01*
X17159181Y-13539128D02*
X17149657Y-13520081D01*
X17149657Y-13520081D02*
X17149657Y-13462938D01*
X17149657Y-13462938D02*
X17159181Y-13443890D01*
X17159181Y-13443890D02*
X17168705Y-13434367D01*
X17168705Y-13434367D02*
X17187753Y-13424843D01*
X17187753Y-13424843D02*
X17216324Y-13424843D01*
X17216324Y-13424843D02*
X17235372Y-13434367D01*
X17235372Y-13434367D02*
X17244895Y-13443890D01*
X17244895Y-13443890D02*
X17254419Y-13462938D01*
X17254419Y-13462938D02*
X17254419Y-13520081D01*
X17254419Y-13520081D02*
X17244895Y-13539128D01*
X17244895Y-13539128D02*
X17235372Y-13548652D01*
X17235372Y-13548652D02*
X17216324Y-13558176D01*
X17216324Y-13558176D02*
X17187753Y-13558176D01*
X17368705Y-13558176D02*
X17349657Y-13548652D01*
X17349657Y-13548652D02*
X17340134Y-13529605D01*
X17340134Y-13529605D02*
X17340134Y-13358176D01*
X17521086Y-13548652D02*
X17502038Y-13558176D01*
X17502038Y-13558176D02*
X17463943Y-13558176D01*
X17463943Y-13558176D02*
X17444895Y-13548652D01*
X17444895Y-13548652D02*
X17435372Y-13529605D01*
X17435372Y-13529605D02*
X17435372Y-13453414D01*
X17435372Y-13453414D02*
X17444895Y-13434367D01*
X17444895Y-13434367D02*
X17463943Y-13424843D01*
X17463943Y-13424843D02*
X17502038Y-13424843D01*
X17502038Y-13424843D02*
X17521086Y-13434367D01*
X17521086Y-13434367D02*
X17530610Y-13453414D01*
X17530610Y-13453414D02*
X17530610Y-13472462D01*
X17530610Y-13472462D02*
X17435372Y-13491509D01*
X17606800Y-13548652D02*
X17625848Y-13558176D01*
X17625848Y-13558176D02*
X17663943Y-13558176D01*
X17663943Y-13558176D02*
X17682991Y-13548652D01*
X17682991Y-13548652D02*
X17692515Y-13529605D01*
X17692515Y-13529605D02*
X17692515Y-13520081D01*
X17692515Y-13520081D02*
X17682991Y-13501033D01*
X17682991Y-13501033D02*
X17663943Y-13491509D01*
X17663943Y-13491509D02*
X17635372Y-13491509D01*
X17635372Y-13491509D02*
X17616324Y-13481986D01*
X17616324Y-13481986D02*
X17606800Y-13462938D01*
X17606800Y-13462938D02*
X17606800Y-13453414D01*
X17606800Y-13453414D02*
X17616324Y-13434367D01*
X17616324Y-13434367D02*
X17635372Y-13424843D01*
X17635372Y-13424843D02*
X17663943Y-13424843D01*
X17663943Y-13424843D02*
X17682991Y-13434367D01*
X17759181Y-13634367D02*
X17768705Y-13624843D01*
X17768705Y-13624843D02*
X17787753Y-13596271D01*
X17787753Y-13596271D02*
X17797276Y-13577224D01*
X17797276Y-13577224D02*
X17806800Y-13548652D01*
X17806800Y-13548652D02*
X17816324Y-13501033D01*
X17816324Y-13501033D02*
X17816324Y-13462938D01*
X17816324Y-13462938D02*
X17806800Y-13415319D01*
X17806800Y-13415319D02*
X17797276Y-13386748D01*
X17797276Y-13386748D02*
X17787753Y-13367700D01*
X17787753Y-13367700D02*
X17768705Y-13339128D01*
X17768705Y-13339128D02*
X17759181Y-13329605D01*
X18088705Y-13634367D02*
X18079181Y-13624843D01*
X18079181Y-13624843D02*
X18060134Y-13596271D01*
X18060134Y-13596271D02*
X18050610Y-13577224D01*
X18050610Y-13577224D02*
X18041086Y-13548652D01*
X18041086Y-13548652D02*
X18031562Y-13501033D01*
X18031562Y-13501033D02*
X18031562Y-13462938D01*
X18031562Y-13462938D02*
X18041086Y-13415319D01*
X18041086Y-13415319D02*
X18050610Y-13386748D01*
X18050610Y-13386748D02*
X18060134Y-13367700D01*
X18060134Y-13367700D02*
X18079181Y-13339128D01*
X18079181Y-13339128D02*
X18088705Y-13329605D01*
X18164895Y-13424843D02*
X18164895Y-13558176D01*
X18164895Y-13443890D02*
X18174419Y-13434367D01*
X18174419Y-13434367D02*
X18193467Y-13424843D01*
X18193467Y-13424843D02*
X18222038Y-13424843D01*
X18222038Y-13424843D02*
X18241086Y-13434367D01*
X18241086Y-13434367D02*
X18250610Y-13453414D01*
X18250610Y-13453414D02*
X18250610Y-13558176D01*
X18374419Y-13558176D02*
X18355372Y-13548652D01*
X18355372Y-13548652D02*
X18345848Y-13539128D01*
X18345848Y-13539128D02*
X18336324Y-13520081D01*
X18336324Y-13520081D02*
X18336324Y-13462938D01*
X18336324Y-13462938D02*
X18345848Y-13443890D01*
X18345848Y-13443890D02*
X18355372Y-13434367D01*
X18355372Y-13434367D02*
X18374419Y-13424843D01*
X18374419Y-13424843D02*
X18402991Y-13424843D01*
X18402991Y-13424843D02*
X18422038Y-13434367D01*
X18422038Y-13434367D02*
X18431562Y-13443890D01*
X18431562Y-13443890D02*
X18441086Y-13462938D01*
X18441086Y-13462938D02*
X18441086Y-13520081D01*
X18441086Y-13520081D02*
X18431562Y-13539128D01*
X18431562Y-13539128D02*
X18422038Y-13548652D01*
X18422038Y-13548652D02*
X18402991Y-13558176D01*
X18402991Y-13558176D02*
X18374419Y-13558176D01*
X18498229Y-13424843D02*
X18574419Y-13424843D01*
X18526800Y-13358176D02*
X18526800Y-13529605D01*
X18526800Y-13529605D02*
X18536324Y-13548652D01*
X18536324Y-13548652D02*
X18555372Y-13558176D01*
X18555372Y-13558176D02*
X18574419Y-13558176D01*
X18761086Y-13424843D02*
X18761086Y-13624843D01*
X18761086Y-13434367D02*
X18780134Y-13424843D01*
X18780134Y-13424843D02*
X18818229Y-13424843D01*
X18818229Y-13424843D02*
X18837276Y-13434367D01*
X18837276Y-13434367D02*
X18846800Y-13443890D01*
X18846800Y-13443890D02*
X18856324Y-13462938D01*
X18856324Y-13462938D02*
X18856324Y-13520081D01*
X18856324Y-13520081D02*
X18846800Y-13539128D01*
X18846800Y-13539128D02*
X18837276Y-13548652D01*
X18837276Y-13548652D02*
X18818229Y-13558176D01*
X18818229Y-13558176D02*
X18780134Y-13558176D01*
X18780134Y-13558176D02*
X18761086Y-13548652D01*
X18970610Y-13558176D02*
X18951562Y-13548652D01*
X18951562Y-13548652D02*
X18942038Y-13529605D01*
X18942038Y-13529605D02*
X18942038Y-13358176D01*
X19132515Y-13558176D02*
X19132515Y-13453414D01*
X19132515Y-13453414D02*
X19122991Y-13434367D01*
X19122991Y-13434367D02*
X19103943Y-13424843D01*
X19103943Y-13424843D02*
X19065848Y-13424843D01*
X19065848Y-13424843D02*
X19046800Y-13434367D01*
X19132515Y-13548652D02*
X19113467Y-13558176D01*
X19113467Y-13558176D02*
X19065848Y-13558176D01*
X19065848Y-13558176D02*
X19046800Y-13548652D01*
X19046800Y-13548652D02*
X19037276Y-13529605D01*
X19037276Y-13529605D02*
X19037276Y-13510557D01*
X19037276Y-13510557D02*
X19046800Y-13491509D01*
X19046800Y-13491509D02*
X19065848Y-13481986D01*
X19065848Y-13481986D02*
X19113467Y-13481986D01*
X19113467Y-13481986D02*
X19132515Y-13472462D01*
X19199181Y-13424843D02*
X19275372Y-13424843D01*
X19227753Y-13358176D02*
X19227753Y-13529605D01*
X19227753Y-13529605D02*
X19237276Y-13548652D01*
X19237276Y-13548652D02*
X19256324Y-13558176D01*
X19256324Y-13558176D02*
X19275372Y-13558176D01*
X19418229Y-13548652D02*
X19399181Y-13558176D01*
X19399181Y-13558176D02*
X19361086Y-13558176D01*
X19361086Y-13558176D02*
X19342038Y-13548652D01*
X19342038Y-13548652D02*
X19332515Y-13529605D01*
X19332515Y-13529605D02*
X19332515Y-13453414D01*
X19332515Y-13453414D02*
X19342038Y-13434367D01*
X19342038Y-13434367D02*
X19361086Y-13424843D01*
X19361086Y-13424843D02*
X19399181Y-13424843D01*
X19399181Y-13424843D02*
X19418229Y-13434367D01*
X19418229Y-13434367D02*
X19427753Y-13453414D01*
X19427753Y-13453414D02*
X19427753Y-13472462D01*
X19427753Y-13472462D02*
X19332515Y-13491509D01*
X19599181Y-13558176D02*
X19599181Y-13358176D01*
X19599181Y-13548652D02*
X19580134Y-13558176D01*
X19580134Y-13558176D02*
X19542038Y-13558176D01*
X19542038Y-13558176D02*
X19522991Y-13548652D01*
X19522991Y-13548652D02*
X19513467Y-13539128D01*
X19513467Y-13539128D02*
X19503943Y-13520081D01*
X19503943Y-13520081D02*
X19503943Y-13462938D01*
X19503943Y-13462938D02*
X19513467Y-13443890D01*
X19513467Y-13443890D02*
X19522991Y-13434367D01*
X19522991Y-13434367D02*
X19542038Y-13424843D01*
X19542038Y-13424843D02*
X19580134Y-13424843D01*
X19580134Y-13424843D02*
X19599181Y-13434367D01*
X19675372Y-13634367D02*
X19684896Y-13624843D01*
X19684896Y-13624843D02*
X19703943Y-13596271D01*
X19703943Y-13596271D02*
X19713467Y-13577224D01*
X19713467Y-13577224D02*
X19722991Y-13548652D01*
X19722991Y-13548652D02*
X19732515Y-13501033D01*
X19732515Y-13501033D02*
X19732515Y-13462938D01*
X19732515Y-13462938D02*
X19722991Y-13415319D01*
X19722991Y-13415319D02*
X19713467Y-13386748D01*
X19713467Y-13386748D02*
X19703943Y-13367700D01*
X19703943Y-13367700D02*
X19684896Y-13339128D01*
X19684896Y-13339128D02*
X19675372Y-13329605D01*
M02*
