%TF.GenerationSoftware,KiCad,Pcbnew,6.99.0-unknown-08a8a20794~162~ubuntu22.04.1*%
%TF.CreationDate,2022-12-21T10:25:03+01:00*%
%TF.ProjectId,usb_relay,7573625f-7265-46c6-9179-2e6b69636164,rev?*%
%TF.SameCoordinates,Original*%
%TF.FileFunction,Soldermask,Bot*%
%TF.FilePolarity,Negative*%
%FSLAX46Y46*%
G04 Gerber Fmt 4.6, Leading zero omitted, Abs format (unit mm)*
G04 Created by KiCad (PCBNEW 6.99.0-unknown-08a8a20794~162~ubuntu22.04.1) date 2022-12-21 10:25:03*
%MOMM*%
%LPD*%
G01*
G04 APERTURE LIST*
G04 Aperture macros list*
%AMRoundRect*
0 Rectangle with rounded corners*
0 $1 Rounding radius*
0 $2 $3 $4 $5 $6 $7 $8 $9 X,Y pos of 4 corners*
0 Add a 4 corners polygon primitive as box body*
4,1,4,$2,$3,$4,$5,$6,$7,$8,$9,$2,$3,0*
0 Add four circle primitives for the rounded corners*
1,1,$1+$1,$2,$3*
1,1,$1+$1,$4,$5*
1,1,$1+$1,$6,$7*
1,1,$1+$1,$8,$9*
0 Add four rect primitives between the rounded corners*
20,1,$1+$1,$2,$3,$4,$5,0*
20,1,$1+$1,$4,$5,$6,$7,0*
20,1,$1+$1,$6,$7,$8,$9,0*
20,1,$1+$1,$8,$9,$2,$3,0*%
G04 Aperture macros list end*
%ADD10RoundRect,0.250000X1.550000X-0.750000X1.550000X0.750000X-1.550000X0.750000X-1.550000X-0.750000X0*%
%ADD11O,3.600000X2.000000*%
%ADD12R,1.600000X1.600000*%
%ADD13C,1.600000*%
%ADD14C,4.000000*%
%ADD15C,2.700000*%
%ADD16R,2.000000X2.000000*%
%ADD17C,2.000000*%
%ADD18R,2.400000X2.400000*%
%ADD19C,2.400000*%
%ADD20C,1.500000*%
G04 APERTURE END LIST*
D10*
%TO.C,J4*%
X138898500Y-121225000D03*
D11*
X138898499Y-113724999D03*
%TD*%
D12*
%TO.C,J7*%
X211296899Y-89885199D03*
D13*
X211296900Y-92385200D03*
X213296900Y-92385200D03*
X213296900Y-89885200D03*
D14*
X216156900Y-85135200D03*
X216156900Y-97135200D03*
%TD*%
D15*
%TO.C,REF\u002A\u002A*%
X214884000Y-56286400D03*
%TD*%
D16*
%TO.C,U5*%
X155403499Y-79528499D03*
D17*
X165563500Y-79528500D03*
X177755500Y-79528500D03*
X182835500Y-79528500D03*
%TD*%
D16*
%TO.C,U4*%
X155276499Y-93498499D03*
D17*
X165436500Y-93498500D03*
X177628500Y-93498500D03*
X182708500Y-93498500D03*
%TD*%
D16*
%TO.C,U2*%
X155403499Y-65431499D03*
D17*
X165563500Y-65431500D03*
X177755500Y-65431500D03*
X182835500Y-65431500D03*
%TD*%
D10*
%TO.C,J5*%
X138898500Y-103826000D03*
D11*
X138898499Y-96325999D03*
%TD*%
D10*
%TO.C,J6*%
X139192000Y-86614000D03*
D11*
X139191999Y-79113999D03*
%TD*%
D16*
%TO.C,U3*%
X155276499Y-107722499D03*
D17*
X165436500Y-107722500D03*
X177628500Y-107722500D03*
X182708500Y-107722500D03*
%TD*%
D15*
%TO.C,REF\u002A\u002A*%
X146202400Y-124917200D03*
%TD*%
%TO.C,REF\u002A\u002A*%
X214985600Y-125018800D03*
%TD*%
%TO.C,REF\u002A\u002A*%
X146100800Y-56184800D03*
%TD*%
D18*
%TO.C,J2*%
X175102999Y-120776999D03*
D19*
X178603000Y-120777000D03*
X182103000Y-120777000D03*
X185603000Y-120777000D03*
X189103000Y-120777000D03*
X192603000Y-120777000D03*
X196103000Y-120777000D03*
X199603000Y-120777000D03*
%TD*%
D20*
%TO.C,Y1*%
X203262400Y-84886800D03*
X198362400Y-84886800D03*
%TD*%
D10*
%TO.C,J3*%
X139025500Y-69155000D03*
D11*
X139025499Y-61654999D03*
%TD*%
M02*
