%TF.GenerationSoftware,KiCad,Pcbnew,6.99.0-unknown-08a8a20794~162~ubuntu22.04.1*%
%TF.CreationDate,2022-12-21T10:24:56+01:00*%
%TF.ProjectId,usb_relay,7573625f-7265-46c6-9179-2e6b69636164,rev?*%
%TF.SameCoordinates,Original*%
%TF.FileFunction,Drillmap*%
%TF.FilePolarity,Positive*%
%FSLAX45Y45*%
G04 Gerber Fmt 4.5, Leading zero omitted, Abs format (unit mm)*
G04 Created by KiCad (PCBNEW 6.99.0-unknown-08a8a20794~162~ubuntu22.04.1) date 2022-12-21 10:24:56*
%MOMM*%
%LPD*%
G01*
G04 APERTURE LIST*
%ADD10C,0.100000*%
%ADD11C,0.200000*%
%ADD12C,0.040000*%
%ADD13C,0.060000*%
%ADD14C,0.080000*%
%ADD15C,0.095000*%
%ADD16C,0.120000*%
%ADD17C,0.140000*%
%ADD18C,0.230000*%
G04 APERTURE END LIST*
D10*
X13136880Y-5323840D02*
X13131800Y-12827000D01*
X21899880Y-5318760D02*
X13136880Y-5323840D01*
X13131800Y-12827000D02*
X21899880Y-12839700D01*
X21899880Y-12839700D02*
X21899880Y-5318760D01*
D11*
D12*
X19271300Y-10838500D02*
X19311300Y-10878500D01*
X19311300Y-10838500D02*
X19271300Y-10878500D01*
X19416080Y-9215440D02*
X19456080Y-9255440D01*
X19456080Y-9215440D02*
X19416080Y-9255440D01*
X19421160Y-8783640D02*
X19461160Y-8823640D01*
X19461160Y-8783640D02*
X19421160Y-8823640D01*
X19649760Y-8824280D02*
X19689760Y-8864280D01*
X19689760Y-8824280D02*
X19649760Y-8864280D01*
X19804700Y-9936800D02*
X19844700Y-9976800D01*
X19844700Y-9936800D02*
X19804700Y-9976800D01*
X20084100Y-9962200D02*
X20124100Y-10002200D01*
X20124100Y-9962200D02*
X20084100Y-10002200D01*
X20513360Y-9317040D02*
X20553360Y-9357040D01*
X20553360Y-9317040D02*
X20513360Y-9357040D01*
X20614960Y-8980490D02*
X20654960Y-9020490D01*
X20654960Y-8980490D02*
X20614960Y-9020490D01*
X20808000Y-10140000D02*
X20848000Y-10180000D01*
X20848000Y-10140000D02*
X20808000Y-10180000D01*
D13*
X14314960Y-6908800D02*
G75*
G03*
X14314960Y-6908800I-30000J0D01*
G01*
X14320040Y-6162040D02*
G75*
G03*
X14320040Y-6162040I-30000J0D01*
G01*
X14320040Y-10373360D02*
G75*
G03*
X14320040Y-10373360I-30000J0D01*
G01*
X14325120Y-9626600D02*
G75*
G03*
X14325120Y-9626600I-30000J0D01*
G01*
X14325120Y-11826240D02*
G75*
G03*
X14325120Y-11826240I-30000J0D01*
G01*
X14330200Y-11369040D02*
G75*
G03*
X14330200Y-11369040I-30000J0D01*
G01*
X14350520Y-7909560D02*
G75*
G03*
X14350520Y-7909560I-30000J0D01*
G01*
X14350520Y-8651240D02*
G75*
G03*
X14350520Y-8651240I-30000J0D01*
G01*
X14568960Y-10139680D02*
G75*
G03*
X14568960Y-10139680I-30000J0D01*
G01*
X14614680Y-9494520D02*
G75*
G03*
X14614680Y-9494520I-30000J0D01*
G01*
X14690880Y-10977880D02*
G75*
G03*
X14690880Y-10977880I-30000J0D01*
G01*
X14695960Y-11821160D02*
G75*
G03*
X14695960Y-11821160I-30000J0D01*
G01*
X14772160Y-6172200D02*
G75*
G03*
X14772160Y-6172200I-30000J0D01*
G01*
X14772160Y-6913880D02*
G75*
G03*
X14772160Y-6913880I-30000J0D01*
G01*
X14843280Y-8473440D02*
G75*
G03*
X14843280Y-8473440I-30000J0D01*
G01*
X14853440Y-7757160D02*
G75*
G03*
X14853440Y-7757160I-30000J0D01*
G01*
X14868680Y-9834880D02*
G75*
G03*
X14868680Y-9834880I-30000J0D01*
G01*
X14878840Y-10566400D02*
G75*
G03*
X14878840Y-10566400I-30000J0D01*
G01*
X14944880Y-9144000D02*
G75*
G03*
X14944880Y-9144000I-30000J0D01*
G01*
X15102360Y-11831320D02*
G75*
G03*
X15102360Y-11831320I-30000J0D01*
G01*
X15209040Y-7594600D02*
G75*
G03*
X15209040Y-7594600I-30000J0D01*
G01*
X15224280Y-9489440D02*
G75*
G03*
X15224280Y-9489440I-30000J0D01*
G01*
X15239520Y-8077200D02*
G75*
G03*
X15239520Y-8077200I-30000J0D01*
G01*
X15356360Y-6913880D02*
G75*
G03*
X15356360Y-6913880I-30000J0D01*
G01*
X15356360Y-10373360D02*
G75*
G03*
X15356360Y-10373360I-30000J0D01*
G01*
X15366520Y-6004560D02*
G75*
G03*
X15366520Y-6004560I-30000J0D01*
G01*
X15371600Y-8961120D02*
G75*
G03*
X15371600Y-8961120I-30000J0D01*
G01*
X15422400Y-11694160D02*
G75*
G03*
X15422400Y-11694160I-30000J0D01*
G01*
X15564640Y-11221720D02*
G75*
G03*
X15564640Y-11221720I-30000J0D01*
G01*
X15737360Y-7604760D02*
G75*
G03*
X15737360Y-7604760I-30000J0D01*
G01*
X15747520Y-5999480D02*
G75*
G03*
X15747520Y-5999480I-30000J0D01*
G01*
X15833880Y-8956040D02*
G75*
G03*
X15833880Y-8956040I-30000J0D01*
G01*
X15844040Y-10378440D02*
G75*
G03*
X15844040Y-10378440I-30000J0D01*
G01*
X16118360Y-5994400D02*
G75*
G03*
X16118360Y-5994400I-30000J0D01*
G01*
X16280920Y-8961120D02*
G75*
G03*
X16280920Y-8961120I-30000J0D01*
G01*
X16301240Y-7604760D02*
G75*
G03*
X16301240Y-7604760I-30000J0D01*
G01*
X16382520Y-10363200D02*
G75*
G03*
X16382520Y-10363200I-30000J0D01*
G01*
X16580640Y-6294120D02*
G75*
G03*
X16580640Y-6294120I-30000J0D01*
G01*
D14*
X19836240Y-8448680D02*
X19836240Y-8528680D01*
X19796240Y-8488680D02*
X19876240Y-8488680D01*
X20326240Y-8448680D02*
X20326240Y-8528680D01*
X20286240Y-8488680D02*
X20366240Y-8488680D01*
D15*
X21163278Y-9022108D02*
X21163278Y-8954932D01*
X21096102Y-8954932D01*
X21096102Y-9022108D01*
X21163278Y-9022108D01*
X21163278Y-9272108D02*
X21163278Y-9204932D01*
X21096102Y-9204932D01*
X21096102Y-9272108D01*
X21163278Y-9272108D01*
X21363278Y-9022108D02*
X21363278Y-8954932D01*
X21296102Y-8954932D01*
X21296102Y-9022108D01*
X21363278Y-9022108D01*
X21363278Y-9272108D02*
X21363278Y-9204932D01*
X21296102Y-9204932D01*
X21296102Y-9272108D01*
X21363278Y-9272108D01*
D10*
X15527650Y-9399850D02*
X15577650Y-9349850D01*
X15527650Y-9299850D01*
X15477650Y-9349850D01*
X15527650Y-9399850D01*
X15527650Y-10822250D02*
X15577650Y-10772250D01*
X15527650Y-10722250D01*
X15477650Y-10772250D01*
X15527650Y-10822250D01*
X15540350Y-6593150D02*
X15590350Y-6543150D01*
X15540350Y-6493150D01*
X15490350Y-6543150D01*
X15540350Y-6593150D01*
X15540350Y-8002850D02*
X15590350Y-7952850D01*
X15540350Y-7902850D01*
X15490350Y-7952850D01*
X15540350Y-8002850D01*
X16543650Y-9399850D02*
X16593650Y-9349850D01*
X16543650Y-9299850D01*
X16493650Y-9349850D01*
X16543650Y-9399850D01*
X16543650Y-10822250D02*
X16593650Y-10772250D01*
X16543650Y-10722250D01*
X16493650Y-10772250D01*
X16543650Y-10822250D01*
X16556350Y-6593150D02*
X16606350Y-6543150D01*
X16556350Y-6493150D01*
X16506350Y-6543150D01*
X16556350Y-6593150D01*
X16556350Y-8002850D02*
X16606350Y-7952850D01*
X16556350Y-7902850D01*
X16506350Y-7952850D01*
X16556350Y-8002850D01*
X17762850Y-9399850D02*
X17812850Y-9349850D01*
X17762850Y-9299850D01*
X17712850Y-9349850D01*
X17762850Y-9399850D01*
X17762850Y-10822250D02*
X17812850Y-10772250D01*
X17762850Y-10722250D01*
X17712850Y-10772250D01*
X17762850Y-10822250D01*
X17775550Y-6593150D02*
X17825550Y-6543150D01*
X17775550Y-6493150D01*
X17725550Y-6543150D01*
X17775550Y-6593150D01*
X17775550Y-8002850D02*
X17825550Y-7952850D01*
X17775550Y-7902850D01*
X17725550Y-7952850D01*
X17775550Y-8002850D01*
X18270850Y-9399850D02*
X18320850Y-9349850D01*
X18270850Y-9299850D01*
X18220850Y-9349850D01*
X18270850Y-9399850D01*
X18270850Y-10822250D02*
X18320850Y-10772250D01*
X18270850Y-10722250D01*
X18220850Y-10772250D01*
X18270850Y-10822250D01*
X18283550Y-6593150D02*
X18333550Y-6543150D01*
X18283550Y-6493150D01*
X18233550Y-6543150D01*
X18283550Y-6593150D01*
X18283550Y-8002850D02*
X18333550Y-7952850D01*
X18283550Y-7902850D01*
X18233550Y-7952850D01*
X18283550Y-8002850D01*
D16*
X17450300Y-12017700D02*
X17570300Y-12137700D01*
X17570300Y-12017700D02*
X17450300Y-12137700D01*
X17570300Y-12077700D02*
G75*
G03*
X17570300Y-12077700I-60000J0D01*
G01*
X17800300Y-12017700D02*
X17920300Y-12137700D01*
X17920300Y-12017700D02*
X17800300Y-12137700D01*
X17920300Y-12077700D02*
G75*
G03*
X17920300Y-12077700I-60000J0D01*
G01*
X18150300Y-12017700D02*
X18270300Y-12137700D01*
X18270300Y-12017700D02*
X18150300Y-12137700D01*
X18270300Y-12077700D02*
G75*
G03*
X18270300Y-12077700I-60000J0D01*
G01*
X18500300Y-12017700D02*
X18620300Y-12137700D01*
X18620300Y-12017700D02*
X18500300Y-12137700D01*
X18620300Y-12077700D02*
G75*
G03*
X18620300Y-12077700I-60000J0D01*
G01*
X18850300Y-12017700D02*
X18970300Y-12137700D01*
X18970300Y-12017700D02*
X18850300Y-12137700D01*
X18970300Y-12077700D02*
G75*
G03*
X18970300Y-12077700I-60000J0D01*
G01*
X19200300Y-12017700D02*
X19320300Y-12137700D01*
X19320300Y-12017700D02*
X19200300Y-12137700D01*
X19320300Y-12077700D02*
G75*
G03*
X19320300Y-12077700I-60000J0D01*
G01*
X19550300Y-12017700D02*
X19670300Y-12137700D01*
X19670300Y-12017700D02*
X19550300Y-12137700D01*
X19670300Y-12077700D02*
G75*
G03*
X19670300Y-12077700I-60000J0D01*
G01*
X19900300Y-12017700D02*
X20020300Y-12137700D01*
X20020300Y-12017700D02*
X19900300Y-12137700D01*
X20020300Y-12077700D02*
G75*
G03*
X20020300Y-12077700I-60000J0D01*
G01*
D17*
X13819850Y-9562600D02*
X13959850Y-9702600D01*
X13959850Y-9562600D02*
X13819850Y-9702600D01*
X13889850Y-9562600D02*
X13889850Y-9702600D01*
X13819850Y-9632600D02*
X13959850Y-9632600D01*
X13819850Y-10312600D02*
X13959850Y-10452600D01*
X13959850Y-10312600D02*
X13819850Y-10452600D01*
X13889850Y-10312600D02*
X13889850Y-10452600D01*
X13819850Y-10382600D02*
X13959850Y-10382600D01*
X13819850Y-11302500D02*
X13959850Y-11442500D01*
X13959850Y-11302500D02*
X13819850Y-11442500D01*
X13889850Y-11302500D02*
X13889850Y-11442500D01*
X13819850Y-11372500D02*
X13959850Y-11372500D01*
X13819850Y-12052500D02*
X13959850Y-12192500D01*
X13959850Y-12052500D02*
X13819850Y-12192500D01*
X13889850Y-12052500D02*
X13889850Y-12192500D01*
X13819850Y-12122500D02*
X13959850Y-12122500D01*
X13832550Y-6095500D02*
X13972550Y-6235500D01*
X13972550Y-6095500D02*
X13832550Y-6235500D01*
X13902550Y-6095500D02*
X13902550Y-6235500D01*
X13832550Y-6165500D02*
X13972550Y-6165500D01*
X13832550Y-6845500D02*
X13972550Y-6985500D01*
X13972550Y-6845500D02*
X13832550Y-6985500D01*
X13902550Y-6845500D02*
X13902550Y-6985500D01*
X13832550Y-6915500D02*
X13972550Y-6915500D01*
X13849200Y-7841400D02*
X13989200Y-7981400D01*
X13989200Y-7841400D02*
X13849200Y-7981400D01*
X13919200Y-7841400D02*
X13919200Y-7981400D01*
X13849200Y-7911400D02*
X13989200Y-7911400D01*
X13849200Y-8591400D02*
X13989200Y-8731400D01*
X13989200Y-8591400D02*
X13849200Y-8731400D01*
X13919200Y-8591400D02*
X13919200Y-8731400D01*
X13849200Y-8661400D02*
X13989200Y-8661400D01*
D18*
X21500690Y-8398520D02*
X21730690Y-8628520D01*
X21730690Y-8398520D02*
X21500690Y-8628520D01*
X21697008Y-8594838D02*
X21697008Y-8432202D01*
X21534372Y-8432202D01*
X21534372Y-8594838D01*
X21697008Y-8594838D01*
X21500690Y-9598520D02*
X21730690Y-9828520D01*
X21730690Y-9598520D02*
X21500690Y-9828520D01*
X21697008Y-9794838D02*
X21697008Y-9632202D01*
X21534372Y-9632202D01*
X21534372Y-9794838D01*
X21697008Y-9794838D01*
D11*
X13374419Y-13138176D02*
X13374419Y-12938176D01*
X13374419Y-12938176D02*
X13422038Y-12938176D01*
X13422038Y-12938176D02*
X13450609Y-12947700D01*
X13450609Y-12947700D02*
X13469657Y-12966748D01*
X13469657Y-12966748D02*
X13479181Y-12985795D01*
X13479181Y-12985795D02*
X13488705Y-13023890D01*
X13488705Y-13023890D02*
X13488705Y-13052462D01*
X13488705Y-13052462D02*
X13479181Y-13090557D01*
X13479181Y-13090557D02*
X13469657Y-13109605D01*
X13469657Y-13109605D02*
X13450609Y-13128652D01*
X13450609Y-13128652D02*
X13422038Y-13138176D01*
X13422038Y-13138176D02*
X13374419Y-13138176D01*
X13574419Y-13138176D02*
X13574419Y-13004843D01*
X13574419Y-13042938D02*
X13583943Y-13023890D01*
X13583943Y-13023890D02*
X13593467Y-13014367D01*
X13593467Y-13014367D02*
X13612514Y-13004843D01*
X13612514Y-13004843D02*
X13631562Y-13004843D01*
X13698228Y-13138176D02*
X13698228Y-13004843D01*
X13698228Y-12938176D02*
X13688705Y-12947700D01*
X13688705Y-12947700D02*
X13698228Y-12957224D01*
X13698228Y-12957224D02*
X13707752Y-12947700D01*
X13707752Y-12947700D02*
X13698228Y-12938176D01*
X13698228Y-12938176D02*
X13698228Y-12957224D01*
X13822038Y-13138176D02*
X13802990Y-13128652D01*
X13802990Y-13128652D02*
X13793467Y-13109605D01*
X13793467Y-13109605D02*
X13793467Y-12938176D01*
X13926800Y-13138176D02*
X13907752Y-13128652D01*
X13907752Y-13128652D02*
X13898228Y-13109605D01*
X13898228Y-13109605D02*
X13898228Y-12938176D01*
X14122990Y-13138176D02*
X14122990Y-12938176D01*
X14122990Y-12938176D02*
X14189657Y-13081033D01*
X14189657Y-13081033D02*
X14256324Y-12938176D01*
X14256324Y-12938176D02*
X14256324Y-13138176D01*
X14437276Y-13138176D02*
X14437276Y-13033414D01*
X14437276Y-13033414D02*
X14427752Y-13014367D01*
X14427752Y-13014367D02*
X14408705Y-13004843D01*
X14408705Y-13004843D02*
X14370609Y-13004843D01*
X14370609Y-13004843D02*
X14351562Y-13014367D01*
X14437276Y-13128652D02*
X14418228Y-13138176D01*
X14418228Y-13138176D02*
X14370609Y-13138176D01*
X14370609Y-13138176D02*
X14351562Y-13128652D01*
X14351562Y-13128652D02*
X14342038Y-13109605D01*
X14342038Y-13109605D02*
X14342038Y-13090557D01*
X14342038Y-13090557D02*
X14351562Y-13071509D01*
X14351562Y-13071509D02*
X14370609Y-13061986D01*
X14370609Y-13061986D02*
X14418228Y-13061986D01*
X14418228Y-13061986D02*
X14437276Y-13052462D01*
X14532514Y-13004843D02*
X14532514Y-13204843D01*
X14532514Y-13014367D02*
X14551562Y-13004843D01*
X14551562Y-13004843D02*
X14589657Y-13004843D01*
X14589657Y-13004843D02*
X14608705Y-13014367D01*
X14608705Y-13014367D02*
X14618228Y-13023890D01*
X14618228Y-13023890D02*
X14627752Y-13042938D01*
X14627752Y-13042938D02*
X14627752Y-13100081D01*
X14627752Y-13100081D02*
X14618228Y-13119128D01*
X14618228Y-13119128D02*
X14608705Y-13128652D01*
X14608705Y-13128652D02*
X14589657Y-13138176D01*
X14589657Y-13138176D02*
X14551562Y-13138176D01*
X14551562Y-13138176D02*
X14532514Y-13128652D01*
X14713467Y-13119128D02*
X14722990Y-13128652D01*
X14722990Y-13128652D02*
X14713467Y-13138176D01*
X14713467Y-13138176D02*
X14703943Y-13128652D01*
X14703943Y-13128652D02*
X14713467Y-13119128D01*
X14713467Y-13119128D02*
X14713467Y-13138176D01*
X14713467Y-13014367D02*
X14722990Y-13023890D01*
X14722990Y-13023890D02*
X14713467Y-13033414D01*
X14713467Y-13033414D02*
X14703943Y-13023890D01*
X14703943Y-13023890D02*
X14713467Y-13014367D01*
X14713467Y-13014367D02*
X14713467Y-13033414D01*
D12*
X13086800Y-13464700D02*
X13126800Y-13504700D01*
X13126800Y-13464700D02*
X13086800Y-13504700D01*
D11*
X13412514Y-13358176D02*
X13431562Y-13358176D01*
X13431562Y-13358176D02*
X13450609Y-13367700D01*
X13450609Y-13367700D02*
X13460133Y-13377224D01*
X13460133Y-13377224D02*
X13469657Y-13396271D01*
X13469657Y-13396271D02*
X13479181Y-13434367D01*
X13479181Y-13434367D02*
X13479181Y-13481986D01*
X13479181Y-13481986D02*
X13469657Y-13520081D01*
X13469657Y-13520081D02*
X13460133Y-13539128D01*
X13460133Y-13539128D02*
X13450609Y-13548652D01*
X13450609Y-13548652D02*
X13431562Y-13558176D01*
X13431562Y-13558176D02*
X13412514Y-13558176D01*
X13412514Y-13558176D02*
X13393467Y-13548652D01*
X13393467Y-13548652D02*
X13383943Y-13539128D01*
X13383943Y-13539128D02*
X13374419Y-13520081D01*
X13374419Y-13520081D02*
X13364895Y-13481986D01*
X13364895Y-13481986D02*
X13364895Y-13434367D01*
X13364895Y-13434367D02*
X13374419Y-13396271D01*
X13374419Y-13396271D02*
X13383943Y-13377224D01*
X13383943Y-13377224D02*
X13393467Y-13367700D01*
X13393467Y-13367700D02*
X13412514Y-13358176D01*
X13564895Y-13539128D02*
X13574419Y-13548652D01*
X13574419Y-13548652D02*
X13564895Y-13558176D01*
X13564895Y-13558176D02*
X13555371Y-13548652D01*
X13555371Y-13548652D02*
X13564895Y-13539128D01*
X13564895Y-13539128D02*
X13564895Y-13558176D01*
X13745848Y-13424843D02*
X13745848Y-13558176D01*
X13698228Y-13348652D02*
X13650609Y-13491509D01*
X13650609Y-13491509D02*
X13774419Y-13491509D01*
X13888705Y-13358176D02*
X13907752Y-13358176D01*
X13907752Y-13358176D02*
X13926800Y-13367700D01*
X13926800Y-13367700D02*
X13936324Y-13377224D01*
X13936324Y-13377224D02*
X13945848Y-13396271D01*
X13945848Y-13396271D02*
X13955371Y-13434367D01*
X13955371Y-13434367D02*
X13955371Y-13481986D01*
X13955371Y-13481986D02*
X13945848Y-13520081D01*
X13945848Y-13520081D02*
X13936324Y-13539128D01*
X13936324Y-13539128D02*
X13926800Y-13548652D01*
X13926800Y-13548652D02*
X13907752Y-13558176D01*
X13907752Y-13558176D02*
X13888705Y-13558176D01*
X13888705Y-13558176D02*
X13869657Y-13548652D01*
X13869657Y-13548652D02*
X13860133Y-13539128D01*
X13860133Y-13539128D02*
X13850609Y-13520081D01*
X13850609Y-13520081D02*
X13841086Y-13481986D01*
X13841086Y-13481986D02*
X13841086Y-13434367D01*
X13841086Y-13434367D02*
X13850609Y-13396271D01*
X13850609Y-13396271D02*
X13860133Y-13377224D01*
X13860133Y-13377224D02*
X13869657Y-13367700D01*
X13869657Y-13367700D02*
X13888705Y-13358176D01*
X14079181Y-13358176D02*
X14098229Y-13358176D01*
X14098229Y-13358176D02*
X14117276Y-13367700D01*
X14117276Y-13367700D02*
X14126800Y-13377224D01*
X14126800Y-13377224D02*
X14136324Y-13396271D01*
X14136324Y-13396271D02*
X14145848Y-13434367D01*
X14145848Y-13434367D02*
X14145848Y-13481986D01*
X14145848Y-13481986D02*
X14136324Y-13520081D01*
X14136324Y-13520081D02*
X14126800Y-13539128D01*
X14126800Y-13539128D02*
X14117276Y-13548652D01*
X14117276Y-13548652D02*
X14098229Y-13558176D01*
X14098229Y-13558176D02*
X14079181Y-13558176D01*
X14079181Y-13558176D02*
X14060133Y-13548652D01*
X14060133Y-13548652D02*
X14050609Y-13539128D01*
X14050609Y-13539128D02*
X14041086Y-13520081D01*
X14041086Y-13520081D02*
X14031562Y-13481986D01*
X14031562Y-13481986D02*
X14031562Y-13434367D01*
X14031562Y-13434367D02*
X14041086Y-13396271D01*
X14041086Y-13396271D02*
X14050609Y-13377224D01*
X14050609Y-13377224D02*
X14060133Y-13367700D01*
X14060133Y-13367700D02*
X14079181Y-13358176D01*
X14231562Y-13558176D02*
X14231562Y-13424843D01*
X14231562Y-13443890D02*
X14241086Y-13434367D01*
X14241086Y-13434367D02*
X14260133Y-13424843D01*
X14260133Y-13424843D02*
X14288705Y-13424843D01*
X14288705Y-13424843D02*
X14307752Y-13434367D01*
X14307752Y-13434367D02*
X14317276Y-13453414D01*
X14317276Y-13453414D02*
X14317276Y-13558176D01*
X14317276Y-13453414D02*
X14326800Y-13434367D01*
X14326800Y-13434367D02*
X14345848Y-13424843D01*
X14345848Y-13424843D02*
X14374419Y-13424843D01*
X14374419Y-13424843D02*
X14393467Y-13434367D01*
X14393467Y-13434367D02*
X14402990Y-13453414D01*
X14402990Y-13453414D02*
X14402990Y-13558176D01*
X14498229Y-13558176D02*
X14498229Y-13424843D01*
X14498229Y-13443890D02*
X14507752Y-13434367D01*
X14507752Y-13434367D02*
X14526800Y-13424843D01*
X14526800Y-13424843D02*
X14555371Y-13424843D01*
X14555371Y-13424843D02*
X14574419Y-13434367D01*
X14574419Y-13434367D02*
X14583943Y-13453414D01*
X14583943Y-13453414D02*
X14583943Y-13558176D01*
X14583943Y-13453414D02*
X14593467Y-13434367D01*
X14593467Y-13434367D02*
X14612514Y-13424843D01*
X14612514Y-13424843D02*
X14641086Y-13424843D01*
X14641086Y-13424843D02*
X14660133Y-13434367D01*
X14660133Y-13434367D02*
X14669657Y-13453414D01*
X14669657Y-13453414D02*
X14669657Y-13558176D01*
X15027752Y-13348652D02*
X14856324Y-13605795D01*
X15252514Y-13358176D02*
X15271562Y-13358176D01*
X15271562Y-13358176D02*
X15290610Y-13367700D01*
X15290610Y-13367700D02*
X15300133Y-13377224D01*
X15300133Y-13377224D02*
X15309657Y-13396271D01*
X15309657Y-13396271D02*
X15319181Y-13434367D01*
X15319181Y-13434367D02*
X15319181Y-13481986D01*
X15319181Y-13481986D02*
X15309657Y-13520081D01*
X15309657Y-13520081D02*
X15300133Y-13539128D01*
X15300133Y-13539128D02*
X15290610Y-13548652D01*
X15290610Y-13548652D02*
X15271562Y-13558176D01*
X15271562Y-13558176D02*
X15252514Y-13558176D01*
X15252514Y-13558176D02*
X15233467Y-13548652D01*
X15233467Y-13548652D02*
X15223943Y-13539128D01*
X15223943Y-13539128D02*
X15214419Y-13520081D01*
X15214419Y-13520081D02*
X15204895Y-13481986D01*
X15204895Y-13481986D02*
X15204895Y-13434367D01*
X15204895Y-13434367D02*
X15214419Y-13396271D01*
X15214419Y-13396271D02*
X15223943Y-13377224D01*
X15223943Y-13377224D02*
X15233467Y-13367700D01*
X15233467Y-13367700D02*
X15252514Y-13358176D01*
X15404895Y-13539128D02*
X15414419Y-13548652D01*
X15414419Y-13548652D02*
X15404895Y-13558176D01*
X15404895Y-13558176D02*
X15395371Y-13548652D01*
X15395371Y-13548652D02*
X15404895Y-13539128D01*
X15404895Y-13539128D02*
X15404895Y-13558176D01*
X15538229Y-13358176D02*
X15557276Y-13358176D01*
X15557276Y-13358176D02*
X15576324Y-13367700D01*
X15576324Y-13367700D02*
X15585848Y-13377224D01*
X15585848Y-13377224D02*
X15595371Y-13396271D01*
X15595371Y-13396271D02*
X15604895Y-13434367D01*
X15604895Y-13434367D02*
X15604895Y-13481986D01*
X15604895Y-13481986D02*
X15595371Y-13520081D01*
X15595371Y-13520081D02*
X15585848Y-13539128D01*
X15585848Y-13539128D02*
X15576324Y-13548652D01*
X15576324Y-13548652D02*
X15557276Y-13558176D01*
X15557276Y-13558176D02*
X15538229Y-13558176D01*
X15538229Y-13558176D02*
X15519181Y-13548652D01*
X15519181Y-13548652D02*
X15509657Y-13539128D01*
X15509657Y-13539128D02*
X15500133Y-13520081D01*
X15500133Y-13520081D02*
X15490610Y-13481986D01*
X15490610Y-13481986D02*
X15490610Y-13434367D01*
X15490610Y-13434367D02*
X15500133Y-13396271D01*
X15500133Y-13396271D02*
X15509657Y-13377224D01*
X15509657Y-13377224D02*
X15519181Y-13367700D01*
X15519181Y-13367700D02*
X15538229Y-13358176D01*
X15795371Y-13558176D02*
X15681086Y-13558176D01*
X15738229Y-13558176D02*
X15738229Y-13358176D01*
X15738229Y-13358176D02*
X15719181Y-13386748D01*
X15719181Y-13386748D02*
X15700133Y-13405795D01*
X15700133Y-13405795D02*
X15681086Y-13415319D01*
X15976324Y-13358176D02*
X15881086Y-13358176D01*
X15881086Y-13358176D02*
X15871562Y-13453414D01*
X15871562Y-13453414D02*
X15881086Y-13443890D01*
X15881086Y-13443890D02*
X15900133Y-13434367D01*
X15900133Y-13434367D02*
X15947752Y-13434367D01*
X15947752Y-13434367D02*
X15966800Y-13443890D01*
X15966800Y-13443890D02*
X15976324Y-13453414D01*
X15976324Y-13453414D02*
X15985848Y-13472462D01*
X15985848Y-13472462D02*
X15985848Y-13520081D01*
X15985848Y-13520081D02*
X15976324Y-13539128D01*
X15976324Y-13539128D02*
X15966800Y-13548652D01*
X15966800Y-13548652D02*
X15947752Y-13558176D01*
X15947752Y-13558176D02*
X15900133Y-13558176D01*
X15900133Y-13558176D02*
X15881086Y-13548652D01*
X15881086Y-13548652D02*
X15871562Y-13539128D01*
X16052514Y-13358176D02*
X16185848Y-13358176D01*
X16185848Y-13358176D02*
X16100133Y-13558176D01*
X16252514Y-13358176D02*
X16252514Y-13396271D01*
X16328705Y-13358176D02*
X16328705Y-13396271D01*
X16591562Y-13634367D02*
X16582038Y-13624843D01*
X16582038Y-13624843D02*
X16562991Y-13596271D01*
X16562991Y-13596271D02*
X16553467Y-13577224D01*
X16553467Y-13577224D02*
X16543943Y-13548652D01*
X16543943Y-13548652D02*
X16534419Y-13501033D01*
X16534419Y-13501033D02*
X16534419Y-13462938D01*
X16534419Y-13462938D02*
X16543943Y-13415319D01*
X16543943Y-13415319D02*
X16553467Y-13386748D01*
X16553467Y-13386748D02*
X16562991Y-13367700D01*
X16562991Y-13367700D02*
X16582038Y-13339128D01*
X16582038Y-13339128D02*
X16591562Y-13329605D01*
X16677276Y-13558176D02*
X16715371Y-13558176D01*
X16715371Y-13558176D02*
X16734419Y-13548652D01*
X16734419Y-13548652D02*
X16743943Y-13539128D01*
X16743943Y-13539128D02*
X16762991Y-13510557D01*
X16762991Y-13510557D02*
X16772514Y-13472462D01*
X16772514Y-13472462D02*
X16772514Y-13396271D01*
X16772514Y-13396271D02*
X16762991Y-13377224D01*
X16762991Y-13377224D02*
X16753467Y-13367700D01*
X16753467Y-13367700D02*
X16734419Y-13358176D01*
X16734419Y-13358176D02*
X16696324Y-13358176D01*
X16696324Y-13358176D02*
X16677276Y-13367700D01*
X16677276Y-13367700D02*
X16667752Y-13377224D01*
X16667752Y-13377224D02*
X16658229Y-13396271D01*
X16658229Y-13396271D02*
X16658229Y-13443890D01*
X16658229Y-13443890D02*
X16667752Y-13462938D01*
X16667752Y-13462938D02*
X16677276Y-13472462D01*
X16677276Y-13472462D02*
X16696324Y-13481986D01*
X16696324Y-13481986D02*
X16734419Y-13481986D01*
X16734419Y-13481986D02*
X16753467Y-13472462D01*
X16753467Y-13472462D02*
X16762991Y-13462938D01*
X16762991Y-13462938D02*
X16772514Y-13443890D01*
X16978229Y-13558176D02*
X16978229Y-13358176D01*
X17063943Y-13558176D02*
X17063943Y-13453414D01*
X17063943Y-13453414D02*
X17054419Y-13434367D01*
X17054419Y-13434367D02*
X17035372Y-13424843D01*
X17035372Y-13424843D02*
X17006800Y-13424843D01*
X17006800Y-13424843D02*
X16987753Y-13434367D01*
X16987753Y-13434367D02*
X16978229Y-13443890D01*
X17187753Y-13558176D02*
X17168705Y-13548652D01*
X17168705Y-13548652D02*
X17159181Y-13539128D01*
X17159181Y-13539128D02*
X17149657Y-13520081D01*
X17149657Y-13520081D02*
X17149657Y-13462938D01*
X17149657Y-13462938D02*
X17159181Y-13443890D01*
X17159181Y-13443890D02*
X17168705Y-13434367D01*
X17168705Y-13434367D02*
X17187753Y-13424843D01*
X17187753Y-13424843D02*
X17216324Y-13424843D01*
X17216324Y-13424843D02*
X17235372Y-13434367D01*
X17235372Y-13434367D02*
X17244895Y-13443890D01*
X17244895Y-13443890D02*
X17254419Y-13462938D01*
X17254419Y-13462938D02*
X17254419Y-13520081D01*
X17254419Y-13520081D02*
X17244895Y-13539128D01*
X17244895Y-13539128D02*
X17235372Y-13548652D01*
X17235372Y-13548652D02*
X17216324Y-13558176D01*
X17216324Y-13558176D02*
X17187753Y-13558176D01*
X17368705Y-13558176D02*
X17349657Y-13548652D01*
X17349657Y-13548652D02*
X17340134Y-13529605D01*
X17340134Y-13529605D02*
X17340134Y-13358176D01*
X17521086Y-13548652D02*
X17502038Y-13558176D01*
X17502038Y-13558176D02*
X17463943Y-13558176D01*
X17463943Y-13558176D02*
X17444895Y-13548652D01*
X17444895Y-13548652D02*
X17435372Y-13529605D01*
X17435372Y-13529605D02*
X17435372Y-13453414D01*
X17435372Y-13453414D02*
X17444895Y-13434367D01*
X17444895Y-13434367D02*
X17463943Y-13424843D01*
X17463943Y-13424843D02*
X17502038Y-13424843D01*
X17502038Y-13424843D02*
X17521086Y-13434367D01*
X17521086Y-13434367D02*
X17530610Y-13453414D01*
X17530610Y-13453414D02*
X17530610Y-13472462D01*
X17530610Y-13472462D02*
X17435372Y-13491509D01*
X17606800Y-13548652D02*
X17625848Y-13558176D01*
X17625848Y-13558176D02*
X17663943Y-13558176D01*
X17663943Y-13558176D02*
X17682991Y-13548652D01*
X17682991Y-13548652D02*
X17692515Y-13529605D01*
X17692515Y-13529605D02*
X17692515Y-13520081D01*
X17692515Y-13520081D02*
X17682991Y-13501033D01*
X17682991Y-13501033D02*
X17663943Y-13491509D01*
X17663943Y-13491509D02*
X17635372Y-13491509D01*
X17635372Y-13491509D02*
X17616324Y-13481986D01*
X17616324Y-13481986D02*
X17606800Y-13462938D01*
X17606800Y-13462938D02*
X17606800Y-13453414D01*
X17606800Y-13453414D02*
X17616324Y-13434367D01*
X17616324Y-13434367D02*
X17635372Y-13424843D01*
X17635372Y-13424843D02*
X17663943Y-13424843D01*
X17663943Y-13424843D02*
X17682991Y-13434367D01*
X17759181Y-13634367D02*
X17768705Y-13624843D01*
X17768705Y-13624843D02*
X17787753Y-13596271D01*
X17787753Y-13596271D02*
X17797276Y-13577224D01*
X17797276Y-13577224D02*
X17806800Y-13548652D01*
X17806800Y-13548652D02*
X17816324Y-13501033D01*
X17816324Y-13501033D02*
X17816324Y-13462938D01*
X17816324Y-13462938D02*
X17806800Y-13415319D01*
X17806800Y-13415319D02*
X17797276Y-13386748D01*
X17797276Y-13386748D02*
X17787753Y-13367700D01*
X17787753Y-13367700D02*
X17768705Y-13339128D01*
X17768705Y-13339128D02*
X17759181Y-13329605D01*
D13*
X13126800Y-13748700D02*
G75*
G03*
X13126800Y-13748700I-30000J0D01*
G01*
D11*
X13412514Y-13622176D02*
X13431562Y-13622176D01*
X13431562Y-13622176D02*
X13450609Y-13631700D01*
X13450609Y-13631700D02*
X13460133Y-13641224D01*
X13460133Y-13641224D02*
X13469657Y-13660271D01*
X13469657Y-13660271D02*
X13479181Y-13698367D01*
X13479181Y-13698367D02*
X13479181Y-13745986D01*
X13479181Y-13745986D02*
X13469657Y-13784081D01*
X13469657Y-13784081D02*
X13460133Y-13803128D01*
X13460133Y-13803128D02*
X13450609Y-13812652D01*
X13450609Y-13812652D02*
X13431562Y-13822176D01*
X13431562Y-13822176D02*
X13412514Y-13822176D01*
X13412514Y-13822176D02*
X13393467Y-13812652D01*
X13393467Y-13812652D02*
X13383943Y-13803128D01*
X13383943Y-13803128D02*
X13374419Y-13784081D01*
X13374419Y-13784081D02*
X13364895Y-13745986D01*
X13364895Y-13745986D02*
X13364895Y-13698367D01*
X13364895Y-13698367D02*
X13374419Y-13660271D01*
X13374419Y-13660271D02*
X13383943Y-13641224D01*
X13383943Y-13641224D02*
X13393467Y-13631700D01*
X13393467Y-13631700D02*
X13412514Y-13622176D01*
X13564895Y-13803128D02*
X13574419Y-13812652D01*
X13574419Y-13812652D02*
X13564895Y-13822176D01*
X13564895Y-13822176D02*
X13555371Y-13812652D01*
X13555371Y-13812652D02*
X13564895Y-13803128D01*
X13564895Y-13803128D02*
X13564895Y-13822176D01*
X13745848Y-13622176D02*
X13707752Y-13622176D01*
X13707752Y-13622176D02*
X13688705Y-13631700D01*
X13688705Y-13631700D02*
X13679181Y-13641224D01*
X13679181Y-13641224D02*
X13660133Y-13669795D01*
X13660133Y-13669795D02*
X13650609Y-13707890D01*
X13650609Y-13707890D02*
X13650609Y-13784081D01*
X13650609Y-13784081D02*
X13660133Y-13803128D01*
X13660133Y-13803128D02*
X13669657Y-13812652D01*
X13669657Y-13812652D02*
X13688705Y-13822176D01*
X13688705Y-13822176D02*
X13726800Y-13822176D01*
X13726800Y-13822176D02*
X13745848Y-13812652D01*
X13745848Y-13812652D02*
X13755371Y-13803128D01*
X13755371Y-13803128D02*
X13764895Y-13784081D01*
X13764895Y-13784081D02*
X13764895Y-13736462D01*
X13764895Y-13736462D02*
X13755371Y-13717414D01*
X13755371Y-13717414D02*
X13745848Y-13707890D01*
X13745848Y-13707890D02*
X13726800Y-13698367D01*
X13726800Y-13698367D02*
X13688705Y-13698367D01*
X13688705Y-13698367D02*
X13669657Y-13707890D01*
X13669657Y-13707890D02*
X13660133Y-13717414D01*
X13660133Y-13717414D02*
X13650609Y-13736462D01*
X13888705Y-13622176D02*
X13907752Y-13622176D01*
X13907752Y-13622176D02*
X13926800Y-13631700D01*
X13926800Y-13631700D02*
X13936324Y-13641224D01*
X13936324Y-13641224D02*
X13945848Y-13660271D01*
X13945848Y-13660271D02*
X13955371Y-13698367D01*
X13955371Y-13698367D02*
X13955371Y-13745986D01*
X13955371Y-13745986D02*
X13945848Y-13784081D01*
X13945848Y-13784081D02*
X13936324Y-13803128D01*
X13936324Y-13803128D02*
X13926800Y-13812652D01*
X13926800Y-13812652D02*
X13907752Y-13822176D01*
X13907752Y-13822176D02*
X13888705Y-13822176D01*
X13888705Y-13822176D02*
X13869657Y-13812652D01*
X13869657Y-13812652D02*
X13860133Y-13803128D01*
X13860133Y-13803128D02*
X13850609Y-13784081D01*
X13850609Y-13784081D02*
X13841086Y-13745986D01*
X13841086Y-13745986D02*
X13841086Y-13698367D01*
X13841086Y-13698367D02*
X13850609Y-13660271D01*
X13850609Y-13660271D02*
X13860133Y-13641224D01*
X13860133Y-13641224D02*
X13869657Y-13631700D01*
X13869657Y-13631700D02*
X13888705Y-13622176D01*
X14079181Y-13622176D02*
X14098229Y-13622176D01*
X14098229Y-13622176D02*
X14117276Y-13631700D01*
X14117276Y-13631700D02*
X14126800Y-13641224D01*
X14126800Y-13641224D02*
X14136324Y-13660271D01*
X14136324Y-13660271D02*
X14145848Y-13698367D01*
X14145848Y-13698367D02*
X14145848Y-13745986D01*
X14145848Y-13745986D02*
X14136324Y-13784081D01*
X14136324Y-13784081D02*
X14126800Y-13803128D01*
X14126800Y-13803128D02*
X14117276Y-13812652D01*
X14117276Y-13812652D02*
X14098229Y-13822176D01*
X14098229Y-13822176D02*
X14079181Y-13822176D01*
X14079181Y-13822176D02*
X14060133Y-13812652D01*
X14060133Y-13812652D02*
X14050609Y-13803128D01*
X14050609Y-13803128D02*
X14041086Y-13784081D01*
X14041086Y-13784081D02*
X14031562Y-13745986D01*
X14031562Y-13745986D02*
X14031562Y-13698367D01*
X14031562Y-13698367D02*
X14041086Y-13660271D01*
X14041086Y-13660271D02*
X14050609Y-13641224D01*
X14050609Y-13641224D02*
X14060133Y-13631700D01*
X14060133Y-13631700D02*
X14079181Y-13622176D01*
X14231562Y-13822176D02*
X14231562Y-13688843D01*
X14231562Y-13707890D02*
X14241086Y-13698367D01*
X14241086Y-13698367D02*
X14260133Y-13688843D01*
X14260133Y-13688843D02*
X14288705Y-13688843D01*
X14288705Y-13688843D02*
X14307752Y-13698367D01*
X14307752Y-13698367D02*
X14317276Y-13717414D01*
X14317276Y-13717414D02*
X14317276Y-13822176D01*
X14317276Y-13717414D02*
X14326800Y-13698367D01*
X14326800Y-13698367D02*
X14345848Y-13688843D01*
X14345848Y-13688843D02*
X14374419Y-13688843D01*
X14374419Y-13688843D02*
X14393467Y-13698367D01*
X14393467Y-13698367D02*
X14402990Y-13717414D01*
X14402990Y-13717414D02*
X14402990Y-13822176D01*
X14498229Y-13822176D02*
X14498229Y-13688843D01*
X14498229Y-13707890D02*
X14507752Y-13698367D01*
X14507752Y-13698367D02*
X14526800Y-13688843D01*
X14526800Y-13688843D02*
X14555371Y-13688843D01*
X14555371Y-13688843D02*
X14574419Y-13698367D01*
X14574419Y-13698367D02*
X14583943Y-13717414D01*
X14583943Y-13717414D02*
X14583943Y-13822176D01*
X14583943Y-13717414D02*
X14593467Y-13698367D01*
X14593467Y-13698367D02*
X14612514Y-13688843D01*
X14612514Y-13688843D02*
X14641086Y-13688843D01*
X14641086Y-13688843D02*
X14660133Y-13698367D01*
X14660133Y-13698367D02*
X14669657Y-13717414D01*
X14669657Y-13717414D02*
X14669657Y-13822176D01*
X15027752Y-13612652D02*
X14856324Y-13869795D01*
X15252514Y-13622176D02*
X15271562Y-13622176D01*
X15271562Y-13622176D02*
X15290610Y-13631700D01*
X15290610Y-13631700D02*
X15300133Y-13641224D01*
X15300133Y-13641224D02*
X15309657Y-13660271D01*
X15309657Y-13660271D02*
X15319181Y-13698367D01*
X15319181Y-13698367D02*
X15319181Y-13745986D01*
X15319181Y-13745986D02*
X15309657Y-13784081D01*
X15309657Y-13784081D02*
X15300133Y-13803128D01*
X15300133Y-13803128D02*
X15290610Y-13812652D01*
X15290610Y-13812652D02*
X15271562Y-13822176D01*
X15271562Y-13822176D02*
X15252514Y-13822176D01*
X15252514Y-13822176D02*
X15233467Y-13812652D01*
X15233467Y-13812652D02*
X15223943Y-13803128D01*
X15223943Y-13803128D02*
X15214419Y-13784081D01*
X15214419Y-13784081D02*
X15204895Y-13745986D01*
X15204895Y-13745986D02*
X15204895Y-13698367D01*
X15204895Y-13698367D02*
X15214419Y-13660271D01*
X15214419Y-13660271D02*
X15223943Y-13641224D01*
X15223943Y-13641224D02*
X15233467Y-13631700D01*
X15233467Y-13631700D02*
X15252514Y-13622176D01*
X15404895Y-13803128D02*
X15414419Y-13812652D01*
X15414419Y-13812652D02*
X15404895Y-13822176D01*
X15404895Y-13822176D02*
X15395371Y-13812652D01*
X15395371Y-13812652D02*
X15404895Y-13803128D01*
X15404895Y-13803128D02*
X15404895Y-13822176D01*
X15538229Y-13622176D02*
X15557276Y-13622176D01*
X15557276Y-13622176D02*
X15576324Y-13631700D01*
X15576324Y-13631700D02*
X15585848Y-13641224D01*
X15585848Y-13641224D02*
X15595371Y-13660271D01*
X15595371Y-13660271D02*
X15604895Y-13698367D01*
X15604895Y-13698367D02*
X15604895Y-13745986D01*
X15604895Y-13745986D02*
X15595371Y-13784081D01*
X15595371Y-13784081D02*
X15585848Y-13803128D01*
X15585848Y-13803128D02*
X15576324Y-13812652D01*
X15576324Y-13812652D02*
X15557276Y-13822176D01*
X15557276Y-13822176D02*
X15538229Y-13822176D01*
X15538229Y-13822176D02*
X15519181Y-13812652D01*
X15519181Y-13812652D02*
X15509657Y-13803128D01*
X15509657Y-13803128D02*
X15500133Y-13784081D01*
X15500133Y-13784081D02*
X15490610Y-13745986D01*
X15490610Y-13745986D02*
X15490610Y-13698367D01*
X15490610Y-13698367D02*
X15500133Y-13660271D01*
X15500133Y-13660271D02*
X15509657Y-13641224D01*
X15509657Y-13641224D02*
X15519181Y-13631700D01*
X15519181Y-13631700D02*
X15538229Y-13622176D01*
X15681086Y-13641224D02*
X15690610Y-13631700D01*
X15690610Y-13631700D02*
X15709657Y-13622176D01*
X15709657Y-13622176D02*
X15757276Y-13622176D01*
X15757276Y-13622176D02*
X15776324Y-13631700D01*
X15776324Y-13631700D02*
X15785848Y-13641224D01*
X15785848Y-13641224D02*
X15795371Y-13660271D01*
X15795371Y-13660271D02*
X15795371Y-13679319D01*
X15795371Y-13679319D02*
X15785848Y-13707890D01*
X15785848Y-13707890D02*
X15671562Y-13822176D01*
X15671562Y-13822176D02*
X15795371Y-13822176D01*
X15862038Y-13622176D02*
X15985848Y-13622176D01*
X15985848Y-13622176D02*
X15919181Y-13698367D01*
X15919181Y-13698367D02*
X15947752Y-13698367D01*
X15947752Y-13698367D02*
X15966800Y-13707890D01*
X15966800Y-13707890D02*
X15976324Y-13717414D01*
X15976324Y-13717414D02*
X15985848Y-13736462D01*
X15985848Y-13736462D02*
X15985848Y-13784081D01*
X15985848Y-13784081D02*
X15976324Y-13803128D01*
X15976324Y-13803128D02*
X15966800Y-13812652D01*
X15966800Y-13812652D02*
X15947752Y-13822176D01*
X15947752Y-13822176D02*
X15890610Y-13822176D01*
X15890610Y-13822176D02*
X15871562Y-13812652D01*
X15871562Y-13812652D02*
X15862038Y-13803128D01*
X16157276Y-13622176D02*
X16119181Y-13622176D01*
X16119181Y-13622176D02*
X16100133Y-13631700D01*
X16100133Y-13631700D02*
X16090610Y-13641224D01*
X16090610Y-13641224D02*
X16071562Y-13669795D01*
X16071562Y-13669795D02*
X16062038Y-13707890D01*
X16062038Y-13707890D02*
X16062038Y-13784081D01*
X16062038Y-13784081D02*
X16071562Y-13803128D01*
X16071562Y-13803128D02*
X16081086Y-13812652D01*
X16081086Y-13812652D02*
X16100133Y-13822176D01*
X16100133Y-13822176D02*
X16138229Y-13822176D01*
X16138229Y-13822176D02*
X16157276Y-13812652D01*
X16157276Y-13812652D02*
X16166800Y-13803128D01*
X16166800Y-13803128D02*
X16176324Y-13784081D01*
X16176324Y-13784081D02*
X16176324Y-13736462D01*
X16176324Y-13736462D02*
X16166800Y-13717414D01*
X16166800Y-13717414D02*
X16157276Y-13707890D01*
X16157276Y-13707890D02*
X16138229Y-13698367D01*
X16138229Y-13698367D02*
X16100133Y-13698367D01*
X16100133Y-13698367D02*
X16081086Y-13707890D01*
X16081086Y-13707890D02*
X16071562Y-13717414D01*
X16071562Y-13717414D02*
X16062038Y-13736462D01*
X16252514Y-13622176D02*
X16252514Y-13660271D01*
X16328705Y-13622176D02*
X16328705Y-13660271D01*
X16591562Y-13898367D02*
X16582038Y-13888843D01*
X16582038Y-13888843D02*
X16562991Y-13860271D01*
X16562991Y-13860271D02*
X16553467Y-13841224D01*
X16553467Y-13841224D02*
X16543943Y-13812652D01*
X16543943Y-13812652D02*
X16534419Y-13765033D01*
X16534419Y-13765033D02*
X16534419Y-13726938D01*
X16534419Y-13726938D02*
X16543943Y-13679319D01*
X16543943Y-13679319D02*
X16553467Y-13650748D01*
X16553467Y-13650748D02*
X16562991Y-13631700D01*
X16562991Y-13631700D02*
X16582038Y-13603128D01*
X16582038Y-13603128D02*
X16591562Y-13593605D01*
X16648705Y-13622176D02*
X16772514Y-13622176D01*
X16772514Y-13622176D02*
X16705848Y-13698367D01*
X16705848Y-13698367D02*
X16734419Y-13698367D01*
X16734419Y-13698367D02*
X16753467Y-13707890D01*
X16753467Y-13707890D02*
X16762991Y-13717414D01*
X16762991Y-13717414D02*
X16772514Y-13736462D01*
X16772514Y-13736462D02*
X16772514Y-13784081D01*
X16772514Y-13784081D02*
X16762991Y-13803128D01*
X16762991Y-13803128D02*
X16753467Y-13812652D01*
X16753467Y-13812652D02*
X16734419Y-13822176D01*
X16734419Y-13822176D02*
X16677276Y-13822176D01*
X16677276Y-13822176D02*
X16658229Y-13812652D01*
X16658229Y-13812652D02*
X16648705Y-13803128D01*
X16886800Y-13707890D02*
X16867753Y-13698367D01*
X16867753Y-13698367D02*
X16858229Y-13688843D01*
X16858229Y-13688843D02*
X16848705Y-13669795D01*
X16848705Y-13669795D02*
X16848705Y-13660271D01*
X16848705Y-13660271D02*
X16858229Y-13641224D01*
X16858229Y-13641224D02*
X16867753Y-13631700D01*
X16867753Y-13631700D02*
X16886800Y-13622176D01*
X16886800Y-13622176D02*
X16924895Y-13622176D01*
X16924895Y-13622176D02*
X16943943Y-13631700D01*
X16943943Y-13631700D02*
X16953467Y-13641224D01*
X16953467Y-13641224D02*
X16962991Y-13660271D01*
X16962991Y-13660271D02*
X16962991Y-13669795D01*
X16962991Y-13669795D02*
X16953467Y-13688843D01*
X16953467Y-13688843D02*
X16943943Y-13698367D01*
X16943943Y-13698367D02*
X16924895Y-13707890D01*
X16924895Y-13707890D02*
X16886800Y-13707890D01*
X16886800Y-13707890D02*
X16867753Y-13717414D01*
X16867753Y-13717414D02*
X16858229Y-13726938D01*
X16858229Y-13726938D02*
X16848705Y-13745986D01*
X16848705Y-13745986D02*
X16848705Y-13784081D01*
X16848705Y-13784081D02*
X16858229Y-13803128D01*
X16858229Y-13803128D02*
X16867753Y-13812652D01*
X16867753Y-13812652D02*
X16886800Y-13822176D01*
X16886800Y-13822176D02*
X16924895Y-13822176D01*
X16924895Y-13822176D02*
X16943943Y-13812652D01*
X16943943Y-13812652D02*
X16953467Y-13803128D01*
X16953467Y-13803128D02*
X16962991Y-13784081D01*
X16962991Y-13784081D02*
X16962991Y-13745986D01*
X16962991Y-13745986D02*
X16953467Y-13726938D01*
X16953467Y-13726938D02*
X16943943Y-13717414D01*
X16943943Y-13717414D02*
X16924895Y-13707890D01*
X17168705Y-13822176D02*
X17168705Y-13622176D01*
X17254419Y-13822176D02*
X17254419Y-13717414D01*
X17254419Y-13717414D02*
X17244895Y-13698367D01*
X17244895Y-13698367D02*
X17225848Y-13688843D01*
X17225848Y-13688843D02*
X17197276Y-13688843D01*
X17197276Y-13688843D02*
X17178229Y-13698367D01*
X17178229Y-13698367D02*
X17168705Y-13707890D01*
X17378229Y-13822176D02*
X17359181Y-13812652D01*
X17359181Y-13812652D02*
X17349657Y-13803128D01*
X17349657Y-13803128D02*
X17340134Y-13784081D01*
X17340134Y-13784081D02*
X17340134Y-13726938D01*
X17340134Y-13726938D02*
X17349657Y-13707890D01*
X17349657Y-13707890D02*
X17359181Y-13698367D01*
X17359181Y-13698367D02*
X17378229Y-13688843D01*
X17378229Y-13688843D02*
X17406800Y-13688843D01*
X17406800Y-13688843D02*
X17425848Y-13698367D01*
X17425848Y-13698367D02*
X17435372Y-13707890D01*
X17435372Y-13707890D02*
X17444895Y-13726938D01*
X17444895Y-13726938D02*
X17444895Y-13784081D01*
X17444895Y-13784081D02*
X17435372Y-13803128D01*
X17435372Y-13803128D02*
X17425848Y-13812652D01*
X17425848Y-13812652D02*
X17406800Y-13822176D01*
X17406800Y-13822176D02*
X17378229Y-13822176D01*
X17559181Y-13822176D02*
X17540134Y-13812652D01*
X17540134Y-13812652D02*
X17530610Y-13793605D01*
X17530610Y-13793605D02*
X17530610Y-13622176D01*
X17711562Y-13812652D02*
X17692515Y-13822176D01*
X17692515Y-13822176D02*
X17654419Y-13822176D01*
X17654419Y-13822176D02*
X17635372Y-13812652D01*
X17635372Y-13812652D02*
X17625848Y-13793605D01*
X17625848Y-13793605D02*
X17625848Y-13717414D01*
X17625848Y-13717414D02*
X17635372Y-13698367D01*
X17635372Y-13698367D02*
X17654419Y-13688843D01*
X17654419Y-13688843D02*
X17692515Y-13688843D01*
X17692515Y-13688843D02*
X17711562Y-13698367D01*
X17711562Y-13698367D02*
X17721086Y-13717414D01*
X17721086Y-13717414D02*
X17721086Y-13736462D01*
X17721086Y-13736462D02*
X17625848Y-13755509D01*
X17797276Y-13812652D02*
X17816324Y-13822176D01*
X17816324Y-13822176D02*
X17854419Y-13822176D01*
X17854419Y-13822176D02*
X17873467Y-13812652D01*
X17873467Y-13812652D02*
X17882991Y-13793605D01*
X17882991Y-13793605D02*
X17882991Y-13784081D01*
X17882991Y-13784081D02*
X17873467Y-13765033D01*
X17873467Y-13765033D02*
X17854419Y-13755509D01*
X17854419Y-13755509D02*
X17825848Y-13755509D01*
X17825848Y-13755509D02*
X17806800Y-13745986D01*
X17806800Y-13745986D02*
X17797276Y-13726938D01*
X17797276Y-13726938D02*
X17797276Y-13717414D01*
X17797276Y-13717414D02*
X17806800Y-13698367D01*
X17806800Y-13698367D02*
X17825848Y-13688843D01*
X17825848Y-13688843D02*
X17854419Y-13688843D01*
X17854419Y-13688843D02*
X17873467Y-13698367D01*
X17949657Y-13898367D02*
X17959181Y-13888843D01*
X17959181Y-13888843D02*
X17978229Y-13860271D01*
X17978229Y-13860271D02*
X17987753Y-13841224D01*
X17987753Y-13841224D02*
X17997276Y-13812652D01*
X17997276Y-13812652D02*
X18006800Y-13765033D01*
X18006800Y-13765033D02*
X18006800Y-13726938D01*
X18006800Y-13726938D02*
X17997276Y-13679319D01*
X17997276Y-13679319D02*
X17987753Y-13650748D01*
X17987753Y-13650748D02*
X17978229Y-13631700D01*
X17978229Y-13631700D02*
X17959181Y-13603128D01*
X17959181Y-13603128D02*
X17949657Y-13593605D01*
D14*
X13086800Y-13972700D02*
X13086800Y-14052700D01*
X13046800Y-14012700D02*
X13126800Y-14012700D01*
D11*
X13412514Y-13886176D02*
X13431562Y-13886176D01*
X13431562Y-13886176D02*
X13450609Y-13895700D01*
X13450609Y-13895700D02*
X13460133Y-13905224D01*
X13460133Y-13905224D02*
X13469657Y-13924271D01*
X13469657Y-13924271D02*
X13479181Y-13962367D01*
X13479181Y-13962367D02*
X13479181Y-14009986D01*
X13479181Y-14009986D02*
X13469657Y-14048081D01*
X13469657Y-14048081D02*
X13460133Y-14067128D01*
X13460133Y-14067128D02*
X13450609Y-14076652D01*
X13450609Y-14076652D02*
X13431562Y-14086176D01*
X13431562Y-14086176D02*
X13412514Y-14086176D01*
X13412514Y-14086176D02*
X13393467Y-14076652D01*
X13393467Y-14076652D02*
X13383943Y-14067128D01*
X13383943Y-14067128D02*
X13374419Y-14048081D01*
X13374419Y-14048081D02*
X13364895Y-14009986D01*
X13364895Y-14009986D02*
X13364895Y-13962367D01*
X13364895Y-13962367D02*
X13374419Y-13924271D01*
X13374419Y-13924271D02*
X13383943Y-13905224D01*
X13383943Y-13905224D02*
X13393467Y-13895700D01*
X13393467Y-13895700D02*
X13412514Y-13886176D01*
X13564895Y-14067128D02*
X13574419Y-14076652D01*
X13574419Y-14076652D02*
X13564895Y-14086176D01*
X13564895Y-14086176D02*
X13555371Y-14076652D01*
X13555371Y-14076652D02*
X13564895Y-14067128D01*
X13564895Y-14067128D02*
X13564895Y-14086176D01*
X13688705Y-13971890D02*
X13669657Y-13962367D01*
X13669657Y-13962367D02*
X13660133Y-13952843D01*
X13660133Y-13952843D02*
X13650609Y-13933795D01*
X13650609Y-13933795D02*
X13650609Y-13924271D01*
X13650609Y-13924271D02*
X13660133Y-13905224D01*
X13660133Y-13905224D02*
X13669657Y-13895700D01*
X13669657Y-13895700D02*
X13688705Y-13886176D01*
X13688705Y-13886176D02*
X13726800Y-13886176D01*
X13726800Y-13886176D02*
X13745848Y-13895700D01*
X13745848Y-13895700D02*
X13755371Y-13905224D01*
X13755371Y-13905224D02*
X13764895Y-13924271D01*
X13764895Y-13924271D02*
X13764895Y-13933795D01*
X13764895Y-13933795D02*
X13755371Y-13952843D01*
X13755371Y-13952843D02*
X13745848Y-13962367D01*
X13745848Y-13962367D02*
X13726800Y-13971890D01*
X13726800Y-13971890D02*
X13688705Y-13971890D01*
X13688705Y-13971890D02*
X13669657Y-13981414D01*
X13669657Y-13981414D02*
X13660133Y-13990938D01*
X13660133Y-13990938D02*
X13650609Y-14009986D01*
X13650609Y-14009986D02*
X13650609Y-14048081D01*
X13650609Y-14048081D02*
X13660133Y-14067128D01*
X13660133Y-14067128D02*
X13669657Y-14076652D01*
X13669657Y-14076652D02*
X13688705Y-14086176D01*
X13688705Y-14086176D02*
X13726800Y-14086176D01*
X13726800Y-14086176D02*
X13745848Y-14076652D01*
X13745848Y-14076652D02*
X13755371Y-14067128D01*
X13755371Y-14067128D02*
X13764895Y-14048081D01*
X13764895Y-14048081D02*
X13764895Y-14009986D01*
X13764895Y-14009986D02*
X13755371Y-13990938D01*
X13755371Y-13990938D02*
X13745848Y-13981414D01*
X13745848Y-13981414D02*
X13726800Y-13971890D01*
X13888705Y-13886176D02*
X13907752Y-13886176D01*
X13907752Y-13886176D02*
X13926800Y-13895700D01*
X13926800Y-13895700D02*
X13936324Y-13905224D01*
X13936324Y-13905224D02*
X13945848Y-13924271D01*
X13945848Y-13924271D02*
X13955371Y-13962367D01*
X13955371Y-13962367D02*
X13955371Y-14009986D01*
X13955371Y-14009986D02*
X13945848Y-14048081D01*
X13945848Y-14048081D02*
X13936324Y-14067128D01*
X13936324Y-14067128D02*
X13926800Y-14076652D01*
X13926800Y-14076652D02*
X13907752Y-14086176D01*
X13907752Y-14086176D02*
X13888705Y-14086176D01*
X13888705Y-14086176D02*
X13869657Y-14076652D01*
X13869657Y-14076652D02*
X13860133Y-14067128D01*
X13860133Y-14067128D02*
X13850609Y-14048081D01*
X13850609Y-14048081D02*
X13841086Y-14009986D01*
X13841086Y-14009986D02*
X13841086Y-13962367D01*
X13841086Y-13962367D02*
X13850609Y-13924271D01*
X13850609Y-13924271D02*
X13860133Y-13905224D01*
X13860133Y-13905224D02*
X13869657Y-13895700D01*
X13869657Y-13895700D02*
X13888705Y-13886176D01*
X14079181Y-13886176D02*
X14098229Y-13886176D01*
X14098229Y-13886176D02*
X14117276Y-13895700D01*
X14117276Y-13895700D02*
X14126800Y-13905224D01*
X14126800Y-13905224D02*
X14136324Y-13924271D01*
X14136324Y-13924271D02*
X14145848Y-13962367D01*
X14145848Y-13962367D02*
X14145848Y-14009986D01*
X14145848Y-14009986D02*
X14136324Y-14048081D01*
X14136324Y-14048081D02*
X14126800Y-14067128D01*
X14126800Y-14067128D02*
X14117276Y-14076652D01*
X14117276Y-14076652D02*
X14098229Y-14086176D01*
X14098229Y-14086176D02*
X14079181Y-14086176D01*
X14079181Y-14086176D02*
X14060133Y-14076652D01*
X14060133Y-14076652D02*
X14050609Y-14067128D01*
X14050609Y-14067128D02*
X14041086Y-14048081D01*
X14041086Y-14048081D02*
X14031562Y-14009986D01*
X14031562Y-14009986D02*
X14031562Y-13962367D01*
X14031562Y-13962367D02*
X14041086Y-13924271D01*
X14041086Y-13924271D02*
X14050609Y-13905224D01*
X14050609Y-13905224D02*
X14060133Y-13895700D01*
X14060133Y-13895700D02*
X14079181Y-13886176D01*
X14231562Y-14086176D02*
X14231562Y-13952843D01*
X14231562Y-13971890D02*
X14241086Y-13962367D01*
X14241086Y-13962367D02*
X14260133Y-13952843D01*
X14260133Y-13952843D02*
X14288705Y-13952843D01*
X14288705Y-13952843D02*
X14307752Y-13962367D01*
X14307752Y-13962367D02*
X14317276Y-13981414D01*
X14317276Y-13981414D02*
X14317276Y-14086176D01*
X14317276Y-13981414D02*
X14326800Y-13962367D01*
X14326800Y-13962367D02*
X14345848Y-13952843D01*
X14345848Y-13952843D02*
X14374419Y-13952843D01*
X14374419Y-13952843D02*
X14393467Y-13962367D01*
X14393467Y-13962367D02*
X14402990Y-13981414D01*
X14402990Y-13981414D02*
X14402990Y-14086176D01*
X14498229Y-14086176D02*
X14498229Y-13952843D01*
X14498229Y-13971890D02*
X14507752Y-13962367D01*
X14507752Y-13962367D02*
X14526800Y-13952843D01*
X14526800Y-13952843D02*
X14555371Y-13952843D01*
X14555371Y-13952843D02*
X14574419Y-13962367D01*
X14574419Y-13962367D02*
X14583943Y-13981414D01*
X14583943Y-13981414D02*
X14583943Y-14086176D01*
X14583943Y-13981414D02*
X14593467Y-13962367D01*
X14593467Y-13962367D02*
X14612514Y-13952843D01*
X14612514Y-13952843D02*
X14641086Y-13952843D01*
X14641086Y-13952843D02*
X14660133Y-13962367D01*
X14660133Y-13962367D02*
X14669657Y-13981414D01*
X14669657Y-13981414D02*
X14669657Y-14086176D01*
X15027752Y-13876652D02*
X14856324Y-14133795D01*
X15252514Y-13886176D02*
X15271562Y-13886176D01*
X15271562Y-13886176D02*
X15290610Y-13895700D01*
X15290610Y-13895700D02*
X15300133Y-13905224D01*
X15300133Y-13905224D02*
X15309657Y-13924271D01*
X15309657Y-13924271D02*
X15319181Y-13962367D01*
X15319181Y-13962367D02*
X15319181Y-14009986D01*
X15319181Y-14009986D02*
X15309657Y-14048081D01*
X15309657Y-14048081D02*
X15300133Y-14067128D01*
X15300133Y-14067128D02*
X15290610Y-14076652D01*
X15290610Y-14076652D02*
X15271562Y-14086176D01*
X15271562Y-14086176D02*
X15252514Y-14086176D01*
X15252514Y-14086176D02*
X15233467Y-14076652D01*
X15233467Y-14076652D02*
X15223943Y-14067128D01*
X15223943Y-14067128D02*
X15214419Y-14048081D01*
X15214419Y-14048081D02*
X15204895Y-14009986D01*
X15204895Y-14009986D02*
X15204895Y-13962367D01*
X15204895Y-13962367D02*
X15214419Y-13924271D01*
X15214419Y-13924271D02*
X15223943Y-13905224D01*
X15223943Y-13905224D02*
X15233467Y-13895700D01*
X15233467Y-13895700D02*
X15252514Y-13886176D01*
X15404895Y-14067128D02*
X15414419Y-14076652D01*
X15414419Y-14076652D02*
X15404895Y-14086176D01*
X15404895Y-14086176D02*
X15395371Y-14076652D01*
X15395371Y-14076652D02*
X15404895Y-14067128D01*
X15404895Y-14067128D02*
X15404895Y-14086176D01*
X15538229Y-13886176D02*
X15557276Y-13886176D01*
X15557276Y-13886176D02*
X15576324Y-13895700D01*
X15576324Y-13895700D02*
X15585848Y-13905224D01*
X15585848Y-13905224D02*
X15595371Y-13924271D01*
X15595371Y-13924271D02*
X15604895Y-13962367D01*
X15604895Y-13962367D02*
X15604895Y-14009986D01*
X15604895Y-14009986D02*
X15595371Y-14048081D01*
X15595371Y-14048081D02*
X15585848Y-14067128D01*
X15585848Y-14067128D02*
X15576324Y-14076652D01*
X15576324Y-14076652D02*
X15557276Y-14086176D01*
X15557276Y-14086176D02*
X15538229Y-14086176D01*
X15538229Y-14086176D02*
X15519181Y-14076652D01*
X15519181Y-14076652D02*
X15509657Y-14067128D01*
X15509657Y-14067128D02*
X15500133Y-14048081D01*
X15500133Y-14048081D02*
X15490610Y-14009986D01*
X15490610Y-14009986D02*
X15490610Y-13962367D01*
X15490610Y-13962367D02*
X15500133Y-13924271D01*
X15500133Y-13924271D02*
X15509657Y-13905224D01*
X15509657Y-13905224D02*
X15519181Y-13895700D01*
X15519181Y-13895700D02*
X15538229Y-13886176D01*
X15671562Y-13886176D02*
X15795371Y-13886176D01*
X15795371Y-13886176D02*
X15728705Y-13962367D01*
X15728705Y-13962367D02*
X15757276Y-13962367D01*
X15757276Y-13962367D02*
X15776324Y-13971890D01*
X15776324Y-13971890D02*
X15785848Y-13981414D01*
X15785848Y-13981414D02*
X15795371Y-14000462D01*
X15795371Y-14000462D02*
X15795371Y-14048081D01*
X15795371Y-14048081D02*
X15785848Y-14067128D01*
X15785848Y-14067128D02*
X15776324Y-14076652D01*
X15776324Y-14076652D02*
X15757276Y-14086176D01*
X15757276Y-14086176D02*
X15700133Y-14086176D01*
X15700133Y-14086176D02*
X15681086Y-14076652D01*
X15681086Y-14076652D02*
X15671562Y-14067128D01*
X15985848Y-14086176D02*
X15871562Y-14086176D01*
X15928705Y-14086176D02*
X15928705Y-13886176D01*
X15928705Y-13886176D02*
X15909657Y-13914748D01*
X15909657Y-13914748D02*
X15890610Y-13933795D01*
X15890610Y-13933795D02*
X15871562Y-13943319D01*
X16166800Y-13886176D02*
X16071562Y-13886176D01*
X16071562Y-13886176D02*
X16062038Y-13981414D01*
X16062038Y-13981414D02*
X16071562Y-13971890D01*
X16071562Y-13971890D02*
X16090610Y-13962367D01*
X16090610Y-13962367D02*
X16138229Y-13962367D01*
X16138229Y-13962367D02*
X16157276Y-13971890D01*
X16157276Y-13971890D02*
X16166800Y-13981414D01*
X16166800Y-13981414D02*
X16176324Y-14000462D01*
X16176324Y-14000462D02*
X16176324Y-14048081D01*
X16176324Y-14048081D02*
X16166800Y-14067128D01*
X16166800Y-14067128D02*
X16157276Y-14076652D01*
X16157276Y-14076652D02*
X16138229Y-14086176D01*
X16138229Y-14086176D02*
X16090610Y-14086176D01*
X16090610Y-14086176D02*
X16071562Y-14076652D01*
X16071562Y-14076652D02*
X16062038Y-14067128D01*
X16252514Y-13886176D02*
X16252514Y-13924271D01*
X16328705Y-13886176D02*
X16328705Y-13924271D01*
X16591562Y-14162367D02*
X16582038Y-14152843D01*
X16582038Y-14152843D02*
X16562991Y-14124271D01*
X16562991Y-14124271D02*
X16553467Y-14105224D01*
X16553467Y-14105224D02*
X16543943Y-14076652D01*
X16543943Y-14076652D02*
X16534419Y-14029033D01*
X16534419Y-14029033D02*
X16534419Y-13990938D01*
X16534419Y-13990938D02*
X16543943Y-13943319D01*
X16543943Y-13943319D02*
X16553467Y-13914748D01*
X16553467Y-13914748D02*
X16562991Y-13895700D01*
X16562991Y-13895700D02*
X16582038Y-13867128D01*
X16582038Y-13867128D02*
X16591562Y-13857605D01*
X16658229Y-13905224D02*
X16667752Y-13895700D01*
X16667752Y-13895700D02*
X16686800Y-13886176D01*
X16686800Y-13886176D02*
X16734419Y-13886176D01*
X16734419Y-13886176D02*
X16753467Y-13895700D01*
X16753467Y-13895700D02*
X16762991Y-13905224D01*
X16762991Y-13905224D02*
X16772514Y-13924271D01*
X16772514Y-13924271D02*
X16772514Y-13943319D01*
X16772514Y-13943319D02*
X16762991Y-13971890D01*
X16762991Y-13971890D02*
X16648705Y-14086176D01*
X16648705Y-14086176D02*
X16772514Y-14086176D01*
X16978229Y-14086176D02*
X16978229Y-13886176D01*
X17063943Y-14086176D02*
X17063943Y-13981414D01*
X17063943Y-13981414D02*
X17054419Y-13962367D01*
X17054419Y-13962367D02*
X17035372Y-13952843D01*
X17035372Y-13952843D02*
X17006800Y-13952843D01*
X17006800Y-13952843D02*
X16987753Y-13962367D01*
X16987753Y-13962367D02*
X16978229Y-13971890D01*
X17187753Y-14086176D02*
X17168705Y-14076652D01*
X17168705Y-14076652D02*
X17159181Y-14067128D01*
X17159181Y-14067128D02*
X17149657Y-14048081D01*
X17149657Y-14048081D02*
X17149657Y-13990938D01*
X17149657Y-13990938D02*
X17159181Y-13971890D01*
X17159181Y-13971890D02*
X17168705Y-13962367D01*
X17168705Y-13962367D02*
X17187753Y-13952843D01*
X17187753Y-13952843D02*
X17216324Y-13952843D01*
X17216324Y-13952843D02*
X17235372Y-13962367D01*
X17235372Y-13962367D02*
X17244895Y-13971890D01*
X17244895Y-13971890D02*
X17254419Y-13990938D01*
X17254419Y-13990938D02*
X17254419Y-14048081D01*
X17254419Y-14048081D02*
X17244895Y-14067128D01*
X17244895Y-14067128D02*
X17235372Y-14076652D01*
X17235372Y-14076652D02*
X17216324Y-14086176D01*
X17216324Y-14086176D02*
X17187753Y-14086176D01*
X17368705Y-14086176D02*
X17349657Y-14076652D01*
X17349657Y-14076652D02*
X17340134Y-14057605D01*
X17340134Y-14057605D02*
X17340134Y-13886176D01*
X17521086Y-14076652D02*
X17502038Y-14086176D01*
X17502038Y-14086176D02*
X17463943Y-14086176D01*
X17463943Y-14086176D02*
X17444895Y-14076652D01*
X17444895Y-14076652D02*
X17435372Y-14057605D01*
X17435372Y-14057605D02*
X17435372Y-13981414D01*
X17435372Y-13981414D02*
X17444895Y-13962367D01*
X17444895Y-13962367D02*
X17463943Y-13952843D01*
X17463943Y-13952843D02*
X17502038Y-13952843D01*
X17502038Y-13952843D02*
X17521086Y-13962367D01*
X17521086Y-13962367D02*
X17530610Y-13981414D01*
X17530610Y-13981414D02*
X17530610Y-14000462D01*
X17530610Y-14000462D02*
X17435372Y-14019509D01*
X17606800Y-14076652D02*
X17625848Y-14086176D01*
X17625848Y-14086176D02*
X17663943Y-14086176D01*
X17663943Y-14086176D02*
X17682991Y-14076652D01*
X17682991Y-14076652D02*
X17692515Y-14057605D01*
X17692515Y-14057605D02*
X17692515Y-14048081D01*
X17692515Y-14048081D02*
X17682991Y-14029033D01*
X17682991Y-14029033D02*
X17663943Y-14019509D01*
X17663943Y-14019509D02*
X17635372Y-14019509D01*
X17635372Y-14019509D02*
X17616324Y-14009986D01*
X17616324Y-14009986D02*
X17606800Y-13990938D01*
X17606800Y-13990938D02*
X17606800Y-13981414D01*
X17606800Y-13981414D02*
X17616324Y-13962367D01*
X17616324Y-13962367D02*
X17635372Y-13952843D01*
X17635372Y-13952843D02*
X17663943Y-13952843D01*
X17663943Y-13952843D02*
X17682991Y-13962367D01*
X17759181Y-14162367D02*
X17768705Y-14152843D01*
X17768705Y-14152843D02*
X17787753Y-14124271D01*
X17787753Y-14124271D02*
X17797276Y-14105224D01*
X17797276Y-14105224D02*
X17806800Y-14076652D01*
X17806800Y-14076652D02*
X17816324Y-14029033D01*
X17816324Y-14029033D02*
X17816324Y-13990938D01*
X17816324Y-13990938D02*
X17806800Y-13943319D01*
X17806800Y-13943319D02*
X17797276Y-13914748D01*
X17797276Y-13914748D02*
X17787753Y-13895700D01*
X17787753Y-13895700D02*
X17768705Y-13867128D01*
X17768705Y-13867128D02*
X17759181Y-13857605D01*
D15*
X13112888Y-14310288D02*
X13112888Y-14243112D01*
X13045712Y-14243112D01*
X13045712Y-14310288D01*
X13112888Y-14310288D01*
D11*
X13412514Y-14150176D02*
X13431562Y-14150176D01*
X13431562Y-14150176D02*
X13450609Y-14159700D01*
X13450609Y-14159700D02*
X13460133Y-14169224D01*
X13460133Y-14169224D02*
X13469657Y-14188271D01*
X13469657Y-14188271D02*
X13479181Y-14226367D01*
X13479181Y-14226367D02*
X13479181Y-14273986D01*
X13479181Y-14273986D02*
X13469657Y-14312081D01*
X13469657Y-14312081D02*
X13460133Y-14331128D01*
X13460133Y-14331128D02*
X13450609Y-14340652D01*
X13450609Y-14340652D02*
X13431562Y-14350176D01*
X13431562Y-14350176D02*
X13412514Y-14350176D01*
X13412514Y-14350176D02*
X13393467Y-14340652D01*
X13393467Y-14340652D02*
X13383943Y-14331128D01*
X13383943Y-14331128D02*
X13374419Y-14312081D01*
X13374419Y-14312081D02*
X13364895Y-14273986D01*
X13364895Y-14273986D02*
X13364895Y-14226367D01*
X13364895Y-14226367D02*
X13374419Y-14188271D01*
X13374419Y-14188271D02*
X13383943Y-14169224D01*
X13383943Y-14169224D02*
X13393467Y-14159700D01*
X13393467Y-14159700D02*
X13412514Y-14150176D01*
X13564895Y-14331128D02*
X13574419Y-14340652D01*
X13574419Y-14340652D02*
X13564895Y-14350176D01*
X13564895Y-14350176D02*
X13555371Y-14340652D01*
X13555371Y-14340652D02*
X13564895Y-14331128D01*
X13564895Y-14331128D02*
X13564895Y-14350176D01*
X13669657Y-14350176D02*
X13707752Y-14350176D01*
X13707752Y-14350176D02*
X13726800Y-14340652D01*
X13726800Y-14340652D02*
X13736324Y-14331128D01*
X13736324Y-14331128D02*
X13755371Y-14302557D01*
X13755371Y-14302557D02*
X13764895Y-14264462D01*
X13764895Y-14264462D02*
X13764895Y-14188271D01*
X13764895Y-14188271D02*
X13755371Y-14169224D01*
X13755371Y-14169224D02*
X13745848Y-14159700D01*
X13745848Y-14159700D02*
X13726800Y-14150176D01*
X13726800Y-14150176D02*
X13688705Y-14150176D01*
X13688705Y-14150176D02*
X13669657Y-14159700D01*
X13669657Y-14159700D02*
X13660133Y-14169224D01*
X13660133Y-14169224D02*
X13650609Y-14188271D01*
X13650609Y-14188271D02*
X13650609Y-14235890D01*
X13650609Y-14235890D02*
X13660133Y-14254938D01*
X13660133Y-14254938D02*
X13669657Y-14264462D01*
X13669657Y-14264462D02*
X13688705Y-14273986D01*
X13688705Y-14273986D02*
X13726800Y-14273986D01*
X13726800Y-14273986D02*
X13745848Y-14264462D01*
X13745848Y-14264462D02*
X13755371Y-14254938D01*
X13755371Y-14254938D02*
X13764895Y-14235890D01*
X13945848Y-14150176D02*
X13850609Y-14150176D01*
X13850609Y-14150176D02*
X13841086Y-14245414D01*
X13841086Y-14245414D02*
X13850609Y-14235890D01*
X13850609Y-14235890D02*
X13869657Y-14226367D01*
X13869657Y-14226367D02*
X13917276Y-14226367D01*
X13917276Y-14226367D02*
X13936324Y-14235890D01*
X13936324Y-14235890D02*
X13945848Y-14245414D01*
X13945848Y-14245414D02*
X13955371Y-14264462D01*
X13955371Y-14264462D02*
X13955371Y-14312081D01*
X13955371Y-14312081D02*
X13945848Y-14331128D01*
X13945848Y-14331128D02*
X13936324Y-14340652D01*
X13936324Y-14340652D02*
X13917276Y-14350176D01*
X13917276Y-14350176D02*
X13869657Y-14350176D01*
X13869657Y-14350176D02*
X13850609Y-14340652D01*
X13850609Y-14340652D02*
X13841086Y-14331128D01*
X14079181Y-14150176D02*
X14098229Y-14150176D01*
X14098229Y-14150176D02*
X14117276Y-14159700D01*
X14117276Y-14159700D02*
X14126800Y-14169224D01*
X14126800Y-14169224D02*
X14136324Y-14188271D01*
X14136324Y-14188271D02*
X14145848Y-14226367D01*
X14145848Y-14226367D02*
X14145848Y-14273986D01*
X14145848Y-14273986D02*
X14136324Y-14312081D01*
X14136324Y-14312081D02*
X14126800Y-14331128D01*
X14126800Y-14331128D02*
X14117276Y-14340652D01*
X14117276Y-14340652D02*
X14098229Y-14350176D01*
X14098229Y-14350176D02*
X14079181Y-14350176D01*
X14079181Y-14350176D02*
X14060133Y-14340652D01*
X14060133Y-14340652D02*
X14050609Y-14331128D01*
X14050609Y-14331128D02*
X14041086Y-14312081D01*
X14041086Y-14312081D02*
X14031562Y-14273986D01*
X14031562Y-14273986D02*
X14031562Y-14226367D01*
X14031562Y-14226367D02*
X14041086Y-14188271D01*
X14041086Y-14188271D02*
X14050609Y-14169224D01*
X14050609Y-14169224D02*
X14060133Y-14159700D01*
X14060133Y-14159700D02*
X14079181Y-14150176D01*
X14231562Y-14350176D02*
X14231562Y-14216843D01*
X14231562Y-14235890D02*
X14241086Y-14226367D01*
X14241086Y-14226367D02*
X14260133Y-14216843D01*
X14260133Y-14216843D02*
X14288705Y-14216843D01*
X14288705Y-14216843D02*
X14307752Y-14226367D01*
X14307752Y-14226367D02*
X14317276Y-14245414D01*
X14317276Y-14245414D02*
X14317276Y-14350176D01*
X14317276Y-14245414D02*
X14326800Y-14226367D01*
X14326800Y-14226367D02*
X14345848Y-14216843D01*
X14345848Y-14216843D02*
X14374419Y-14216843D01*
X14374419Y-14216843D02*
X14393467Y-14226367D01*
X14393467Y-14226367D02*
X14402990Y-14245414D01*
X14402990Y-14245414D02*
X14402990Y-14350176D01*
X14498229Y-14350176D02*
X14498229Y-14216843D01*
X14498229Y-14235890D02*
X14507752Y-14226367D01*
X14507752Y-14226367D02*
X14526800Y-14216843D01*
X14526800Y-14216843D02*
X14555371Y-14216843D01*
X14555371Y-14216843D02*
X14574419Y-14226367D01*
X14574419Y-14226367D02*
X14583943Y-14245414D01*
X14583943Y-14245414D02*
X14583943Y-14350176D01*
X14583943Y-14245414D02*
X14593467Y-14226367D01*
X14593467Y-14226367D02*
X14612514Y-14216843D01*
X14612514Y-14216843D02*
X14641086Y-14216843D01*
X14641086Y-14216843D02*
X14660133Y-14226367D01*
X14660133Y-14226367D02*
X14669657Y-14245414D01*
X14669657Y-14245414D02*
X14669657Y-14350176D01*
X15027752Y-14140652D02*
X14856324Y-14397795D01*
X15252514Y-14150176D02*
X15271562Y-14150176D01*
X15271562Y-14150176D02*
X15290610Y-14159700D01*
X15290610Y-14159700D02*
X15300133Y-14169224D01*
X15300133Y-14169224D02*
X15309657Y-14188271D01*
X15309657Y-14188271D02*
X15319181Y-14226367D01*
X15319181Y-14226367D02*
X15319181Y-14273986D01*
X15319181Y-14273986D02*
X15309657Y-14312081D01*
X15309657Y-14312081D02*
X15300133Y-14331128D01*
X15300133Y-14331128D02*
X15290610Y-14340652D01*
X15290610Y-14340652D02*
X15271562Y-14350176D01*
X15271562Y-14350176D02*
X15252514Y-14350176D01*
X15252514Y-14350176D02*
X15233467Y-14340652D01*
X15233467Y-14340652D02*
X15223943Y-14331128D01*
X15223943Y-14331128D02*
X15214419Y-14312081D01*
X15214419Y-14312081D02*
X15204895Y-14273986D01*
X15204895Y-14273986D02*
X15204895Y-14226367D01*
X15204895Y-14226367D02*
X15214419Y-14188271D01*
X15214419Y-14188271D02*
X15223943Y-14169224D01*
X15223943Y-14169224D02*
X15233467Y-14159700D01*
X15233467Y-14159700D02*
X15252514Y-14150176D01*
X15404895Y-14331128D02*
X15414419Y-14340652D01*
X15414419Y-14340652D02*
X15404895Y-14350176D01*
X15404895Y-14350176D02*
X15395371Y-14340652D01*
X15395371Y-14340652D02*
X15404895Y-14331128D01*
X15404895Y-14331128D02*
X15404895Y-14350176D01*
X15538229Y-14150176D02*
X15557276Y-14150176D01*
X15557276Y-14150176D02*
X15576324Y-14159700D01*
X15576324Y-14159700D02*
X15585848Y-14169224D01*
X15585848Y-14169224D02*
X15595371Y-14188271D01*
X15595371Y-14188271D02*
X15604895Y-14226367D01*
X15604895Y-14226367D02*
X15604895Y-14273986D01*
X15604895Y-14273986D02*
X15595371Y-14312081D01*
X15595371Y-14312081D02*
X15585848Y-14331128D01*
X15585848Y-14331128D02*
X15576324Y-14340652D01*
X15576324Y-14340652D02*
X15557276Y-14350176D01*
X15557276Y-14350176D02*
X15538229Y-14350176D01*
X15538229Y-14350176D02*
X15519181Y-14340652D01*
X15519181Y-14340652D02*
X15509657Y-14331128D01*
X15509657Y-14331128D02*
X15500133Y-14312081D01*
X15500133Y-14312081D02*
X15490610Y-14273986D01*
X15490610Y-14273986D02*
X15490610Y-14226367D01*
X15490610Y-14226367D02*
X15500133Y-14188271D01*
X15500133Y-14188271D02*
X15509657Y-14169224D01*
X15509657Y-14169224D02*
X15519181Y-14159700D01*
X15519181Y-14159700D02*
X15538229Y-14150176D01*
X15671562Y-14150176D02*
X15795371Y-14150176D01*
X15795371Y-14150176D02*
X15728705Y-14226367D01*
X15728705Y-14226367D02*
X15757276Y-14226367D01*
X15757276Y-14226367D02*
X15776324Y-14235890D01*
X15776324Y-14235890D02*
X15785848Y-14245414D01*
X15785848Y-14245414D02*
X15795371Y-14264462D01*
X15795371Y-14264462D02*
X15795371Y-14312081D01*
X15795371Y-14312081D02*
X15785848Y-14331128D01*
X15785848Y-14331128D02*
X15776324Y-14340652D01*
X15776324Y-14340652D02*
X15757276Y-14350176D01*
X15757276Y-14350176D02*
X15700133Y-14350176D01*
X15700133Y-14350176D02*
X15681086Y-14340652D01*
X15681086Y-14340652D02*
X15671562Y-14331128D01*
X15862038Y-14150176D02*
X15995371Y-14150176D01*
X15995371Y-14150176D02*
X15909657Y-14350176D01*
X16157276Y-14216843D02*
X16157276Y-14350176D01*
X16109657Y-14140652D02*
X16062038Y-14283509D01*
X16062038Y-14283509D02*
X16185848Y-14283509D01*
X16252514Y-14150176D02*
X16252514Y-14188271D01*
X16328705Y-14150176D02*
X16328705Y-14188271D01*
X16591562Y-14426367D02*
X16582038Y-14416843D01*
X16582038Y-14416843D02*
X16562991Y-14388271D01*
X16562991Y-14388271D02*
X16553467Y-14369224D01*
X16553467Y-14369224D02*
X16543943Y-14340652D01*
X16543943Y-14340652D02*
X16534419Y-14293033D01*
X16534419Y-14293033D02*
X16534419Y-14254938D01*
X16534419Y-14254938D02*
X16543943Y-14207319D01*
X16543943Y-14207319D02*
X16553467Y-14178748D01*
X16553467Y-14178748D02*
X16562991Y-14159700D01*
X16562991Y-14159700D02*
X16582038Y-14131128D01*
X16582038Y-14131128D02*
X16591562Y-14121605D01*
X16753467Y-14216843D02*
X16753467Y-14350176D01*
X16705848Y-14140652D02*
X16658229Y-14283509D01*
X16658229Y-14283509D02*
X16782038Y-14283509D01*
X16978229Y-14350176D02*
X16978229Y-14150176D01*
X17063943Y-14350176D02*
X17063943Y-14245414D01*
X17063943Y-14245414D02*
X17054419Y-14226367D01*
X17054419Y-14226367D02*
X17035372Y-14216843D01*
X17035372Y-14216843D02*
X17006800Y-14216843D01*
X17006800Y-14216843D02*
X16987753Y-14226367D01*
X16987753Y-14226367D02*
X16978229Y-14235890D01*
X17187753Y-14350176D02*
X17168705Y-14340652D01*
X17168705Y-14340652D02*
X17159181Y-14331128D01*
X17159181Y-14331128D02*
X17149657Y-14312081D01*
X17149657Y-14312081D02*
X17149657Y-14254938D01*
X17149657Y-14254938D02*
X17159181Y-14235890D01*
X17159181Y-14235890D02*
X17168705Y-14226367D01*
X17168705Y-14226367D02*
X17187753Y-14216843D01*
X17187753Y-14216843D02*
X17216324Y-14216843D01*
X17216324Y-14216843D02*
X17235372Y-14226367D01*
X17235372Y-14226367D02*
X17244895Y-14235890D01*
X17244895Y-14235890D02*
X17254419Y-14254938D01*
X17254419Y-14254938D02*
X17254419Y-14312081D01*
X17254419Y-14312081D02*
X17244895Y-14331128D01*
X17244895Y-14331128D02*
X17235372Y-14340652D01*
X17235372Y-14340652D02*
X17216324Y-14350176D01*
X17216324Y-14350176D02*
X17187753Y-14350176D01*
X17368705Y-14350176D02*
X17349657Y-14340652D01*
X17349657Y-14340652D02*
X17340134Y-14321605D01*
X17340134Y-14321605D02*
X17340134Y-14150176D01*
X17521086Y-14340652D02*
X17502038Y-14350176D01*
X17502038Y-14350176D02*
X17463943Y-14350176D01*
X17463943Y-14350176D02*
X17444895Y-14340652D01*
X17444895Y-14340652D02*
X17435372Y-14321605D01*
X17435372Y-14321605D02*
X17435372Y-14245414D01*
X17435372Y-14245414D02*
X17444895Y-14226367D01*
X17444895Y-14226367D02*
X17463943Y-14216843D01*
X17463943Y-14216843D02*
X17502038Y-14216843D01*
X17502038Y-14216843D02*
X17521086Y-14226367D01*
X17521086Y-14226367D02*
X17530610Y-14245414D01*
X17530610Y-14245414D02*
X17530610Y-14264462D01*
X17530610Y-14264462D02*
X17435372Y-14283509D01*
X17606800Y-14340652D02*
X17625848Y-14350176D01*
X17625848Y-14350176D02*
X17663943Y-14350176D01*
X17663943Y-14350176D02*
X17682991Y-14340652D01*
X17682991Y-14340652D02*
X17692515Y-14321605D01*
X17692515Y-14321605D02*
X17692515Y-14312081D01*
X17692515Y-14312081D02*
X17682991Y-14293033D01*
X17682991Y-14293033D02*
X17663943Y-14283509D01*
X17663943Y-14283509D02*
X17635372Y-14283509D01*
X17635372Y-14283509D02*
X17616324Y-14273986D01*
X17616324Y-14273986D02*
X17606800Y-14254938D01*
X17606800Y-14254938D02*
X17606800Y-14245414D01*
X17606800Y-14245414D02*
X17616324Y-14226367D01*
X17616324Y-14226367D02*
X17635372Y-14216843D01*
X17635372Y-14216843D02*
X17663943Y-14216843D01*
X17663943Y-14216843D02*
X17682991Y-14226367D01*
X17759181Y-14426367D02*
X17768705Y-14416843D01*
X17768705Y-14416843D02*
X17787753Y-14388271D01*
X17787753Y-14388271D02*
X17797276Y-14369224D01*
X17797276Y-14369224D02*
X17806800Y-14340652D01*
X17806800Y-14340652D02*
X17816324Y-14293033D01*
X17816324Y-14293033D02*
X17816324Y-14254938D01*
X17816324Y-14254938D02*
X17806800Y-14207319D01*
X17806800Y-14207319D02*
X17797276Y-14178748D01*
X17797276Y-14178748D02*
X17787753Y-14159700D01*
X17787753Y-14159700D02*
X17768705Y-14131128D01*
X17768705Y-14131128D02*
X17759181Y-14121605D01*
D10*
X13076800Y-14590700D02*
X13126800Y-14540700D01*
X13076800Y-14490700D01*
X13026800Y-14540700D01*
X13076800Y-14590700D01*
D11*
X13479181Y-14614176D02*
X13364895Y-14614176D01*
X13422038Y-14614176D02*
X13422038Y-14414176D01*
X13422038Y-14414176D02*
X13402990Y-14442748D01*
X13402990Y-14442748D02*
X13383943Y-14461795D01*
X13383943Y-14461795D02*
X13364895Y-14471319D01*
X13564895Y-14595128D02*
X13574419Y-14604652D01*
X13574419Y-14604652D02*
X13564895Y-14614176D01*
X13564895Y-14614176D02*
X13555371Y-14604652D01*
X13555371Y-14604652D02*
X13564895Y-14595128D01*
X13564895Y-14595128D02*
X13564895Y-14614176D01*
X13698228Y-14414176D02*
X13717276Y-14414176D01*
X13717276Y-14414176D02*
X13736324Y-14423700D01*
X13736324Y-14423700D02*
X13745848Y-14433224D01*
X13745848Y-14433224D02*
X13755371Y-14452271D01*
X13755371Y-14452271D02*
X13764895Y-14490367D01*
X13764895Y-14490367D02*
X13764895Y-14537986D01*
X13764895Y-14537986D02*
X13755371Y-14576081D01*
X13755371Y-14576081D02*
X13745848Y-14595128D01*
X13745848Y-14595128D02*
X13736324Y-14604652D01*
X13736324Y-14604652D02*
X13717276Y-14614176D01*
X13717276Y-14614176D02*
X13698228Y-14614176D01*
X13698228Y-14614176D02*
X13679181Y-14604652D01*
X13679181Y-14604652D02*
X13669657Y-14595128D01*
X13669657Y-14595128D02*
X13660133Y-14576081D01*
X13660133Y-14576081D02*
X13650609Y-14537986D01*
X13650609Y-14537986D02*
X13650609Y-14490367D01*
X13650609Y-14490367D02*
X13660133Y-14452271D01*
X13660133Y-14452271D02*
X13669657Y-14433224D01*
X13669657Y-14433224D02*
X13679181Y-14423700D01*
X13679181Y-14423700D02*
X13698228Y-14414176D01*
X13888705Y-14414176D02*
X13907752Y-14414176D01*
X13907752Y-14414176D02*
X13926800Y-14423700D01*
X13926800Y-14423700D02*
X13936324Y-14433224D01*
X13936324Y-14433224D02*
X13945848Y-14452271D01*
X13945848Y-14452271D02*
X13955371Y-14490367D01*
X13955371Y-14490367D02*
X13955371Y-14537986D01*
X13955371Y-14537986D02*
X13945848Y-14576081D01*
X13945848Y-14576081D02*
X13936324Y-14595128D01*
X13936324Y-14595128D02*
X13926800Y-14604652D01*
X13926800Y-14604652D02*
X13907752Y-14614176D01*
X13907752Y-14614176D02*
X13888705Y-14614176D01*
X13888705Y-14614176D02*
X13869657Y-14604652D01*
X13869657Y-14604652D02*
X13860133Y-14595128D01*
X13860133Y-14595128D02*
X13850609Y-14576081D01*
X13850609Y-14576081D02*
X13841086Y-14537986D01*
X13841086Y-14537986D02*
X13841086Y-14490367D01*
X13841086Y-14490367D02*
X13850609Y-14452271D01*
X13850609Y-14452271D02*
X13860133Y-14433224D01*
X13860133Y-14433224D02*
X13869657Y-14423700D01*
X13869657Y-14423700D02*
X13888705Y-14414176D01*
X14079181Y-14414176D02*
X14098229Y-14414176D01*
X14098229Y-14414176D02*
X14117276Y-14423700D01*
X14117276Y-14423700D02*
X14126800Y-14433224D01*
X14126800Y-14433224D02*
X14136324Y-14452271D01*
X14136324Y-14452271D02*
X14145848Y-14490367D01*
X14145848Y-14490367D02*
X14145848Y-14537986D01*
X14145848Y-14537986D02*
X14136324Y-14576081D01*
X14136324Y-14576081D02*
X14126800Y-14595128D01*
X14126800Y-14595128D02*
X14117276Y-14604652D01*
X14117276Y-14604652D02*
X14098229Y-14614176D01*
X14098229Y-14614176D02*
X14079181Y-14614176D01*
X14079181Y-14614176D02*
X14060133Y-14604652D01*
X14060133Y-14604652D02*
X14050609Y-14595128D01*
X14050609Y-14595128D02*
X14041086Y-14576081D01*
X14041086Y-14576081D02*
X14031562Y-14537986D01*
X14031562Y-14537986D02*
X14031562Y-14490367D01*
X14031562Y-14490367D02*
X14041086Y-14452271D01*
X14041086Y-14452271D02*
X14050609Y-14433224D01*
X14050609Y-14433224D02*
X14060133Y-14423700D01*
X14060133Y-14423700D02*
X14079181Y-14414176D01*
X14231562Y-14614176D02*
X14231562Y-14480843D01*
X14231562Y-14499890D02*
X14241086Y-14490367D01*
X14241086Y-14490367D02*
X14260133Y-14480843D01*
X14260133Y-14480843D02*
X14288705Y-14480843D01*
X14288705Y-14480843D02*
X14307752Y-14490367D01*
X14307752Y-14490367D02*
X14317276Y-14509414D01*
X14317276Y-14509414D02*
X14317276Y-14614176D01*
X14317276Y-14509414D02*
X14326800Y-14490367D01*
X14326800Y-14490367D02*
X14345848Y-14480843D01*
X14345848Y-14480843D02*
X14374419Y-14480843D01*
X14374419Y-14480843D02*
X14393467Y-14490367D01*
X14393467Y-14490367D02*
X14402990Y-14509414D01*
X14402990Y-14509414D02*
X14402990Y-14614176D01*
X14498229Y-14614176D02*
X14498229Y-14480843D01*
X14498229Y-14499890D02*
X14507752Y-14490367D01*
X14507752Y-14490367D02*
X14526800Y-14480843D01*
X14526800Y-14480843D02*
X14555371Y-14480843D01*
X14555371Y-14480843D02*
X14574419Y-14490367D01*
X14574419Y-14490367D02*
X14583943Y-14509414D01*
X14583943Y-14509414D02*
X14583943Y-14614176D01*
X14583943Y-14509414D02*
X14593467Y-14490367D01*
X14593467Y-14490367D02*
X14612514Y-14480843D01*
X14612514Y-14480843D02*
X14641086Y-14480843D01*
X14641086Y-14480843D02*
X14660133Y-14490367D01*
X14660133Y-14490367D02*
X14669657Y-14509414D01*
X14669657Y-14509414D02*
X14669657Y-14614176D01*
X15027752Y-14404652D02*
X14856324Y-14661795D01*
X15252514Y-14414176D02*
X15271562Y-14414176D01*
X15271562Y-14414176D02*
X15290610Y-14423700D01*
X15290610Y-14423700D02*
X15300133Y-14433224D01*
X15300133Y-14433224D02*
X15309657Y-14452271D01*
X15309657Y-14452271D02*
X15319181Y-14490367D01*
X15319181Y-14490367D02*
X15319181Y-14537986D01*
X15319181Y-14537986D02*
X15309657Y-14576081D01*
X15309657Y-14576081D02*
X15300133Y-14595128D01*
X15300133Y-14595128D02*
X15290610Y-14604652D01*
X15290610Y-14604652D02*
X15271562Y-14614176D01*
X15271562Y-14614176D02*
X15252514Y-14614176D01*
X15252514Y-14614176D02*
X15233467Y-14604652D01*
X15233467Y-14604652D02*
X15223943Y-14595128D01*
X15223943Y-14595128D02*
X15214419Y-14576081D01*
X15214419Y-14576081D02*
X15204895Y-14537986D01*
X15204895Y-14537986D02*
X15204895Y-14490367D01*
X15204895Y-14490367D02*
X15214419Y-14452271D01*
X15214419Y-14452271D02*
X15223943Y-14433224D01*
X15223943Y-14433224D02*
X15233467Y-14423700D01*
X15233467Y-14423700D02*
X15252514Y-14414176D01*
X15404895Y-14595128D02*
X15414419Y-14604652D01*
X15414419Y-14604652D02*
X15404895Y-14614176D01*
X15404895Y-14614176D02*
X15395371Y-14604652D01*
X15395371Y-14604652D02*
X15404895Y-14595128D01*
X15404895Y-14595128D02*
X15404895Y-14614176D01*
X15538229Y-14414176D02*
X15557276Y-14414176D01*
X15557276Y-14414176D02*
X15576324Y-14423700D01*
X15576324Y-14423700D02*
X15585848Y-14433224D01*
X15585848Y-14433224D02*
X15595371Y-14452271D01*
X15595371Y-14452271D02*
X15604895Y-14490367D01*
X15604895Y-14490367D02*
X15604895Y-14537986D01*
X15604895Y-14537986D02*
X15595371Y-14576081D01*
X15595371Y-14576081D02*
X15585848Y-14595128D01*
X15585848Y-14595128D02*
X15576324Y-14604652D01*
X15576324Y-14604652D02*
X15557276Y-14614176D01*
X15557276Y-14614176D02*
X15538229Y-14614176D01*
X15538229Y-14614176D02*
X15519181Y-14604652D01*
X15519181Y-14604652D02*
X15509657Y-14595128D01*
X15509657Y-14595128D02*
X15500133Y-14576081D01*
X15500133Y-14576081D02*
X15490610Y-14537986D01*
X15490610Y-14537986D02*
X15490610Y-14490367D01*
X15490610Y-14490367D02*
X15500133Y-14452271D01*
X15500133Y-14452271D02*
X15509657Y-14433224D01*
X15509657Y-14433224D02*
X15519181Y-14423700D01*
X15519181Y-14423700D02*
X15538229Y-14414176D01*
X15671562Y-14414176D02*
X15795371Y-14414176D01*
X15795371Y-14414176D02*
X15728705Y-14490367D01*
X15728705Y-14490367D02*
X15757276Y-14490367D01*
X15757276Y-14490367D02*
X15776324Y-14499890D01*
X15776324Y-14499890D02*
X15785848Y-14509414D01*
X15785848Y-14509414D02*
X15795371Y-14528462D01*
X15795371Y-14528462D02*
X15795371Y-14576081D01*
X15795371Y-14576081D02*
X15785848Y-14595128D01*
X15785848Y-14595128D02*
X15776324Y-14604652D01*
X15776324Y-14604652D02*
X15757276Y-14614176D01*
X15757276Y-14614176D02*
X15700133Y-14614176D01*
X15700133Y-14614176D02*
X15681086Y-14604652D01*
X15681086Y-14604652D02*
X15671562Y-14595128D01*
X15890610Y-14614176D02*
X15928705Y-14614176D01*
X15928705Y-14614176D02*
X15947752Y-14604652D01*
X15947752Y-14604652D02*
X15957276Y-14595128D01*
X15957276Y-14595128D02*
X15976324Y-14566557D01*
X15976324Y-14566557D02*
X15985848Y-14528462D01*
X15985848Y-14528462D02*
X15985848Y-14452271D01*
X15985848Y-14452271D02*
X15976324Y-14433224D01*
X15976324Y-14433224D02*
X15966800Y-14423700D01*
X15966800Y-14423700D02*
X15947752Y-14414176D01*
X15947752Y-14414176D02*
X15909657Y-14414176D01*
X15909657Y-14414176D02*
X15890610Y-14423700D01*
X15890610Y-14423700D02*
X15881086Y-14433224D01*
X15881086Y-14433224D02*
X15871562Y-14452271D01*
X15871562Y-14452271D02*
X15871562Y-14499890D01*
X15871562Y-14499890D02*
X15881086Y-14518938D01*
X15881086Y-14518938D02*
X15890610Y-14528462D01*
X15890610Y-14528462D02*
X15909657Y-14537986D01*
X15909657Y-14537986D02*
X15947752Y-14537986D01*
X15947752Y-14537986D02*
X15966800Y-14528462D01*
X15966800Y-14528462D02*
X15976324Y-14518938D01*
X15976324Y-14518938D02*
X15985848Y-14499890D01*
X16157276Y-14480843D02*
X16157276Y-14614176D01*
X16109657Y-14404652D02*
X16062038Y-14547509D01*
X16062038Y-14547509D02*
X16185848Y-14547509D01*
X16252514Y-14414176D02*
X16252514Y-14452271D01*
X16328705Y-14414176D02*
X16328705Y-14452271D01*
X16591562Y-14690367D02*
X16582038Y-14680843D01*
X16582038Y-14680843D02*
X16562991Y-14652271D01*
X16562991Y-14652271D02*
X16553467Y-14633224D01*
X16553467Y-14633224D02*
X16543943Y-14604652D01*
X16543943Y-14604652D02*
X16534419Y-14557033D01*
X16534419Y-14557033D02*
X16534419Y-14518938D01*
X16534419Y-14518938D02*
X16543943Y-14471319D01*
X16543943Y-14471319D02*
X16553467Y-14442748D01*
X16553467Y-14442748D02*
X16562991Y-14423700D01*
X16562991Y-14423700D02*
X16582038Y-14395128D01*
X16582038Y-14395128D02*
X16591562Y-14385605D01*
X16772514Y-14614176D02*
X16658229Y-14614176D01*
X16715371Y-14614176D02*
X16715371Y-14414176D01*
X16715371Y-14414176D02*
X16696324Y-14442748D01*
X16696324Y-14442748D02*
X16677276Y-14461795D01*
X16677276Y-14461795D02*
X16658229Y-14471319D01*
X16943943Y-14414176D02*
X16905848Y-14414176D01*
X16905848Y-14414176D02*
X16886800Y-14423700D01*
X16886800Y-14423700D02*
X16877276Y-14433224D01*
X16877276Y-14433224D02*
X16858229Y-14461795D01*
X16858229Y-14461795D02*
X16848705Y-14499890D01*
X16848705Y-14499890D02*
X16848705Y-14576081D01*
X16848705Y-14576081D02*
X16858229Y-14595128D01*
X16858229Y-14595128D02*
X16867753Y-14604652D01*
X16867753Y-14604652D02*
X16886800Y-14614176D01*
X16886800Y-14614176D02*
X16924895Y-14614176D01*
X16924895Y-14614176D02*
X16943943Y-14604652D01*
X16943943Y-14604652D02*
X16953467Y-14595128D01*
X16953467Y-14595128D02*
X16962991Y-14576081D01*
X16962991Y-14576081D02*
X16962991Y-14528462D01*
X16962991Y-14528462D02*
X16953467Y-14509414D01*
X16953467Y-14509414D02*
X16943943Y-14499890D01*
X16943943Y-14499890D02*
X16924895Y-14490367D01*
X16924895Y-14490367D02*
X16886800Y-14490367D01*
X16886800Y-14490367D02*
X16867753Y-14499890D01*
X16867753Y-14499890D02*
X16858229Y-14509414D01*
X16858229Y-14509414D02*
X16848705Y-14528462D01*
X17168705Y-14614176D02*
X17168705Y-14414176D01*
X17254419Y-14614176D02*
X17254419Y-14509414D01*
X17254419Y-14509414D02*
X17244895Y-14490367D01*
X17244895Y-14490367D02*
X17225848Y-14480843D01*
X17225848Y-14480843D02*
X17197276Y-14480843D01*
X17197276Y-14480843D02*
X17178229Y-14490367D01*
X17178229Y-14490367D02*
X17168705Y-14499890D01*
X17378229Y-14614176D02*
X17359181Y-14604652D01*
X17359181Y-14604652D02*
X17349657Y-14595128D01*
X17349657Y-14595128D02*
X17340134Y-14576081D01*
X17340134Y-14576081D02*
X17340134Y-14518938D01*
X17340134Y-14518938D02*
X17349657Y-14499890D01*
X17349657Y-14499890D02*
X17359181Y-14490367D01*
X17359181Y-14490367D02*
X17378229Y-14480843D01*
X17378229Y-14480843D02*
X17406800Y-14480843D01*
X17406800Y-14480843D02*
X17425848Y-14490367D01*
X17425848Y-14490367D02*
X17435372Y-14499890D01*
X17435372Y-14499890D02*
X17444895Y-14518938D01*
X17444895Y-14518938D02*
X17444895Y-14576081D01*
X17444895Y-14576081D02*
X17435372Y-14595128D01*
X17435372Y-14595128D02*
X17425848Y-14604652D01*
X17425848Y-14604652D02*
X17406800Y-14614176D01*
X17406800Y-14614176D02*
X17378229Y-14614176D01*
X17559181Y-14614176D02*
X17540134Y-14604652D01*
X17540134Y-14604652D02*
X17530610Y-14585605D01*
X17530610Y-14585605D02*
X17530610Y-14414176D01*
X17711562Y-14604652D02*
X17692515Y-14614176D01*
X17692515Y-14614176D02*
X17654419Y-14614176D01*
X17654419Y-14614176D02*
X17635372Y-14604652D01*
X17635372Y-14604652D02*
X17625848Y-14585605D01*
X17625848Y-14585605D02*
X17625848Y-14509414D01*
X17625848Y-14509414D02*
X17635372Y-14490367D01*
X17635372Y-14490367D02*
X17654419Y-14480843D01*
X17654419Y-14480843D02*
X17692515Y-14480843D01*
X17692515Y-14480843D02*
X17711562Y-14490367D01*
X17711562Y-14490367D02*
X17721086Y-14509414D01*
X17721086Y-14509414D02*
X17721086Y-14528462D01*
X17721086Y-14528462D02*
X17625848Y-14547509D01*
X17797276Y-14604652D02*
X17816324Y-14614176D01*
X17816324Y-14614176D02*
X17854419Y-14614176D01*
X17854419Y-14614176D02*
X17873467Y-14604652D01*
X17873467Y-14604652D02*
X17882991Y-14585605D01*
X17882991Y-14585605D02*
X17882991Y-14576081D01*
X17882991Y-14576081D02*
X17873467Y-14557033D01*
X17873467Y-14557033D02*
X17854419Y-14547509D01*
X17854419Y-14547509D02*
X17825848Y-14547509D01*
X17825848Y-14547509D02*
X17806800Y-14537986D01*
X17806800Y-14537986D02*
X17797276Y-14518938D01*
X17797276Y-14518938D02*
X17797276Y-14509414D01*
X17797276Y-14509414D02*
X17806800Y-14490367D01*
X17806800Y-14490367D02*
X17825848Y-14480843D01*
X17825848Y-14480843D02*
X17854419Y-14480843D01*
X17854419Y-14480843D02*
X17873467Y-14490367D01*
X17949657Y-14690367D02*
X17959181Y-14680843D01*
X17959181Y-14680843D02*
X17978229Y-14652271D01*
X17978229Y-14652271D02*
X17987753Y-14633224D01*
X17987753Y-14633224D02*
X17997276Y-14604652D01*
X17997276Y-14604652D02*
X18006800Y-14557033D01*
X18006800Y-14557033D02*
X18006800Y-14518938D01*
X18006800Y-14518938D02*
X17997276Y-14471319D01*
X17997276Y-14471319D02*
X17987753Y-14442748D01*
X17987753Y-14442748D02*
X17978229Y-14423700D01*
X17978229Y-14423700D02*
X17959181Y-14395128D01*
X17959181Y-14395128D02*
X17949657Y-14385605D01*
D16*
X13006800Y-14744700D02*
X13126800Y-14864700D01*
X13126800Y-14744700D02*
X13006800Y-14864700D01*
X13126800Y-14804700D02*
G75*
G03*
X13126800Y-14804700I-60000J0D01*
G01*
D11*
X13479181Y-14878176D02*
X13364895Y-14878176D01*
X13422038Y-14878176D02*
X13422038Y-14678176D01*
X13422038Y-14678176D02*
X13402990Y-14706748D01*
X13402990Y-14706748D02*
X13383943Y-14725795D01*
X13383943Y-14725795D02*
X13364895Y-14735319D01*
X13564895Y-14859128D02*
X13574419Y-14868652D01*
X13574419Y-14868652D02*
X13564895Y-14878176D01*
X13564895Y-14878176D02*
X13555371Y-14868652D01*
X13555371Y-14868652D02*
X13564895Y-14859128D01*
X13564895Y-14859128D02*
X13564895Y-14878176D01*
X13650609Y-14697224D02*
X13660133Y-14687700D01*
X13660133Y-14687700D02*
X13679181Y-14678176D01*
X13679181Y-14678176D02*
X13726800Y-14678176D01*
X13726800Y-14678176D02*
X13745848Y-14687700D01*
X13745848Y-14687700D02*
X13755371Y-14697224D01*
X13755371Y-14697224D02*
X13764895Y-14716271D01*
X13764895Y-14716271D02*
X13764895Y-14735319D01*
X13764895Y-14735319D02*
X13755371Y-14763890D01*
X13755371Y-14763890D02*
X13641086Y-14878176D01*
X13641086Y-14878176D02*
X13764895Y-14878176D01*
X13888705Y-14678176D02*
X13907752Y-14678176D01*
X13907752Y-14678176D02*
X13926800Y-14687700D01*
X13926800Y-14687700D02*
X13936324Y-14697224D01*
X13936324Y-14697224D02*
X13945848Y-14716271D01*
X13945848Y-14716271D02*
X13955371Y-14754367D01*
X13955371Y-14754367D02*
X13955371Y-14801986D01*
X13955371Y-14801986D02*
X13945848Y-14840081D01*
X13945848Y-14840081D02*
X13936324Y-14859128D01*
X13936324Y-14859128D02*
X13926800Y-14868652D01*
X13926800Y-14868652D02*
X13907752Y-14878176D01*
X13907752Y-14878176D02*
X13888705Y-14878176D01*
X13888705Y-14878176D02*
X13869657Y-14868652D01*
X13869657Y-14868652D02*
X13860133Y-14859128D01*
X13860133Y-14859128D02*
X13850609Y-14840081D01*
X13850609Y-14840081D02*
X13841086Y-14801986D01*
X13841086Y-14801986D02*
X13841086Y-14754367D01*
X13841086Y-14754367D02*
X13850609Y-14716271D01*
X13850609Y-14716271D02*
X13860133Y-14697224D01*
X13860133Y-14697224D02*
X13869657Y-14687700D01*
X13869657Y-14687700D02*
X13888705Y-14678176D01*
X14079181Y-14678176D02*
X14098229Y-14678176D01*
X14098229Y-14678176D02*
X14117276Y-14687700D01*
X14117276Y-14687700D02*
X14126800Y-14697224D01*
X14126800Y-14697224D02*
X14136324Y-14716271D01*
X14136324Y-14716271D02*
X14145848Y-14754367D01*
X14145848Y-14754367D02*
X14145848Y-14801986D01*
X14145848Y-14801986D02*
X14136324Y-14840081D01*
X14136324Y-14840081D02*
X14126800Y-14859128D01*
X14126800Y-14859128D02*
X14117276Y-14868652D01*
X14117276Y-14868652D02*
X14098229Y-14878176D01*
X14098229Y-14878176D02*
X14079181Y-14878176D01*
X14079181Y-14878176D02*
X14060133Y-14868652D01*
X14060133Y-14868652D02*
X14050609Y-14859128D01*
X14050609Y-14859128D02*
X14041086Y-14840081D01*
X14041086Y-14840081D02*
X14031562Y-14801986D01*
X14031562Y-14801986D02*
X14031562Y-14754367D01*
X14031562Y-14754367D02*
X14041086Y-14716271D01*
X14041086Y-14716271D02*
X14050609Y-14697224D01*
X14050609Y-14697224D02*
X14060133Y-14687700D01*
X14060133Y-14687700D02*
X14079181Y-14678176D01*
X14231562Y-14878176D02*
X14231562Y-14744843D01*
X14231562Y-14763890D02*
X14241086Y-14754367D01*
X14241086Y-14754367D02*
X14260133Y-14744843D01*
X14260133Y-14744843D02*
X14288705Y-14744843D01*
X14288705Y-14744843D02*
X14307752Y-14754367D01*
X14307752Y-14754367D02*
X14317276Y-14773414D01*
X14317276Y-14773414D02*
X14317276Y-14878176D01*
X14317276Y-14773414D02*
X14326800Y-14754367D01*
X14326800Y-14754367D02*
X14345848Y-14744843D01*
X14345848Y-14744843D02*
X14374419Y-14744843D01*
X14374419Y-14744843D02*
X14393467Y-14754367D01*
X14393467Y-14754367D02*
X14402990Y-14773414D01*
X14402990Y-14773414D02*
X14402990Y-14878176D01*
X14498229Y-14878176D02*
X14498229Y-14744843D01*
X14498229Y-14763890D02*
X14507752Y-14754367D01*
X14507752Y-14754367D02*
X14526800Y-14744843D01*
X14526800Y-14744843D02*
X14555371Y-14744843D01*
X14555371Y-14744843D02*
X14574419Y-14754367D01*
X14574419Y-14754367D02*
X14583943Y-14773414D01*
X14583943Y-14773414D02*
X14583943Y-14878176D01*
X14583943Y-14773414D02*
X14593467Y-14754367D01*
X14593467Y-14754367D02*
X14612514Y-14744843D01*
X14612514Y-14744843D02*
X14641086Y-14744843D01*
X14641086Y-14744843D02*
X14660133Y-14754367D01*
X14660133Y-14754367D02*
X14669657Y-14773414D01*
X14669657Y-14773414D02*
X14669657Y-14878176D01*
X15027752Y-14668652D02*
X14856324Y-14925795D01*
X15252514Y-14678176D02*
X15271562Y-14678176D01*
X15271562Y-14678176D02*
X15290610Y-14687700D01*
X15290610Y-14687700D02*
X15300133Y-14697224D01*
X15300133Y-14697224D02*
X15309657Y-14716271D01*
X15309657Y-14716271D02*
X15319181Y-14754367D01*
X15319181Y-14754367D02*
X15319181Y-14801986D01*
X15319181Y-14801986D02*
X15309657Y-14840081D01*
X15309657Y-14840081D02*
X15300133Y-14859128D01*
X15300133Y-14859128D02*
X15290610Y-14868652D01*
X15290610Y-14868652D02*
X15271562Y-14878176D01*
X15271562Y-14878176D02*
X15252514Y-14878176D01*
X15252514Y-14878176D02*
X15233467Y-14868652D01*
X15233467Y-14868652D02*
X15223943Y-14859128D01*
X15223943Y-14859128D02*
X15214419Y-14840081D01*
X15214419Y-14840081D02*
X15204895Y-14801986D01*
X15204895Y-14801986D02*
X15204895Y-14754367D01*
X15204895Y-14754367D02*
X15214419Y-14716271D01*
X15214419Y-14716271D02*
X15223943Y-14697224D01*
X15223943Y-14697224D02*
X15233467Y-14687700D01*
X15233467Y-14687700D02*
X15252514Y-14678176D01*
X15404895Y-14859128D02*
X15414419Y-14868652D01*
X15414419Y-14868652D02*
X15404895Y-14878176D01*
X15404895Y-14878176D02*
X15395371Y-14868652D01*
X15395371Y-14868652D02*
X15404895Y-14859128D01*
X15404895Y-14859128D02*
X15404895Y-14878176D01*
X15538229Y-14678176D02*
X15557276Y-14678176D01*
X15557276Y-14678176D02*
X15576324Y-14687700D01*
X15576324Y-14687700D02*
X15585848Y-14697224D01*
X15585848Y-14697224D02*
X15595371Y-14716271D01*
X15595371Y-14716271D02*
X15604895Y-14754367D01*
X15604895Y-14754367D02*
X15604895Y-14801986D01*
X15604895Y-14801986D02*
X15595371Y-14840081D01*
X15595371Y-14840081D02*
X15585848Y-14859128D01*
X15585848Y-14859128D02*
X15576324Y-14868652D01*
X15576324Y-14868652D02*
X15557276Y-14878176D01*
X15557276Y-14878176D02*
X15538229Y-14878176D01*
X15538229Y-14878176D02*
X15519181Y-14868652D01*
X15519181Y-14868652D02*
X15509657Y-14859128D01*
X15509657Y-14859128D02*
X15500133Y-14840081D01*
X15500133Y-14840081D02*
X15490610Y-14801986D01*
X15490610Y-14801986D02*
X15490610Y-14754367D01*
X15490610Y-14754367D02*
X15500133Y-14716271D01*
X15500133Y-14716271D02*
X15509657Y-14697224D01*
X15509657Y-14697224D02*
X15519181Y-14687700D01*
X15519181Y-14687700D02*
X15538229Y-14678176D01*
X15776324Y-14744843D02*
X15776324Y-14878176D01*
X15728705Y-14668652D02*
X15681086Y-14811509D01*
X15681086Y-14811509D02*
X15804895Y-14811509D01*
X15862038Y-14678176D02*
X15995371Y-14678176D01*
X15995371Y-14678176D02*
X15909657Y-14878176D01*
X16062038Y-14697224D02*
X16071562Y-14687700D01*
X16071562Y-14687700D02*
X16090610Y-14678176D01*
X16090610Y-14678176D02*
X16138229Y-14678176D01*
X16138229Y-14678176D02*
X16157276Y-14687700D01*
X16157276Y-14687700D02*
X16166800Y-14697224D01*
X16166800Y-14697224D02*
X16176324Y-14716271D01*
X16176324Y-14716271D02*
X16176324Y-14735319D01*
X16176324Y-14735319D02*
X16166800Y-14763890D01*
X16166800Y-14763890D02*
X16052514Y-14878176D01*
X16052514Y-14878176D02*
X16176324Y-14878176D01*
X16252514Y-14678176D02*
X16252514Y-14716271D01*
X16328705Y-14678176D02*
X16328705Y-14716271D01*
X16591562Y-14954367D02*
X16582038Y-14944843D01*
X16582038Y-14944843D02*
X16562991Y-14916271D01*
X16562991Y-14916271D02*
X16553467Y-14897224D01*
X16553467Y-14897224D02*
X16543943Y-14868652D01*
X16543943Y-14868652D02*
X16534419Y-14821033D01*
X16534419Y-14821033D02*
X16534419Y-14782938D01*
X16534419Y-14782938D02*
X16543943Y-14735319D01*
X16543943Y-14735319D02*
X16553467Y-14706748D01*
X16553467Y-14706748D02*
X16562991Y-14687700D01*
X16562991Y-14687700D02*
X16582038Y-14659128D01*
X16582038Y-14659128D02*
X16591562Y-14649605D01*
X16696324Y-14763890D02*
X16677276Y-14754367D01*
X16677276Y-14754367D02*
X16667752Y-14744843D01*
X16667752Y-14744843D02*
X16658229Y-14725795D01*
X16658229Y-14725795D02*
X16658229Y-14716271D01*
X16658229Y-14716271D02*
X16667752Y-14697224D01*
X16667752Y-14697224D02*
X16677276Y-14687700D01*
X16677276Y-14687700D02*
X16696324Y-14678176D01*
X16696324Y-14678176D02*
X16734419Y-14678176D01*
X16734419Y-14678176D02*
X16753467Y-14687700D01*
X16753467Y-14687700D02*
X16762991Y-14697224D01*
X16762991Y-14697224D02*
X16772514Y-14716271D01*
X16772514Y-14716271D02*
X16772514Y-14725795D01*
X16772514Y-14725795D02*
X16762991Y-14744843D01*
X16762991Y-14744843D02*
X16753467Y-14754367D01*
X16753467Y-14754367D02*
X16734419Y-14763890D01*
X16734419Y-14763890D02*
X16696324Y-14763890D01*
X16696324Y-14763890D02*
X16677276Y-14773414D01*
X16677276Y-14773414D02*
X16667752Y-14782938D01*
X16667752Y-14782938D02*
X16658229Y-14801986D01*
X16658229Y-14801986D02*
X16658229Y-14840081D01*
X16658229Y-14840081D02*
X16667752Y-14859128D01*
X16667752Y-14859128D02*
X16677276Y-14868652D01*
X16677276Y-14868652D02*
X16696324Y-14878176D01*
X16696324Y-14878176D02*
X16734419Y-14878176D01*
X16734419Y-14878176D02*
X16753467Y-14868652D01*
X16753467Y-14868652D02*
X16762991Y-14859128D01*
X16762991Y-14859128D02*
X16772514Y-14840081D01*
X16772514Y-14840081D02*
X16772514Y-14801986D01*
X16772514Y-14801986D02*
X16762991Y-14782938D01*
X16762991Y-14782938D02*
X16753467Y-14773414D01*
X16753467Y-14773414D02*
X16734419Y-14763890D01*
X16978229Y-14878176D02*
X16978229Y-14678176D01*
X17063943Y-14878176D02*
X17063943Y-14773414D01*
X17063943Y-14773414D02*
X17054419Y-14754367D01*
X17054419Y-14754367D02*
X17035372Y-14744843D01*
X17035372Y-14744843D02*
X17006800Y-14744843D01*
X17006800Y-14744843D02*
X16987753Y-14754367D01*
X16987753Y-14754367D02*
X16978229Y-14763890D01*
X17187753Y-14878176D02*
X17168705Y-14868652D01*
X17168705Y-14868652D02*
X17159181Y-14859128D01*
X17159181Y-14859128D02*
X17149657Y-14840081D01*
X17149657Y-14840081D02*
X17149657Y-14782938D01*
X17149657Y-14782938D02*
X17159181Y-14763890D01*
X17159181Y-14763890D02*
X17168705Y-14754367D01*
X17168705Y-14754367D02*
X17187753Y-14744843D01*
X17187753Y-14744843D02*
X17216324Y-14744843D01*
X17216324Y-14744843D02*
X17235372Y-14754367D01*
X17235372Y-14754367D02*
X17244895Y-14763890D01*
X17244895Y-14763890D02*
X17254419Y-14782938D01*
X17254419Y-14782938D02*
X17254419Y-14840081D01*
X17254419Y-14840081D02*
X17244895Y-14859128D01*
X17244895Y-14859128D02*
X17235372Y-14868652D01*
X17235372Y-14868652D02*
X17216324Y-14878176D01*
X17216324Y-14878176D02*
X17187753Y-14878176D01*
X17368705Y-14878176D02*
X17349657Y-14868652D01*
X17349657Y-14868652D02*
X17340134Y-14849605D01*
X17340134Y-14849605D02*
X17340134Y-14678176D01*
X17521086Y-14868652D02*
X17502038Y-14878176D01*
X17502038Y-14878176D02*
X17463943Y-14878176D01*
X17463943Y-14878176D02*
X17444895Y-14868652D01*
X17444895Y-14868652D02*
X17435372Y-14849605D01*
X17435372Y-14849605D02*
X17435372Y-14773414D01*
X17435372Y-14773414D02*
X17444895Y-14754367D01*
X17444895Y-14754367D02*
X17463943Y-14744843D01*
X17463943Y-14744843D02*
X17502038Y-14744843D01*
X17502038Y-14744843D02*
X17521086Y-14754367D01*
X17521086Y-14754367D02*
X17530610Y-14773414D01*
X17530610Y-14773414D02*
X17530610Y-14792462D01*
X17530610Y-14792462D02*
X17435372Y-14811509D01*
X17606800Y-14868652D02*
X17625848Y-14878176D01*
X17625848Y-14878176D02*
X17663943Y-14878176D01*
X17663943Y-14878176D02*
X17682991Y-14868652D01*
X17682991Y-14868652D02*
X17692515Y-14849605D01*
X17692515Y-14849605D02*
X17692515Y-14840081D01*
X17692515Y-14840081D02*
X17682991Y-14821033D01*
X17682991Y-14821033D02*
X17663943Y-14811509D01*
X17663943Y-14811509D02*
X17635372Y-14811509D01*
X17635372Y-14811509D02*
X17616324Y-14801986D01*
X17616324Y-14801986D02*
X17606800Y-14782938D01*
X17606800Y-14782938D02*
X17606800Y-14773414D01*
X17606800Y-14773414D02*
X17616324Y-14754367D01*
X17616324Y-14754367D02*
X17635372Y-14744843D01*
X17635372Y-14744843D02*
X17663943Y-14744843D01*
X17663943Y-14744843D02*
X17682991Y-14754367D01*
X17759181Y-14954367D02*
X17768705Y-14944843D01*
X17768705Y-14944843D02*
X17787753Y-14916271D01*
X17787753Y-14916271D02*
X17797276Y-14897224D01*
X17797276Y-14897224D02*
X17806800Y-14868652D01*
X17806800Y-14868652D02*
X17816324Y-14821033D01*
X17816324Y-14821033D02*
X17816324Y-14782938D01*
X17816324Y-14782938D02*
X17806800Y-14735319D01*
X17806800Y-14735319D02*
X17797276Y-14706748D01*
X17797276Y-14706748D02*
X17787753Y-14687700D01*
X17787753Y-14687700D02*
X17768705Y-14659128D01*
X17768705Y-14659128D02*
X17759181Y-14649605D01*
D17*
X12986800Y-14998700D02*
X13126800Y-15138700D01*
X13126800Y-14998700D02*
X12986800Y-15138700D01*
X13056800Y-14998700D02*
X13056800Y-15138700D01*
X12986800Y-15068700D02*
X13126800Y-15068700D01*
D11*
X13479181Y-15142176D02*
X13364895Y-15142176D01*
X13422038Y-15142176D02*
X13422038Y-14942176D01*
X13422038Y-14942176D02*
X13402990Y-14970748D01*
X13402990Y-14970748D02*
X13383943Y-14989795D01*
X13383943Y-14989795D02*
X13364895Y-14999319D01*
X13564895Y-15123128D02*
X13574419Y-15132652D01*
X13574419Y-15132652D02*
X13564895Y-15142176D01*
X13564895Y-15142176D02*
X13555371Y-15132652D01*
X13555371Y-15132652D02*
X13564895Y-15123128D01*
X13564895Y-15123128D02*
X13564895Y-15142176D01*
X13745848Y-15008843D02*
X13745848Y-15142176D01*
X13698228Y-14932652D02*
X13650609Y-15075509D01*
X13650609Y-15075509D02*
X13774419Y-15075509D01*
X13888705Y-14942176D02*
X13907752Y-14942176D01*
X13907752Y-14942176D02*
X13926800Y-14951700D01*
X13926800Y-14951700D02*
X13936324Y-14961224D01*
X13936324Y-14961224D02*
X13945848Y-14980271D01*
X13945848Y-14980271D02*
X13955371Y-15018367D01*
X13955371Y-15018367D02*
X13955371Y-15065986D01*
X13955371Y-15065986D02*
X13945848Y-15104081D01*
X13945848Y-15104081D02*
X13936324Y-15123128D01*
X13936324Y-15123128D02*
X13926800Y-15132652D01*
X13926800Y-15132652D02*
X13907752Y-15142176D01*
X13907752Y-15142176D02*
X13888705Y-15142176D01*
X13888705Y-15142176D02*
X13869657Y-15132652D01*
X13869657Y-15132652D02*
X13860133Y-15123128D01*
X13860133Y-15123128D02*
X13850609Y-15104081D01*
X13850609Y-15104081D02*
X13841086Y-15065986D01*
X13841086Y-15065986D02*
X13841086Y-15018367D01*
X13841086Y-15018367D02*
X13850609Y-14980271D01*
X13850609Y-14980271D02*
X13860133Y-14961224D01*
X13860133Y-14961224D02*
X13869657Y-14951700D01*
X13869657Y-14951700D02*
X13888705Y-14942176D01*
X14079181Y-14942176D02*
X14098229Y-14942176D01*
X14098229Y-14942176D02*
X14117276Y-14951700D01*
X14117276Y-14951700D02*
X14126800Y-14961224D01*
X14126800Y-14961224D02*
X14136324Y-14980271D01*
X14136324Y-14980271D02*
X14145848Y-15018367D01*
X14145848Y-15018367D02*
X14145848Y-15065986D01*
X14145848Y-15065986D02*
X14136324Y-15104081D01*
X14136324Y-15104081D02*
X14126800Y-15123128D01*
X14126800Y-15123128D02*
X14117276Y-15132652D01*
X14117276Y-15132652D02*
X14098229Y-15142176D01*
X14098229Y-15142176D02*
X14079181Y-15142176D01*
X14079181Y-15142176D02*
X14060133Y-15132652D01*
X14060133Y-15132652D02*
X14050609Y-15123128D01*
X14050609Y-15123128D02*
X14041086Y-15104081D01*
X14041086Y-15104081D02*
X14031562Y-15065986D01*
X14031562Y-15065986D02*
X14031562Y-15018367D01*
X14031562Y-15018367D02*
X14041086Y-14980271D01*
X14041086Y-14980271D02*
X14050609Y-14961224D01*
X14050609Y-14961224D02*
X14060133Y-14951700D01*
X14060133Y-14951700D02*
X14079181Y-14942176D01*
X14231562Y-15142176D02*
X14231562Y-15008843D01*
X14231562Y-15027890D02*
X14241086Y-15018367D01*
X14241086Y-15018367D02*
X14260133Y-15008843D01*
X14260133Y-15008843D02*
X14288705Y-15008843D01*
X14288705Y-15008843D02*
X14307752Y-15018367D01*
X14307752Y-15018367D02*
X14317276Y-15037414D01*
X14317276Y-15037414D02*
X14317276Y-15142176D01*
X14317276Y-15037414D02*
X14326800Y-15018367D01*
X14326800Y-15018367D02*
X14345848Y-15008843D01*
X14345848Y-15008843D02*
X14374419Y-15008843D01*
X14374419Y-15008843D02*
X14393467Y-15018367D01*
X14393467Y-15018367D02*
X14402990Y-15037414D01*
X14402990Y-15037414D02*
X14402990Y-15142176D01*
X14498229Y-15142176D02*
X14498229Y-15008843D01*
X14498229Y-15027890D02*
X14507752Y-15018367D01*
X14507752Y-15018367D02*
X14526800Y-15008843D01*
X14526800Y-15008843D02*
X14555371Y-15008843D01*
X14555371Y-15008843D02*
X14574419Y-15018367D01*
X14574419Y-15018367D02*
X14583943Y-15037414D01*
X14583943Y-15037414D02*
X14583943Y-15142176D01*
X14583943Y-15037414D02*
X14593467Y-15018367D01*
X14593467Y-15018367D02*
X14612514Y-15008843D01*
X14612514Y-15008843D02*
X14641086Y-15008843D01*
X14641086Y-15008843D02*
X14660133Y-15018367D01*
X14660133Y-15018367D02*
X14669657Y-15037414D01*
X14669657Y-15037414D02*
X14669657Y-15142176D01*
X15027752Y-14932652D02*
X14856324Y-15189795D01*
X15252514Y-14942176D02*
X15271562Y-14942176D01*
X15271562Y-14942176D02*
X15290610Y-14951700D01*
X15290610Y-14951700D02*
X15300133Y-14961224D01*
X15300133Y-14961224D02*
X15309657Y-14980271D01*
X15309657Y-14980271D02*
X15319181Y-15018367D01*
X15319181Y-15018367D02*
X15319181Y-15065986D01*
X15319181Y-15065986D02*
X15309657Y-15104081D01*
X15309657Y-15104081D02*
X15300133Y-15123128D01*
X15300133Y-15123128D02*
X15290610Y-15132652D01*
X15290610Y-15132652D02*
X15271562Y-15142176D01*
X15271562Y-15142176D02*
X15252514Y-15142176D01*
X15252514Y-15142176D02*
X15233467Y-15132652D01*
X15233467Y-15132652D02*
X15223943Y-15123128D01*
X15223943Y-15123128D02*
X15214419Y-15104081D01*
X15214419Y-15104081D02*
X15204895Y-15065986D01*
X15204895Y-15065986D02*
X15204895Y-15018367D01*
X15204895Y-15018367D02*
X15214419Y-14980271D01*
X15214419Y-14980271D02*
X15223943Y-14961224D01*
X15223943Y-14961224D02*
X15233467Y-14951700D01*
X15233467Y-14951700D02*
X15252514Y-14942176D01*
X15404895Y-15123128D02*
X15414419Y-15132652D01*
X15414419Y-15132652D02*
X15404895Y-15142176D01*
X15404895Y-15142176D02*
X15395371Y-15132652D01*
X15395371Y-15132652D02*
X15404895Y-15123128D01*
X15404895Y-15123128D02*
X15404895Y-15142176D01*
X15538229Y-14942176D02*
X15557276Y-14942176D01*
X15557276Y-14942176D02*
X15576324Y-14951700D01*
X15576324Y-14951700D02*
X15585848Y-14961224D01*
X15585848Y-14961224D02*
X15595371Y-14980271D01*
X15595371Y-14980271D02*
X15604895Y-15018367D01*
X15604895Y-15018367D02*
X15604895Y-15065986D01*
X15604895Y-15065986D02*
X15595371Y-15104081D01*
X15595371Y-15104081D02*
X15585848Y-15123128D01*
X15585848Y-15123128D02*
X15576324Y-15132652D01*
X15576324Y-15132652D02*
X15557276Y-15142176D01*
X15557276Y-15142176D02*
X15538229Y-15142176D01*
X15538229Y-15142176D02*
X15519181Y-15132652D01*
X15519181Y-15132652D02*
X15509657Y-15123128D01*
X15509657Y-15123128D02*
X15500133Y-15104081D01*
X15500133Y-15104081D02*
X15490610Y-15065986D01*
X15490610Y-15065986D02*
X15490610Y-15018367D01*
X15490610Y-15018367D02*
X15500133Y-14980271D01*
X15500133Y-14980271D02*
X15509657Y-14961224D01*
X15509657Y-14961224D02*
X15519181Y-14951700D01*
X15519181Y-14951700D02*
X15538229Y-14942176D01*
X15785848Y-14942176D02*
X15690610Y-14942176D01*
X15690610Y-14942176D02*
X15681086Y-15037414D01*
X15681086Y-15037414D02*
X15690610Y-15027890D01*
X15690610Y-15027890D02*
X15709657Y-15018367D01*
X15709657Y-15018367D02*
X15757276Y-15018367D01*
X15757276Y-15018367D02*
X15776324Y-15027890D01*
X15776324Y-15027890D02*
X15785848Y-15037414D01*
X15785848Y-15037414D02*
X15795371Y-15056462D01*
X15795371Y-15056462D02*
X15795371Y-15104081D01*
X15795371Y-15104081D02*
X15785848Y-15123128D01*
X15785848Y-15123128D02*
X15776324Y-15132652D01*
X15776324Y-15132652D02*
X15757276Y-15142176D01*
X15757276Y-15142176D02*
X15709657Y-15142176D01*
X15709657Y-15142176D02*
X15690610Y-15132652D01*
X15690610Y-15132652D02*
X15681086Y-15123128D01*
X15976324Y-14942176D02*
X15881086Y-14942176D01*
X15881086Y-14942176D02*
X15871562Y-15037414D01*
X15871562Y-15037414D02*
X15881086Y-15027890D01*
X15881086Y-15027890D02*
X15900133Y-15018367D01*
X15900133Y-15018367D02*
X15947752Y-15018367D01*
X15947752Y-15018367D02*
X15966800Y-15027890D01*
X15966800Y-15027890D02*
X15976324Y-15037414D01*
X15976324Y-15037414D02*
X15985848Y-15056462D01*
X15985848Y-15056462D02*
X15985848Y-15104081D01*
X15985848Y-15104081D02*
X15976324Y-15123128D01*
X15976324Y-15123128D02*
X15966800Y-15132652D01*
X15966800Y-15132652D02*
X15947752Y-15142176D01*
X15947752Y-15142176D02*
X15900133Y-15142176D01*
X15900133Y-15142176D02*
X15881086Y-15132652D01*
X15881086Y-15132652D02*
X15871562Y-15123128D01*
X16176324Y-15142176D02*
X16062038Y-15142176D01*
X16119181Y-15142176D02*
X16119181Y-14942176D01*
X16119181Y-14942176D02*
X16100133Y-14970748D01*
X16100133Y-14970748D02*
X16081086Y-14989795D01*
X16081086Y-14989795D02*
X16062038Y-14999319D01*
X16252514Y-14942176D02*
X16252514Y-14980271D01*
X16328705Y-14942176D02*
X16328705Y-14980271D01*
X16591562Y-15218367D02*
X16582038Y-15208843D01*
X16582038Y-15208843D02*
X16562991Y-15180271D01*
X16562991Y-15180271D02*
X16553467Y-15161224D01*
X16553467Y-15161224D02*
X16543943Y-15132652D01*
X16543943Y-15132652D02*
X16534419Y-15085033D01*
X16534419Y-15085033D02*
X16534419Y-15046938D01*
X16534419Y-15046938D02*
X16543943Y-14999319D01*
X16543943Y-14999319D02*
X16553467Y-14970748D01*
X16553467Y-14970748D02*
X16562991Y-14951700D01*
X16562991Y-14951700D02*
X16582038Y-14923128D01*
X16582038Y-14923128D02*
X16591562Y-14913605D01*
X16696324Y-15027890D02*
X16677276Y-15018367D01*
X16677276Y-15018367D02*
X16667752Y-15008843D01*
X16667752Y-15008843D02*
X16658229Y-14989795D01*
X16658229Y-14989795D02*
X16658229Y-14980271D01*
X16658229Y-14980271D02*
X16667752Y-14961224D01*
X16667752Y-14961224D02*
X16677276Y-14951700D01*
X16677276Y-14951700D02*
X16696324Y-14942176D01*
X16696324Y-14942176D02*
X16734419Y-14942176D01*
X16734419Y-14942176D02*
X16753467Y-14951700D01*
X16753467Y-14951700D02*
X16762991Y-14961224D01*
X16762991Y-14961224D02*
X16772514Y-14980271D01*
X16772514Y-14980271D02*
X16772514Y-14989795D01*
X16772514Y-14989795D02*
X16762991Y-15008843D01*
X16762991Y-15008843D02*
X16753467Y-15018367D01*
X16753467Y-15018367D02*
X16734419Y-15027890D01*
X16734419Y-15027890D02*
X16696324Y-15027890D01*
X16696324Y-15027890D02*
X16677276Y-15037414D01*
X16677276Y-15037414D02*
X16667752Y-15046938D01*
X16667752Y-15046938D02*
X16658229Y-15065986D01*
X16658229Y-15065986D02*
X16658229Y-15104081D01*
X16658229Y-15104081D02*
X16667752Y-15123128D01*
X16667752Y-15123128D02*
X16677276Y-15132652D01*
X16677276Y-15132652D02*
X16696324Y-15142176D01*
X16696324Y-15142176D02*
X16734419Y-15142176D01*
X16734419Y-15142176D02*
X16753467Y-15132652D01*
X16753467Y-15132652D02*
X16762991Y-15123128D01*
X16762991Y-15123128D02*
X16772514Y-15104081D01*
X16772514Y-15104081D02*
X16772514Y-15065986D01*
X16772514Y-15065986D02*
X16762991Y-15046938D01*
X16762991Y-15046938D02*
X16753467Y-15037414D01*
X16753467Y-15037414D02*
X16734419Y-15027890D01*
X16978229Y-15142176D02*
X16978229Y-14942176D01*
X17063943Y-15142176D02*
X17063943Y-15037414D01*
X17063943Y-15037414D02*
X17054419Y-15018367D01*
X17054419Y-15018367D02*
X17035372Y-15008843D01*
X17035372Y-15008843D02*
X17006800Y-15008843D01*
X17006800Y-15008843D02*
X16987753Y-15018367D01*
X16987753Y-15018367D02*
X16978229Y-15027890D01*
X17187753Y-15142176D02*
X17168705Y-15132652D01*
X17168705Y-15132652D02*
X17159181Y-15123128D01*
X17159181Y-15123128D02*
X17149657Y-15104081D01*
X17149657Y-15104081D02*
X17149657Y-15046938D01*
X17149657Y-15046938D02*
X17159181Y-15027890D01*
X17159181Y-15027890D02*
X17168705Y-15018367D01*
X17168705Y-15018367D02*
X17187753Y-15008843D01*
X17187753Y-15008843D02*
X17216324Y-15008843D01*
X17216324Y-15008843D02*
X17235372Y-15018367D01*
X17235372Y-15018367D02*
X17244895Y-15027890D01*
X17244895Y-15027890D02*
X17254419Y-15046938D01*
X17254419Y-15046938D02*
X17254419Y-15104081D01*
X17254419Y-15104081D02*
X17244895Y-15123128D01*
X17244895Y-15123128D02*
X17235372Y-15132652D01*
X17235372Y-15132652D02*
X17216324Y-15142176D01*
X17216324Y-15142176D02*
X17187753Y-15142176D01*
X17368705Y-15142176D02*
X17349657Y-15132652D01*
X17349657Y-15132652D02*
X17340134Y-15113605D01*
X17340134Y-15113605D02*
X17340134Y-14942176D01*
X17521086Y-15132652D02*
X17502038Y-15142176D01*
X17502038Y-15142176D02*
X17463943Y-15142176D01*
X17463943Y-15142176D02*
X17444895Y-15132652D01*
X17444895Y-15132652D02*
X17435372Y-15113605D01*
X17435372Y-15113605D02*
X17435372Y-15037414D01*
X17435372Y-15037414D02*
X17444895Y-15018367D01*
X17444895Y-15018367D02*
X17463943Y-15008843D01*
X17463943Y-15008843D02*
X17502038Y-15008843D01*
X17502038Y-15008843D02*
X17521086Y-15018367D01*
X17521086Y-15018367D02*
X17530610Y-15037414D01*
X17530610Y-15037414D02*
X17530610Y-15056462D01*
X17530610Y-15056462D02*
X17435372Y-15075509D01*
X17606800Y-15132652D02*
X17625848Y-15142176D01*
X17625848Y-15142176D02*
X17663943Y-15142176D01*
X17663943Y-15142176D02*
X17682991Y-15132652D01*
X17682991Y-15132652D02*
X17692515Y-15113605D01*
X17692515Y-15113605D02*
X17692515Y-15104081D01*
X17692515Y-15104081D02*
X17682991Y-15085033D01*
X17682991Y-15085033D02*
X17663943Y-15075509D01*
X17663943Y-15075509D02*
X17635372Y-15075509D01*
X17635372Y-15075509D02*
X17616324Y-15065986D01*
X17616324Y-15065986D02*
X17606800Y-15046938D01*
X17606800Y-15046938D02*
X17606800Y-15037414D01*
X17606800Y-15037414D02*
X17616324Y-15018367D01*
X17616324Y-15018367D02*
X17635372Y-15008843D01*
X17635372Y-15008843D02*
X17663943Y-15008843D01*
X17663943Y-15008843D02*
X17682991Y-15018367D01*
X17759181Y-15218367D02*
X17768705Y-15208843D01*
X17768705Y-15208843D02*
X17787753Y-15180271D01*
X17787753Y-15180271D02*
X17797276Y-15161224D01*
X17797276Y-15161224D02*
X17806800Y-15132652D01*
X17806800Y-15132652D02*
X17816324Y-15085033D01*
X17816324Y-15085033D02*
X17816324Y-15046938D01*
X17816324Y-15046938D02*
X17806800Y-14999319D01*
X17806800Y-14999319D02*
X17797276Y-14970748D01*
X17797276Y-14970748D02*
X17787753Y-14951700D01*
X17787753Y-14951700D02*
X17768705Y-14923128D01*
X17768705Y-14923128D02*
X17759181Y-14913605D01*
X12926800Y-15232700D02*
X13126800Y-15432700D01*
X13126800Y-15232700D02*
X12926800Y-15432700D01*
X13097511Y-15403411D02*
X13097511Y-15261989D01*
X12956089Y-15261989D01*
X12956089Y-15403411D01*
X13097511Y-15403411D01*
X13364895Y-15225224D02*
X13374419Y-15215700D01*
X13374419Y-15215700D02*
X13393467Y-15206176D01*
X13393467Y-15206176D02*
X13441086Y-15206176D01*
X13441086Y-15206176D02*
X13460133Y-15215700D01*
X13460133Y-15215700D02*
X13469657Y-15225224D01*
X13469657Y-15225224D02*
X13479181Y-15244271D01*
X13479181Y-15244271D02*
X13479181Y-15263319D01*
X13479181Y-15263319D02*
X13469657Y-15291890D01*
X13469657Y-15291890D02*
X13355371Y-15406176D01*
X13355371Y-15406176D02*
X13479181Y-15406176D01*
X13564895Y-15387128D02*
X13574419Y-15396652D01*
X13574419Y-15396652D02*
X13564895Y-15406176D01*
X13564895Y-15406176D02*
X13555371Y-15396652D01*
X13555371Y-15396652D02*
X13564895Y-15387128D01*
X13564895Y-15387128D02*
X13564895Y-15406176D01*
X13641086Y-15206176D02*
X13764895Y-15206176D01*
X13764895Y-15206176D02*
X13698228Y-15282367D01*
X13698228Y-15282367D02*
X13726800Y-15282367D01*
X13726800Y-15282367D02*
X13745848Y-15291890D01*
X13745848Y-15291890D02*
X13755371Y-15301414D01*
X13755371Y-15301414D02*
X13764895Y-15320462D01*
X13764895Y-15320462D02*
X13764895Y-15368081D01*
X13764895Y-15368081D02*
X13755371Y-15387128D01*
X13755371Y-15387128D02*
X13745848Y-15396652D01*
X13745848Y-15396652D02*
X13726800Y-15406176D01*
X13726800Y-15406176D02*
X13669657Y-15406176D01*
X13669657Y-15406176D02*
X13650609Y-15396652D01*
X13650609Y-15396652D02*
X13641086Y-15387128D01*
X13888705Y-15206176D02*
X13907752Y-15206176D01*
X13907752Y-15206176D02*
X13926800Y-15215700D01*
X13926800Y-15215700D02*
X13936324Y-15225224D01*
X13936324Y-15225224D02*
X13945848Y-15244271D01*
X13945848Y-15244271D02*
X13955371Y-15282367D01*
X13955371Y-15282367D02*
X13955371Y-15329986D01*
X13955371Y-15329986D02*
X13945848Y-15368081D01*
X13945848Y-15368081D02*
X13936324Y-15387128D01*
X13936324Y-15387128D02*
X13926800Y-15396652D01*
X13926800Y-15396652D02*
X13907752Y-15406176D01*
X13907752Y-15406176D02*
X13888705Y-15406176D01*
X13888705Y-15406176D02*
X13869657Y-15396652D01*
X13869657Y-15396652D02*
X13860133Y-15387128D01*
X13860133Y-15387128D02*
X13850609Y-15368081D01*
X13850609Y-15368081D02*
X13841086Y-15329986D01*
X13841086Y-15329986D02*
X13841086Y-15282367D01*
X13841086Y-15282367D02*
X13850609Y-15244271D01*
X13850609Y-15244271D02*
X13860133Y-15225224D01*
X13860133Y-15225224D02*
X13869657Y-15215700D01*
X13869657Y-15215700D02*
X13888705Y-15206176D01*
X14079181Y-15206176D02*
X14098229Y-15206176D01*
X14098229Y-15206176D02*
X14117276Y-15215700D01*
X14117276Y-15215700D02*
X14126800Y-15225224D01*
X14126800Y-15225224D02*
X14136324Y-15244271D01*
X14136324Y-15244271D02*
X14145848Y-15282367D01*
X14145848Y-15282367D02*
X14145848Y-15329986D01*
X14145848Y-15329986D02*
X14136324Y-15368081D01*
X14136324Y-15368081D02*
X14126800Y-15387128D01*
X14126800Y-15387128D02*
X14117276Y-15396652D01*
X14117276Y-15396652D02*
X14098229Y-15406176D01*
X14098229Y-15406176D02*
X14079181Y-15406176D01*
X14079181Y-15406176D02*
X14060133Y-15396652D01*
X14060133Y-15396652D02*
X14050609Y-15387128D01*
X14050609Y-15387128D02*
X14041086Y-15368081D01*
X14041086Y-15368081D02*
X14031562Y-15329986D01*
X14031562Y-15329986D02*
X14031562Y-15282367D01*
X14031562Y-15282367D02*
X14041086Y-15244271D01*
X14041086Y-15244271D02*
X14050609Y-15225224D01*
X14050609Y-15225224D02*
X14060133Y-15215700D01*
X14060133Y-15215700D02*
X14079181Y-15206176D01*
X14231562Y-15406176D02*
X14231562Y-15272843D01*
X14231562Y-15291890D02*
X14241086Y-15282367D01*
X14241086Y-15282367D02*
X14260133Y-15272843D01*
X14260133Y-15272843D02*
X14288705Y-15272843D01*
X14288705Y-15272843D02*
X14307752Y-15282367D01*
X14307752Y-15282367D02*
X14317276Y-15301414D01*
X14317276Y-15301414D02*
X14317276Y-15406176D01*
X14317276Y-15301414D02*
X14326800Y-15282367D01*
X14326800Y-15282367D02*
X14345848Y-15272843D01*
X14345848Y-15272843D02*
X14374419Y-15272843D01*
X14374419Y-15272843D02*
X14393467Y-15282367D01*
X14393467Y-15282367D02*
X14402990Y-15301414D01*
X14402990Y-15301414D02*
X14402990Y-15406176D01*
X14498229Y-15406176D02*
X14498229Y-15272843D01*
X14498229Y-15291890D02*
X14507752Y-15282367D01*
X14507752Y-15282367D02*
X14526800Y-15272843D01*
X14526800Y-15272843D02*
X14555371Y-15272843D01*
X14555371Y-15272843D02*
X14574419Y-15282367D01*
X14574419Y-15282367D02*
X14583943Y-15301414D01*
X14583943Y-15301414D02*
X14583943Y-15406176D01*
X14583943Y-15301414D02*
X14593467Y-15282367D01*
X14593467Y-15282367D02*
X14612514Y-15272843D01*
X14612514Y-15272843D02*
X14641086Y-15272843D01*
X14641086Y-15272843D02*
X14660133Y-15282367D01*
X14660133Y-15282367D02*
X14669657Y-15301414D01*
X14669657Y-15301414D02*
X14669657Y-15406176D01*
X15027752Y-15196652D02*
X14856324Y-15453795D01*
X15252514Y-15206176D02*
X15271562Y-15206176D01*
X15271562Y-15206176D02*
X15290610Y-15215700D01*
X15290610Y-15215700D02*
X15300133Y-15225224D01*
X15300133Y-15225224D02*
X15309657Y-15244271D01*
X15309657Y-15244271D02*
X15319181Y-15282367D01*
X15319181Y-15282367D02*
X15319181Y-15329986D01*
X15319181Y-15329986D02*
X15309657Y-15368081D01*
X15309657Y-15368081D02*
X15300133Y-15387128D01*
X15300133Y-15387128D02*
X15290610Y-15396652D01*
X15290610Y-15396652D02*
X15271562Y-15406176D01*
X15271562Y-15406176D02*
X15252514Y-15406176D01*
X15252514Y-15406176D02*
X15233467Y-15396652D01*
X15233467Y-15396652D02*
X15223943Y-15387128D01*
X15223943Y-15387128D02*
X15214419Y-15368081D01*
X15214419Y-15368081D02*
X15204895Y-15329986D01*
X15204895Y-15329986D02*
X15204895Y-15282367D01*
X15204895Y-15282367D02*
X15214419Y-15244271D01*
X15214419Y-15244271D02*
X15223943Y-15225224D01*
X15223943Y-15225224D02*
X15233467Y-15215700D01*
X15233467Y-15215700D02*
X15252514Y-15206176D01*
X15404895Y-15387128D02*
X15414419Y-15396652D01*
X15414419Y-15396652D02*
X15404895Y-15406176D01*
X15404895Y-15406176D02*
X15395371Y-15396652D01*
X15395371Y-15396652D02*
X15404895Y-15387128D01*
X15404895Y-15387128D02*
X15404895Y-15406176D01*
X15538229Y-15206176D02*
X15557276Y-15206176D01*
X15557276Y-15206176D02*
X15576324Y-15215700D01*
X15576324Y-15215700D02*
X15585848Y-15225224D01*
X15585848Y-15225224D02*
X15595371Y-15244271D01*
X15595371Y-15244271D02*
X15604895Y-15282367D01*
X15604895Y-15282367D02*
X15604895Y-15329986D01*
X15604895Y-15329986D02*
X15595371Y-15368081D01*
X15595371Y-15368081D02*
X15585848Y-15387128D01*
X15585848Y-15387128D02*
X15576324Y-15396652D01*
X15576324Y-15396652D02*
X15557276Y-15406176D01*
X15557276Y-15406176D02*
X15538229Y-15406176D01*
X15538229Y-15406176D02*
X15519181Y-15396652D01*
X15519181Y-15396652D02*
X15509657Y-15387128D01*
X15509657Y-15387128D02*
X15500133Y-15368081D01*
X15500133Y-15368081D02*
X15490610Y-15329986D01*
X15490610Y-15329986D02*
X15490610Y-15282367D01*
X15490610Y-15282367D02*
X15500133Y-15244271D01*
X15500133Y-15244271D02*
X15509657Y-15225224D01*
X15509657Y-15225224D02*
X15519181Y-15215700D01*
X15519181Y-15215700D02*
X15538229Y-15206176D01*
X15700133Y-15406176D02*
X15738229Y-15406176D01*
X15738229Y-15406176D02*
X15757276Y-15396652D01*
X15757276Y-15396652D02*
X15766800Y-15387128D01*
X15766800Y-15387128D02*
X15785848Y-15358557D01*
X15785848Y-15358557D02*
X15795371Y-15320462D01*
X15795371Y-15320462D02*
X15795371Y-15244271D01*
X15795371Y-15244271D02*
X15785848Y-15225224D01*
X15785848Y-15225224D02*
X15776324Y-15215700D01*
X15776324Y-15215700D02*
X15757276Y-15206176D01*
X15757276Y-15206176D02*
X15719181Y-15206176D01*
X15719181Y-15206176D02*
X15700133Y-15215700D01*
X15700133Y-15215700D02*
X15690610Y-15225224D01*
X15690610Y-15225224D02*
X15681086Y-15244271D01*
X15681086Y-15244271D02*
X15681086Y-15291890D01*
X15681086Y-15291890D02*
X15690610Y-15310938D01*
X15690610Y-15310938D02*
X15700133Y-15320462D01*
X15700133Y-15320462D02*
X15719181Y-15329986D01*
X15719181Y-15329986D02*
X15757276Y-15329986D01*
X15757276Y-15329986D02*
X15776324Y-15320462D01*
X15776324Y-15320462D02*
X15785848Y-15310938D01*
X15785848Y-15310938D02*
X15795371Y-15291890D01*
X15919181Y-15206176D02*
X15938229Y-15206176D01*
X15938229Y-15206176D02*
X15957276Y-15215700D01*
X15957276Y-15215700D02*
X15966800Y-15225224D01*
X15966800Y-15225224D02*
X15976324Y-15244271D01*
X15976324Y-15244271D02*
X15985848Y-15282367D01*
X15985848Y-15282367D02*
X15985848Y-15329986D01*
X15985848Y-15329986D02*
X15976324Y-15368081D01*
X15976324Y-15368081D02*
X15966800Y-15387128D01*
X15966800Y-15387128D02*
X15957276Y-15396652D01*
X15957276Y-15396652D02*
X15938229Y-15406176D01*
X15938229Y-15406176D02*
X15919181Y-15406176D01*
X15919181Y-15406176D02*
X15900133Y-15396652D01*
X15900133Y-15396652D02*
X15890610Y-15387128D01*
X15890610Y-15387128D02*
X15881086Y-15368081D01*
X15881086Y-15368081D02*
X15871562Y-15329986D01*
X15871562Y-15329986D02*
X15871562Y-15282367D01*
X15871562Y-15282367D02*
X15881086Y-15244271D01*
X15881086Y-15244271D02*
X15890610Y-15225224D01*
X15890610Y-15225224D02*
X15900133Y-15215700D01*
X15900133Y-15215700D02*
X15919181Y-15206176D01*
X16157276Y-15206176D02*
X16119181Y-15206176D01*
X16119181Y-15206176D02*
X16100133Y-15215700D01*
X16100133Y-15215700D02*
X16090610Y-15225224D01*
X16090610Y-15225224D02*
X16071562Y-15253795D01*
X16071562Y-15253795D02*
X16062038Y-15291890D01*
X16062038Y-15291890D02*
X16062038Y-15368081D01*
X16062038Y-15368081D02*
X16071562Y-15387128D01*
X16071562Y-15387128D02*
X16081086Y-15396652D01*
X16081086Y-15396652D02*
X16100133Y-15406176D01*
X16100133Y-15406176D02*
X16138229Y-15406176D01*
X16138229Y-15406176D02*
X16157276Y-15396652D01*
X16157276Y-15396652D02*
X16166800Y-15387128D01*
X16166800Y-15387128D02*
X16176324Y-15368081D01*
X16176324Y-15368081D02*
X16176324Y-15320462D01*
X16176324Y-15320462D02*
X16166800Y-15301414D01*
X16166800Y-15301414D02*
X16157276Y-15291890D01*
X16157276Y-15291890D02*
X16138229Y-15282367D01*
X16138229Y-15282367D02*
X16100133Y-15282367D01*
X16100133Y-15282367D02*
X16081086Y-15291890D01*
X16081086Y-15291890D02*
X16071562Y-15301414D01*
X16071562Y-15301414D02*
X16062038Y-15320462D01*
X16252514Y-15206176D02*
X16252514Y-15244271D01*
X16328705Y-15206176D02*
X16328705Y-15244271D01*
X16591562Y-15482367D02*
X16582038Y-15472843D01*
X16582038Y-15472843D02*
X16562991Y-15444271D01*
X16562991Y-15444271D02*
X16553467Y-15425224D01*
X16553467Y-15425224D02*
X16543943Y-15396652D01*
X16543943Y-15396652D02*
X16534419Y-15349033D01*
X16534419Y-15349033D02*
X16534419Y-15310938D01*
X16534419Y-15310938D02*
X16543943Y-15263319D01*
X16543943Y-15263319D02*
X16553467Y-15234748D01*
X16553467Y-15234748D02*
X16562991Y-15215700D01*
X16562991Y-15215700D02*
X16582038Y-15187128D01*
X16582038Y-15187128D02*
X16591562Y-15177605D01*
X16658229Y-15225224D02*
X16667752Y-15215700D01*
X16667752Y-15215700D02*
X16686800Y-15206176D01*
X16686800Y-15206176D02*
X16734419Y-15206176D01*
X16734419Y-15206176D02*
X16753467Y-15215700D01*
X16753467Y-15215700D02*
X16762991Y-15225224D01*
X16762991Y-15225224D02*
X16772514Y-15244271D01*
X16772514Y-15244271D02*
X16772514Y-15263319D01*
X16772514Y-15263319D02*
X16762991Y-15291890D01*
X16762991Y-15291890D02*
X16648705Y-15406176D01*
X16648705Y-15406176D02*
X16772514Y-15406176D01*
X16978229Y-15406176D02*
X16978229Y-15206176D01*
X17063943Y-15406176D02*
X17063943Y-15301414D01*
X17063943Y-15301414D02*
X17054419Y-15282367D01*
X17054419Y-15282367D02*
X17035372Y-15272843D01*
X17035372Y-15272843D02*
X17006800Y-15272843D01*
X17006800Y-15272843D02*
X16987753Y-15282367D01*
X16987753Y-15282367D02*
X16978229Y-15291890D01*
X17187753Y-15406176D02*
X17168705Y-15396652D01*
X17168705Y-15396652D02*
X17159181Y-15387128D01*
X17159181Y-15387128D02*
X17149657Y-15368081D01*
X17149657Y-15368081D02*
X17149657Y-15310938D01*
X17149657Y-15310938D02*
X17159181Y-15291890D01*
X17159181Y-15291890D02*
X17168705Y-15282367D01*
X17168705Y-15282367D02*
X17187753Y-15272843D01*
X17187753Y-15272843D02*
X17216324Y-15272843D01*
X17216324Y-15272843D02*
X17235372Y-15282367D01*
X17235372Y-15282367D02*
X17244895Y-15291890D01*
X17244895Y-15291890D02*
X17254419Y-15310938D01*
X17254419Y-15310938D02*
X17254419Y-15368081D01*
X17254419Y-15368081D02*
X17244895Y-15387128D01*
X17244895Y-15387128D02*
X17235372Y-15396652D01*
X17235372Y-15396652D02*
X17216324Y-15406176D01*
X17216324Y-15406176D02*
X17187753Y-15406176D01*
X17368705Y-15406176D02*
X17349657Y-15396652D01*
X17349657Y-15396652D02*
X17340134Y-15377605D01*
X17340134Y-15377605D02*
X17340134Y-15206176D01*
X17521086Y-15396652D02*
X17502038Y-15406176D01*
X17502038Y-15406176D02*
X17463943Y-15406176D01*
X17463943Y-15406176D02*
X17444895Y-15396652D01*
X17444895Y-15396652D02*
X17435372Y-15377605D01*
X17435372Y-15377605D02*
X17435372Y-15301414D01*
X17435372Y-15301414D02*
X17444895Y-15282367D01*
X17444895Y-15282367D02*
X17463943Y-15272843D01*
X17463943Y-15272843D02*
X17502038Y-15272843D01*
X17502038Y-15272843D02*
X17521086Y-15282367D01*
X17521086Y-15282367D02*
X17530610Y-15301414D01*
X17530610Y-15301414D02*
X17530610Y-15320462D01*
X17530610Y-15320462D02*
X17435372Y-15339509D01*
X17606800Y-15396652D02*
X17625848Y-15406176D01*
X17625848Y-15406176D02*
X17663943Y-15406176D01*
X17663943Y-15406176D02*
X17682991Y-15396652D01*
X17682991Y-15396652D02*
X17692515Y-15377605D01*
X17692515Y-15377605D02*
X17692515Y-15368081D01*
X17692515Y-15368081D02*
X17682991Y-15349033D01*
X17682991Y-15349033D02*
X17663943Y-15339509D01*
X17663943Y-15339509D02*
X17635372Y-15339509D01*
X17635372Y-15339509D02*
X17616324Y-15329986D01*
X17616324Y-15329986D02*
X17606800Y-15310938D01*
X17606800Y-15310938D02*
X17606800Y-15301414D01*
X17606800Y-15301414D02*
X17616324Y-15282367D01*
X17616324Y-15282367D02*
X17635372Y-15272843D01*
X17635372Y-15272843D02*
X17663943Y-15272843D01*
X17663943Y-15272843D02*
X17682991Y-15282367D01*
X17759181Y-15482367D02*
X17768705Y-15472843D01*
X17768705Y-15472843D02*
X17787753Y-15444271D01*
X17787753Y-15444271D02*
X17797276Y-15425224D01*
X17797276Y-15425224D02*
X17806800Y-15396652D01*
X17806800Y-15396652D02*
X17816324Y-15349033D01*
X17816324Y-15349033D02*
X17816324Y-15310938D01*
X17816324Y-15310938D02*
X17806800Y-15263319D01*
X17806800Y-15263319D02*
X17797276Y-15234748D01*
X17797276Y-15234748D02*
X17787753Y-15215700D01*
X17787753Y-15215700D02*
X17768705Y-15187128D01*
X17768705Y-15187128D02*
X17759181Y-15177605D01*
M02*
