%TF.GenerationSoftware,KiCad,Pcbnew,6.99.0-unknown-08a8a20794~162~ubuntu22.04.1*%
%TF.CreationDate,2022-12-21T10:25:03+01:00*%
%TF.ProjectId,usb_relay,7573625f-7265-46c6-9179-2e6b69636164,rev?*%
%TF.SameCoordinates,Original*%
%TF.FileFunction,Copper,L2,Bot*%
%TF.FilePolarity,Positive*%
%FSLAX46Y46*%
G04 Gerber Fmt 4.6, Leading zero omitted, Abs format (unit mm)*
G04 Created by KiCad (PCBNEW 6.99.0-unknown-08a8a20794~162~ubuntu22.04.1) date 2022-12-21 10:25:03*
%MOMM*%
%LPD*%
G01*
G04 APERTURE LIST*
G04 Aperture macros list*
%AMRoundRect*
0 Rectangle with rounded corners*
0 $1 Rounding radius*
0 $2 $3 $4 $5 $6 $7 $8 $9 X,Y pos of 4 corners*
0 Add a 4 corners polygon primitive as box body*
4,1,4,$2,$3,$4,$5,$6,$7,$8,$9,$2,$3,0*
0 Add four circle primitives for the rounded corners*
1,1,$1+$1,$2,$3*
1,1,$1+$1,$4,$5*
1,1,$1+$1,$6,$7*
1,1,$1+$1,$8,$9*
0 Add four rect primitives between the rounded corners*
20,1,$1+$1,$2,$3,$4,$5,0*
20,1,$1+$1,$4,$5,$6,$7,0*
20,1,$1+$1,$6,$7,$8,$9,0*
20,1,$1+$1,$8,$9,$2,$3,0*%
G04 Aperture macros list end*
%TA.AperFunction,ComponentPad*%
%ADD10RoundRect,0.250000X1.550000X-0.750000X1.550000X0.750000X-1.550000X0.750000X-1.550000X-0.750000X0*%
%TD*%
%TA.AperFunction,ComponentPad*%
%ADD11O,3.600000X2.000000*%
%TD*%
%TA.AperFunction,ComponentPad*%
%ADD12R,1.600000X1.600000*%
%TD*%
%TA.AperFunction,ComponentPad*%
%ADD13C,1.600000*%
%TD*%
%TA.AperFunction,ComponentPad*%
%ADD14C,4.000000*%
%TD*%
%TA.AperFunction,ComponentPad*%
%ADD15R,2.000000X2.000000*%
%TD*%
%TA.AperFunction,ComponentPad*%
%ADD16C,2.000000*%
%TD*%
%TA.AperFunction,ComponentPad*%
%ADD17R,2.400000X2.400000*%
%TD*%
%TA.AperFunction,ComponentPad*%
%ADD18C,2.400000*%
%TD*%
%TA.AperFunction,ComponentPad*%
%ADD19C,1.500000*%
%TD*%
%TA.AperFunction,ViaPad*%
%ADD20C,0.800000*%
%TD*%
%TA.AperFunction,ViaPad*%
%ADD21C,1.600000*%
%TD*%
%TA.AperFunction,Conductor*%
%ADD22C,0.250000*%
%TD*%
%TA.AperFunction,Conductor*%
%ADD23C,2.000000*%
%TD*%
G04 APERTURE END LIST*
D10*
%TO.P,J4,1,Pin_1*%
%TO.N,Net-(J4-Pin_1)*%
X138898500Y-121225000D03*
D11*
%TO.P,J4,2,Pin_2*%
%TO.N,Net-(J4-Pin_2)*%
X138898499Y-113724999D03*
%TD*%
D12*
%TO.P,J7,1,VBUS*%
%TO.N,+5V*%
X211296899Y-89885199D03*
D13*
%TO.P,J7,2,D-*%
%TO.N,Net-(J7-D-)*%
X211296900Y-92385200D03*
%TO.P,J7,3,D+*%
%TO.N,Net-(J7-D+)*%
X213296900Y-92385200D03*
%TO.P,J7,4,GND*%
%TO.N,GND*%
X213296900Y-89885200D03*
D14*
%TO.P,J7,5,Shield*%
X216156900Y-85135200D03*
X216156900Y-97135200D03*
%TD*%
D15*
%TO.P,U5,1*%
%TO.N,Net-(J6-Pin_1)*%
X155403499Y-79528499D03*
D16*
%TO.P,U5,2*%
%TO.N,Net-(J6-Pin_2)*%
X165563500Y-79528500D03*
%TO.P,U5,3*%
%TO.N,Net-(R9-Pad1)*%
X177755500Y-79528500D03*
%TO.P,U5,4*%
%TO.N,GND*%
X182835500Y-79528500D03*
%TD*%
D15*
%TO.P,U4,1*%
%TO.N,Net-(J5-Pin_1)*%
X155276499Y-93498499D03*
D16*
%TO.P,U4,2*%
%TO.N,Net-(J5-Pin_2)*%
X165436500Y-93498500D03*
%TO.P,U4,3*%
%TO.N,Net-(R8-Pad1)*%
X177628500Y-93498500D03*
%TO.P,U4,4*%
%TO.N,GND*%
X182708500Y-93498500D03*
%TD*%
D15*
%TO.P,U2,1*%
%TO.N,Net-(J3-Pin_1)*%
X155403499Y-65431499D03*
D16*
%TO.P,U2,2*%
%TO.N,Net-(J3-Pin_2)*%
X165563500Y-65431500D03*
%TO.P,U2,3*%
%TO.N,Net-(R6-Pad1)*%
X177755500Y-65431500D03*
%TO.P,U2,4*%
%TO.N,GND*%
X182835500Y-65431500D03*
%TD*%
D10*
%TO.P,J5,1,Pin_1*%
%TO.N,Net-(J5-Pin_1)*%
X138898500Y-103826000D03*
D11*
%TO.P,J5,2,Pin_2*%
%TO.N,Net-(J5-Pin_2)*%
X138898499Y-96325999D03*
%TD*%
D10*
%TO.P,J6,1,Pin_1*%
%TO.N,Net-(J6-Pin_1)*%
X139192000Y-86614000D03*
D11*
%TO.P,J6,2,Pin_2*%
%TO.N,Net-(J6-Pin_2)*%
X139191999Y-79113999D03*
%TD*%
D15*
%TO.P,U3,1*%
%TO.N,Net-(J4-Pin_1)*%
X155276499Y-107722499D03*
D16*
%TO.P,U3,2*%
%TO.N,Net-(J4-Pin_2)*%
X165436500Y-107722500D03*
%TO.P,U3,3*%
%TO.N,Net-(R7-Pad2)*%
X177628500Y-107722500D03*
%TO.P,U3,4*%
%TO.N,GND*%
X182708500Y-107722500D03*
%TD*%
D17*
%TO.P,J2,1,Pin_1*%
%TO.N,+5V*%
X175102999Y-120776999D03*
D18*
%TO.P,J2,2,Pin_2*%
%TO.N,Net-(J2-Pin_2)*%
X178603000Y-120777000D03*
%TO.P,J2,3,Pin_3*%
%TO.N,Net-(J2-Pin_3)*%
X182103000Y-120777000D03*
%TO.P,J2,4,Pin_4*%
%TO.N,Net-(J2-Pin_4)*%
X185603000Y-120777000D03*
%TO.P,J2,5,Pin_5*%
%TO.N,Net-(J2-Pin_5)*%
X189103000Y-120777000D03*
%TO.P,J2,6,Pin_6*%
%TO.N,Net-(J2-Pin_6)*%
X192603000Y-120777000D03*
%TO.P,J2,7,Pin_7*%
%TO.N,Net-(J2-Pin_7)*%
X196103000Y-120777000D03*
%TO.P,J2,8,Pin_8*%
%TO.N,GND*%
X199603000Y-120777000D03*
%TD*%
D19*
%TO.P,Y1,1,1*%
%TO.N,Net-(U1-OSC2)*%
X203262400Y-84886800D03*
%TO.P,Y1,2,2*%
%TO.N,Net-(U1-OSC1)*%
X198362400Y-84886800D03*
%TD*%
D10*
%TO.P,J3,1,Pin_1*%
%TO.N,Net-(J3-Pin_1)*%
X139025500Y-69155000D03*
D11*
%TO.P,J3,2,Pin_2*%
%TO.N,Net-(J3-Pin_2)*%
X139025499Y-61654999D03*
%TD*%
D20*
%TO.N,+5V*%
X196697600Y-88442800D03*
X194411600Y-88036400D03*
X208280000Y-101600000D03*
X192913000Y-108585000D03*
%TO.N,Net-(J2-Pin_4)*%
X198247000Y-99568000D03*
%TO.N,Net-(J2-Pin_7)*%
X201041000Y-99822000D03*
D21*
%TO.N,Net-(J3-Pin_1)*%
X147421600Y-69138800D03*
X153263600Y-69138800D03*
X142849600Y-69088000D03*
%TO.N,Net-(J3-Pin_2)*%
X142900400Y-61620400D03*
X160883600Y-59944000D03*
X165506400Y-62941200D03*
X147421600Y-61722000D03*
X157175200Y-59994800D03*
X153365200Y-60045600D03*
%TO.N,Net-(J4-Pin_1)*%
X153924000Y-116941600D03*
X146659600Y-118211600D03*
X155346400Y-112217200D03*
X150723600Y-118313200D03*
X142951200Y-118262400D03*
%TO.N,Net-(J4-Pin_2)*%
X158140400Y-103784400D03*
X148488400Y-105664000D03*
X163525200Y-103632000D03*
X143002000Y-113690400D03*
X146608800Y-109778800D03*
X153263600Y-103733600D03*
%TO.N,Net-(J5-Pin_1)*%
X142900400Y-103733600D03*
X145389600Y-101396800D03*
X151942800Y-94894400D03*
X148386800Y-98348800D03*
%TO.N,Net-(J5-Pin_2)*%
X142951200Y-96266000D03*
X149148800Y-91440000D03*
X153416000Y-89611200D03*
X145846800Y-94945200D03*
X162509200Y-89611200D03*
X158038800Y-89560400D03*
%TO.N,Net-(J6-Pin_1)*%
X143205200Y-86512400D03*
X152095200Y-80772000D03*
X148132800Y-84734400D03*
%TO.N,Net-(J6-Pin_2)*%
X148234400Y-77571600D03*
X162712400Y-76047600D03*
X151790400Y-75946000D03*
X143205200Y-79095600D03*
X157073600Y-76047600D03*
D20*
%TO.N,Net-(U1-GP2)*%
X194360800Y-92354400D03*
X205333600Y-93370400D03*
%TO.N,Net-(J7-D+)*%
X206349600Y-90004900D03*
%TD*%
D22*
%TO.N,Net-(J2-Pin_4)*%
X185603000Y-118435000D02*
X188214000Y-115824000D01*
X188214000Y-115824000D02*
X196469000Y-115824000D01*
X185603000Y-120777000D02*
X185603000Y-118435000D01*
X196469000Y-115824000D02*
X198247000Y-114046000D01*
X198374000Y-99441000D02*
X198247000Y-99568000D01*
X198247000Y-114046000D02*
X198247000Y-99822000D01*
%TO.N,Net-(J2-Pin_7)*%
X201041000Y-111252000D02*
X201041000Y-113284000D01*
X196103000Y-120777000D02*
X196103000Y-118730000D01*
X201041000Y-111252000D02*
X201041000Y-99822000D01*
X201041000Y-113792000D02*
X201041000Y-113284000D01*
X196103000Y-118730000D02*
X201041000Y-113792000D01*
D23*
%TO.N,Net-(J3-Pin_1)*%
X155403500Y-68116500D02*
X154365000Y-69155000D01*
X155403500Y-65431500D02*
X155403500Y-68116500D01*
X154365000Y-69155000D02*
X139025500Y-69155000D01*
%TO.N,Net-(J3-Pin_2)*%
X149012600Y-61655000D02*
X139025500Y-61655000D01*
X150774400Y-59893200D02*
X149012600Y-61655000D01*
X165563500Y-65431500D02*
X165563500Y-62134700D01*
X165563500Y-62134700D02*
X163322000Y-59893200D01*
X163322000Y-59893200D02*
X150774400Y-59893200D01*
%TO.N,Net-(J4-Pin_1)*%
X141861100Y-118262400D02*
X138898500Y-121225000D01*
X152603200Y-118262400D02*
X141861100Y-118262400D01*
X155276500Y-107722500D02*
X155276500Y-115589100D01*
X155276500Y-115589100D02*
X152603200Y-118262400D01*
%TO.N,Net-(J4-Pin_2)*%
X146558000Y-107569000D02*
X146558000Y-111506000D01*
X144339000Y-113725000D02*
X138898500Y-113725000D01*
X164592000Y-103759000D02*
X150368000Y-103759000D01*
X150368000Y-103759000D02*
X146558000Y-107569000D01*
X146558000Y-111506000D02*
X144339000Y-113725000D01*
X165436500Y-104603500D02*
X164592000Y-103759000D01*
X165436500Y-107722500D02*
X165436500Y-104603500D01*
%TO.N,Net-(J5-Pin_1)*%
X143062000Y-103826000D02*
X138898500Y-103826000D01*
X153389500Y-93498500D02*
X143062000Y-103826000D01*
X155276500Y-93498500D02*
X153389500Y-93498500D01*
%TO.N,Net-(J5-Pin_2)*%
X165436500Y-93498500D02*
X165436500Y-91116100D01*
X144364400Y-96326000D02*
X138898500Y-96326000D01*
X163931600Y-89611200D02*
X151079200Y-89611200D01*
X151079200Y-89611200D02*
X144364400Y-96326000D01*
X165436500Y-91116100D02*
X163931600Y-89611200D01*
%TO.N,Net-(J6-Pin_1)*%
X153314400Y-79502000D02*
X155377000Y-79502000D01*
X146202400Y-86614000D02*
X153314400Y-79502000D01*
X139192000Y-86614000D02*
X146202400Y-86614000D01*
X155377000Y-79502000D02*
X155403500Y-79528500D01*
%TO.N,Net-(J6-Pin_2)*%
X149809200Y-75996800D02*
X146692000Y-79114000D01*
X164185600Y-75996800D02*
X149809200Y-75996800D01*
X165563500Y-79528500D02*
X165563500Y-77374700D01*
X165563500Y-77374700D02*
X164185600Y-75996800D01*
X146692000Y-79114000D02*
X139192000Y-79114000D01*
D22*
%TO.N,Net-(U1-GP2)*%
X195376800Y-93370400D02*
X194360800Y-92354400D01*
X205333600Y-93370400D02*
X195376800Y-93370400D01*
%TO.N,Net-(J7-D+)*%
X210261200Y-93776800D02*
X212902800Y-93776800D01*
X213296900Y-93382700D02*
X213296900Y-92385200D01*
X209499200Y-93014800D02*
X210261200Y-93776800D01*
X209499200Y-92354400D02*
X209499200Y-93014800D01*
X207149700Y-90004900D02*
X209499200Y-92354400D01*
X206349600Y-90004900D02*
X207149700Y-90004900D01*
X212902800Y-93776800D02*
X213296900Y-93382700D01*
%TD*%
%TA.AperFunction,Conductor*%
%TO.N,+5V*%
G36*
X218392985Y-53237194D02*
G01*
X218822274Y-53238127D01*
X218885158Y-53255099D01*
X218931165Y-53301206D01*
X218948000Y-53364127D01*
X218948000Y-128245463D01*
X218931096Y-128308502D01*
X218884921Y-128354628D01*
X218821863Y-128371463D01*
X172210990Y-128320936D01*
X172148011Y-128303988D01*
X172101943Y-128257823D01*
X172085127Y-128194810D01*
X172088346Y-125018800D01*
X213380151Y-125018800D01*
X213380539Y-125023730D01*
X213399528Y-125265014D01*
X213399529Y-125265022D01*
X213399917Y-125269948D01*
X213401071Y-125274756D01*
X213401072Y-125274760D01*
X213457571Y-125510098D01*
X213457572Y-125510103D01*
X213458727Y-125514911D01*
X213555134Y-125747659D01*
X213686764Y-125962459D01*
X213850376Y-126154024D01*
X214041941Y-126317636D01*
X214256741Y-126449266D01*
X214489489Y-126545673D01*
X214734452Y-126604483D01*
X214922718Y-126619300D01*
X215046013Y-126619300D01*
X215048482Y-126619300D01*
X215236748Y-126604483D01*
X215481711Y-126545673D01*
X215714459Y-126449266D01*
X215929259Y-126317636D01*
X216120824Y-126154024D01*
X216284436Y-125962459D01*
X216416066Y-125747659D01*
X216512473Y-125514911D01*
X216571283Y-125269948D01*
X216591049Y-125018800D01*
X216571283Y-124767652D01*
X216512473Y-124522689D01*
X216416066Y-124289941D01*
X216284436Y-124075141D01*
X216120824Y-123883576D01*
X215929259Y-123719964D01*
X215714459Y-123588334D01*
X215481711Y-123491927D01*
X215476903Y-123490772D01*
X215476898Y-123490771D01*
X215241560Y-123434272D01*
X215241556Y-123434271D01*
X215236748Y-123433117D01*
X215231822Y-123432729D01*
X215231814Y-123432728D01*
X215050938Y-123418493D01*
X215050930Y-123418492D01*
X215048482Y-123418300D01*
X214922718Y-123418300D01*
X214920270Y-123418492D01*
X214920261Y-123418493D01*
X214739385Y-123432728D01*
X214739375Y-123432729D01*
X214734452Y-123433117D01*
X214729645Y-123434271D01*
X214729639Y-123434272D01*
X214494301Y-123490771D01*
X214494292Y-123490773D01*
X214489489Y-123491927D01*
X214484921Y-123493818D01*
X214484915Y-123493821D01*
X214261315Y-123586439D01*
X214261310Y-123586441D01*
X214256741Y-123588334D01*
X214252526Y-123590916D01*
X214252520Y-123590920D01*
X214046158Y-123717379D01*
X214046150Y-123717384D01*
X214041941Y-123719964D01*
X214038180Y-123723175D01*
X214038176Y-123723179D01*
X213854138Y-123880362D01*
X213854131Y-123880368D01*
X213850376Y-123883576D01*
X213847168Y-123887331D01*
X213847162Y-123887338D01*
X213689979Y-124071376D01*
X213689975Y-124071380D01*
X213686764Y-124075141D01*
X213684184Y-124079350D01*
X213684179Y-124079358D01*
X213557720Y-124285720D01*
X213557716Y-124285726D01*
X213555134Y-124289941D01*
X213553241Y-124294510D01*
X213553239Y-124294515D01*
X213460621Y-124518115D01*
X213460618Y-124518121D01*
X213458727Y-124522689D01*
X213457573Y-124527492D01*
X213457571Y-124527501D01*
X213401072Y-124762839D01*
X213399917Y-124767652D01*
X213399529Y-124772575D01*
X213399528Y-124772585D01*
X213380539Y-125013870D01*
X213380151Y-125018800D01*
X172088346Y-125018800D01*
X172091383Y-122022223D01*
X173395000Y-122022223D01*
X173395359Y-122028938D01*
X173400662Y-122078257D01*
X173404259Y-122093478D01*
X173449405Y-122214519D01*
X173457954Y-122230175D01*
X173534697Y-122332692D01*
X173547307Y-122345302D01*
X173649824Y-122422045D01*
X173665480Y-122430594D01*
X173786521Y-122475740D01*
X173801742Y-122479337D01*
X173851061Y-122484640D01*
X173857777Y-122485000D01*
X174832410Y-122485000D01*
X174845493Y-122481493D01*
X174849000Y-122468410D01*
X175357000Y-122468410D01*
X175360506Y-122481493D01*
X175373590Y-122485000D01*
X176348223Y-122485000D01*
X176354938Y-122484640D01*
X176404257Y-122479337D01*
X176419478Y-122475740D01*
X176540519Y-122430594D01*
X176556175Y-122422045D01*
X176658692Y-122345302D01*
X176671302Y-122332692D01*
X176748045Y-122230175D01*
X176756594Y-122214519D01*
X176801740Y-122093478D01*
X176805337Y-122078257D01*
X176810640Y-122028938D01*
X176811000Y-122022223D01*
X176811000Y-121047590D01*
X176807493Y-121034506D01*
X176794410Y-121031000D01*
X175373590Y-121031000D01*
X175360506Y-121034506D01*
X175357000Y-121047590D01*
X175357000Y-122468410D01*
X174849000Y-122468410D01*
X174849000Y-121047590D01*
X174845493Y-121034506D01*
X174832410Y-121031000D01*
X173411590Y-121031000D01*
X173398506Y-121034506D01*
X173395000Y-121047590D01*
X173395000Y-122022223D01*
X172091383Y-122022223D01*
X172092645Y-120777000D01*
X177197700Y-120777000D01*
X177216866Y-121008305D01*
X177273843Y-121233300D01*
X177367076Y-121445849D01*
X177494021Y-121640153D01*
X177651216Y-121810913D01*
X177834374Y-121953470D01*
X178038497Y-122063936D01*
X178043426Y-122065628D01*
X178043428Y-122065629D01*
X178124550Y-122093478D01*
X178258019Y-122139298D01*
X178486951Y-122177500D01*
X178713838Y-122177500D01*
X178719049Y-122177500D01*
X178947981Y-122139298D01*
X179167503Y-122063936D01*
X179371626Y-121953470D01*
X179554784Y-121810913D01*
X179711979Y-121640153D01*
X179838924Y-121445849D01*
X179932157Y-121233300D01*
X179989134Y-121008305D01*
X180008300Y-120777000D01*
X180697700Y-120777000D01*
X180716866Y-121008305D01*
X180773843Y-121233300D01*
X180867076Y-121445849D01*
X180994021Y-121640153D01*
X181151216Y-121810913D01*
X181334374Y-121953470D01*
X181538497Y-122063936D01*
X181543426Y-122065628D01*
X181543428Y-122065629D01*
X181624550Y-122093478D01*
X181758019Y-122139298D01*
X181986951Y-122177500D01*
X182213838Y-122177500D01*
X182219049Y-122177500D01*
X182447981Y-122139298D01*
X182667503Y-122063936D01*
X182871626Y-121953470D01*
X183054784Y-121810913D01*
X183211979Y-121640153D01*
X183338924Y-121445849D01*
X183432157Y-121233300D01*
X183489134Y-121008305D01*
X183508300Y-120777000D01*
X184197700Y-120777000D01*
X184216866Y-121008305D01*
X184273843Y-121233300D01*
X184367076Y-121445849D01*
X184494021Y-121640153D01*
X184651216Y-121810913D01*
X184834374Y-121953470D01*
X185038497Y-122063936D01*
X185043426Y-122065628D01*
X185043428Y-122065629D01*
X185124550Y-122093478D01*
X185258019Y-122139298D01*
X185486951Y-122177500D01*
X185713838Y-122177500D01*
X185719049Y-122177500D01*
X185947981Y-122139298D01*
X186167503Y-122063936D01*
X186371626Y-121953470D01*
X186554784Y-121810913D01*
X186711979Y-121640153D01*
X186838924Y-121445849D01*
X186932157Y-121233300D01*
X186989134Y-121008305D01*
X187008300Y-120777000D01*
X187697700Y-120777000D01*
X187716866Y-121008305D01*
X187773843Y-121233300D01*
X187867076Y-121445849D01*
X187994021Y-121640153D01*
X188151216Y-121810913D01*
X188334374Y-121953470D01*
X188538497Y-122063936D01*
X188543426Y-122065628D01*
X188543428Y-122065629D01*
X188624550Y-122093478D01*
X188758019Y-122139298D01*
X188986951Y-122177500D01*
X189213838Y-122177500D01*
X189219049Y-122177500D01*
X189447981Y-122139298D01*
X189667503Y-122063936D01*
X189871626Y-121953470D01*
X190054784Y-121810913D01*
X190211979Y-121640153D01*
X190338924Y-121445849D01*
X190432157Y-121233300D01*
X190489134Y-121008305D01*
X190508300Y-120777000D01*
X191197700Y-120777000D01*
X191216866Y-121008305D01*
X191273843Y-121233300D01*
X191367076Y-121445849D01*
X191494021Y-121640153D01*
X191651216Y-121810913D01*
X191834374Y-121953470D01*
X192038497Y-122063936D01*
X192043426Y-122065628D01*
X192043428Y-122065629D01*
X192124550Y-122093478D01*
X192258019Y-122139298D01*
X192486951Y-122177500D01*
X192713838Y-122177500D01*
X192719049Y-122177500D01*
X192947981Y-122139298D01*
X193167503Y-122063936D01*
X193371626Y-121953470D01*
X193554784Y-121810913D01*
X193711979Y-121640153D01*
X193838924Y-121445849D01*
X193932157Y-121233300D01*
X193989134Y-121008305D01*
X194008300Y-120777000D01*
X194697700Y-120777000D01*
X194716866Y-121008305D01*
X194773843Y-121233300D01*
X194867076Y-121445849D01*
X194994021Y-121640153D01*
X195151216Y-121810913D01*
X195334374Y-121953470D01*
X195538497Y-122063936D01*
X195543426Y-122065628D01*
X195543428Y-122065629D01*
X195624550Y-122093478D01*
X195758019Y-122139298D01*
X195986951Y-122177500D01*
X196213838Y-122177500D01*
X196219049Y-122177500D01*
X196447981Y-122139298D01*
X196667503Y-122063936D01*
X196871626Y-121953470D01*
X197054784Y-121810913D01*
X197211979Y-121640153D01*
X197338924Y-121445849D01*
X197432157Y-121233300D01*
X197489134Y-121008305D01*
X197508300Y-120777000D01*
X198197700Y-120777000D01*
X198216866Y-121008305D01*
X198273843Y-121233300D01*
X198367076Y-121445849D01*
X198494021Y-121640153D01*
X198651216Y-121810913D01*
X198834374Y-121953470D01*
X199038497Y-122063936D01*
X199043426Y-122065628D01*
X199043428Y-122065629D01*
X199124550Y-122093478D01*
X199258019Y-122139298D01*
X199486951Y-122177500D01*
X199713838Y-122177500D01*
X199719049Y-122177500D01*
X199947981Y-122139298D01*
X200167503Y-122063936D01*
X200371626Y-121953470D01*
X200554784Y-121810913D01*
X200711979Y-121640153D01*
X200838924Y-121445849D01*
X200932157Y-121233300D01*
X200989134Y-121008305D01*
X201008300Y-120777000D01*
X200989134Y-120545695D01*
X200932157Y-120320700D01*
X200838924Y-120108151D01*
X200711979Y-119913847D01*
X200554784Y-119743087D01*
X200371626Y-119600530D01*
X200232172Y-119525061D01*
X200172088Y-119492545D01*
X200172085Y-119492543D01*
X200167503Y-119490064D01*
X200162579Y-119488373D01*
X200162571Y-119488370D01*
X199952911Y-119416394D01*
X199952905Y-119416392D01*
X199947981Y-119414702D01*
X199942844Y-119413844D01*
X199942841Y-119413844D01*
X199724186Y-119377357D01*
X199724183Y-119377356D01*
X199719049Y-119376500D01*
X199486951Y-119376500D01*
X199481817Y-119377356D01*
X199481813Y-119377357D01*
X199263158Y-119413844D01*
X199263152Y-119413845D01*
X199258019Y-119414702D01*
X199253097Y-119416391D01*
X199253088Y-119416394D01*
X199043428Y-119488370D01*
X199043415Y-119488375D01*
X199038497Y-119490064D01*
X199033919Y-119492541D01*
X199033911Y-119492545D01*
X198838956Y-119598050D01*
X198838952Y-119598051D01*
X198834374Y-119600530D01*
X198830268Y-119603725D01*
X198830263Y-119603729D01*
X198655327Y-119739887D01*
X198651216Y-119743087D01*
X198647688Y-119746918D01*
X198647684Y-119746923D01*
X198497555Y-119910007D01*
X198497549Y-119910013D01*
X198494021Y-119913847D01*
X198491172Y-119918206D01*
X198491167Y-119918214D01*
X198369928Y-120103785D01*
X198367076Y-120108151D01*
X198364983Y-120112921D01*
X198364981Y-120112926D01*
X198275936Y-120315927D01*
X198275933Y-120315933D01*
X198273843Y-120320700D01*
X198216866Y-120545695D01*
X198216436Y-120550883D01*
X198216435Y-120550890D01*
X198199330Y-120757327D01*
X198197700Y-120777000D01*
X197508300Y-120777000D01*
X197489134Y-120545695D01*
X197432157Y-120320700D01*
X197338924Y-120108151D01*
X197211979Y-119913847D01*
X197054784Y-119743087D01*
X196871626Y-119600530D01*
X196732172Y-119525061D01*
X196672088Y-119492545D01*
X196672085Y-119492543D01*
X196667503Y-119490064D01*
X196662579Y-119488373D01*
X196662571Y-119488370D01*
X196513588Y-119437225D01*
X196469163Y-119410753D01*
X196439113Y-119368666D01*
X196428500Y-119318052D01*
X196428500Y-118917016D01*
X196438091Y-118868798D01*
X196465405Y-118827921D01*
X199831730Y-115461595D01*
X201257229Y-114036095D01*
X201265299Y-114028699D01*
X201294194Y-114004455D01*
X201313042Y-113971808D01*
X201318934Y-113962558D01*
X201340554Y-113931684D01*
X201343408Y-113921030D01*
X201344876Y-113917882D01*
X201346070Y-113914599D01*
X201351588Y-113905045D01*
X201358130Y-113867937D01*
X201360507Y-113857217D01*
X201370264Y-113820807D01*
X201366979Y-113783257D01*
X201366500Y-113772276D01*
X201366500Y-100391286D01*
X201379494Y-100335557D01*
X201415796Y-100291323D01*
X201469282Y-100250282D01*
X201565536Y-100124841D01*
X201626044Y-99978762D01*
X201646682Y-99822000D01*
X201626044Y-99665238D01*
X201565536Y-99519159D01*
X201469282Y-99393718D01*
X201343841Y-99297464D01*
X201336214Y-99294304D01*
X201336211Y-99294303D01*
X201205391Y-99240116D01*
X201205390Y-99240115D01*
X201197762Y-99236956D01*
X201189579Y-99235878D01*
X201189573Y-99235877D01*
X201049188Y-99217396D01*
X201041000Y-99216318D01*
X201032812Y-99217396D01*
X200892426Y-99235877D01*
X200892418Y-99235879D01*
X200884238Y-99236956D01*
X200876611Y-99240115D01*
X200876608Y-99240116D01*
X200745788Y-99294303D01*
X200745782Y-99294306D01*
X200738159Y-99297464D01*
X200731611Y-99302487D01*
X200731608Y-99302490D01*
X200619263Y-99388695D01*
X200619259Y-99388698D01*
X200612718Y-99393718D01*
X200607698Y-99400259D01*
X200607695Y-99400263D01*
X200521490Y-99512608D01*
X200521487Y-99512611D01*
X200516464Y-99519159D01*
X200513306Y-99526782D01*
X200513303Y-99526788D01*
X200459116Y-99657608D01*
X200455956Y-99665238D01*
X200454879Y-99673418D01*
X200454877Y-99673426D01*
X200447115Y-99732391D01*
X200435318Y-99822000D01*
X200436396Y-99830188D01*
X200454877Y-99970573D01*
X200454878Y-99970579D01*
X200455956Y-99978762D01*
X200459115Y-99986390D01*
X200459116Y-99986391D01*
X200513303Y-100117211D01*
X200513304Y-100117214D01*
X200516464Y-100124841D01*
X200612718Y-100250282D01*
X200619263Y-100255304D01*
X200666204Y-100291323D01*
X200702506Y-100335557D01*
X200715500Y-100391286D01*
X200715500Y-113604984D01*
X200705909Y-113653202D01*
X200678595Y-113694079D01*
X195886787Y-118485885D01*
X195878686Y-118493309D01*
X195858252Y-118510455D01*
X195858244Y-118510464D01*
X195849806Y-118517545D01*
X195844295Y-118527089D01*
X195844294Y-118527091D01*
X195830964Y-118550178D01*
X195825063Y-118559441D01*
X195809766Y-118581288D01*
X195809763Y-118581293D01*
X195803446Y-118590316D01*
X195800595Y-118600952D01*
X195799120Y-118604117D01*
X195797920Y-118607413D01*
X195792412Y-118616955D01*
X195790498Y-118627807D01*
X195790498Y-118627808D01*
X195785869Y-118654056D01*
X195783492Y-118664779D01*
X195776589Y-118690542D01*
X195776588Y-118690546D01*
X195773736Y-118701193D01*
X195774696Y-118712175D01*
X195774697Y-118712175D01*
X195777020Y-118738728D01*
X195777500Y-118749710D01*
X195777500Y-119318052D01*
X195766887Y-119368666D01*
X195736837Y-119410753D01*
X195692412Y-119437225D01*
X195543428Y-119488370D01*
X195543415Y-119488375D01*
X195538497Y-119490064D01*
X195533919Y-119492541D01*
X195533911Y-119492545D01*
X195338956Y-119598050D01*
X195338952Y-119598051D01*
X195334374Y-119600530D01*
X195330268Y-119603725D01*
X195330263Y-119603729D01*
X195155327Y-119739887D01*
X195151216Y-119743087D01*
X195147688Y-119746918D01*
X195147684Y-119746923D01*
X194997555Y-119910007D01*
X194997549Y-119910013D01*
X194994021Y-119913847D01*
X194991172Y-119918206D01*
X194991167Y-119918214D01*
X194869928Y-120103785D01*
X194867076Y-120108151D01*
X194864983Y-120112921D01*
X194864981Y-120112926D01*
X194775936Y-120315927D01*
X194775933Y-120315933D01*
X194773843Y-120320700D01*
X194716866Y-120545695D01*
X194716436Y-120550883D01*
X194716435Y-120550890D01*
X194699330Y-120757327D01*
X194697700Y-120777000D01*
X194008300Y-120777000D01*
X193989134Y-120545695D01*
X193932157Y-120320700D01*
X193838924Y-120108151D01*
X193711979Y-119913847D01*
X193554784Y-119743087D01*
X193371626Y-119600530D01*
X193232172Y-119525061D01*
X193172088Y-119492545D01*
X193172085Y-119492543D01*
X193167503Y-119490064D01*
X193162579Y-119488373D01*
X193162571Y-119488370D01*
X192952911Y-119416394D01*
X192952905Y-119416392D01*
X192947981Y-119414702D01*
X192942844Y-119413844D01*
X192942841Y-119413844D01*
X192724186Y-119377357D01*
X192724183Y-119377356D01*
X192719049Y-119376500D01*
X192486951Y-119376500D01*
X192481817Y-119377356D01*
X192481813Y-119377357D01*
X192263158Y-119413844D01*
X192263152Y-119413845D01*
X192258019Y-119414702D01*
X192253097Y-119416391D01*
X192253088Y-119416394D01*
X192043428Y-119488370D01*
X192043415Y-119488375D01*
X192038497Y-119490064D01*
X192033919Y-119492541D01*
X192033911Y-119492545D01*
X191838956Y-119598050D01*
X191838952Y-119598051D01*
X191834374Y-119600530D01*
X191830268Y-119603725D01*
X191830263Y-119603729D01*
X191655327Y-119739887D01*
X191651216Y-119743087D01*
X191647688Y-119746918D01*
X191647684Y-119746923D01*
X191497555Y-119910007D01*
X191497549Y-119910013D01*
X191494021Y-119913847D01*
X191491172Y-119918206D01*
X191491167Y-119918214D01*
X191369928Y-120103785D01*
X191367076Y-120108151D01*
X191364983Y-120112921D01*
X191364981Y-120112926D01*
X191275936Y-120315927D01*
X191275933Y-120315933D01*
X191273843Y-120320700D01*
X191216866Y-120545695D01*
X191216436Y-120550883D01*
X191216435Y-120550890D01*
X191199330Y-120757327D01*
X191197700Y-120777000D01*
X190508300Y-120777000D01*
X190489134Y-120545695D01*
X190432157Y-120320700D01*
X190338924Y-120108151D01*
X190211979Y-119913847D01*
X190054784Y-119743087D01*
X189871626Y-119600530D01*
X189732172Y-119525061D01*
X189672088Y-119492545D01*
X189672085Y-119492543D01*
X189667503Y-119490064D01*
X189662579Y-119488373D01*
X189662571Y-119488370D01*
X189452911Y-119416394D01*
X189452905Y-119416392D01*
X189447981Y-119414702D01*
X189442844Y-119413844D01*
X189442841Y-119413844D01*
X189224186Y-119377357D01*
X189224183Y-119377356D01*
X189219049Y-119376500D01*
X188986951Y-119376500D01*
X188981817Y-119377356D01*
X188981813Y-119377357D01*
X188763158Y-119413844D01*
X188763152Y-119413845D01*
X188758019Y-119414702D01*
X188753097Y-119416391D01*
X188753088Y-119416394D01*
X188543428Y-119488370D01*
X188543415Y-119488375D01*
X188538497Y-119490064D01*
X188533919Y-119492541D01*
X188533911Y-119492545D01*
X188338956Y-119598050D01*
X188338952Y-119598051D01*
X188334374Y-119600530D01*
X188330268Y-119603725D01*
X188330263Y-119603729D01*
X188155327Y-119739887D01*
X188151216Y-119743087D01*
X188147688Y-119746918D01*
X188147684Y-119746923D01*
X187997555Y-119910007D01*
X187997549Y-119910013D01*
X187994021Y-119913847D01*
X187991172Y-119918206D01*
X187991167Y-119918214D01*
X187869928Y-120103785D01*
X187867076Y-120108151D01*
X187864983Y-120112921D01*
X187864981Y-120112926D01*
X187775936Y-120315927D01*
X187775933Y-120315933D01*
X187773843Y-120320700D01*
X187716866Y-120545695D01*
X187716436Y-120550883D01*
X187716435Y-120550890D01*
X187699330Y-120757327D01*
X187697700Y-120777000D01*
X187008300Y-120777000D01*
X186989134Y-120545695D01*
X186932157Y-120320700D01*
X186838924Y-120108151D01*
X186711979Y-119913847D01*
X186554784Y-119743087D01*
X186371626Y-119600530D01*
X186232172Y-119525061D01*
X186172088Y-119492545D01*
X186172085Y-119492543D01*
X186167503Y-119490064D01*
X186162579Y-119488373D01*
X186162571Y-119488370D01*
X186013588Y-119437225D01*
X185969163Y-119410753D01*
X185939113Y-119368666D01*
X185928500Y-119318052D01*
X185928500Y-118622016D01*
X185938091Y-118573798D01*
X185965405Y-118532921D01*
X188311921Y-116186405D01*
X188352798Y-116159091D01*
X188401016Y-116149500D01*
X196449290Y-116149500D01*
X196460272Y-116149980D01*
X196497807Y-116153264D01*
X196534217Y-116143507D01*
X196544937Y-116141130D01*
X196582045Y-116134588D01*
X196591599Y-116129070D01*
X196594882Y-116127876D01*
X196598030Y-116126408D01*
X196608684Y-116123554D01*
X196639558Y-116101934D01*
X196648808Y-116096042D01*
X196681455Y-116077194D01*
X196705685Y-116048315D01*
X196713102Y-116040222D01*
X198463229Y-114290095D01*
X198471299Y-114282699D01*
X198500194Y-114258455D01*
X198519042Y-114225808D01*
X198524934Y-114216558D01*
X198546554Y-114185684D01*
X198549408Y-114175030D01*
X198550876Y-114171882D01*
X198552070Y-114168599D01*
X198557588Y-114159045D01*
X198564130Y-114121937D01*
X198566507Y-114111217D01*
X198576264Y-114074807D01*
X198572979Y-114037257D01*
X198572500Y-114026276D01*
X198572500Y-100137286D01*
X198585494Y-100081557D01*
X198621796Y-100037323D01*
X198675282Y-99996282D01*
X198771536Y-99870841D01*
X198832044Y-99724762D01*
X198852682Y-99568000D01*
X198832044Y-99411238D01*
X198771536Y-99265159D01*
X198675282Y-99139718D01*
X198549841Y-99043464D01*
X198542214Y-99040304D01*
X198542211Y-99040303D01*
X198411391Y-98986116D01*
X198411390Y-98986115D01*
X198403762Y-98982956D01*
X198395579Y-98981878D01*
X198395573Y-98981877D01*
X198255188Y-98963396D01*
X198247000Y-98962318D01*
X198238812Y-98963396D01*
X198098426Y-98981877D01*
X198098418Y-98981879D01*
X198090238Y-98982956D01*
X198082611Y-98986115D01*
X198082608Y-98986116D01*
X197951788Y-99040303D01*
X197951782Y-99040306D01*
X197944159Y-99043464D01*
X197937611Y-99048487D01*
X197937608Y-99048490D01*
X197825263Y-99134695D01*
X197825259Y-99134698D01*
X197818718Y-99139718D01*
X197813698Y-99146259D01*
X197813695Y-99146263D01*
X197727490Y-99258608D01*
X197727487Y-99258611D01*
X197722464Y-99265159D01*
X197719306Y-99272782D01*
X197719303Y-99272788D01*
X197669213Y-99393718D01*
X197661956Y-99411238D01*
X197660879Y-99419418D01*
X197660877Y-99419426D01*
X197643001Y-99555215D01*
X197641318Y-99568000D01*
X197642396Y-99576188D01*
X197660877Y-99716573D01*
X197660878Y-99716579D01*
X197661956Y-99724762D01*
X197665115Y-99732390D01*
X197665116Y-99732391D01*
X197719303Y-99863211D01*
X197719304Y-99863214D01*
X197722464Y-99870841D01*
X197818718Y-99996282D01*
X197825263Y-100001304D01*
X197872204Y-100037323D01*
X197908506Y-100081557D01*
X197921500Y-100137286D01*
X197921500Y-113858984D01*
X197911909Y-113907202D01*
X197884595Y-113948079D01*
X196371079Y-115461595D01*
X196330202Y-115488909D01*
X196281984Y-115498500D01*
X188233710Y-115498500D01*
X188222728Y-115498020D01*
X188196177Y-115495697D01*
X188185193Y-115494736D01*
X188174546Y-115497588D01*
X188174542Y-115497589D01*
X188148779Y-115504492D01*
X188138056Y-115506869D01*
X188111808Y-115511498D01*
X188111807Y-115511498D01*
X188100955Y-115513412D01*
X188091413Y-115518920D01*
X188088117Y-115520120D01*
X188084952Y-115521595D01*
X188074316Y-115524446D01*
X188065293Y-115530763D01*
X188065288Y-115530766D01*
X188043441Y-115546063D01*
X188034178Y-115551964D01*
X188011091Y-115565293D01*
X188011085Y-115565297D01*
X188001545Y-115570806D01*
X187994460Y-115579248D01*
X187994460Y-115579249D01*
X187977314Y-115599682D01*
X187969890Y-115607782D01*
X185386787Y-118190885D01*
X185378686Y-118198309D01*
X185358252Y-118215455D01*
X185358244Y-118215464D01*
X185349806Y-118222545D01*
X185344295Y-118232089D01*
X185344294Y-118232091D01*
X185330964Y-118255178D01*
X185325063Y-118264441D01*
X185309766Y-118286288D01*
X185309763Y-118286293D01*
X185303446Y-118295316D01*
X185300595Y-118305952D01*
X185299120Y-118309117D01*
X185297920Y-118312413D01*
X185292412Y-118321955D01*
X185290498Y-118332807D01*
X185290498Y-118332808D01*
X185285869Y-118359056D01*
X185283492Y-118369779D01*
X185276589Y-118395542D01*
X185276588Y-118395546D01*
X185273736Y-118406193D01*
X185274696Y-118417175D01*
X185274697Y-118417175D01*
X185277020Y-118443728D01*
X185277500Y-118454710D01*
X185277500Y-119318052D01*
X185266887Y-119368666D01*
X185236837Y-119410753D01*
X185192412Y-119437225D01*
X185043428Y-119488370D01*
X185043415Y-119488375D01*
X185038497Y-119490064D01*
X185033919Y-119492541D01*
X185033911Y-119492545D01*
X184838956Y-119598050D01*
X184838952Y-119598051D01*
X184834374Y-119600530D01*
X184830268Y-119603725D01*
X184830263Y-119603729D01*
X184655327Y-119739887D01*
X184651216Y-119743087D01*
X184647688Y-119746918D01*
X184647684Y-119746923D01*
X184497555Y-119910007D01*
X184497549Y-119910013D01*
X184494021Y-119913847D01*
X184491172Y-119918206D01*
X184491167Y-119918214D01*
X184369928Y-120103785D01*
X184367076Y-120108151D01*
X184364983Y-120112921D01*
X184364981Y-120112926D01*
X184275936Y-120315927D01*
X184275933Y-120315933D01*
X184273843Y-120320700D01*
X184216866Y-120545695D01*
X184216436Y-120550883D01*
X184216435Y-120550890D01*
X184199330Y-120757327D01*
X184197700Y-120777000D01*
X183508300Y-120777000D01*
X183489134Y-120545695D01*
X183432157Y-120320700D01*
X183338924Y-120108151D01*
X183211979Y-119913847D01*
X183054784Y-119743087D01*
X182871626Y-119600530D01*
X182732172Y-119525061D01*
X182672088Y-119492545D01*
X182672085Y-119492543D01*
X182667503Y-119490064D01*
X182662579Y-119488373D01*
X182662571Y-119488370D01*
X182452911Y-119416394D01*
X182452905Y-119416392D01*
X182447981Y-119414702D01*
X182442844Y-119413844D01*
X182442841Y-119413844D01*
X182224186Y-119377357D01*
X182224183Y-119377356D01*
X182219049Y-119376500D01*
X181986951Y-119376500D01*
X181981817Y-119377356D01*
X181981813Y-119377357D01*
X181763158Y-119413844D01*
X181763152Y-119413845D01*
X181758019Y-119414702D01*
X181753097Y-119416391D01*
X181753088Y-119416394D01*
X181543428Y-119488370D01*
X181543415Y-119488375D01*
X181538497Y-119490064D01*
X181533919Y-119492541D01*
X181533911Y-119492545D01*
X181338956Y-119598050D01*
X181338952Y-119598051D01*
X181334374Y-119600530D01*
X181330268Y-119603725D01*
X181330263Y-119603729D01*
X181155327Y-119739887D01*
X181151216Y-119743087D01*
X181147688Y-119746918D01*
X181147684Y-119746923D01*
X180997555Y-119910007D01*
X180997549Y-119910013D01*
X180994021Y-119913847D01*
X180991172Y-119918206D01*
X180991167Y-119918214D01*
X180869928Y-120103785D01*
X180867076Y-120108151D01*
X180864983Y-120112921D01*
X180864981Y-120112926D01*
X180775936Y-120315927D01*
X180775933Y-120315933D01*
X180773843Y-120320700D01*
X180716866Y-120545695D01*
X180716436Y-120550883D01*
X180716435Y-120550890D01*
X180699330Y-120757327D01*
X180697700Y-120777000D01*
X180008300Y-120777000D01*
X179989134Y-120545695D01*
X179932157Y-120320700D01*
X179838924Y-120108151D01*
X179711979Y-119913847D01*
X179554784Y-119743087D01*
X179371626Y-119600530D01*
X179232172Y-119525061D01*
X179172088Y-119492545D01*
X179172085Y-119492543D01*
X179167503Y-119490064D01*
X179162579Y-119488373D01*
X179162571Y-119488370D01*
X178952911Y-119416394D01*
X178952905Y-119416392D01*
X178947981Y-119414702D01*
X178942844Y-119413844D01*
X178942841Y-119413844D01*
X178724186Y-119377357D01*
X178724183Y-119377356D01*
X178719049Y-119376500D01*
X178486951Y-119376500D01*
X178481817Y-119377356D01*
X178481813Y-119377357D01*
X178263158Y-119413844D01*
X178263152Y-119413845D01*
X178258019Y-119414702D01*
X178253097Y-119416391D01*
X178253088Y-119416394D01*
X178043428Y-119488370D01*
X178043415Y-119488375D01*
X178038497Y-119490064D01*
X178033919Y-119492541D01*
X178033911Y-119492545D01*
X177838956Y-119598050D01*
X177838952Y-119598051D01*
X177834374Y-119600530D01*
X177830268Y-119603725D01*
X177830263Y-119603729D01*
X177655327Y-119739887D01*
X177651216Y-119743087D01*
X177647688Y-119746918D01*
X177647684Y-119746923D01*
X177497555Y-119910007D01*
X177497549Y-119910013D01*
X177494021Y-119913847D01*
X177491172Y-119918206D01*
X177491167Y-119918214D01*
X177369928Y-120103785D01*
X177367076Y-120108151D01*
X177364983Y-120112921D01*
X177364981Y-120112926D01*
X177275936Y-120315927D01*
X177275933Y-120315933D01*
X177273843Y-120320700D01*
X177216866Y-120545695D01*
X177216436Y-120550883D01*
X177216435Y-120550890D01*
X177199330Y-120757327D01*
X177197700Y-120777000D01*
X172092645Y-120777000D01*
X172092919Y-120506410D01*
X173395000Y-120506410D01*
X173398506Y-120519493D01*
X173411590Y-120523000D01*
X174832410Y-120523000D01*
X174845493Y-120519493D01*
X174849000Y-120506410D01*
X175357000Y-120506410D01*
X175360506Y-120519493D01*
X175373590Y-120523000D01*
X176794410Y-120523000D01*
X176807493Y-120519493D01*
X176811000Y-120506410D01*
X176811000Y-119531777D01*
X176810640Y-119525061D01*
X176805337Y-119475742D01*
X176801740Y-119460521D01*
X176756594Y-119339480D01*
X176748045Y-119323824D01*
X176671302Y-119221307D01*
X176658692Y-119208697D01*
X176556175Y-119131954D01*
X176540519Y-119123405D01*
X176419478Y-119078259D01*
X176404257Y-119074662D01*
X176354938Y-119069359D01*
X176348223Y-119069000D01*
X175373590Y-119069000D01*
X175360506Y-119072506D01*
X175357000Y-119085590D01*
X175357000Y-120506410D01*
X174849000Y-120506410D01*
X174849000Y-119085590D01*
X174845493Y-119072506D01*
X174832410Y-119069000D01*
X173857777Y-119069000D01*
X173851061Y-119069359D01*
X173801742Y-119074662D01*
X173786521Y-119078259D01*
X173665480Y-119123405D01*
X173649824Y-119131954D01*
X173547307Y-119208697D01*
X173534697Y-119221307D01*
X173457954Y-119323824D01*
X173449405Y-119339480D01*
X173404259Y-119460521D01*
X173400662Y-119475742D01*
X173395359Y-119525061D01*
X173395000Y-119531777D01*
X173395000Y-120506410D01*
X172092919Y-120506410D01*
X172105875Y-107722500D01*
X176422857Y-107722500D01*
X176443385Y-107944036D01*
X176504271Y-108158028D01*
X176603442Y-108357189D01*
X176606952Y-108361837D01*
X176734006Y-108530085D01*
X176734010Y-108530089D01*
X176737519Y-108534736D01*
X176741821Y-108538658D01*
X176741824Y-108538661D01*
X176837928Y-108626271D01*
X176901938Y-108684624D01*
X177091099Y-108801747D01*
X177298560Y-108882118D01*
X177517257Y-108923000D01*
X177733916Y-108923000D01*
X177739743Y-108923000D01*
X177958440Y-108882118D01*
X178165901Y-108801747D01*
X178355062Y-108684624D01*
X178519481Y-108534736D01*
X178653558Y-108357189D01*
X178752729Y-108158028D01*
X178813615Y-107944036D01*
X178834143Y-107722500D01*
X181502857Y-107722500D01*
X181523385Y-107944036D01*
X181584271Y-108158028D01*
X181683442Y-108357189D01*
X181686952Y-108361837D01*
X181814006Y-108530085D01*
X181814010Y-108530089D01*
X181817519Y-108534736D01*
X181821821Y-108538658D01*
X181821824Y-108538661D01*
X181917928Y-108626271D01*
X181981938Y-108684624D01*
X182171099Y-108801747D01*
X182378560Y-108882118D01*
X182597257Y-108923000D01*
X182813916Y-108923000D01*
X182819743Y-108923000D01*
X183038440Y-108882118D01*
X183245901Y-108801747D01*
X183435062Y-108684624D01*
X183599481Y-108534736D01*
X183733558Y-108357189D01*
X183832729Y-108158028D01*
X183893615Y-107944036D01*
X183914143Y-107722500D01*
X183893615Y-107500964D01*
X183832729Y-107286972D01*
X183733558Y-107087811D01*
X183599481Y-106910264D01*
X183595177Y-106906341D01*
X183595175Y-106906338D01*
X183439364Y-106764298D01*
X183439365Y-106764298D01*
X183435062Y-106760376D01*
X183245901Y-106643253D01*
X183213629Y-106630751D01*
X183043875Y-106564987D01*
X183043869Y-106564985D01*
X183038440Y-106562882D01*
X183032720Y-106561812D01*
X183032714Y-106561811D01*
X182825467Y-106523070D01*
X182825466Y-106523069D01*
X182819743Y-106522000D01*
X182597257Y-106522000D01*
X182591534Y-106523069D01*
X182591532Y-106523070D01*
X182384285Y-106561811D01*
X182384276Y-106561813D01*
X182378560Y-106562882D01*
X182373132Y-106564984D01*
X182373124Y-106564987D01*
X182176537Y-106641146D01*
X182176534Y-106641147D01*
X182171099Y-106643253D01*
X182166143Y-106646321D01*
X182166138Y-106646324D01*
X181986891Y-106757309D01*
X181981938Y-106760376D01*
X181977639Y-106764294D01*
X181977635Y-106764298D01*
X181821824Y-106906338D01*
X181821816Y-106906346D01*
X181817519Y-106910264D01*
X181814014Y-106914904D01*
X181814006Y-106914914D01*
X181686952Y-107083162D01*
X181686948Y-107083167D01*
X181683442Y-107087811D01*
X181680847Y-107093021D01*
X181680844Y-107093027D01*
X181586868Y-107281755D01*
X181586865Y-107281761D01*
X181584271Y-107286972D01*
X181523385Y-107500964D01*
X181502857Y-107722500D01*
X178834143Y-107722500D01*
X178813615Y-107500964D01*
X178752729Y-107286972D01*
X178653558Y-107087811D01*
X178519481Y-106910264D01*
X178515177Y-106906341D01*
X178515175Y-106906338D01*
X178359364Y-106764298D01*
X178359365Y-106764298D01*
X178355062Y-106760376D01*
X178165901Y-106643253D01*
X178133629Y-106630751D01*
X177963875Y-106564987D01*
X177963869Y-106564985D01*
X177958440Y-106562882D01*
X177952720Y-106561812D01*
X177952714Y-106561811D01*
X177745467Y-106523070D01*
X177745466Y-106523069D01*
X177739743Y-106522000D01*
X177517257Y-106522000D01*
X177511534Y-106523069D01*
X177511532Y-106523070D01*
X177304285Y-106561811D01*
X177304276Y-106561813D01*
X177298560Y-106562882D01*
X177293132Y-106564984D01*
X177293124Y-106564987D01*
X177096537Y-106641146D01*
X177096534Y-106641147D01*
X177091099Y-106643253D01*
X177086143Y-106646321D01*
X177086138Y-106646324D01*
X176906891Y-106757309D01*
X176901938Y-106760376D01*
X176897639Y-106764294D01*
X176897635Y-106764298D01*
X176741824Y-106906338D01*
X176741816Y-106906346D01*
X176737519Y-106910264D01*
X176734014Y-106914904D01*
X176734006Y-106914914D01*
X176606952Y-107083162D01*
X176606948Y-107083167D01*
X176603442Y-107087811D01*
X176600847Y-107093021D01*
X176600844Y-107093027D01*
X176506868Y-107281755D01*
X176506865Y-107281761D01*
X176504271Y-107286972D01*
X176443385Y-107500964D01*
X176422857Y-107722500D01*
X172105875Y-107722500D01*
X172116605Y-97135200D01*
X213951678Y-97135200D01*
X213970544Y-97423039D01*
X214026819Y-97705953D01*
X214119541Y-97979102D01*
X214247122Y-98237811D01*
X214407380Y-98477654D01*
X214597573Y-98694527D01*
X214814446Y-98884720D01*
X215054289Y-99044978D01*
X215312998Y-99172559D01*
X215586147Y-99265281D01*
X215869061Y-99321556D01*
X216156900Y-99340422D01*
X216444739Y-99321556D01*
X216727653Y-99265281D01*
X217000802Y-99172559D01*
X217259511Y-99044978D01*
X217499354Y-98884720D01*
X217716227Y-98694527D01*
X217906420Y-98477654D01*
X218066678Y-98237811D01*
X218194259Y-97979102D01*
X218286981Y-97705953D01*
X218343256Y-97423039D01*
X218362122Y-97135200D01*
X218343256Y-96847361D01*
X218286981Y-96564447D01*
X218194259Y-96291298D01*
X218066678Y-96032589D01*
X217906420Y-95792746D01*
X217716227Y-95575873D01*
X217499354Y-95385680D01*
X217259511Y-95225422D01*
X217255811Y-95223597D01*
X217255807Y-95223595D01*
X217118099Y-95155685D01*
X217000802Y-95097841D01*
X216996902Y-95096517D01*
X216731563Y-95006446D01*
X216731559Y-95006444D01*
X216727653Y-95005119D01*
X216723605Y-95004313D01*
X216723602Y-95004313D01*
X216448781Y-94949648D01*
X216448780Y-94949647D01*
X216444739Y-94948844D01*
X216440628Y-94948574D01*
X216440624Y-94948574D01*
X216161019Y-94930248D01*
X216156900Y-94929978D01*
X216152781Y-94930248D01*
X215873175Y-94948574D01*
X215873169Y-94948574D01*
X215869061Y-94948844D01*
X215865020Y-94949647D01*
X215865018Y-94949648D01*
X215590197Y-95004313D01*
X215590191Y-95004314D01*
X215586147Y-95005119D01*
X215582244Y-95006443D01*
X215582236Y-95006446D01*
X215316897Y-95096517D01*
X215316890Y-95096519D01*
X215312998Y-95097841D01*
X215309305Y-95099662D01*
X215309303Y-95099663D01*
X215057992Y-95223595D01*
X215057981Y-95223601D01*
X215054289Y-95225422D01*
X215050860Y-95227712D01*
X215050855Y-95227716D01*
X214817877Y-95383387D01*
X214817872Y-95383390D01*
X214814446Y-95385680D01*
X214811351Y-95388393D01*
X214811346Y-95388398D01*
X214600661Y-95573164D01*
X214600653Y-95573171D01*
X214597573Y-95575873D01*
X214594871Y-95578953D01*
X214594864Y-95578961D01*
X214410098Y-95789646D01*
X214410093Y-95789651D01*
X214407380Y-95792746D01*
X214405090Y-95796172D01*
X214405087Y-95796177D01*
X214249416Y-96029155D01*
X214249412Y-96029160D01*
X214247122Y-96032589D01*
X214245301Y-96036281D01*
X214245295Y-96036292D01*
X214121363Y-96287603D01*
X214119541Y-96291298D01*
X214118219Y-96295190D01*
X214118217Y-96295197D01*
X214028146Y-96560536D01*
X214028143Y-96560544D01*
X214026819Y-96564447D01*
X213970544Y-96847361D01*
X213951678Y-97135200D01*
X172116605Y-97135200D01*
X172120291Y-93498500D01*
X176422857Y-93498500D01*
X176423394Y-93504295D01*
X176441148Y-93695900D01*
X176443385Y-93720036D01*
X176504271Y-93934028D01*
X176506867Y-93939241D01*
X176506868Y-93939244D01*
X176589456Y-94105102D01*
X176603442Y-94133189D01*
X176606952Y-94137837D01*
X176734006Y-94306085D01*
X176734010Y-94306089D01*
X176737519Y-94310736D01*
X176741821Y-94314658D01*
X176741824Y-94314661D01*
X176837928Y-94402271D01*
X176901938Y-94460624D01*
X177091099Y-94577747D01*
X177298560Y-94658118D01*
X177517257Y-94699000D01*
X177733916Y-94699000D01*
X177739743Y-94699000D01*
X177958440Y-94658118D01*
X178165901Y-94577747D01*
X178355062Y-94460624D01*
X178519481Y-94310736D01*
X178653558Y-94133189D01*
X178752729Y-93934028D01*
X178813615Y-93720036D01*
X178834143Y-93498500D01*
X181502857Y-93498500D01*
X181503394Y-93504295D01*
X181521148Y-93695900D01*
X181523385Y-93720036D01*
X181584271Y-93934028D01*
X181586867Y-93939241D01*
X181586868Y-93939244D01*
X181669456Y-94105102D01*
X181683442Y-94133189D01*
X181686952Y-94137837D01*
X181814006Y-94306085D01*
X181814010Y-94306089D01*
X181817519Y-94310736D01*
X181821821Y-94314658D01*
X181821824Y-94314661D01*
X181917928Y-94402271D01*
X181981938Y-94460624D01*
X182171099Y-94577747D01*
X182378560Y-94658118D01*
X182597257Y-94699000D01*
X182813916Y-94699000D01*
X182819743Y-94699000D01*
X183038440Y-94658118D01*
X183245901Y-94577747D01*
X183435062Y-94460624D01*
X183599481Y-94310736D01*
X183733558Y-94133189D01*
X183832729Y-93934028D01*
X183893615Y-93720036D01*
X183914143Y-93498500D01*
X183893615Y-93276964D01*
X183832729Y-93062972D01*
X183733558Y-92863811D01*
X183599481Y-92686264D01*
X183595177Y-92682341D01*
X183595175Y-92682338D01*
X183477613Y-92575166D01*
X183435062Y-92536376D01*
X183245901Y-92419253D01*
X183173909Y-92391363D01*
X183078498Y-92354400D01*
X193755118Y-92354400D01*
X193756196Y-92362585D01*
X193756196Y-92362588D01*
X193774677Y-92502973D01*
X193774678Y-92502979D01*
X193775756Y-92511162D01*
X193778915Y-92518790D01*
X193778916Y-92518791D01*
X193833103Y-92649611D01*
X193833104Y-92649614D01*
X193836264Y-92657241D01*
X193932518Y-92782682D01*
X194057959Y-92878936D01*
X194204038Y-92939444D01*
X194212225Y-92940521D01*
X194212226Y-92940522D01*
X194236654Y-92943738D01*
X194360800Y-92960082D01*
X194427642Y-92951281D01*
X194484587Y-92956889D01*
X194533182Y-92987108D01*
X195132689Y-93586615D01*
X195140116Y-93594719D01*
X195164345Y-93623594D01*
X195196986Y-93642439D01*
X195206243Y-93648336D01*
X195237116Y-93669954D01*
X195247770Y-93672808D01*
X195250933Y-93674283D01*
X195254204Y-93675473D01*
X195263755Y-93680988D01*
X195300863Y-93687531D01*
X195311572Y-93689904D01*
X195347993Y-93699664D01*
X195385527Y-93696380D01*
X195396510Y-93695900D01*
X204764314Y-93695900D01*
X204820043Y-93708894D01*
X204864276Y-93745195D01*
X204905318Y-93798682D01*
X205030759Y-93894936D01*
X205176838Y-93955444D01*
X205333600Y-93976082D01*
X205490362Y-93955444D01*
X205636441Y-93894936D01*
X205761882Y-93798682D01*
X205858136Y-93673241D01*
X205918644Y-93527162D01*
X205939282Y-93370400D01*
X205924091Y-93255015D01*
X205919722Y-93221826D01*
X205919721Y-93221825D01*
X205918644Y-93213638D01*
X205858136Y-93067559D01*
X205761882Y-92942118D01*
X205636441Y-92845864D01*
X205628814Y-92842704D01*
X205628811Y-92842703D01*
X205497991Y-92788516D01*
X205497990Y-92788515D01*
X205490362Y-92785356D01*
X205482179Y-92784278D01*
X205482173Y-92784277D01*
X205341788Y-92765796D01*
X205333600Y-92764718D01*
X205325412Y-92765796D01*
X205185026Y-92784277D01*
X205185018Y-92784279D01*
X205176838Y-92785356D01*
X205169211Y-92788515D01*
X205169208Y-92788516D01*
X205038388Y-92842703D01*
X205038382Y-92842706D01*
X205030759Y-92845864D01*
X205024211Y-92850887D01*
X205024208Y-92850890D01*
X204911863Y-92937095D01*
X204911859Y-92937098D01*
X204905318Y-92942118D01*
X204900298Y-92948659D01*
X204900295Y-92948663D01*
X204864277Y-92995604D01*
X204820043Y-93031906D01*
X204764314Y-93044900D01*
X195563816Y-93044900D01*
X195515598Y-93035309D01*
X195474721Y-93007995D01*
X194993508Y-92526782D01*
X194963289Y-92478187D01*
X194957681Y-92421242D01*
X194966482Y-92354400D01*
X194945844Y-92197638D01*
X194885336Y-92051559D01*
X194789082Y-91926118D01*
X194663641Y-91829864D01*
X194656014Y-91826704D01*
X194656011Y-91826703D01*
X194525191Y-91772516D01*
X194525190Y-91772515D01*
X194517562Y-91769356D01*
X194509379Y-91768278D01*
X194509373Y-91768277D01*
X194368988Y-91749796D01*
X194360800Y-91748718D01*
X194352612Y-91749796D01*
X194212226Y-91768277D01*
X194212218Y-91768279D01*
X194204038Y-91769356D01*
X194196411Y-91772515D01*
X194196408Y-91772516D01*
X194065588Y-91826703D01*
X194065582Y-91826706D01*
X194057959Y-91829864D01*
X194051411Y-91834887D01*
X194051408Y-91834890D01*
X193939063Y-91921095D01*
X193939059Y-91921098D01*
X193932518Y-91926118D01*
X193927498Y-91932659D01*
X193927495Y-91932663D01*
X193841290Y-92045008D01*
X193841287Y-92045011D01*
X193836264Y-92051559D01*
X193833106Y-92059182D01*
X193833103Y-92059188D01*
X193778916Y-92190008D01*
X193775756Y-92197638D01*
X193774679Y-92205818D01*
X193774677Y-92205826D01*
X193758910Y-92325593D01*
X193755118Y-92354400D01*
X183078498Y-92354400D01*
X183043875Y-92340987D01*
X183043869Y-92340985D01*
X183038440Y-92338882D01*
X183032720Y-92337812D01*
X183032714Y-92337811D01*
X182825467Y-92299070D01*
X182825466Y-92299069D01*
X182819743Y-92298000D01*
X182597257Y-92298000D01*
X182591534Y-92299069D01*
X182591532Y-92299070D01*
X182384285Y-92337811D01*
X182384276Y-92337813D01*
X182378560Y-92338882D01*
X182373132Y-92340984D01*
X182373124Y-92340987D01*
X182176537Y-92417146D01*
X182176534Y-92417147D01*
X182171099Y-92419253D01*
X182166143Y-92422321D01*
X182166138Y-92422324D01*
X181986891Y-92533309D01*
X181981938Y-92536376D01*
X181977639Y-92540294D01*
X181977635Y-92540298D01*
X181821824Y-92682338D01*
X181821816Y-92682346D01*
X181817519Y-92686264D01*
X181814014Y-92690904D01*
X181814006Y-92690914D01*
X181686952Y-92859162D01*
X181686948Y-92859167D01*
X181683442Y-92863811D01*
X181680847Y-92869021D01*
X181680844Y-92869027D01*
X181586868Y-93057755D01*
X181586865Y-93057761D01*
X181584271Y-93062972D01*
X181582677Y-93068573D01*
X181582677Y-93068574D01*
X181528522Y-93258911D01*
X181523385Y-93276964D01*
X181502857Y-93498500D01*
X178834143Y-93498500D01*
X178813615Y-93276964D01*
X178752729Y-93062972D01*
X178653558Y-92863811D01*
X178519481Y-92686264D01*
X178515177Y-92682341D01*
X178515175Y-92682338D01*
X178397613Y-92575166D01*
X178355062Y-92536376D01*
X178165901Y-92419253D01*
X178093909Y-92391363D01*
X177963875Y-92340987D01*
X177963869Y-92340985D01*
X177958440Y-92338882D01*
X177952720Y-92337812D01*
X177952714Y-92337811D01*
X177745467Y-92299070D01*
X177745466Y-92299069D01*
X177739743Y-92298000D01*
X177517257Y-92298000D01*
X177511534Y-92299069D01*
X177511532Y-92299070D01*
X177304285Y-92337811D01*
X177304276Y-92337813D01*
X177298560Y-92338882D01*
X177293132Y-92340984D01*
X177293124Y-92340987D01*
X177096537Y-92417146D01*
X177096534Y-92417147D01*
X177091099Y-92419253D01*
X177086143Y-92422321D01*
X177086138Y-92422324D01*
X176906891Y-92533309D01*
X176901938Y-92536376D01*
X176897639Y-92540294D01*
X176897635Y-92540298D01*
X176741824Y-92682338D01*
X176741816Y-92682346D01*
X176737519Y-92686264D01*
X176734014Y-92690904D01*
X176734006Y-92690914D01*
X176606952Y-92859162D01*
X176606948Y-92859167D01*
X176603442Y-92863811D01*
X176600847Y-92869021D01*
X176600844Y-92869027D01*
X176506868Y-93057755D01*
X176506865Y-93057761D01*
X176504271Y-93062972D01*
X176502677Y-93068573D01*
X176502677Y-93068574D01*
X176448522Y-93258911D01*
X176443385Y-93276964D01*
X176422857Y-93498500D01*
X172120291Y-93498500D01*
X172123832Y-90004900D01*
X205743918Y-90004900D01*
X205744996Y-90013088D01*
X205763477Y-90153473D01*
X205763478Y-90153479D01*
X205764556Y-90161662D01*
X205767715Y-90169290D01*
X205767716Y-90169291D01*
X205821903Y-90300111D01*
X205821904Y-90300114D01*
X205825064Y-90307741D01*
X205921318Y-90433182D01*
X206046759Y-90529436D01*
X206192838Y-90589944D01*
X206201025Y-90591021D01*
X206201026Y-90591022D01*
X206269259Y-90600005D01*
X206349600Y-90610582D01*
X206506362Y-90589944D01*
X206652441Y-90529436D01*
X206777882Y-90433182D01*
X206818923Y-90379695D01*
X206863157Y-90343394D01*
X206918886Y-90330400D01*
X206962684Y-90330400D01*
X207010902Y-90339991D01*
X207051779Y-90367305D01*
X209136795Y-92452321D01*
X209164109Y-92493198D01*
X209173700Y-92541416D01*
X209173700Y-92995090D01*
X209173219Y-93006072D01*
X209169936Y-93043607D01*
X209172788Y-93054254D01*
X209172789Y-93054256D01*
X209179692Y-93080018D01*
X209182070Y-93090746D01*
X209186697Y-93116989D01*
X209186698Y-93116992D01*
X209188612Y-93127845D01*
X209194120Y-93137385D01*
X209195313Y-93140663D01*
X209196792Y-93143836D01*
X209199646Y-93154484D01*
X209205969Y-93163515D01*
X209205971Y-93163518D01*
X209221256Y-93185348D01*
X209227162Y-93194617D01*
X209240190Y-93217183D01*
X209246006Y-93227255D01*
X209254447Y-93234338D01*
X209254449Y-93234340D01*
X209274881Y-93251484D01*
X209282985Y-93258911D01*
X210017089Y-93993015D01*
X210024515Y-94001118D01*
X210048745Y-94029994D01*
X210081386Y-94048839D01*
X210090643Y-94054736D01*
X210121516Y-94076354D01*
X210132170Y-94079208D01*
X210135333Y-94080683D01*
X210138604Y-94081873D01*
X210148155Y-94087388D01*
X210185263Y-94093931D01*
X210195972Y-94096304D01*
X210232393Y-94106064D01*
X210268708Y-94102886D01*
X210269943Y-94102779D01*
X210280924Y-94102300D01*
X212883090Y-94102300D01*
X212894072Y-94102780D01*
X212931607Y-94106064D01*
X212968017Y-94096307D01*
X212978737Y-94093930D01*
X213015845Y-94087388D01*
X213025399Y-94081870D01*
X213028682Y-94080676D01*
X213031830Y-94079208D01*
X213042484Y-94076354D01*
X213073358Y-94054734D01*
X213082608Y-94048842D01*
X213115255Y-94029994D01*
X213139485Y-94001115D01*
X213146902Y-93993022D01*
X213513129Y-93626795D01*
X213521199Y-93619399D01*
X213550094Y-93595155D01*
X213568942Y-93562508D01*
X213574834Y-93553258D01*
X213596454Y-93522384D01*
X213599308Y-93511730D01*
X213600776Y-93508582D01*
X213601970Y-93505299D01*
X213607488Y-93495745D01*
X213614030Y-93458637D01*
X213616407Y-93447917D01*
X213626164Y-93411507D01*
X213625667Y-93405827D01*
X213644802Y-93350936D01*
X213690550Y-93309244D01*
X213855438Y-93221110D01*
X214007783Y-93096083D01*
X214132810Y-92943738D01*
X214225714Y-92769927D01*
X214282924Y-92581332D01*
X214302241Y-92385200D01*
X214282924Y-92189068D01*
X214225714Y-92000473D01*
X214132810Y-91826662D01*
X214007783Y-91674317D01*
X213855438Y-91549290D01*
X213761486Y-91499071D01*
X213687085Y-91459303D01*
X213687081Y-91459301D01*
X213681627Y-91456386D01*
X213675707Y-91454590D01*
X213675702Y-91454588D01*
X213498961Y-91400974D01*
X213498955Y-91400972D01*
X213493032Y-91399176D01*
X213486873Y-91398569D01*
X213486866Y-91398568D01*
X213303063Y-91380466D01*
X213296900Y-91379859D01*
X213290737Y-91380466D01*
X213106933Y-91398568D01*
X213106924Y-91398569D01*
X213100768Y-91399176D01*
X213094846Y-91400972D01*
X213094838Y-91400974D01*
X212918097Y-91454588D01*
X212918088Y-91454591D01*
X212912173Y-91456386D01*
X212906721Y-91459299D01*
X212906714Y-91459303D01*
X212743821Y-91546372D01*
X212738362Y-91549290D01*
X212733583Y-91553211D01*
X212733577Y-91553216D01*
X212590796Y-91670394D01*
X212590790Y-91670399D01*
X212586017Y-91674317D01*
X212582099Y-91679090D01*
X212582094Y-91679096D01*
X212464916Y-91821877D01*
X212464911Y-91821883D01*
X212460990Y-91826662D01*
X212458072Y-91832120D01*
X212458072Y-91832121D01*
X212408022Y-91925758D01*
X212361677Y-91974436D01*
X212296900Y-91992362D01*
X212232123Y-91974436D01*
X212185778Y-91925758D01*
X212183286Y-91921095D01*
X212132810Y-91826662D01*
X212007783Y-91674317D01*
X211855438Y-91549290D01*
X211761486Y-91499071D01*
X211687085Y-91459303D01*
X211687081Y-91459301D01*
X211681627Y-91456386D01*
X211675707Y-91454590D01*
X211675702Y-91454588D01*
X211626865Y-91439774D01*
X211567630Y-91401030D01*
X211538629Y-91336463D01*
X211549015Y-91266449D01*
X211595510Y-91213081D01*
X211663441Y-91193200D01*
X212142123Y-91193200D01*
X212148838Y-91192840D01*
X212198157Y-91187537D01*
X212213378Y-91183940D01*
X212334419Y-91138794D01*
X212350075Y-91130245D01*
X212452592Y-91053502D01*
X212465202Y-91040892D01*
X212541945Y-90938375D01*
X212550494Y-90922719D01*
X212594059Y-90805918D01*
X212636306Y-90749307D01*
X212702379Y-90724327D01*
X212771509Y-90738827D01*
X212912173Y-90814014D01*
X213100768Y-90871224D01*
X213296900Y-90890541D01*
X213493032Y-90871224D01*
X213681627Y-90814014D01*
X213855438Y-90721110D01*
X214007783Y-90596083D01*
X214132810Y-90443738D01*
X214225714Y-90269927D01*
X214282924Y-90081332D01*
X214302241Y-89885200D01*
X214282924Y-89689068D01*
X214225714Y-89500473D01*
X214132810Y-89326662D01*
X214007783Y-89174317D01*
X213855438Y-89049290D01*
X213733181Y-88983942D01*
X213687085Y-88959303D01*
X213687081Y-88959301D01*
X213681627Y-88956386D01*
X213675707Y-88954590D01*
X213675702Y-88954588D01*
X213498961Y-88900974D01*
X213498955Y-88900972D01*
X213493032Y-88899176D01*
X213486873Y-88898569D01*
X213486866Y-88898568D01*
X213303063Y-88880466D01*
X213296900Y-88879859D01*
X213290737Y-88880466D01*
X213106933Y-88898568D01*
X213106924Y-88898569D01*
X213100768Y-88899176D01*
X213094846Y-88900972D01*
X213094838Y-88900974D01*
X212918097Y-88954588D01*
X212918088Y-88954591D01*
X212912173Y-88956386D01*
X212906721Y-88959299D01*
X212906714Y-88959303D01*
X212771511Y-89031571D01*
X212702378Y-89046072D01*
X212636306Y-89021092D01*
X212594059Y-88964481D01*
X212550494Y-88847680D01*
X212541945Y-88832024D01*
X212465202Y-88729507D01*
X212452592Y-88716897D01*
X212350075Y-88640154D01*
X212334419Y-88631605D01*
X212213378Y-88586459D01*
X212198157Y-88582862D01*
X212148838Y-88577559D01*
X212142123Y-88577200D01*
X211567490Y-88577200D01*
X211554406Y-88580706D01*
X211550900Y-88593790D01*
X211550900Y-90013200D01*
X211534019Y-90076200D01*
X211487900Y-90122319D01*
X211424900Y-90139200D01*
X210005490Y-90139200D01*
X209992406Y-90142706D01*
X209988900Y-90155790D01*
X209988900Y-90730423D01*
X209989259Y-90737138D01*
X209994562Y-90786457D01*
X209998159Y-90801678D01*
X210043305Y-90922719D01*
X210051854Y-90938375D01*
X210128597Y-91040892D01*
X210141207Y-91053502D01*
X210243724Y-91130245D01*
X210259380Y-91138794D01*
X210380421Y-91183940D01*
X210395642Y-91187537D01*
X210444961Y-91192840D01*
X210451677Y-91193200D01*
X210930359Y-91193200D01*
X210998290Y-91213081D01*
X211044785Y-91266449D01*
X211055171Y-91336463D01*
X211026170Y-91401030D01*
X210966935Y-91439774D01*
X210918097Y-91454588D01*
X210918088Y-91454591D01*
X210912173Y-91456386D01*
X210906721Y-91459299D01*
X210906714Y-91459303D01*
X210743821Y-91546372D01*
X210738362Y-91549290D01*
X210733583Y-91553211D01*
X210733577Y-91553216D01*
X210590796Y-91670394D01*
X210590790Y-91670399D01*
X210586017Y-91674317D01*
X210582099Y-91679090D01*
X210582094Y-91679096D01*
X210464916Y-91821877D01*
X210464911Y-91821883D01*
X210460990Y-91826662D01*
X210458072Y-91832120D01*
X210458072Y-91832121D01*
X210371003Y-91995014D01*
X210370999Y-91995021D01*
X210368086Y-92000473D01*
X210366291Y-92006388D01*
X210366288Y-92006397D01*
X210312674Y-92183138D01*
X210312672Y-92183146D01*
X210310876Y-92189068D01*
X210310269Y-92195224D01*
X210310268Y-92195233D01*
X210295399Y-92346212D01*
X210291559Y-92385200D01*
X210292166Y-92391363D01*
X210310268Y-92575166D01*
X210310269Y-92575173D01*
X210310876Y-92581332D01*
X210312672Y-92587255D01*
X210312674Y-92587261D01*
X210366288Y-92764002D01*
X210366290Y-92764007D01*
X210368086Y-92769927D01*
X210371001Y-92775381D01*
X210371003Y-92775385D01*
X210408675Y-92845864D01*
X210460990Y-92943738D01*
X210464915Y-92948521D01*
X210464916Y-92948522D01*
X210558843Y-93062972D01*
X210586017Y-93096083D01*
X210738362Y-93221110D01*
X210739777Y-93221866D01*
X210780859Y-93268099D01*
X210794494Y-93330248D01*
X210776023Y-93391136D01*
X210730157Y-93435235D01*
X210668591Y-93451300D01*
X210448216Y-93451300D01*
X210399998Y-93441709D01*
X210359121Y-93414395D01*
X209861605Y-92916879D01*
X209834291Y-92876002D01*
X209824700Y-92827784D01*
X209824700Y-92374110D01*
X209825180Y-92363128D01*
X209825236Y-92362482D01*
X209828464Y-92325593D01*
X209818704Y-92289172D01*
X209816330Y-92278459D01*
X209809788Y-92241355D01*
X209804273Y-92231804D01*
X209803083Y-92228533D01*
X209801608Y-92225370D01*
X209798754Y-92214716D01*
X209777136Y-92183843D01*
X209771239Y-92174586D01*
X209752394Y-92141945D01*
X209723517Y-92117714D01*
X209715414Y-92110288D01*
X207393809Y-89788683D01*
X207386382Y-89780579D01*
X207369239Y-89760149D01*
X207362155Y-89751706D01*
X207352610Y-89746195D01*
X207352609Y-89746194D01*
X207329517Y-89732862D01*
X207320248Y-89726956D01*
X207298418Y-89711671D01*
X207298415Y-89711669D01*
X207289384Y-89705346D01*
X207278736Y-89702492D01*
X207275563Y-89701013D01*
X207272285Y-89699820D01*
X207262745Y-89694312D01*
X207251892Y-89692398D01*
X207251889Y-89692397D01*
X207225646Y-89687770D01*
X207214918Y-89685392D01*
X207189156Y-89678489D01*
X207189154Y-89678488D01*
X207178507Y-89675636D01*
X207167522Y-89676597D01*
X207140972Y-89678920D01*
X207129990Y-89679400D01*
X206918886Y-89679400D01*
X206863157Y-89666406D01*
X206818923Y-89630104D01*
X206807034Y-89614610D01*
X209988900Y-89614610D01*
X209992406Y-89627693D01*
X210005490Y-89631200D01*
X211026310Y-89631200D01*
X211039393Y-89627693D01*
X211042900Y-89614610D01*
X211042900Y-88593790D01*
X211039393Y-88580706D01*
X211026310Y-88577200D01*
X210451677Y-88577200D01*
X210444961Y-88577559D01*
X210395642Y-88582862D01*
X210380421Y-88586459D01*
X210259380Y-88631605D01*
X210243724Y-88640154D01*
X210141207Y-88716897D01*
X210128597Y-88729507D01*
X210051854Y-88832024D01*
X210043305Y-88847680D01*
X209998159Y-88968721D01*
X209994562Y-88983942D01*
X209989259Y-89033261D01*
X209988900Y-89039977D01*
X209988900Y-89614610D01*
X206807034Y-89614610D01*
X206782904Y-89583163D01*
X206777882Y-89576618D01*
X206652441Y-89480364D01*
X206644814Y-89477204D01*
X206644811Y-89477203D01*
X206513991Y-89423016D01*
X206513990Y-89423015D01*
X206506362Y-89419856D01*
X206498179Y-89418778D01*
X206498173Y-89418777D01*
X206357788Y-89400296D01*
X206349600Y-89399218D01*
X206341412Y-89400296D01*
X206201026Y-89418777D01*
X206201018Y-89418779D01*
X206192838Y-89419856D01*
X206185211Y-89423015D01*
X206185208Y-89423016D01*
X206054388Y-89477203D01*
X206054382Y-89477206D01*
X206046759Y-89480364D01*
X206040211Y-89485387D01*
X206040208Y-89485390D01*
X205927863Y-89571595D01*
X205927859Y-89571598D01*
X205921318Y-89576618D01*
X205916298Y-89583159D01*
X205916295Y-89583163D01*
X205830090Y-89695508D01*
X205830087Y-89695511D01*
X205825064Y-89702059D01*
X205821906Y-89709682D01*
X205821903Y-89709688D01*
X205767716Y-89840508D01*
X205764556Y-89848138D01*
X205763479Y-89856318D01*
X205763477Y-89856326D01*
X205758865Y-89891363D01*
X205743918Y-90004900D01*
X172123832Y-90004900D01*
X172129019Y-84886800D01*
X197407301Y-84886800D01*
X197407908Y-84892963D01*
X197425045Y-85066965D01*
X197425046Y-85066971D01*
X197425653Y-85073131D01*
X197427449Y-85079054D01*
X197427451Y-85079060D01*
X197478206Y-85246376D01*
X197478208Y-85246381D01*
X197480004Y-85252301D01*
X197568264Y-85417425D01*
X197572189Y-85422208D01*
X197572190Y-85422209D01*
X197683120Y-85557377D01*
X197687043Y-85562157D01*
X197831775Y-85680936D01*
X197996899Y-85769196D01*
X198176069Y-85823547D01*
X198362400Y-85841899D01*
X198548731Y-85823547D01*
X198727901Y-85769196D01*
X198893025Y-85680936D01*
X199037757Y-85562157D01*
X199156536Y-85417425D01*
X199244796Y-85252301D01*
X199299147Y-85073131D01*
X199317499Y-84886800D01*
X202307301Y-84886800D01*
X202307908Y-84892963D01*
X202325045Y-85066965D01*
X202325046Y-85066971D01*
X202325653Y-85073131D01*
X202327449Y-85079054D01*
X202327451Y-85079060D01*
X202378206Y-85246376D01*
X202378208Y-85246381D01*
X202380004Y-85252301D01*
X202468264Y-85417425D01*
X202472189Y-85422208D01*
X202472190Y-85422209D01*
X202583120Y-85557377D01*
X202587043Y-85562157D01*
X202731775Y-85680936D01*
X202896899Y-85769196D01*
X203076069Y-85823547D01*
X203262400Y-85841899D01*
X203448731Y-85823547D01*
X203627901Y-85769196D01*
X203793025Y-85680936D01*
X203937757Y-85562157D01*
X204056536Y-85417425D01*
X204144796Y-85252301D01*
X204180318Y-85135200D01*
X213951678Y-85135200D01*
X213970544Y-85423039D01*
X214026819Y-85705953D01*
X214028144Y-85709859D01*
X214028146Y-85709863D01*
X214118217Y-85975202D01*
X214119541Y-85979102D01*
X214247122Y-86237811D01*
X214407380Y-86477654D01*
X214597573Y-86694527D01*
X214814446Y-86884720D01*
X215054289Y-87044978D01*
X215312998Y-87172559D01*
X215586147Y-87265281D01*
X215869061Y-87321556D01*
X216156900Y-87340422D01*
X216444739Y-87321556D01*
X216727653Y-87265281D01*
X217000802Y-87172559D01*
X217259511Y-87044978D01*
X217499354Y-86884720D01*
X217716227Y-86694527D01*
X217906420Y-86477654D01*
X218066678Y-86237811D01*
X218194259Y-85979102D01*
X218286981Y-85705953D01*
X218343256Y-85423039D01*
X218362122Y-85135200D01*
X218343256Y-84847361D01*
X218286981Y-84564447D01*
X218194259Y-84291298D01*
X218066678Y-84032589D01*
X217906420Y-83792746D01*
X217716227Y-83575873D01*
X217499354Y-83385680D01*
X217259511Y-83225422D01*
X217255811Y-83223597D01*
X217255807Y-83223595D01*
X217118099Y-83155685D01*
X217000802Y-83097841D01*
X216996902Y-83096517D01*
X216731563Y-83006446D01*
X216731559Y-83006444D01*
X216727653Y-83005119D01*
X216723605Y-83004313D01*
X216723602Y-83004313D01*
X216448781Y-82949648D01*
X216448780Y-82949647D01*
X216444739Y-82948844D01*
X216440628Y-82948574D01*
X216440624Y-82948574D01*
X216161019Y-82930248D01*
X216156900Y-82929978D01*
X216152781Y-82930248D01*
X215873175Y-82948574D01*
X215873169Y-82948574D01*
X215869061Y-82948844D01*
X215865020Y-82949647D01*
X215865018Y-82949648D01*
X215590197Y-83004313D01*
X215590191Y-83004314D01*
X215586147Y-83005119D01*
X215582244Y-83006443D01*
X215582236Y-83006446D01*
X215316897Y-83096517D01*
X215316890Y-83096519D01*
X215312998Y-83097841D01*
X215309305Y-83099662D01*
X215309303Y-83099663D01*
X215057992Y-83223595D01*
X215057981Y-83223601D01*
X215054289Y-83225422D01*
X215050860Y-83227712D01*
X215050855Y-83227716D01*
X214817877Y-83383387D01*
X214817872Y-83383390D01*
X214814446Y-83385680D01*
X214811351Y-83388393D01*
X214811346Y-83388398D01*
X214600661Y-83573164D01*
X214600653Y-83573171D01*
X214597573Y-83575873D01*
X214594871Y-83578953D01*
X214594864Y-83578961D01*
X214410098Y-83789646D01*
X214410093Y-83789651D01*
X214407380Y-83792746D01*
X214405090Y-83796172D01*
X214405087Y-83796177D01*
X214249416Y-84029155D01*
X214249412Y-84029160D01*
X214247122Y-84032589D01*
X214245301Y-84036281D01*
X214245295Y-84036292D01*
X214158921Y-84211443D01*
X214119541Y-84291298D01*
X214118219Y-84295190D01*
X214118217Y-84295197D01*
X214028146Y-84560536D01*
X214028143Y-84560544D01*
X214026819Y-84564447D01*
X214026014Y-84568491D01*
X214026013Y-84568497D01*
X213998536Y-84706634D01*
X213970544Y-84847361D01*
X213951678Y-85135200D01*
X204180318Y-85135200D01*
X204199147Y-85073131D01*
X204217499Y-84886800D01*
X204199147Y-84700469D01*
X204144796Y-84521299D01*
X204056536Y-84356175D01*
X203937757Y-84211443D01*
X203793025Y-84092664D01*
X203680632Y-84032589D01*
X203633359Y-84007321D01*
X203633356Y-84007319D01*
X203627901Y-84004404D01*
X203621981Y-84002608D01*
X203621976Y-84002606D01*
X203454660Y-83951851D01*
X203454654Y-83951849D01*
X203448731Y-83950053D01*
X203442571Y-83949446D01*
X203442565Y-83949445D01*
X203268563Y-83932308D01*
X203262400Y-83931701D01*
X203256237Y-83932308D01*
X203082234Y-83949445D01*
X203082226Y-83949446D01*
X203076069Y-83950053D01*
X203070147Y-83951849D01*
X203070139Y-83951851D01*
X202902823Y-84002606D01*
X202902814Y-84002609D01*
X202896899Y-84004404D01*
X202891447Y-84007317D01*
X202891440Y-84007321D01*
X202737233Y-84089746D01*
X202737228Y-84089749D01*
X202731775Y-84092664D01*
X202726996Y-84096585D01*
X202726990Y-84096590D01*
X202591822Y-84207520D01*
X202591816Y-84207525D01*
X202587043Y-84211443D01*
X202583125Y-84216216D01*
X202583120Y-84216222D01*
X202472190Y-84351390D01*
X202472185Y-84351396D01*
X202468264Y-84356175D01*
X202465349Y-84361628D01*
X202465346Y-84361633D01*
X202382921Y-84515840D01*
X202382917Y-84515847D01*
X202380004Y-84521299D01*
X202378209Y-84527214D01*
X202378206Y-84527223D01*
X202327451Y-84694539D01*
X202327449Y-84694547D01*
X202325653Y-84700469D01*
X202325046Y-84706626D01*
X202325045Y-84706634D01*
X202311185Y-84847361D01*
X202307301Y-84886800D01*
X199317499Y-84886800D01*
X199299147Y-84700469D01*
X199244796Y-84521299D01*
X199156536Y-84356175D01*
X199037757Y-84211443D01*
X198893025Y-84092664D01*
X198780632Y-84032589D01*
X198733359Y-84007321D01*
X198733356Y-84007319D01*
X198727901Y-84004404D01*
X198721981Y-84002608D01*
X198721976Y-84002606D01*
X198554660Y-83951851D01*
X198554654Y-83951849D01*
X198548731Y-83950053D01*
X198542571Y-83949446D01*
X198542565Y-83949445D01*
X198368563Y-83932308D01*
X198362400Y-83931701D01*
X198356237Y-83932308D01*
X198182234Y-83949445D01*
X198182226Y-83949446D01*
X198176069Y-83950053D01*
X198170147Y-83951849D01*
X198170139Y-83951851D01*
X198002823Y-84002606D01*
X198002814Y-84002609D01*
X197996899Y-84004404D01*
X197991447Y-84007317D01*
X197991440Y-84007321D01*
X197837233Y-84089746D01*
X197837228Y-84089749D01*
X197831775Y-84092664D01*
X197826996Y-84096585D01*
X197826990Y-84096590D01*
X197691822Y-84207520D01*
X197691816Y-84207525D01*
X197687043Y-84211443D01*
X197683125Y-84216216D01*
X197683120Y-84216222D01*
X197572190Y-84351390D01*
X197572185Y-84351396D01*
X197568264Y-84356175D01*
X197565349Y-84361628D01*
X197565346Y-84361633D01*
X197482921Y-84515840D01*
X197482917Y-84515847D01*
X197480004Y-84521299D01*
X197478209Y-84527214D01*
X197478206Y-84527223D01*
X197427451Y-84694539D01*
X197427449Y-84694547D01*
X197425653Y-84700469D01*
X197425046Y-84706626D01*
X197425045Y-84706634D01*
X197411185Y-84847361D01*
X197407301Y-84886800D01*
X172129019Y-84886800D01*
X172134450Y-79528500D01*
X176549857Y-79528500D01*
X176570385Y-79750036D01*
X176631271Y-79964028D01*
X176730442Y-80163189D01*
X176733952Y-80167837D01*
X176861006Y-80336085D01*
X176861010Y-80336089D01*
X176864519Y-80340736D01*
X176868821Y-80344658D01*
X176868824Y-80344661D01*
X176964928Y-80432271D01*
X177028938Y-80490624D01*
X177218099Y-80607747D01*
X177425560Y-80688118D01*
X177644257Y-80729000D01*
X177860916Y-80729000D01*
X177866743Y-80729000D01*
X178085440Y-80688118D01*
X178292901Y-80607747D01*
X178482062Y-80490624D01*
X178646481Y-80340736D01*
X178780558Y-80163189D01*
X178879729Y-79964028D01*
X178940615Y-79750036D01*
X178961143Y-79528500D01*
X181629857Y-79528500D01*
X181650385Y-79750036D01*
X181711271Y-79964028D01*
X181810442Y-80163189D01*
X181813952Y-80167837D01*
X181941006Y-80336085D01*
X181941010Y-80336089D01*
X181944519Y-80340736D01*
X181948821Y-80344658D01*
X181948824Y-80344661D01*
X182044928Y-80432271D01*
X182108938Y-80490624D01*
X182298099Y-80607747D01*
X182505560Y-80688118D01*
X182724257Y-80729000D01*
X182940916Y-80729000D01*
X182946743Y-80729000D01*
X183165440Y-80688118D01*
X183372901Y-80607747D01*
X183562062Y-80490624D01*
X183726481Y-80340736D01*
X183860558Y-80163189D01*
X183959729Y-79964028D01*
X184020615Y-79750036D01*
X184041143Y-79528500D01*
X184020615Y-79306964D01*
X183959729Y-79092972D01*
X183860558Y-78893811D01*
X183726481Y-78716264D01*
X183722177Y-78712341D01*
X183722175Y-78712338D01*
X183566364Y-78570298D01*
X183566365Y-78570298D01*
X183562062Y-78566376D01*
X183372901Y-78449253D01*
X183340629Y-78436751D01*
X183170875Y-78370987D01*
X183170869Y-78370985D01*
X183165440Y-78368882D01*
X183159720Y-78367812D01*
X183159714Y-78367811D01*
X182952467Y-78329070D01*
X182952466Y-78329069D01*
X182946743Y-78328000D01*
X182724257Y-78328000D01*
X182718534Y-78329069D01*
X182718532Y-78329070D01*
X182511285Y-78367811D01*
X182511276Y-78367813D01*
X182505560Y-78368882D01*
X182500132Y-78370984D01*
X182500124Y-78370987D01*
X182303537Y-78447146D01*
X182303534Y-78447147D01*
X182298099Y-78449253D01*
X182293143Y-78452321D01*
X182293138Y-78452324D01*
X182113891Y-78563309D01*
X182108938Y-78566376D01*
X182104639Y-78570294D01*
X182104635Y-78570298D01*
X181948824Y-78712338D01*
X181948816Y-78712346D01*
X181944519Y-78716264D01*
X181941014Y-78720904D01*
X181941006Y-78720914D01*
X181813952Y-78889162D01*
X181813948Y-78889167D01*
X181810442Y-78893811D01*
X181807847Y-78899021D01*
X181807844Y-78899027D01*
X181713868Y-79087755D01*
X181713865Y-79087761D01*
X181711271Y-79092972D01*
X181650385Y-79306964D01*
X181629857Y-79528500D01*
X178961143Y-79528500D01*
X178940615Y-79306964D01*
X178879729Y-79092972D01*
X178780558Y-78893811D01*
X178646481Y-78716264D01*
X178642177Y-78712341D01*
X178642175Y-78712338D01*
X178486364Y-78570298D01*
X178486365Y-78570298D01*
X178482062Y-78566376D01*
X178292901Y-78449253D01*
X178260629Y-78436751D01*
X178090875Y-78370987D01*
X178090869Y-78370985D01*
X178085440Y-78368882D01*
X178079720Y-78367812D01*
X178079714Y-78367811D01*
X177872467Y-78329070D01*
X177872466Y-78329069D01*
X177866743Y-78328000D01*
X177644257Y-78328000D01*
X177638534Y-78329069D01*
X177638532Y-78329070D01*
X177431285Y-78367811D01*
X177431276Y-78367813D01*
X177425560Y-78368882D01*
X177420132Y-78370984D01*
X177420124Y-78370987D01*
X177223537Y-78447146D01*
X177223534Y-78447147D01*
X177218099Y-78449253D01*
X177213143Y-78452321D01*
X177213138Y-78452324D01*
X177033891Y-78563309D01*
X177028938Y-78566376D01*
X177024639Y-78570294D01*
X177024635Y-78570298D01*
X176868824Y-78712338D01*
X176868816Y-78712346D01*
X176864519Y-78716264D01*
X176861014Y-78720904D01*
X176861006Y-78720914D01*
X176733952Y-78889162D01*
X176733948Y-78889167D01*
X176730442Y-78893811D01*
X176727847Y-78899021D01*
X176727844Y-78899027D01*
X176633868Y-79087755D01*
X176633865Y-79087761D01*
X176631271Y-79092972D01*
X176570385Y-79306964D01*
X176549857Y-79528500D01*
X172134450Y-79528500D01*
X172148737Y-65431500D01*
X176549857Y-65431500D01*
X176570385Y-65653036D01*
X176631271Y-65867028D01*
X176730442Y-66066189D01*
X176733952Y-66070837D01*
X176861006Y-66239085D01*
X176861010Y-66239089D01*
X176864519Y-66243736D01*
X176868821Y-66247658D01*
X176868824Y-66247661D01*
X176964928Y-66335271D01*
X177028938Y-66393624D01*
X177218099Y-66510747D01*
X177425560Y-66591118D01*
X177644257Y-66632000D01*
X177860916Y-66632000D01*
X177866743Y-66632000D01*
X178085440Y-66591118D01*
X178292901Y-66510747D01*
X178482062Y-66393624D01*
X178646481Y-66243736D01*
X178780558Y-66066189D01*
X178879729Y-65867028D01*
X178940615Y-65653036D01*
X178961143Y-65431500D01*
X181629857Y-65431500D01*
X181650385Y-65653036D01*
X181711271Y-65867028D01*
X181810442Y-66066189D01*
X181813952Y-66070837D01*
X181941006Y-66239085D01*
X181941010Y-66239089D01*
X181944519Y-66243736D01*
X181948821Y-66247658D01*
X181948824Y-66247661D01*
X182044928Y-66335271D01*
X182108938Y-66393624D01*
X182298099Y-66510747D01*
X182505560Y-66591118D01*
X182724257Y-66632000D01*
X182940916Y-66632000D01*
X182946743Y-66632000D01*
X183165440Y-66591118D01*
X183372901Y-66510747D01*
X183562062Y-66393624D01*
X183726481Y-66243736D01*
X183860558Y-66066189D01*
X183959729Y-65867028D01*
X184020615Y-65653036D01*
X184041143Y-65431500D01*
X184020615Y-65209964D01*
X183959729Y-64995972D01*
X183860558Y-64796811D01*
X183726481Y-64619264D01*
X183722177Y-64615341D01*
X183722175Y-64615338D01*
X183566364Y-64473298D01*
X183566365Y-64473298D01*
X183562062Y-64469376D01*
X183372901Y-64352253D01*
X183340629Y-64339751D01*
X183170875Y-64273987D01*
X183170869Y-64273985D01*
X183165440Y-64271882D01*
X183159720Y-64270812D01*
X183159714Y-64270811D01*
X182952467Y-64232070D01*
X182952466Y-64232069D01*
X182946743Y-64231000D01*
X182724257Y-64231000D01*
X182718534Y-64232069D01*
X182718532Y-64232070D01*
X182511285Y-64270811D01*
X182511276Y-64270813D01*
X182505560Y-64271882D01*
X182500132Y-64273984D01*
X182500124Y-64273987D01*
X182303537Y-64350146D01*
X182303534Y-64350147D01*
X182298099Y-64352253D01*
X182293143Y-64355321D01*
X182293138Y-64355324D01*
X182113891Y-64466309D01*
X182108938Y-64469376D01*
X182104639Y-64473294D01*
X182104635Y-64473298D01*
X181948824Y-64615338D01*
X181948816Y-64615346D01*
X181944519Y-64619264D01*
X181941014Y-64623904D01*
X181941006Y-64623914D01*
X181813952Y-64792162D01*
X181813948Y-64792167D01*
X181810442Y-64796811D01*
X181807847Y-64802021D01*
X181807844Y-64802027D01*
X181713868Y-64990755D01*
X181713865Y-64990761D01*
X181711271Y-64995972D01*
X181650385Y-65209964D01*
X181629857Y-65431500D01*
X178961143Y-65431500D01*
X178940615Y-65209964D01*
X178879729Y-64995972D01*
X178780558Y-64796811D01*
X178646481Y-64619264D01*
X178642177Y-64615341D01*
X178642175Y-64615338D01*
X178486364Y-64473298D01*
X178486365Y-64473298D01*
X178482062Y-64469376D01*
X178292901Y-64352253D01*
X178260629Y-64339751D01*
X178090875Y-64273987D01*
X178090869Y-64273985D01*
X178085440Y-64271882D01*
X178079720Y-64270812D01*
X178079714Y-64270811D01*
X177872467Y-64232070D01*
X177872466Y-64232069D01*
X177866743Y-64231000D01*
X177644257Y-64231000D01*
X177638534Y-64232069D01*
X177638532Y-64232070D01*
X177431285Y-64270811D01*
X177431276Y-64270813D01*
X177425560Y-64271882D01*
X177420132Y-64273984D01*
X177420124Y-64273987D01*
X177223537Y-64350146D01*
X177223534Y-64350147D01*
X177218099Y-64352253D01*
X177213143Y-64355321D01*
X177213138Y-64355324D01*
X177033891Y-64466309D01*
X177028938Y-64469376D01*
X177024639Y-64473294D01*
X177024635Y-64473298D01*
X176868824Y-64615338D01*
X176868816Y-64615346D01*
X176864519Y-64619264D01*
X176861014Y-64623904D01*
X176861006Y-64623914D01*
X176733952Y-64792162D01*
X176733948Y-64792167D01*
X176730442Y-64796811D01*
X176727847Y-64802021D01*
X176727844Y-64802027D01*
X176633868Y-64990755D01*
X176633865Y-64990761D01*
X176631271Y-64995972D01*
X176570385Y-65209964D01*
X176549857Y-65431500D01*
X172148737Y-65431500D01*
X172158006Y-56286400D01*
X213278551Y-56286400D01*
X213278939Y-56291330D01*
X213297928Y-56532614D01*
X213297929Y-56532622D01*
X213298317Y-56537548D01*
X213299471Y-56542356D01*
X213299472Y-56542360D01*
X213355971Y-56777698D01*
X213355972Y-56777703D01*
X213357127Y-56782511D01*
X213453534Y-57015259D01*
X213585164Y-57230059D01*
X213748776Y-57421624D01*
X213940341Y-57585236D01*
X214155141Y-57716866D01*
X214387889Y-57813273D01*
X214632852Y-57872083D01*
X214821118Y-57886900D01*
X214944413Y-57886900D01*
X214946882Y-57886900D01*
X215135148Y-57872083D01*
X215380111Y-57813273D01*
X215612859Y-57716866D01*
X215827659Y-57585236D01*
X216019224Y-57421624D01*
X216182836Y-57230059D01*
X216314466Y-57015259D01*
X216410873Y-56782511D01*
X216469683Y-56537548D01*
X216489449Y-56286400D01*
X216469683Y-56035252D01*
X216410873Y-55790289D01*
X216314466Y-55557541D01*
X216182836Y-55342741D01*
X216019224Y-55151176D01*
X215827659Y-54987564D01*
X215612859Y-54855934D01*
X215380111Y-54759527D01*
X215375303Y-54758372D01*
X215375298Y-54758371D01*
X215139960Y-54701872D01*
X215139956Y-54701871D01*
X215135148Y-54700717D01*
X215130222Y-54700329D01*
X215130214Y-54700328D01*
X214949338Y-54686093D01*
X214949330Y-54686092D01*
X214946882Y-54685900D01*
X214821118Y-54685900D01*
X214818670Y-54686092D01*
X214818661Y-54686093D01*
X214637785Y-54700328D01*
X214637775Y-54700329D01*
X214632852Y-54700717D01*
X214628045Y-54701871D01*
X214628039Y-54701872D01*
X214392701Y-54758371D01*
X214392692Y-54758373D01*
X214387889Y-54759527D01*
X214383321Y-54761418D01*
X214383315Y-54761421D01*
X214159715Y-54854039D01*
X214159710Y-54854041D01*
X214155141Y-54855934D01*
X214150926Y-54858516D01*
X214150920Y-54858520D01*
X213944558Y-54984979D01*
X213944550Y-54984984D01*
X213940341Y-54987564D01*
X213936580Y-54990775D01*
X213936576Y-54990779D01*
X213752538Y-55147962D01*
X213752531Y-55147968D01*
X213748776Y-55151176D01*
X213745568Y-55154931D01*
X213745562Y-55154938D01*
X213588379Y-55338976D01*
X213588375Y-55338980D01*
X213585164Y-55342741D01*
X213582584Y-55346950D01*
X213582579Y-55346958D01*
X213456120Y-55553320D01*
X213456116Y-55553326D01*
X213453534Y-55557541D01*
X213451641Y-55562110D01*
X213451639Y-55562115D01*
X213359021Y-55785715D01*
X213359018Y-55785721D01*
X213357127Y-55790289D01*
X213355973Y-55795092D01*
X213355971Y-55795101D01*
X213299472Y-56030439D01*
X213298317Y-56035252D01*
X213297929Y-56040175D01*
X213297928Y-56040185D01*
X213278939Y-56281470D01*
X213278551Y-56286400D01*
X172158006Y-56286400D01*
X172160991Y-53341047D01*
X172177902Y-53278126D01*
X172223986Y-53232063D01*
X172286917Y-53215179D01*
X200676121Y-53198721D01*
X218392985Y-53237194D01*
G37*
%TD.AperFunction*%
%TD*%
M02*
