%TF.GenerationSoftware,KiCad,Pcbnew,6.99.0-unknown-08a8a20794~162~ubuntu22.04.1*%
%TF.CreationDate,2022-12-21T10:25:03+01:00*%
%TF.ProjectId,usb_relay,7573625f-7265-46c6-9179-2e6b69636164,rev?*%
%TF.SameCoordinates,Original*%
%TF.FileFunction,Copper,L1,Top*%
%TF.FilePolarity,Positive*%
%FSLAX46Y46*%
G04 Gerber Fmt 4.6, Leading zero omitted, Abs format (unit mm)*
G04 Created by KiCad (PCBNEW 6.99.0-unknown-08a8a20794~162~ubuntu22.04.1) date 2022-12-21 10:25:03*
%MOMM*%
%LPD*%
G01*
G04 APERTURE LIST*
G04 Aperture macros list*
%AMRoundRect*
0 Rectangle with rounded corners*
0 $1 Rounding radius*
0 $2 $3 $4 $5 $6 $7 $8 $9 X,Y pos of 4 corners*
0 Add a 4 corners polygon primitive as box body*
4,1,4,$2,$3,$4,$5,$6,$7,$8,$9,$2,$3,0*
0 Add four circle primitives for the rounded corners*
1,1,$1+$1,$2,$3*
1,1,$1+$1,$4,$5*
1,1,$1+$1,$6,$7*
1,1,$1+$1,$8,$9*
0 Add four rect primitives between the rounded corners*
20,1,$1+$1,$2,$3,$4,$5,0*
20,1,$1+$1,$4,$5,$6,$7,0*
20,1,$1+$1,$6,$7,$8,$9,0*
20,1,$1+$1,$8,$9,$2,$3,0*%
G04 Aperture macros list end*
%TA.AperFunction,SMDPad,CuDef*%
%ADD10RoundRect,0.250000X-0.650000X0.325000X-0.650000X-0.325000X0.650000X-0.325000X0.650000X0.325000X0*%
%TD*%
%TA.AperFunction,ComponentPad*%
%ADD11RoundRect,0.250000X1.550000X-0.750000X1.550000X0.750000X-1.550000X0.750000X-1.550000X-0.750000X0*%
%TD*%
%TA.AperFunction,ComponentPad*%
%ADD12O,3.600000X2.000000*%
%TD*%
%TA.AperFunction,ComponentPad*%
%ADD13R,1.600000X1.600000*%
%TD*%
%TA.AperFunction,ComponentPad*%
%ADD14C,1.600000*%
%TD*%
%TA.AperFunction,ComponentPad*%
%ADD15C,4.000000*%
%TD*%
%TA.AperFunction,SMDPad,CuDef*%
%ADD16RoundRect,0.250000X-0.262500X-0.450000X0.262500X-0.450000X0.262500X0.450000X-0.262500X0.450000X0*%
%TD*%
%TA.AperFunction,SMDPad,CuDef*%
%ADD17RoundRect,0.250000X-0.450000X0.262500X-0.450000X-0.262500X0.450000X-0.262500X0.450000X0.262500X0*%
%TD*%
%TA.AperFunction,ComponentPad*%
%ADD18R,2.000000X2.000000*%
%TD*%
%TA.AperFunction,ComponentPad*%
%ADD19C,2.000000*%
%TD*%
%TA.AperFunction,SMDPad,CuDef*%
%ADD20RoundRect,0.250000X-0.475000X0.250000X-0.475000X-0.250000X0.475000X-0.250000X0.475000X0.250000X0*%
%TD*%
%TA.AperFunction,SMDPad,CuDef*%
%ADD21RoundRect,0.250000X-0.625000X0.375000X-0.625000X-0.375000X0.625000X-0.375000X0.625000X0.375000X0*%
%TD*%
%TA.AperFunction,SMDPad,CuDef*%
%ADD22RoundRect,0.250000X0.450000X-0.262500X0.450000X0.262500X-0.450000X0.262500X-0.450000X-0.262500X0*%
%TD*%
%TA.AperFunction,SMDPad,CuDef*%
%ADD23RoundRect,0.250000X0.650000X-0.325000X0.650000X0.325000X-0.650000X0.325000X-0.650000X-0.325000X0*%
%TD*%
%TA.AperFunction,SMDPad,CuDef*%
%ADD24RoundRect,0.125000X-0.825000X-0.125000X0.825000X-0.125000X0.825000X0.125000X-0.825000X0.125000X0*%
%TD*%
%TA.AperFunction,ComponentPad*%
%ADD25R,2.400000X2.400000*%
%TD*%
%TA.AperFunction,ComponentPad*%
%ADD26C,2.400000*%
%TD*%
%TA.AperFunction,SMDPad,CuDef*%
%ADD27RoundRect,0.250000X0.262500X0.450000X-0.262500X0.450000X-0.262500X-0.450000X0.262500X-0.450000X0*%
%TD*%
%TA.AperFunction,ComponentPad*%
%ADD28C,1.500000*%
%TD*%
%TA.AperFunction,ViaPad*%
%ADD29C,0.800000*%
%TD*%
%TA.AperFunction,ViaPad*%
%ADD30C,1.600000*%
%TD*%
%TA.AperFunction,Conductor*%
%ADD31C,0.250000*%
%TD*%
%TA.AperFunction,Conductor*%
%ADD32C,2.000000*%
%TD*%
G04 APERTURE END LIST*
D10*
%TO.P,C4,1*%
%TO.N,GND*%
X208280000Y-97380000D03*
%TO.P,C4,2*%
%TO.N,+5V*%
X208280000Y-100330000D03*
%TD*%
D11*
%TO.P,J4,1,Pin_1*%
%TO.N,Net-(J4-Pin_1)*%
X138898500Y-121225000D03*
D12*
%TO.P,J4,2,Pin_2*%
%TO.N,Net-(J4-Pin_2)*%
X138898499Y-113724999D03*
%TD*%
D13*
%TO.P,J7,1,VBUS*%
%TO.N,+5V*%
X211296899Y-89885199D03*
D14*
%TO.P,J7,2,D-*%
%TO.N,Net-(J7-D-)*%
X211296900Y-92385200D03*
%TO.P,J7,3,D+*%
%TO.N,Net-(J7-D+)*%
X213296900Y-92385200D03*
%TO.P,J7,4,GND*%
%TO.N,GND*%
X213296900Y-89885200D03*
D15*
%TO.P,J7,5,Shield*%
X216156900Y-85135200D03*
X216156900Y-97135200D03*
%TD*%
D16*
%TO.P,R6,1*%
%TO.N,Net-(R6-Pad1)*%
X191469000Y-92329000D03*
%TO.P,R6,2*%
%TO.N,Net-(U1-GP2)*%
X193294000Y-92329000D03*
%TD*%
D17*
%TO.P,R1,1*%
%TO.N,+5V*%
X192913000Y-88011000D03*
%TO.P,R1,2*%
%TO.N,Net-(U1-RST)*%
X192913000Y-89836000D03*
%TD*%
D16*
%TO.P,R8,1*%
%TO.N,Net-(R8-Pad1)*%
X191469000Y-96393000D03*
%TO.P,R8,2*%
%TO.N,Net-(U1-GP4)*%
X193294000Y-96393000D03*
%TD*%
D18*
%TO.P,U5,1*%
%TO.N,Net-(J6-Pin_1)*%
X155403499Y-79528499D03*
D19*
%TO.P,U5,2*%
%TO.N,Net-(J6-Pin_2)*%
X165563500Y-79528500D03*
%TO.P,U5,3*%
%TO.N,Net-(R9-Pad1)*%
X177755500Y-79528500D03*
%TO.P,U5,4*%
%TO.N,GND*%
X182835500Y-79528500D03*
%TD*%
D20*
%TO.P,C2,1*%
%TO.N,Net-(U1-OSC1)*%
X192887600Y-84460000D03*
%TO.P,C2,2*%
%TO.N,GND*%
X192887600Y-86360000D03*
%TD*%
%TO.P,C1,1*%
%TO.N,Net-(U1-OSC2)*%
X208229200Y-84444800D03*
%TO.P,C1,2*%
%TO.N,GND*%
X208229200Y-86344800D03*
%TD*%
D21*
%TO.P,D4,1,K*%
%TO.N,Net-(D4-K)*%
X201041000Y-105785000D03*
%TO.P,D4,2,A*%
%TO.N,+5V*%
X201041000Y-108585000D03*
%TD*%
%TO.P,D2,1,K*%
%TO.N,Net-(D2-K)*%
X194818000Y-105788000D03*
%TO.P,D2,2,A*%
%TO.N,+5V*%
X194818000Y-108588000D03*
%TD*%
%TO.P,D3,1,K*%
%TO.N,Net-(D3-K)*%
X204216000Y-105785000D03*
%TO.P,D3,2,A*%
%TO.N,+5V*%
X204216000Y-108585000D03*
%TD*%
D17*
%TO.P,R4,1*%
%TO.N,Net-(J2-Pin_4)*%
X198120000Y-101322500D03*
%TO.P,R4,2*%
%TO.N,Net-(D1-K)*%
X198120000Y-103147500D03*
%TD*%
D22*
%TO.P,R2,1*%
%TO.N,Net-(D3-K)*%
X204216000Y-103147500D03*
%TO.P,R2,2*%
%TO.N,Net-(J2-Pin_6)*%
X204216000Y-101322500D03*
%TD*%
D18*
%TO.P,U4,1*%
%TO.N,Net-(J5-Pin_1)*%
X155276499Y-93498499D03*
D19*
%TO.P,U4,2*%
%TO.N,Net-(J5-Pin_2)*%
X165436500Y-93498500D03*
%TO.P,U4,3*%
%TO.N,Net-(R8-Pad1)*%
X177628500Y-93498500D03*
%TO.P,U4,4*%
%TO.N,GND*%
X182708500Y-93498500D03*
%TD*%
D18*
%TO.P,U2,1*%
%TO.N,Net-(J3-Pin_1)*%
X155403499Y-65431499D03*
D19*
%TO.P,U2,2*%
%TO.N,Net-(J3-Pin_2)*%
X165563500Y-65431500D03*
%TO.P,U2,3*%
%TO.N,Net-(R6-Pad1)*%
X177755500Y-65431500D03*
%TO.P,U2,4*%
%TO.N,GND*%
X182835500Y-65431500D03*
%TD*%
D11*
%TO.P,J5,1,Pin_1*%
%TO.N,Net-(J5-Pin_1)*%
X138898500Y-103826000D03*
D12*
%TO.P,J5,2,Pin_2*%
%TO.N,Net-(J5-Pin_2)*%
X138898499Y-96325999D03*
%TD*%
D11*
%TO.P,J6,1,Pin_1*%
%TO.N,Net-(J6-Pin_1)*%
X139192000Y-86614000D03*
D12*
%TO.P,J6,2,Pin_2*%
%TO.N,Net-(J6-Pin_2)*%
X139191999Y-79113999D03*
%TD*%
D18*
%TO.P,U3,1*%
%TO.N,Net-(J4-Pin_1)*%
X155276499Y-107722499D03*
D19*
%TO.P,U3,2*%
%TO.N,Net-(J4-Pin_2)*%
X165436500Y-107722500D03*
%TO.P,U3,3*%
%TO.N,Net-(R7-Pad2)*%
X177628500Y-107722500D03*
%TO.P,U3,4*%
%TO.N,GND*%
X182708500Y-107722500D03*
%TD*%
D23*
%TO.P,C3,1*%
%TO.N,GND*%
X208280000Y-95328000D03*
%TO.P,C3,2*%
%TO.N,Net-(U1-V_USB)*%
X208280000Y-92378000D03*
%TD*%
D24*
%TO.P,U1,1,VDD*%
%TO.N,+5V*%
X196652000Y-89429400D03*
%TO.P,U1,2,OSC1*%
%TO.N,Net-(U1-OSC1)*%
X196652000Y-90079400D03*
%TO.P,U1,3,OSC2*%
%TO.N,Net-(U1-OSC2)*%
X196652000Y-90729400D03*
%TO.P,U1,4,RST*%
%TO.N,Net-(U1-RST)*%
X196652000Y-91379400D03*
%TO.P,U1,5,GP7/TxLED*%
%TO.N,Net-(J2-Pin_4)*%
X196652000Y-92029400D03*
%TO.P,U1,6,GP6/RxLED*%
%TO.N,Net-(J2-Pin_5)*%
X196652000Y-92679400D03*
%TO.P,U1,7,GP5*%
%TO.N,Net-(U1-GP5)*%
X196652000Y-93329400D03*
%TO.P,U1,8,GP4*%
%TO.N,Net-(U1-GP4)*%
X196652000Y-93979400D03*
%TO.P,U1,9,GP3*%
%TO.N,Net-(U1-GP3)*%
X196652000Y-94629400D03*
%TO.P,U1,10,TX*%
%TO.N,Net-(J2-Pin_3)*%
X196652000Y-95279400D03*
%TO.P,U1,11,RTS*%
%TO.N,unconnected-(U1-RTS)*%
X203652000Y-95279400D03*
%TO.P,U1,12,RX*%
%TO.N,Net-(J2-Pin_2)*%
X203652000Y-94629400D03*
%TO.P,U1,13,CTS*%
%TO.N,unconnected-(U1-CTS)*%
X203652000Y-93979400D03*
%TO.P,U1,14,GP2*%
%TO.N,Net-(U1-GP2)*%
X203652000Y-93329400D03*
%TO.P,U1,15,GP1/USB-CFG*%
%TO.N,Net-(J2-Pin_6)*%
X203652000Y-92679400D03*
%TO.P,U1,16,GP0/SSPND*%
%TO.N,Net-(J2-Pin_7)*%
X203652000Y-92029400D03*
%TO.P,U1,17,V_USB*%
%TO.N,Net-(U1-V_USB)*%
X203652000Y-91379400D03*
%TO.P,U1,18,D-*%
%TO.N,Net-(J7-D-)*%
X203652000Y-90729400D03*
%TO.P,U1,19,D+*%
%TO.N,Net-(J7-D+)*%
X203652000Y-90079400D03*
%TO.P,U1,20,VSS*%
%TO.N,GND*%
X203652000Y-89429400D03*
%TD*%
D25*
%TO.P,J2,1,Pin_1*%
%TO.N,+5V*%
X175102999Y-120776999D03*
D26*
%TO.P,J2,2,Pin_2*%
%TO.N,Net-(J2-Pin_2)*%
X178603000Y-120777000D03*
%TO.P,J2,3,Pin_3*%
%TO.N,Net-(J2-Pin_3)*%
X182103000Y-120777000D03*
%TO.P,J2,4,Pin_4*%
%TO.N,Net-(J2-Pin_4)*%
X185603000Y-120777000D03*
%TO.P,J2,5,Pin_5*%
%TO.N,Net-(J2-Pin_5)*%
X189103000Y-120777000D03*
%TO.P,J2,6,Pin_6*%
%TO.N,Net-(J2-Pin_6)*%
X192603000Y-120777000D03*
%TO.P,J2,7,Pin_7*%
%TO.N,Net-(J2-Pin_7)*%
X196103000Y-120777000D03*
%TO.P,J2,8,Pin_8*%
%TO.N,GND*%
X199603000Y-120777000D03*
%TD*%
D16*
%TO.P,R9,1*%
%TO.N,Net-(R9-Pad1)*%
X191469000Y-94361000D03*
%TO.P,R9,2*%
%TO.N,Net-(U1-GP5)*%
X193294000Y-94361000D03*
%TD*%
D27*
%TO.P,R7,1*%
%TO.N,Net-(U1-GP3)*%
X193294000Y-98425000D03*
%TO.P,R7,2*%
%TO.N,Net-(R7-Pad2)*%
X191469000Y-98425000D03*
%TD*%
D17*
%TO.P,R3,1*%
%TO.N,Net-(J2-Pin_7)*%
X201041000Y-101322500D03*
%TO.P,R3,2*%
%TO.N,Net-(D4-K)*%
X201041000Y-103147500D03*
%TD*%
D21*
%TO.P,D1,1,K*%
%TO.N,Net-(D1-K)*%
X198120000Y-105788000D03*
%TO.P,D1,2,A*%
%TO.N,+5V*%
X198120000Y-108588000D03*
%TD*%
D17*
%TO.P,R5,1*%
%TO.N,Net-(J2-Pin_5)*%
X194818000Y-101322500D03*
%TO.P,R5,2*%
%TO.N,Net-(D2-K)*%
X194818000Y-103147500D03*
%TD*%
D28*
%TO.P,Y1,1,1*%
%TO.N,Net-(U1-OSC2)*%
X203262400Y-84886800D03*
%TO.P,Y1,2,2*%
%TO.N,Net-(U1-OSC1)*%
X198362400Y-84886800D03*
%TD*%
D11*
%TO.P,J3,1,Pin_1*%
%TO.N,Net-(J3-Pin_1)*%
X139025500Y-69155000D03*
D12*
%TO.P,J3,2,Pin_2*%
%TO.N,Net-(J3-Pin_2)*%
X139025499Y-61654999D03*
%TD*%
D29*
%TO.N,+5V*%
X196697600Y-88442800D03*
X194411600Y-88036400D03*
X208280000Y-101600000D03*
X192913000Y-108585000D03*
%TO.N,Net-(J2-Pin_4)*%
X198247000Y-99568000D03*
%TO.N,Net-(J2-Pin_7)*%
X201041000Y-99822000D03*
D30*
%TO.N,Net-(J3-Pin_1)*%
X147421600Y-69138800D03*
X153263600Y-69138800D03*
X142849600Y-69088000D03*
%TO.N,Net-(J3-Pin_2)*%
X142900400Y-61620400D03*
X160883600Y-59944000D03*
X165506400Y-62941200D03*
X147421600Y-61722000D03*
X157175200Y-59994800D03*
X153365200Y-60045600D03*
%TO.N,Net-(J4-Pin_1)*%
X153924000Y-116941600D03*
X146659600Y-118211600D03*
X155346400Y-112217200D03*
X150723600Y-118313200D03*
X142951200Y-118262400D03*
%TO.N,Net-(J4-Pin_2)*%
X158140400Y-103784400D03*
X148488400Y-105664000D03*
X163525200Y-103632000D03*
X143002000Y-113690400D03*
X146608800Y-109778800D03*
X153263600Y-103733600D03*
%TO.N,Net-(J5-Pin_1)*%
X142900400Y-103733600D03*
X145389600Y-101396800D03*
X151942800Y-94894400D03*
X148386800Y-98348800D03*
%TO.N,Net-(J5-Pin_2)*%
X142951200Y-96266000D03*
X149148800Y-91440000D03*
X153416000Y-89611200D03*
X145846800Y-94945200D03*
X162509200Y-89611200D03*
X158038800Y-89560400D03*
%TO.N,Net-(J6-Pin_1)*%
X143205200Y-86512400D03*
X152095200Y-80772000D03*
X148132800Y-84734400D03*
%TO.N,Net-(J6-Pin_2)*%
X148234400Y-77571600D03*
X162712400Y-76047600D03*
X151790400Y-75946000D03*
X143205200Y-79095600D03*
X157073600Y-76047600D03*
D29*
%TO.N,Net-(U1-GP2)*%
X194360800Y-92354400D03*
X205333600Y-93370400D03*
%TO.N,Net-(J7-D+)*%
X206349600Y-90004900D03*
%TD*%
D31*
%TO.N,Net-(U1-OSC2)*%
X200557800Y-90729400D02*
X196652000Y-90729400D01*
X201879200Y-84886800D02*
X201320400Y-85445600D01*
X203262400Y-84886800D02*
X201879200Y-84886800D01*
X201320400Y-89966800D02*
X200557800Y-90729400D01*
X201320400Y-85445600D02*
X201320400Y-89966800D01*
X208229200Y-84444800D02*
X207787200Y-84886800D01*
X207787200Y-84886800D02*
X203262400Y-84886800D01*
%TO.N,Net-(U1-OSC1)*%
X199745600Y-89560400D02*
X199226600Y-90079400D01*
X199136000Y-84886800D02*
X199745600Y-85496400D01*
X198667800Y-90079400D02*
X196652000Y-90079400D01*
X193314400Y-84886800D02*
X198362400Y-84886800D01*
X199226600Y-90079400D02*
X196652000Y-90079400D01*
X199745600Y-85496400D02*
X199745600Y-89560400D01*
X198362400Y-84886800D02*
X199136000Y-84886800D01*
X192887600Y-84460000D02*
X193314400Y-84886800D01*
%TO.N,Net-(U1-V_USB)*%
X208280000Y-92378000D02*
X207643200Y-92378000D01*
X207643200Y-92378000D02*
X206644600Y-91379400D01*
X206644600Y-91379400D02*
X203652000Y-91379400D01*
%TO.N,+5V*%
X194411600Y-88036400D02*
X192938400Y-88036400D01*
X196697600Y-88442800D02*
X196697600Y-89383800D01*
X192938400Y-88036400D02*
X192913000Y-88011000D01*
X192916000Y-108588000D02*
X192913000Y-108585000D01*
X194818000Y-108588000D02*
X192916000Y-108588000D01*
X204216000Y-108585000D02*
X194821000Y-108585000D01*
X194821000Y-108585000D02*
X194818000Y-108588000D01*
X208280000Y-100330000D02*
X208280000Y-101600000D01*
X196697600Y-89383800D02*
X196652000Y-89429400D01*
%TO.N,Net-(D1-K)*%
X198120000Y-103147500D02*
X198120000Y-105788000D01*
%TO.N,Net-(D2-K)*%
X194818000Y-103147500D02*
X194818000Y-105788000D01*
%TO.N,Net-(D3-K)*%
X204216000Y-103147500D02*
X204216000Y-105785000D01*
%TO.N,Net-(D4-K)*%
X201041000Y-103147500D02*
X201041000Y-105785000D01*
%TO.N,Net-(J2-Pin_2)*%
X207055000Y-122256000D02*
X207055000Y-101264000D01*
X205779800Y-94629400D02*
X206629000Y-95478600D01*
X178603000Y-120777000D02*
X178603000Y-122469000D01*
X203652000Y-94629400D02*
X205779800Y-94629400D01*
X205994000Y-123317000D02*
X207055000Y-122256000D01*
X179451000Y-123317000D02*
X205994000Y-123317000D01*
X207055000Y-101264000D02*
X206629000Y-100838000D01*
X206629000Y-100838000D02*
X206629000Y-97282000D01*
X178603000Y-122469000D02*
X179451000Y-123317000D01*
X206629000Y-95478600D02*
X206629000Y-97282000D01*
%TO.N,Net-(J2-Pin_3)*%
X187960000Y-100457000D02*
X185801000Y-102616000D01*
X182103000Y-117998000D02*
X182103000Y-120777000D01*
X185801000Y-102616000D02*
X185801000Y-114300000D01*
X193392000Y-100457000D02*
X187960000Y-100457000D01*
X185801000Y-114300000D02*
X182103000Y-117998000D01*
X196652000Y-95279400D02*
X196652000Y-97197000D01*
X196652000Y-97197000D02*
X193392000Y-100457000D01*
%TO.N,Net-(J2-Pin_4)*%
X198247000Y-101195500D02*
X198120000Y-101322500D01*
X198247000Y-99237800D02*
X198882000Y-98602800D01*
X198506200Y-92029400D02*
X196652000Y-92029400D01*
X198882000Y-92405200D02*
X198506200Y-92029400D01*
X198247000Y-99568000D02*
X198247000Y-101195500D01*
X198882000Y-98602800D02*
X198882000Y-92405200D01*
X198247000Y-99568000D02*
X198247000Y-99237800D01*
%TO.N,Net-(J2-Pin_5)*%
X194818000Y-101322500D02*
X191158500Y-101322500D01*
X197733800Y-92679400D02*
X198018400Y-92964000D01*
X198018400Y-98018600D02*
X194818000Y-101219000D01*
X194818000Y-101219000D02*
X194818000Y-101322500D01*
X196652000Y-92679400D02*
X197733800Y-92679400D01*
X189103000Y-103378000D02*
X189103000Y-120777000D01*
X191158500Y-101322500D02*
X189103000Y-103378000D01*
X198018400Y-92964000D02*
X198018400Y-98018600D01*
X194714500Y-101219000D02*
X194818000Y-101322500D01*
%TO.N,Net-(J2-Pin_6)*%
X204216000Y-100203000D02*
X204216000Y-101322500D01*
X204319500Y-101219000D02*
X205486000Y-101219000D01*
X204978000Y-110871000D02*
X194056000Y-110871000D01*
X205867000Y-109982000D02*
X204978000Y-110871000D01*
X205867000Y-101600000D02*
X205867000Y-109982000D01*
X202133200Y-98120200D02*
X204216000Y-100203000D01*
X202133200Y-93116400D02*
X202133200Y-98120200D01*
X204216000Y-101322500D02*
X204319500Y-101219000D01*
X203652000Y-92679400D02*
X202570200Y-92679400D01*
X202570200Y-92679400D02*
X202133200Y-93116400D01*
X194056000Y-110871000D02*
X192603000Y-112324000D01*
X192603000Y-112324000D02*
X192603000Y-120777000D01*
X205486000Y-101219000D02*
X205867000Y-101600000D01*
%TO.N,Net-(J2-Pin_7)*%
X203652000Y-92029400D02*
X202102600Y-92029400D01*
X201041000Y-99822000D02*
X201041000Y-101322500D01*
X201752200Y-92379800D02*
X201041000Y-93091000D01*
X202102600Y-92029400D02*
X201752200Y-92379800D01*
X201041000Y-93091000D02*
X201041000Y-99822000D01*
D32*
%TO.N,Net-(J3-Pin_1)*%
X139025500Y-69155000D02*
X154365000Y-69155000D01*
X154365000Y-69155000D02*
X155448000Y-68072000D01*
X155403500Y-68027500D02*
X155403500Y-65431500D01*
%TO.N,Net-(J3-Pin_2)*%
X142865800Y-61655000D02*
X142900400Y-61620400D01*
X165506400Y-61925200D02*
X163576000Y-59994800D01*
X163576000Y-59994800D02*
X153416000Y-59994800D01*
X150723600Y-60045600D02*
X153365200Y-60045600D01*
X165563500Y-65431500D02*
X165563500Y-62998300D01*
X139025500Y-61655000D02*
X142865800Y-61655000D01*
X165563500Y-62998300D02*
X165506400Y-62941200D01*
X142900400Y-61620400D02*
X149148800Y-61620400D01*
X153416000Y-59994800D02*
X153365200Y-60045600D01*
X149148800Y-61620400D02*
X150723600Y-60045600D01*
X165506400Y-62941200D02*
X165506400Y-61925200D01*
%TO.N,Net-(J4-Pin_1)*%
X153924000Y-117043200D02*
X152704800Y-118262400D01*
X153924000Y-116941600D02*
X153924000Y-117043200D01*
X155276500Y-112147300D02*
X155346400Y-112217200D01*
X138972600Y-121225000D02*
X141935200Y-118262400D01*
X155346400Y-112217200D02*
X155346400Y-115519200D01*
X155276500Y-107722500D02*
X155276500Y-112147300D01*
X141935200Y-118262400D02*
X142951200Y-118262400D01*
X155346400Y-115519200D02*
X153924000Y-116941600D01*
X152704800Y-118262400D02*
X142951200Y-118262400D01*
X138898500Y-121225000D02*
X138972600Y-121225000D01*
%TO.N,Net-(J4-Pin_2)*%
X146608800Y-111607600D02*
X146608800Y-109778800D01*
X143002000Y-113690400D02*
X144526000Y-113690400D01*
X138898500Y-113725000D02*
X142967400Y-113725000D01*
X165436500Y-104578100D02*
X165436500Y-107722500D01*
X146608800Y-109778800D02*
X146608800Y-107492800D01*
X144526000Y-113690400D02*
X146608800Y-111607600D01*
X164642800Y-103784400D02*
X165436500Y-104578100D01*
X146608800Y-107492800D02*
X150317200Y-103784400D01*
X142967400Y-113725000D02*
X143002000Y-113690400D01*
X150317200Y-103784400D02*
X164642800Y-103784400D01*
%TO.N,Net-(J5-Pin_1)*%
X153466800Y-93319600D02*
X155097600Y-93319600D01*
X155276500Y-93498500D02*
X153338700Y-93498500D01*
X143002000Y-103733600D02*
X143052800Y-103733600D01*
X142909600Y-103826000D02*
X143002000Y-103733600D01*
X146050000Y-100736400D02*
X153466800Y-93319600D01*
X143052800Y-103733600D02*
X146050000Y-100736400D01*
X153338700Y-93498500D02*
X151536400Y-95300800D01*
X138898500Y-103826000D02*
X142909600Y-103826000D01*
X155097600Y-93319600D02*
X155276500Y-93498500D01*
%TO.N,Net-(J5-Pin_2)*%
X138898500Y-96326000D02*
X142891200Y-96326000D01*
X144322800Y-96266000D02*
X149148800Y-91440000D01*
X142891200Y-96326000D02*
X142951200Y-96266000D01*
X150977600Y-89611200D02*
X162509200Y-89611200D01*
X163931600Y-89611200D02*
X165436500Y-91116100D01*
X142951200Y-96266000D02*
X144322800Y-96266000D01*
X162509200Y-89611200D02*
X163931600Y-89611200D01*
X149148800Y-91440000D02*
X150977600Y-89611200D01*
X165436500Y-91116100D02*
X165436500Y-93498500D01*
%TO.N,Net-(J6-Pin_1)*%
X153416000Y-79451200D02*
X155326200Y-79451200D01*
X142798800Y-86563200D02*
X146304000Y-86563200D01*
X155326200Y-79451200D02*
X155403500Y-79528500D01*
X146304000Y-86563200D02*
X152095200Y-80772000D01*
D31*
X155403500Y-79528500D02*
X155403500Y-79546500D01*
D32*
X139192000Y-86614000D02*
X142748000Y-86614000D01*
X152095200Y-80772000D02*
X153416000Y-79451200D01*
X142748000Y-86614000D02*
X142798800Y-86563200D01*
%TO.N,Net-(J6-Pin_2)*%
X165563500Y-77374700D02*
X164236400Y-76047600D01*
X149758400Y-76047600D02*
X162712400Y-76047600D01*
X139192000Y-79114000D02*
X146692000Y-79114000D01*
X165563500Y-79528500D02*
X165563500Y-77374700D01*
X164236400Y-76047600D02*
X162712400Y-76047600D01*
X146692000Y-79114000D02*
X148234400Y-77571600D01*
X148234400Y-77571600D02*
X149758400Y-76047600D01*
D31*
%TO.N,Net-(U1-RST)*%
X196652000Y-91379400D02*
X195392400Y-91379400D01*
X193849000Y-89836000D02*
X192913000Y-89836000D01*
X195392400Y-91379400D02*
X193849000Y-89836000D01*
%TO.N,Net-(U1-GP5)*%
X193294000Y-94361000D02*
X194325600Y-93329400D01*
X194325600Y-93329400D02*
X196652000Y-93329400D01*
%TO.N,Net-(U1-GP4)*%
X194134000Y-94613200D02*
X194134000Y-95553000D01*
X196652000Y-93979400D02*
X194767800Y-93979400D01*
X194134000Y-95553000D02*
X193294000Y-96393000D01*
X194767800Y-93979400D02*
X194134000Y-94613200D01*
%TO.N,Net-(J7-D-)*%
X209341100Y-90429400D02*
X209346800Y-90435100D01*
X203652000Y-90729400D02*
X207241100Y-90729400D01*
X209346800Y-90435100D02*
X209346800Y-90830400D01*
X210901600Y-92385200D02*
X211296900Y-92385200D01*
X209341100Y-90029400D02*
X209341100Y-90429400D01*
X209346800Y-90830400D02*
X210901600Y-92385200D01*
X207541100Y-90429400D02*
X207541100Y-90029400D01*
X208141100Y-90029400D02*
X208141100Y-91129400D01*
X208741100Y-91129400D02*
X208741100Y-90029400D01*
X207841100Y-89729400D02*
G75*
G03*
X207541100Y-90029400I0J-300000D01*
G01*
X208141100Y-90029400D02*
G75*
G03*
X207841100Y-89729400I-300000J0D01*
G01*
X209341100Y-90029400D02*
G75*
G03*
X209041100Y-89729400I-300000J0D01*
G01*
X207241100Y-90729400D02*
G75*
G03*
X207541100Y-90429400I0J300000D01*
G01*
X208441100Y-91429400D02*
G75*
G03*
X208741100Y-91129400I0J300000D01*
G01*
X209041100Y-89729400D02*
G75*
G03*
X208741100Y-90029400I0J-300000D01*
G01*
X208141100Y-91129400D02*
G75*
G03*
X208441100Y-91429400I300000J0D01*
G01*
%TO.N,Net-(U1-GP2)*%
X205333600Y-93370400D02*
X203693000Y-93370400D01*
X194360800Y-92354400D02*
X193319400Y-92354400D01*
X193319400Y-92354400D02*
X193294000Y-92329000D01*
X203693000Y-93370400D02*
X203652000Y-93329400D01*
X205333600Y-93370400D02*
X205273000Y-93329400D01*
%TO.N,Net-(J7-D+)*%
X206275100Y-90079400D02*
X206349600Y-90004900D01*
X203652000Y-90079400D02*
X206275100Y-90079400D01*
%TO.N,Net-(R7-Pad2)*%
X191469000Y-98425000D02*
X178816000Y-98425000D01*
X177628500Y-99612500D02*
X177628500Y-107722500D01*
X178816000Y-98425000D02*
X177628500Y-99612500D01*
%TO.N,Net-(R8-Pad1)*%
X177628500Y-93498500D02*
X177628500Y-94951500D01*
X177628500Y-94951500D02*
X179070000Y-96393000D01*
X179070000Y-96393000D02*
X191469000Y-96393000D01*
%TO.N,Net-(R9-Pad1)*%
X184785000Y-82550000D02*
X185420000Y-83185000D01*
X185420000Y-92202000D02*
X187579000Y-94361000D01*
X178689000Y-82550000D02*
X184785000Y-82550000D01*
X177755500Y-79528500D02*
X177755500Y-81616500D01*
X177755500Y-81616500D02*
X178689000Y-82550000D01*
X187579000Y-94361000D02*
X191469000Y-94361000D01*
X185420000Y-83185000D02*
X185420000Y-92202000D01*
%TO.N,Net-(R6-Pad1)*%
X186817000Y-90805000D02*
X188341000Y-92329000D01*
X179070000Y-74803000D02*
X185801000Y-74803000D01*
X188341000Y-92329000D02*
X191469000Y-92329000D01*
X177755500Y-73488500D02*
X179070000Y-74803000D01*
X177755500Y-65431500D02*
X177755500Y-73488500D01*
X186817000Y-75819000D02*
X186817000Y-90805000D01*
X185801000Y-74803000D02*
X186817000Y-75819000D01*
%TO.N,Net-(U1-GP3)*%
X195715604Y-94629400D02*
X195704604Y-94640400D01*
X195173600Y-94640400D02*
X194754500Y-95059500D01*
X195704604Y-94640400D02*
X195173600Y-94640400D01*
X194754500Y-96964500D02*
X193294000Y-98425000D01*
X196652000Y-94629400D02*
X195715604Y-94629400D01*
X194754500Y-95059500D02*
X194754500Y-96964500D01*
%TD*%
%TA.AperFunction,Conductor*%
%TO.N,GND*%
G36*
X218822358Y-53238127D02*
G01*
X218885217Y-53255085D01*
X218931220Y-53301157D01*
X218948084Y-53364042D01*
X218998300Y-127632100D01*
X218998300Y-128245462D01*
X218981396Y-128308501D01*
X218935221Y-128354627D01*
X218872164Y-128371462D01*
X172210991Y-128320936D01*
X172148011Y-128303988D01*
X172101943Y-128257823D01*
X172085127Y-128194810D01*
X172088346Y-125018800D01*
X213380151Y-125018800D01*
X213380539Y-125023730D01*
X213399528Y-125265014D01*
X213399529Y-125265022D01*
X213399917Y-125269948D01*
X213401071Y-125274756D01*
X213401072Y-125274760D01*
X213457571Y-125510098D01*
X213457572Y-125510103D01*
X213458727Y-125514911D01*
X213555134Y-125747659D01*
X213686764Y-125962459D01*
X213850376Y-126154024D01*
X214041941Y-126317636D01*
X214256741Y-126449266D01*
X214489489Y-126545673D01*
X214734452Y-126604483D01*
X214922718Y-126619300D01*
X215046013Y-126619300D01*
X215048482Y-126619300D01*
X215236748Y-126604483D01*
X215481711Y-126545673D01*
X215714459Y-126449266D01*
X215929259Y-126317636D01*
X216120824Y-126154024D01*
X216284436Y-125962459D01*
X216416066Y-125747659D01*
X216512473Y-125514911D01*
X216571283Y-125269948D01*
X216591049Y-125018800D01*
X216571283Y-124767652D01*
X216512473Y-124522689D01*
X216416066Y-124289941D01*
X216284436Y-124075141D01*
X216120824Y-123883576D01*
X215929259Y-123719964D01*
X215793076Y-123636511D01*
X215718679Y-123590920D01*
X215718678Y-123590919D01*
X215714459Y-123588334D01*
X215670665Y-123570194D01*
X215486284Y-123493821D01*
X215486281Y-123493820D01*
X215481711Y-123491927D01*
X215476903Y-123490772D01*
X215476898Y-123490771D01*
X215241560Y-123434272D01*
X215241556Y-123434271D01*
X215236748Y-123433117D01*
X215231822Y-123432729D01*
X215231814Y-123432728D01*
X215050938Y-123418493D01*
X215050930Y-123418492D01*
X215048482Y-123418300D01*
X214922718Y-123418300D01*
X214920270Y-123418492D01*
X214920261Y-123418493D01*
X214739385Y-123432728D01*
X214739375Y-123432729D01*
X214734452Y-123433117D01*
X214729645Y-123434271D01*
X214729639Y-123434272D01*
X214494301Y-123490771D01*
X214494292Y-123490773D01*
X214489489Y-123491927D01*
X214484921Y-123493818D01*
X214484915Y-123493821D01*
X214261315Y-123586439D01*
X214261310Y-123586441D01*
X214256741Y-123588334D01*
X214252526Y-123590916D01*
X214252520Y-123590920D01*
X214046158Y-123717379D01*
X214046150Y-123717384D01*
X214041941Y-123719964D01*
X214038180Y-123723175D01*
X214038176Y-123723179D01*
X213854138Y-123880362D01*
X213854131Y-123880368D01*
X213850376Y-123883576D01*
X213847168Y-123887331D01*
X213847162Y-123887338D01*
X213689979Y-124071376D01*
X213689975Y-124071380D01*
X213686764Y-124075141D01*
X213684184Y-124079350D01*
X213684179Y-124079358D01*
X213557720Y-124285720D01*
X213557716Y-124285726D01*
X213555134Y-124289941D01*
X213553241Y-124294510D01*
X213553239Y-124294515D01*
X213460621Y-124518115D01*
X213460618Y-124518121D01*
X213458727Y-124522689D01*
X213457573Y-124527492D01*
X213457571Y-124527501D01*
X213401072Y-124762839D01*
X213399917Y-124767652D01*
X213399529Y-124772575D01*
X213399528Y-124772585D01*
X213380539Y-125013870D01*
X213380151Y-125018800D01*
X172088346Y-125018800D01*
X172091409Y-121996748D01*
X173702500Y-121996748D01*
X173714133Y-122055231D01*
X173758448Y-122121552D01*
X173824769Y-122165867D01*
X173883252Y-122177500D01*
X176316561Y-122177500D01*
X176322748Y-122177500D01*
X176381231Y-122165867D01*
X176447552Y-122121552D01*
X176491867Y-122055231D01*
X176503500Y-121996748D01*
X176503500Y-120777000D01*
X177197700Y-120777000D01*
X177216866Y-121008305D01*
X177273843Y-121233300D01*
X177275935Y-121238069D01*
X177275936Y-121238072D01*
X177297067Y-121286246D01*
X177367076Y-121445849D01*
X177494021Y-121640153D01*
X177651216Y-121810913D01*
X177834374Y-121953470D01*
X178038497Y-122063936D01*
X178043426Y-122065628D01*
X178043428Y-122065629D01*
X178192412Y-122116775D01*
X178236837Y-122143247D01*
X178266887Y-122185334D01*
X178277500Y-122235948D01*
X178277500Y-122449290D01*
X178277020Y-122460272D01*
X178274857Y-122485000D01*
X178273736Y-122497807D01*
X178276588Y-122508454D01*
X178276589Y-122508456D01*
X178283492Y-122534218D01*
X178285870Y-122544946D01*
X178290497Y-122571189D01*
X178290498Y-122571192D01*
X178292412Y-122582045D01*
X178297920Y-122591585D01*
X178299113Y-122594863D01*
X178300592Y-122598036D01*
X178303446Y-122608684D01*
X178309769Y-122617715D01*
X178309771Y-122617718D01*
X178325056Y-122639548D01*
X178330961Y-122648816D01*
X178349806Y-122681455D01*
X178358247Y-122688538D01*
X178358249Y-122688540D01*
X178378681Y-122705684D01*
X178386785Y-122713111D01*
X179206889Y-123533215D01*
X179214315Y-123541318D01*
X179238545Y-123570194D01*
X179271186Y-123589039D01*
X179280443Y-123594936D01*
X179311316Y-123616554D01*
X179321970Y-123619408D01*
X179325129Y-123620881D01*
X179328402Y-123622072D01*
X179337955Y-123627588D01*
X179375065Y-123634131D01*
X179385799Y-123636511D01*
X179422193Y-123646263D01*
X179458776Y-123643062D01*
X179459731Y-123642979D01*
X179470712Y-123642500D01*
X205974290Y-123642500D01*
X205985272Y-123642980D01*
X206022807Y-123646264D01*
X206059217Y-123636507D01*
X206069937Y-123634130D01*
X206107045Y-123627588D01*
X206116599Y-123622070D01*
X206119882Y-123620876D01*
X206123030Y-123619408D01*
X206133684Y-123616554D01*
X206164558Y-123594934D01*
X206173808Y-123589042D01*
X206206455Y-123570194D01*
X206230685Y-123541315D01*
X206238102Y-123533222D01*
X207271229Y-122500095D01*
X207279299Y-122492699D01*
X207308194Y-122468455D01*
X207327042Y-122435808D01*
X207332934Y-122426558D01*
X207354554Y-122395684D01*
X207357408Y-122385030D01*
X207358876Y-122381882D01*
X207360070Y-122378599D01*
X207365588Y-122369045D01*
X207372130Y-122331937D01*
X207374507Y-122321217D01*
X207384264Y-122284807D01*
X207380979Y-122247257D01*
X207380500Y-122236276D01*
X207380500Y-101283710D01*
X207380980Y-101272728D01*
X207383303Y-101246175D01*
X207384264Y-101235193D01*
X207382759Y-101229576D01*
X207390743Y-101175599D01*
X207424484Y-101127850D01*
X207476145Y-101100470D01*
X207534603Y-101099357D01*
X207538059Y-101100112D01*
X207545301Y-101102646D01*
X207575734Y-101105500D01*
X207649124Y-101105500D01*
X207712123Y-101122380D01*
X207758242Y-101168499D01*
X207775124Y-101231498D01*
X207758641Y-101293018D01*
X207755464Y-101297159D01*
X207752305Y-101304784D01*
X207752304Y-101304787D01*
X207711707Y-101402798D01*
X207694956Y-101443238D01*
X207693879Y-101451418D01*
X207693877Y-101451426D01*
X207680362Y-101554091D01*
X207674318Y-101600000D01*
X207675396Y-101608188D01*
X207693877Y-101748573D01*
X207693878Y-101748579D01*
X207694956Y-101756762D01*
X207698115Y-101764390D01*
X207698116Y-101764391D01*
X207752303Y-101895211D01*
X207752304Y-101895214D01*
X207755464Y-101902841D01*
X207851718Y-102028282D01*
X207977159Y-102124536D01*
X208123238Y-102185044D01*
X208280000Y-102205682D01*
X208436762Y-102185044D01*
X208582841Y-102124536D01*
X208708282Y-102028282D01*
X208804536Y-101902841D01*
X208865044Y-101756762D01*
X208885682Y-101600000D01*
X208865044Y-101443238D01*
X208804536Y-101297159D01*
X208801358Y-101293018D01*
X208784876Y-101231498D01*
X208801758Y-101168499D01*
X208847877Y-101122380D01*
X208910876Y-101105500D01*
X208981313Y-101105500D01*
X208984266Y-101105500D01*
X209014699Y-101102646D01*
X209142882Y-101057793D01*
X209252150Y-100977150D01*
X209332793Y-100867882D01*
X209377646Y-100739699D01*
X209380500Y-100709266D01*
X209380500Y-99950734D01*
X209377646Y-99920301D01*
X209332793Y-99792118D01*
X209252150Y-99682850D01*
X209239381Y-99673426D01*
X209150480Y-99607814D01*
X209150477Y-99607812D01*
X209142882Y-99602207D01*
X209014699Y-99557354D01*
X209007067Y-99556638D01*
X209007066Y-99556638D01*
X208987201Y-99554775D01*
X208987195Y-99554774D01*
X208984266Y-99554500D01*
X207575734Y-99554500D01*
X207572805Y-99554774D01*
X207572798Y-99554775D01*
X207552933Y-99556638D01*
X207552930Y-99556638D01*
X207545301Y-99557354D01*
X207538063Y-99559886D01*
X207538061Y-99559887D01*
X207438643Y-99594675D01*
X207417118Y-99602207D01*
X207409525Y-99607810D01*
X207409519Y-99607814D01*
X207315442Y-99677246D01*
X207315438Y-99677249D01*
X207307850Y-99682850D01*
X207302249Y-99690438D01*
X207302246Y-99690442D01*
X207232814Y-99784519D01*
X207232810Y-99784525D01*
X207227207Y-99792118D01*
X207224087Y-99801033D01*
X207224087Y-99801034D01*
X207199429Y-99871503D01*
X207159060Y-99928399D01*
X207094608Y-99955096D01*
X207025831Y-99943410D01*
X206973813Y-99896924D01*
X206954500Y-99829888D01*
X206954500Y-99081600D01*
X214573082Y-99081600D01*
X214580473Y-99089918D01*
X214807180Y-99254629D01*
X214813861Y-99258869D01*
X215083472Y-99407089D01*
X215090607Y-99410447D01*
X215376669Y-99523707D01*
X215384195Y-99526152D01*
X215682178Y-99602662D01*
X215689950Y-99604144D01*
X215995178Y-99642703D01*
X216003069Y-99643200D01*
X216310731Y-99643200D01*
X216318621Y-99642703D01*
X216623849Y-99604144D01*
X216631621Y-99602662D01*
X216929604Y-99526152D01*
X216937130Y-99523707D01*
X217223192Y-99410447D01*
X217230327Y-99407089D01*
X217499938Y-99258869D01*
X217506619Y-99254629D01*
X217733326Y-99089917D01*
X217740717Y-99081600D01*
X217734715Y-99072225D01*
X216168629Y-97506139D01*
X216156899Y-97499367D01*
X216145170Y-97506139D01*
X214579083Y-99072225D01*
X214573082Y-99081600D01*
X206954500Y-99081600D01*
X206954500Y-98402957D01*
X206973744Y-98336030D01*
X207025598Y-98289547D01*
X207094223Y-98277707D01*
X207158655Y-98304125D01*
X207162907Y-98307487D01*
X207301232Y-98392807D01*
X207314435Y-98398964D01*
X207469153Y-98450232D01*
X207482511Y-98453092D01*
X207576307Y-98462674D01*
X207582697Y-98463000D01*
X208009410Y-98463000D01*
X208022493Y-98459493D01*
X208026000Y-98446410D01*
X208534000Y-98446410D01*
X208537506Y-98459493D01*
X208550590Y-98463000D01*
X208977303Y-98463000D01*
X208983692Y-98462674D01*
X209077488Y-98453092D01*
X209090846Y-98450232D01*
X209245564Y-98398964D01*
X209258767Y-98392807D01*
X209397091Y-98307488D01*
X209408532Y-98298441D01*
X209523441Y-98183532D01*
X209532488Y-98172091D01*
X209617807Y-98033767D01*
X209623964Y-98020564D01*
X209675232Y-97865846D01*
X209678092Y-97852488D01*
X209687674Y-97758692D01*
X209688000Y-97752303D01*
X209688000Y-97650590D01*
X209684493Y-97637506D01*
X209671410Y-97634000D01*
X208550590Y-97634000D01*
X208537506Y-97637506D01*
X208534000Y-97650590D01*
X208534000Y-98446410D01*
X208026000Y-98446410D01*
X208026000Y-97139158D01*
X213644190Y-97139158D01*
X213663506Y-97446194D01*
X213664499Y-97454055D01*
X213722145Y-97756246D01*
X213724116Y-97763923D01*
X213819184Y-98056509D01*
X213822099Y-98063872D01*
X213953089Y-98342240D01*
X213956901Y-98349174D01*
X214121747Y-98608930D01*
X214126400Y-98615335D01*
X214201726Y-98706387D01*
X214213209Y-98714279D01*
X214225386Y-98707502D01*
X215785960Y-97146929D01*
X215792731Y-97135200D01*
X216521067Y-97135200D01*
X216527839Y-97146929D01*
X218088413Y-98707503D01*
X218100588Y-98714280D01*
X218112072Y-98706387D01*
X218187399Y-98615335D01*
X218192052Y-98608930D01*
X218356898Y-98349174D01*
X218360710Y-98342240D01*
X218491700Y-98063872D01*
X218494615Y-98056509D01*
X218589683Y-97763923D01*
X218591654Y-97756246D01*
X218649300Y-97454055D01*
X218650293Y-97446194D01*
X218669610Y-97139158D01*
X218669610Y-97131242D01*
X218650293Y-96824205D01*
X218649300Y-96816344D01*
X218591654Y-96514153D01*
X218589683Y-96506476D01*
X218494615Y-96213890D01*
X218491700Y-96206527D01*
X218360710Y-95928159D01*
X218356898Y-95921225D01*
X218192052Y-95661469D01*
X218187399Y-95655064D01*
X218112072Y-95564011D01*
X218100589Y-95556119D01*
X218088412Y-95562896D01*
X216527839Y-97123470D01*
X216521067Y-97135200D01*
X215792731Y-97135200D01*
X215792732Y-97135199D01*
X215785960Y-97123470D01*
X214225386Y-95562896D01*
X214213210Y-95556119D01*
X214201725Y-95564012D01*
X214126395Y-95655070D01*
X214121750Y-95661463D01*
X213956901Y-95921225D01*
X213953089Y-95928159D01*
X213822099Y-96206527D01*
X213819184Y-96213890D01*
X213724116Y-96506476D01*
X213722145Y-96514153D01*
X213664499Y-96816344D01*
X213663506Y-96824205D01*
X213644190Y-97131242D01*
X213644190Y-97139158D01*
X208026000Y-97139158D01*
X208026000Y-97109410D01*
X208534000Y-97109410D01*
X208537506Y-97122493D01*
X208550590Y-97126000D01*
X209671410Y-97126000D01*
X209684493Y-97122493D01*
X209688000Y-97109410D01*
X209688000Y-97007698D01*
X209687674Y-97001307D01*
X209678092Y-96907511D01*
X209675232Y-96894153D01*
X209623964Y-96739435D01*
X209617807Y-96726232D01*
X209532488Y-96587908D01*
X209523441Y-96576467D01*
X209408533Y-96461559D01*
X209397500Y-96452835D01*
X209362243Y-96408904D01*
X209349652Y-96354000D01*
X209362243Y-96299096D01*
X209397500Y-96255165D01*
X209408533Y-96246440D01*
X209523441Y-96131532D01*
X209532488Y-96120091D01*
X209617807Y-95981767D01*
X209623964Y-95968564D01*
X209675232Y-95813846D01*
X209678092Y-95800488D01*
X209687674Y-95706692D01*
X209688000Y-95700303D01*
X209688000Y-95598590D01*
X209684493Y-95585506D01*
X209671410Y-95582000D01*
X208550590Y-95582000D01*
X208537506Y-95585506D01*
X208534000Y-95598590D01*
X208534000Y-97109410D01*
X208026000Y-97109410D01*
X208026000Y-95188798D01*
X214573081Y-95188798D01*
X214579083Y-95198173D01*
X216145170Y-96764260D01*
X216156900Y-96771032D01*
X216168629Y-96764260D01*
X217734715Y-95198173D01*
X217740716Y-95188798D01*
X217733325Y-95180480D01*
X217506619Y-95015770D01*
X217499938Y-95011530D01*
X217230327Y-94863310D01*
X217223192Y-94859952D01*
X216937130Y-94746692D01*
X216929604Y-94744247D01*
X216631621Y-94667737D01*
X216623849Y-94666255D01*
X216318621Y-94627696D01*
X216310731Y-94627200D01*
X216003069Y-94627200D01*
X215995178Y-94627696D01*
X215689950Y-94666255D01*
X215682178Y-94667737D01*
X215384195Y-94744247D01*
X215376669Y-94746692D01*
X215090607Y-94859952D01*
X215083472Y-94863310D01*
X214813861Y-95011530D01*
X214807180Y-95015770D01*
X214580472Y-95180481D01*
X214573081Y-95188798D01*
X208026000Y-95188798D01*
X208026000Y-95057410D01*
X208534000Y-95057410D01*
X208537506Y-95070493D01*
X208550590Y-95074000D01*
X209671410Y-95074000D01*
X209684493Y-95070493D01*
X209688000Y-95057410D01*
X209688000Y-94955698D01*
X209687674Y-94949307D01*
X209678092Y-94855511D01*
X209675232Y-94842153D01*
X209623964Y-94687435D01*
X209617807Y-94674232D01*
X209532488Y-94535908D01*
X209523441Y-94524467D01*
X209408532Y-94409558D01*
X209397091Y-94400511D01*
X209258767Y-94315192D01*
X209245564Y-94309035D01*
X209090846Y-94257767D01*
X209077488Y-94254907D01*
X208983692Y-94245325D01*
X208977303Y-94245000D01*
X208550590Y-94245000D01*
X208537506Y-94248506D01*
X208534000Y-94261590D01*
X208534000Y-95057410D01*
X208026000Y-95057410D01*
X208026000Y-94261590D01*
X208022493Y-94248506D01*
X208009410Y-94245000D01*
X207582697Y-94245000D01*
X207576307Y-94245325D01*
X207482511Y-94254907D01*
X207469153Y-94257767D01*
X207314435Y-94309035D01*
X207301232Y-94315192D01*
X207162908Y-94400511D01*
X207151467Y-94409558D01*
X207036558Y-94524467D01*
X207027511Y-94535908D01*
X206942192Y-94674232D01*
X206936035Y-94687435D01*
X206884767Y-94842153D01*
X206881907Y-94855511D01*
X206872325Y-94949307D01*
X206872000Y-94955698D01*
X206872000Y-94957082D01*
X206871910Y-94957454D01*
X206871837Y-94958899D01*
X206871567Y-94958885D01*
X206858267Y-95014285D01*
X206820061Y-95059018D01*
X206765711Y-95081531D01*
X206707064Y-95076915D01*
X206656905Y-95046178D01*
X206023904Y-94413178D01*
X206016477Y-94405073D01*
X205999339Y-94384649D01*
X205992255Y-94376206D01*
X205982710Y-94370695D01*
X205982709Y-94370694D01*
X205959617Y-94357362D01*
X205950348Y-94351456D01*
X205928518Y-94336171D01*
X205928515Y-94336169D01*
X205919484Y-94329846D01*
X205908836Y-94326992D01*
X205905663Y-94325513D01*
X205902385Y-94324320D01*
X205892845Y-94318812D01*
X205881992Y-94316898D01*
X205881989Y-94316897D01*
X205855746Y-94312270D01*
X205845018Y-94309892D01*
X205819256Y-94302989D01*
X205819254Y-94302988D01*
X205808607Y-94300136D01*
X205797622Y-94301097D01*
X205771072Y-94303420D01*
X205760090Y-94303900D01*
X204924932Y-94303900D01*
X204857233Y-94284168D01*
X204810738Y-94231151D01*
X204800010Y-94161455D01*
X204800593Y-94157021D01*
X204802500Y-94142539D01*
X204802499Y-93975288D01*
X204821499Y-93908753D01*
X204872771Y-93862283D01*
X204940849Y-93849896D01*
X205005203Y-93875327D01*
X205024203Y-93889906D01*
X205024206Y-93889907D01*
X205030759Y-93894936D01*
X205176838Y-93955444D01*
X205333600Y-93976082D01*
X205490362Y-93955444D01*
X205636441Y-93894936D01*
X205761882Y-93798682D01*
X205858136Y-93673241D01*
X205918644Y-93527162D01*
X205939282Y-93370400D01*
X205923593Y-93251226D01*
X205919722Y-93221826D01*
X205919721Y-93221825D01*
X205918644Y-93213638D01*
X205858136Y-93067559D01*
X205761882Y-92942118D01*
X205737592Y-92923480D01*
X205642991Y-92850890D01*
X205636441Y-92845864D01*
X205628814Y-92842704D01*
X205628811Y-92842703D01*
X205497991Y-92788516D01*
X205497990Y-92788515D01*
X205490362Y-92785356D01*
X205482179Y-92784278D01*
X205482173Y-92784277D01*
X205341788Y-92765796D01*
X205333600Y-92764718D01*
X205325412Y-92765796D01*
X205185026Y-92784277D01*
X205185018Y-92784279D01*
X205176838Y-92785356D01*
X205169211Y-92788515D01*
X205169208Y-92788516D01*
X205038388Y-92842703D01*
X205038382Y-92842706D01*
X205030759Y-92845864D01*
X205024213Y-92850886D01*
X205024204Y-92850892D01*
X205005201Y-92865474D01*
X204940847Y-92890903D01*
X204872769Y-92878515D01*
X204821499Y-92832046D01*
X204802499Y-92765512D01*
X204802499Y-92516262D01*
X204796259Y-92468855D01*
X204767718Y-92407650D01*
X204755913Y-92354400D01*
X204767719Y-92301149D01*
X204771913Y-92292155D01*
X204796259Y-92239945D01*
X204802500Y-92192539D01*
X204802499Y-91866262D01*
X204800008Y-91847339D01*
X204810738Y-91777647D01*
X204857233Y-91724632D01*
X204924931Y-91704900D01*
X206457584Y-91704900D01*
X206505802Y-91714491D01*
X206546679Y-91741805D01*
X207142595Y-92337721D01*
X207169909Y-92378598D01*
X207179500Y-92426816D01*
X207179500Y-92757266D01*
X207179774Y-92760195D01*
X207179775Y-92760201D01*
X207181448Y-92778037D01*
X207182354Y-92787699D01*
X207227207Y-92915882D01*
X207232812Y-92923477D01*
X207232814Y-92923480D01*
X207300227Y-93014821D01*
X207307850Y-93025150D01*
X207335930Y-93045874D01*
X207400538Y-93093557D01*
X207417118Y-93105793D01*
X207545301Y-93150646D01*
X207575734Y-93153500D01*
X208981313Y-93153500D01*
X208984266Y-93153500D01*
X209014699Y-93150646D01*
X209142882Y-93105793D01*
X209252150Y-93025150D01*
X209332793Y-92915882D01*
X209377646Y-92787699D01*
X209380500Y-92757266D01*
X209380500Y-91998734D01*
X209377646Y-91968301D01*
X209332793Y-91840118D01*
X209325225Y-91829864D01*
X209257753Y-91738442D01*
X209252150Y-91730850D01*
X209233246Y-91716898D01*
X209150480Y-91655814D01*
X209150477Y-91655812D01*
X209142882Y-91650207D01*
X209088423Y-91631151D01*
X209054881Y-91619414D01*
X208997985Y-91579044D01*
X208971288Y-91514592D01*
X208982974Y-91445815D01*
X209035235Y-91337297D01*
X209051057Y-91267974D01*
X209082337Y-91209452D01*
X209139015Y-91174938D01*
X209205368Y-91174007D01*
X209262991Y-91206917D01*
X209764736Y-91708663D01*
X210262843Y-92206770D01*
X210292382Y-92253417D01*
X210299141Y-92308215D01*
X210291559Y-92385200D01*
X210292166Y-92391363D01*
X210310268Y-92575166D01*
X210310269Y-92575173D01*
X210310876Y-92581332D01*
X210312672Y-92587255D01*
X210312674Y-92587261D01*
X210366288Y-92764002D01*
X210366290Y-92764007D01*
X210368086Y-92769927D01*
X210371001Y-92775381D01*
X210371003Y-92775385D01*
X210408675Y-92845864D01*
X210460990Y-92943738D01*
X210464915Y-92948521D01*
X210464916Y-92948522D01*
X210558204Y-93062193D01*
X210586017Y-93096083D01*
X210738362Y-93221110D01*
X210912173Y-93314014D01*
X211100768Y-93371224D01*
X211296900Y-93390541D01*
X211493032Y-93371224D01*
X211681627Y-93314014D01*
X211855438Y-93221110D01*
X212007783Y-93096083D01*
X212132810Y-92943738D01*
X212185779Y-92844639D01*
X212232123Y-92795963D01*
X212296900Y-92778037D01*
X212361677Y-92795963D01*
X212408020Y-92844639D01*
X212443586Y-92911178D01*
X212458071Y-92938278D01*
X212460990Y-92943738D01*
X212464915Y-92948521D01*
X212464916Y-92948522D01*
X212558204Y-93062193D01*
X212586017Y-93096083D01*
X212738362Y-93221110D01*
X212912173Y-93314014D01*
X213100768Y-93371224D01*
X213296900Y-93390541D01*
X213493032Y-93371224D01*
X213681627Y-93314014D01*
X213855438Y-93221110D01*
X214007783Y-93096083D01*
X214132810Y-92943738D01*
X214225714Y-92769927D01*
X214282924Y-92581332D01*
X214302241Y-92385200D01*
X214282924Y-92189068D01*
X214225714Y-92000473D01*
X214132810Y-91826662D01*
X214007783Y-91674317D01*
X213983252Y-91654185D01*
X213860222Y-91553216D01*
X213860218Y-91553213D01*
X213855438Y-91549290D01*
X213761486Y-91499071D01*
X213687085Y-91459303D01*
X213687081Y-91459301D01*
X213681627Y-91456386D01*
X213675707Y-91454590D01*
X213675702Y-91454588D01*
X213543496Y-91414484D01*
X213488675Y-91380642D01*
X213457748Y-91324125D01*
X213458803Y-91259708D01*
X213491562Y-91204233D01*
X213547461Y-91172203D01*
X213740661Y-91120435D01*
X213750953Y-91116689D01*
X213948410Y-91024613D01*
X213957906Y-91019131D01*
X214013486Y-90980213D01*
X214021038Y-90971971D01*
X214015028Y-90962538D01*
X213308629Y-90256139D01*
X213296899Y-90249367D01*
X213285171Y-90256138D01*
X212578767Y-90962541D01*
X212572760Y-90971970D01*
X212580314Y-90980214D01*
X212635896Y-91019133D01*
X212645382Y-91024610D01*
X212842846Y-91116689D01*
X212853138Y-91120435D01*
X213046338Y-91172203D01*
X213102237Y-91204233D01*
X213134996Y-91259708D01*
X213136051Y-91324125D01*
X213105125Y-91380642D01*
X213050303Y-91414484D01*
X212918097Y-91454588D01*
X212918088Y-91454591D01*
X212912173Y-91456386D01*
X212906721Y-91459299D01*
X212906714Y-91459303D01*
X212803277Y-91514592D01*
X212738362Y-91549290D01*
X212733583Y-91553211D01*
X212733577Y-91553216D01*
X212590796Y-91670394D01*
X212590790Y-91670399D01*
X212586017Y-91674317D01*
X212582099Y-91679090D01*
X212582094Y-91679096D01*
X212464916Y-91821877D01*
X212464911Y-91821883D01*
X212460990Y-91826662D01*
X212458072Y-91832120D01*
X212458072Y-91832121D01*
X212408022Y-91925758D01*
X212361677Y-91974436D01*
X212296900Y-91992362D01*
X212232123Y-91974436D01*
X212185778Y-91925758D01*
X212183286Y-91921095D01*
X212132810Y-91826662D01*
X212007783Y-91674317D01*
X211983252Y-91654185D01*
X211860222Y-91553216D01*
X211860218Y-91553213D01*
X211855438Y-91549290D01*
X211761486Y-91499071D01*
X211687085Y-91459303D01*
X211687081Y-91459301D01*
X211681627Y-91456386D01*
X211675707Y-91454590D01*
X211675702Y-91454588D01*
X211498961Y-91400974D01*
X211498955Y-91400972D01*
X211493032Y-91399176D01*
X211486873Y-91398569D01*
X211486866Y-91398568D01*
X211303063Y-91380466D01*
X211296900Y-91379859D01*
X211290737Y-91380466D01*
X211106933Y-91398568D01*
X211106924Y-91398569D01*
X211100768Y-91399176D01*
X211094846Y-91400972D01*
X211094838Y-91400974D01*
X210918097Y-91454588D01*
X210918088Y-91454591D01*
X210912173Y-91456386D01*
X210906721Y-91459299D01*
X210906714Y-91459303D01*
X210743817Y-91546373D01*
X210743807Y-91546379D01*
X210738362Y-91549290D01*
X210733585Y-91553210D01*
X210733581Y-91553213D01*
X210710008Y-91572559D01*
X210654656Y-91598737D01*
X210593500Y-91595732D01*
X210540981Y-91564254D01*
X209709205Y-90732479D01*
X209690809Y-90704948D01*
X210296400Y-90704948D01*
X210308033Y-90763431D01*
X210314925Y-90773746D01*
X210314926Y-90773747D01*
X210341206Y-90813078D01*
X210352348Y-90829752D01*
X210418669Y-90874067D01*
X210477152Y-90885700D01*
X212110461Y-90885700D01*
X212116648Y-90885700D01*
X212175131Y-90874067D01*
X212241452Y-90829752D01*
X212285767Y-90763431D01*
X212297400Y-90704948D01*
X212297400Y-90577680D01*
X212306991Y-90529462D01*
X212334305Y-90488585D01*
X212925960Y-89896929D01*
X212932732Y-89885200D01*
X212932731Y-89885199D01*
X213661067Y-89885199D01*
X213667839Y-89896929D01*
X214374238Y-90603328D01*
X214383671Y-90609338D01*
X214391913Y-90601786D01*
X214430831Y-90546206D01*
X214436313Y-90536710D01*
X214528389Y-90339253D01*
X214532135Y-90328961D01*
X214588525Y-90118512D01*
X214590428Y-90107719D01*
X214609417Y-89890675D01*
X214609417Y-89879725D01*
X214590428Y-89662680D01*
X214588525Y-89651887D01*
X214532135Y-89441438D01*
X214528389Y-89431146D01*
X214436310Y-89233682D01*
X214430833Y-89224196D01*
X214391914Y-89168614D01*
X214383670Y-89161060D01*
X214374241Y-89167067D01*
X213667838Y-89873471D01*
X213661067Y-89885199D01*
X212932731Y-89885199D01*
X212925960Y-89873470D01*
X212334305Y-89281815D01*
X212306991Y-89240938D01*
X212297400Y-89192720D01*
X212297400Y-89071639D01*
X212297400Y-89065452D01*
X212285767Y-89006969D01*
X212241452Y-88940648D01*
X212210809Y-88920173D01*
X212185447Y-88903226D01*
X212185446Y-88903225D01*
X212175131Y-88896333D01*
X212116648Y-88884700D01*
X210477152Y-88884700D01*
X210471084Y-88885906D01*
X210471083Y-88885907D01*
X210430839Y-88893912D01*
X210430837Y-88893912D01*
X210418669Y-88896333D01*
X210408354Y-88903224D01*
X210408352Y-88903226D01*
X210362661Y-88933756D01*
X210362658Y-88933758D01*
X210352348Y-88940648D01*
X210345458Y-88950958D01*
X210345456Y-88950961D01*
X210314926Y-88996652D01*
X210314924Y-88996654D01*
X210308033Y-89006969D01*
X210296400Y-89065452D01*
X210296400Y-90704948D01*
X209690809Y-90704948D01*
X209681891Y-90691601D01*
X209672300Y-90643383D01*
X209672300Y-90454810D01*
X209672780Y-90443828D01*
X209672836Y-90443182D01*
X209676064Y-90406293D01*
X209670893Y-90386998D01*
X209666600Y-90354387D01*
X209666600Y-89966001D01*
X209666600Y-89958923D01*
X209635235Y-89821503D01*
X209574077Y-89694508D01*
X209565420Y-89683653D01*
X209490600Y-89589831D01*
X209486194Y-89584306D01*
X209470255Y-89571595D01*
X209381520Y-89500831D01*
X209381517Y-89500829D01*
X209375992Y-89496423D01*
X209369622Y-89493355D01*
X209369620Y-89493354D01*
X209255373Y-89438335D01*
X209255368Y-89438333D01*
X209248997Y-89435265D01*
X209242100Y-89433690D01*
X209242095Y-89433689D01*
X209118477Y-89405474D01*
X209118469Y-89405473D01*
X209111577Y-89403900D01*
X209092654Y-89403900D01*
X209041100Y-89403900D01*
X208970623Y-89403900D01*
X208963731Y-89405472D01*
X208963722Y-89405474D01*
X208840104Y-89433689D01*
X208840096Y-89433691D01*
X208833203Y-89435265D01*
X208826833Y-89438332D01*
X208826826Y-89438335D01*
X208712579Y-89493354D01*
X208712573Y-89493357D01*
X208706208Y-89496423D01*
X208700686Y-89500826D01*
X208700679Y-89500831D01*
X208601531Y-89579899D01*
X208601526Y-89579903D01*
X208596006Y-89584306D01*
X208591603Y-89589826D01*
X208591599Y-89589831D01*
X208539611Y-89655023D01*
X208495769Y-89689985D01*
X208441100Y-89702463D01*
X208386431Y-89689985D01*
X208342589Y-89655023D01*
X208290600Y-89589831D01*
X208286194Y-89584306D01*
X208270255Y-89571595D01*
X208181520Y-89500831D01*
X208181517Y-89500829D01*
X208175992Y-89496423D01*
X208169622Y-89493355D01*
X208169620Y-89493354D01*
X208055373Y-89438335D01*
X208055368Y-89438333D01*
X208048997Y-89435265D01*
X208042100Y-89433690D01*
X208042095Y-89433689D01*
X207918477Y-89405474D01*
X207918469Y-89405473D01*
X207911577Y-89403900D01*
X207892654Y-89403900D01*
X207841100Y-89403900D01*
X207770623Y-89403900D01*
X207763731Y-89405472D01*
X207763722Y-89405474D01*
X207640104Y-89433689D01*
X207640096Y-89433691D01*
X207633203Y-89435265D01*
X207626833Y-89438332D01*
X207626826Y-89438335D01*
X207512579Y-89493354D01*
X207512573Y-89493357D01*
X207506208Y-89496423D01*
X207500686Y-89500826D01*
X207500679Y-89500831D01*
X207401531Y-89579899D01*
X207401526Y-89579903D01*
X207396006Y-89584306D01*
X207391603Y-89589826D01*
X207391599Y-89589831D01*
X207312531Y-89688979D01*
X207312526Y-89688986D01*
X207308123Y-89694508D01*
X207305057Y-89700873D01*
X207305054Y-89700879D01*
X207250035Y-89815126D01*
X207250032Y-89815133D01*
X207246965Y-89821503D01*
X207245391Y-89828396D01*
X207245389Y-89828404D01*
X207217174Y-89952022D01*
X207217172Y-89952031D01*
X207215600Y-89958923D01*
X207215600Y-89966001D01*
X207215600Y-90277900D01*
X207198719Y-90340900D01*
X207152600Y-90387019D01*
X207089600Y-90403900D01*
X207022878Y-90403900D01*
X206963482Y-90389022D01*
X206918113Y-90347902D01*
X206897485Y-90290250D01*
X206906469Y-90229682D01*
X206915861Y-90207008D01*
X206934644Y-90161662D01*
X206955282Y-90004900D01*
X206939523Y-89885199D01*
X206935722Y-89856326D01*
X206935721Y-89856325D01*
X206934644Y-89848138D01*
X206874136Y-89702059D01*
X206777882Y-89576618D01*
X206757804Y-89561212D01*
X206658991Y-89485390D01*
X206652441Y-89480364D01*
X206644814Y-89477204D01*
X206644811Y-89477203D01*
X206513991Y-89423016D01*
X206513990Y-89423015D01*
X206506362Y-89419856D01*
X206498179Y-89418778D01*
X206498173Y-89418777D01*
X206357788Y-89400296D01*
X206349600Y-89399218D01*
X206341412Y-89400296D01*
X206201026Y-89418777D01*
X206201018Y-89418779D01*
X206192838Y-89419856D01*
X206185211Y-89423015D01*
X206185208Y-89423016D01*
X206054388Y-89477203D01*
X206054382Y-89477206D01*
X206046759Y-89480364D01*
X206040211Y-89485387D01*
X206040208Y-89485390D01*
X205927863Y-89571595D01*
X205927859Y-89571598D01*
X205921318Y-89576618D01*
X205916298Y-89583159D01*
X205916295Y-89583163D01*
X205825064Y-89702059D01*
X205823098Y-89700550D01*
X205786638Y-89737016D01*
X205723632Y-89753900D01*
X205211183Y-89753900D01*
X205163727Y-89744622D01*
X205123261Y-89718153D01*
X205098949Y-89683025D01*
X205098312Y-89682495D01*
X205085195Y-89679400D01*
X204685392Y-89679400D01*
X204632143Y-89667595D01*
X204562545Y-89635141D01*
X204552987Y-89633882D01*
X204552985Y-89633882D01*
X204519226Y-89629438D01*
X204519225Y-89629437D01*
X204515139Y-89628900D01*
X204511017Y-89628900D01*
X202792986Y-89628900D01*
X202792970Y-89628900D01*
X202788862Y-89628901D01*
X202784781Y-89629438D01*
X202784768Y-89629439D01*
X202751013Y-89633882D01*
X202751007Y-89633883D01*
X202741455Y-89635141D01*
X202732722Y-89639212D01*
X202732719Y-89639214D01*
X202705543Y-89651887D01*
X202671856Y-89667595D01*
X202618608Y-89679400D01*
X202218802Y-89679400D01*
X202207647Y-89682031D01*
X202208232Y-89693480D01*
X202239232Y-89800179D01*
X202245479Y-89814617D01*
X202318819Y-89938626D01*
X202328467Y-89951064D01*
X202430335Y-90052932D01*
X202449035Y-90067438D01*
X202447804Y-90069024D01*
X202484943Y-90106745D01*
X202501500Y-90169178D01*
X202501500Y-90238413D01*
X202501500Y-90238428D01*
X202501501Y-90242538D01*
X202502038Y-90246620D01*
X202502039Y-90246630D01*
X202506482Y-90280386D01*
X202506483Y-90280390D01*
X202507741Y-90289945D01*
X202511813Y-90298679D01*
X202511815Y-90298683D01*
X202536281Y-90351151D01*
X202548086Y-90404400D01*
X202536281Y-90457649D01*
X202511816Y-90510114D01*
X202511814Y-90510119D01*
X202507741Y-90518855D01*
X202506483Y-90528410D01*
X202506482Y-90528414D01*
X202503772Y-90549000D01*
X202501500Y-90566261D01*
X202501500Y-90570381D01*
X202501500Y-90570382D01*
X202501500Y-90888413D01*
X202501500Y-90888428D01*
X202501501Y-90892538D01*
X202502038Y-90896619D01*
X202502039Y-90896631D01*
X202506482Y-90930386D01*
X202506483Y-90930390D01*
X202507741Y-90939945D01*
X202511813Y-90948678D01*
X202511814Y-90948680D01*
X202536281Y-91001149D01*
X202548086Y-91054398D01*
X202536281Y-91107648D01*
X202511816Y-91160114D01*
X202511814Y-91160119D01*
X202507741Y-91168855D01*
X202506483Y-91178410D01*
X202506482Y-91178414D01*
X202502730Y-91206918D01*
X202501500Y-91216261D01*
X202501500Y-91220381D01*
X202501500Y-91220382D01*
X202501500Y-91538413D01*
X202501500Y-91538428D01*
X202501501Y-91542538D01*
X202503991Y-91561460D01*
X202493262Y-91631153D01*
X202446767Y-91684168D01*
X202379069Y-91703900D01*
X202122298Y-91703900D01*
X202111316Y-91703420D01*
X202084777Y-91701098D01*
X202073793Y-91700137D01*
X202063146Y-91702989D01*
X202063141Y-91702990D01*
X202037395Y-91709889D01*
X202026669Y-91712267D01*
X202000407Y-91716898D01*
X202000405Y-91716898D01*
X201989555Y-91718812D01*
X201980016Y-91724318D01*
X201976733Y-91725513D01*
X201973553Y-91726995D01*
X201962916Y-91729847D01*
X201953894Y-91736163D01*
X201953887Y-91736167D01*
X201932050Y-91751457D01*
X201922789Y-91757357D01*
X201899692Y-91770692D01*
X201899684Y-91770698D01*
X201890145Y-91776206D01*
X201883062Y-91784646D01*
X201883057Y-91784651D01*
X201865923Y-91805070D01*
X201858501Y-91813170D01*
X201542171Y-92129502D01*
X201542170Y-92129502D01*
X201542168Y-92129504D01*
X201542168Y-92129505D01*
X200824780Y-92846892D01*
X200816679Y-92854315D01*
X200796252Y-92871455D01*
X200796244Y-92871464D01*
X200787806Y-92878545D01*
X200782295Y-92888089D01*
X200782294Y-92888091D01*
X200768964Y-92911178D01*
X200763063Y-92920441D01*
X200747766Y-92942288D01*
X200747763Y-92942293D01*
X200741446Y-92951316D01*
X200738595Y-92961952D01*
X200737120Y-92965117D01*
X200735920Y-92968413D01*
X200730412Y-92977955D01*
X200728498Y-92988807D01*
X200728498Y-92988808D01*
X200723869Y-93015056D01*
X200721492Y-93025779D01*
X200714589Y-93051542D01*
X200714588Y-93051546D01*
X200711736Y-93062193D01*
X200712696Y-93073175D01*
X200712697Y-93073175D01*
X200715020Y-93099728D01*
X200715500Y-93110710D01*
X200715500Y-99252714D01*
X200702506Y-99308443D01*
X200666204Y-99352677D01*
X200619263Y-99388695D01*
X200619259Y-99388698D01*
X200612718Y-99393718D01*
X200607698Y-99400259D01*
X200607695Y-99400263D01*
X200521490Y-99512608D01*
X200521487Y-99512611D01*
X200516464Y-99519159D01*
X200513306Y-99526782D01*
X200513303Y-99526788D01*
X200465290Y-99642703D01*
X200455956Y-99665238D01*
X200454879Y-99673418D01*
X200454877Y-99673426D01*
X200444626Y-99751298D01*
X200435318Y-99822000D01*
X200436396Y-99830188D01*
X200454877Y-99970573D01*
X200454878Y-99970579D01*
X200455956Y-99978762D01*
X200459115Y-99986390D01*
X200459116Y-99986391D01*
X200513303Y-100117211D01*
X200513304Y-100117214D01*
X200516464Y-100124841D01*
X200521490Y-100131391D01*
X200583134Y-100211728D01*
X200612718Y-100250282D01*
X200619263Y-100255304D01*
X200666204Y-100291323D01*
X200702506Y-100335557D01*
X200715500Y-100391286D01*
X200715500Y-100483500D01*
X200698619Y-100546500D01*
X200652500Y-100592619D01*
X200589500Y-100609500D01*
X200536734Y-100609500D01*
X200533805Y-100609774D01*
X200533798Y-100609775D01*
X200513933Y-100611638D01*
X200513930Y-100611638D01*
X200506301Y-100612354D01*
X200499063Y-100614886D01*
X200499061Y-100614887D01*
X200387034Y-100654087D01*
X200378118Y-100657207D01*
X200370525Y-100662810D01*
X200370519Y-100662814D01*
X200276442Y-100732246D01*
X200276438Y-100732249D01*
X200268850Y-100737850D01*
X200263249Y-100745438D01*
X200263246Y-100745442D01*
X200193814Y-100839519D01*
X200193810Y-100839525D01*
X200188207Y-100847118D01*
X200185087Y-100856033D01*
X200185087Y-100856034D01*
X200151842Y-100951045D01*
X200143354Y-100975301D01*
X200140500Y-101005734D01*
X200140500Y-101639266D01*
X200140774Y-101642195D01*
X200140775Y-101642201D01*
X200142305Y-101658513D01*
X200143354Y-101669699D01*
X200188207Y-101797882D01*
X200193812Y-101805477D01*
X200193814Y-101805480D01*
X200260039Y-101895211D01*
X200268850Y-101907150D01*
X200378118Y-101987793D01*
X200506301Y-102032646D01*
X200536734Y-102035500D01*
X201542313Y-102035500D01*
X201545266Y-102035500D01*
X201575699Y-102032646D01*
X201703882Y-101987793D01*
X201813150Y-101907150D01*
X201893793Y-101797882D01*
X201938646Y-101669699D01*
X201941500Y-101639266D01*
X201941500Y-101005734D01*
X201938646Y-100975301D01*
X201893793Y-100847118D01*
X201876573Y-100823786D01*
X201839225Y-100773181D01*
X201813150Y-100737850D01*
X201804935Y-100731787D01*
X201711480Y-100662814D01*
X201711477Y-100662812D01*
X201703882Y-100657207D01*
X201575699Y-100612354D01*
X201568067Y-100611638D01*
X201568066Y-100611638D01*
X201548201Y-100609775D01*
X201548195Y-100609774D01*
X201545266Y-100609500D01*
X201542313Y-100609500D01*
X201492500Y-100609500D01*
X201429500Y-100592619D01*
X201383381Y-100546500D01*
X201366500Y-100483500D01*
X201366500Y-100391286D01*
X201379494Y-100335557D01*
X201415796Y-100291323D01*
X201469282Y-100250282D01*
X201565536Y-100124841D01*
X201626044Y-99978762D01*
X201646682Y-99822000D01*
X201626044Y-99665238D01*
X201565536Y-99519159D01*
X201469282Y-99393718D01*
X201415795Y-99352676D01*
X201379494Y-99308443D01*
X201366500Y-99252714D01*
X201366500Y-93278016D01*
X201376091Y-93229798D01*
X201403401Y-93188924D01*
X201589945Y-93002380D01*
X201642194Y-92970986D01*
X201703072Y-92967793D01*
X201758324Y-92993553D01*
X201795015Y-93042236D01*
X201802227Y-93087742D01*
X201803936Y-93087593D01*
X201807220Y-93125128D01*
X201807700Y-93136110D01*
X201807700Y-98100490D01*
X201807220Y-98111472D01*
X201805125Y-98135422D01*
X201803936Y-98149007D01*
X201806788Y-98159654D01*
X201806789Y-98159656D01*
X201813692Y-98185418D01*
X201816070Y-98196146D01*
X201820697Y-98222389D01*
X201820698Y-98222392D01*
X201822612Y-98233245D01*
X201828120Y-98242785D01*
X201829313Y-98246063D01*
X201830792Y-98249236D01*
X201833646Y-98259884D01*
X201839969Y-98268915D01*
X201839971Y-98268918D01*
X201855256Y-98290748D01*
X201861161Y-98300016D01*
X201880006Y-98332655D01*
X201888447Y-98339738D01*
X201888449Y-98339740D01*
X201908881Y-98356884D01*
X201916985Y-98364311D01*
X203853595Y-100300921D01*
X203880909Y-100341798D01*
X203890500Y-100390016D01*
X203890500Y-100483500D01*
X203873619Y-100546500D01*
X203827500Y-100592619D01*
X203764500Y-100609500D01*
X203711734Y-100609500D01*
X203708805Y-100609774D01*
X203708798Y-100609775D01*
X203688933Y-100611638D01*
X203688930Y-100611638D01*
X203681301Y-100612354D01*
X203674063Y-100614886D01*
X203674061Y-100614887D01*
X203562034Y-100654087D01*
X203553118Y-100657207D01*
X203545525Y-100662810D01*
X203545519Y-100662814D01*
X203451442Y-100732246D01*
X203451438Y-100732249D01*
X203443850Y-100737850D01*
X203438249Y-100745438D01*
X203438246Y-100745442D01*
X203368814Y-100839519D01*
X203368810Y-100839525D01*
X203363207Y-100847118D01*
X203360087Y-100856033D01*
X203360087Y-100856034D01*
X203326842Y-100951045D01*
X203318354Y-100975301D01*
X203315500Y-101005734D01*
X203315500Y-101639266D01*
X203315774Y-101642195D01*
X203315775Y-101642201D01*
X203317305Y-101658513D01*
X203318354Y-101669699D01*
X203363207Y-101797882D01*
X203368812Y-101805477D01*
X203368814Y-101805480D01*
X203435039Y-101895211D01*
X203443850Y-101907150D01*
X203553118Y-101987793D01*
X203681301Y-102032646D01*
X203711734Y-102035500D01*
X204717313Y-102035500D01*
X204720266Y-102035500D01*
X204750699Y-102032646D01*
X204878882Y-101987793D01*
X204988150Y-101907150D01*
X205068793Y-101797882D01*
X205113646Y-101669699D01*
X205114673Y-101658738D01*
X205115760Y-101655663D01*
X205115999Y-101654572D01*
X205116135Y-101654601D01*
X205135141Y-101600826D01*
X205180554Y-101559471D01*
X205240124Y-101544500D01*
X205298983Y-101544500D01*
X205347201Y-101554091D01*
X205388079Y-101581405D01*
X205504596Y-101697923D01*
X205531909Y-101738800D01*
X205541500Y-101787018D01*
X205541500Y-105328507D01*
X205525588Y-105389799D01*
X205481870Y-105435610D01*
X205421389Y-105454369D01*
X205359420Y-105441339D01*
X205311616Y-105399810D01*
X205290050Y-105340272D01*
X205289643Y-105335933D01*
X205288646Y-105325301D01*
X205243793Y-105197118D01*
X205163150Y-105087850D01*
X205155557Y-105082246D01*
X205061480Y-105012814D01*
X205061477Y-105012812D01*
X205053882Y-105007207D01*
X204925699Y-104962354D01*
X204918067Y-104961638D01*
X204918066Y-104961638D01*
X204898201Y-104959775D01*
X204898195Y-104959774D01*
X204895266Y-104959500D01*
X204892313Y-104959500D01*
X204667500Y-104959500D01*
X204604500Y-104942619D01*
X204558381Y-104896500D01*
X204541500Y-104833500D01*
X204541500Y-103986500D01*
X204558381Y-103923500D01*
X204604500Y-103877381D01*
X204667500Y-103860500D01*
X204717313Y-103860500D01*
X204720266Y-103860500D01*
X204750699Y-103857646D01*
X204878882Y-103812793D01*
X204988150Y-103732150D01*
X205068793Y-103622882D01*
X205113646Y-103494699D01*
X205116500Y-103464266D01*
X205116500Y-102830734D01*
X205113646Y-102800301D01*
X205068793Y-102672118D01*
X204988150Y-102562850D01*
X204980557Y-102557246D01*
X204886480Y-102487814D01*
X204886477Y-102487812D01*
X204878882Y-102482207D01*
X204750699Y-102437354D01*
X204743067Y-102436638D01*
X204743066Y-102436638D01*
X204723201Y-102434775D01*
X204723195Y-102434774D01*
X204720266Y-102434500D01*
X203711734Y-102434500D01*
X203708805Y-102434774D01*
X203708798Y-102434775D01*
X203688933Y-102436638D01*
X203688930Y-102436638D01*
X203681301Y-102437354D01*
X203674063Y-102439886D01*
X203674061Y-102439887D01*
X203562034Y-102479087D01*
X203553118Y-102482207D01*
X203545525Y-102487810D01*
X203545519Y-102487814D01*
X203451442Y-102557246D01*
X203451438Y-102557249D01*
X203443850Y-102562850D01*
X203438249Y-102570438D01*
X203438246Y-102570442D01*
X203368814Y-102664519D01*
X203368810Y-102664525D01*
X203363207Y-102672118D01*
X203360087Y-102681033D01*
X203360087Y-102681034D01*
X203348580Y-102713921D01*
X203318354Y-102800301D01*
X203315500Y-102830734D01*
X203315500Y-103464266D01*
X203318354Y-103494699D01*
X203363207Y-103622882D01*
X203368812Y-103630477D01*
X203368814Y-103630480D01*
X203438246Y-103724557D01*
X203443850Y-103732150D01*
X203553118Y-103812793D01*
X203681301Y-103857646D01*
X203711734Y-103860500D01*
X203764500Y-103860500D01*
X203827500Y-103877381D01*
X203873619Y-103923500D01*
X203890500Y-103986500D01*
X203890500Y-104833500D01*
X203873619Y-104896500D01*
X203827500Y-104942619D01*
X203764500Y-104959500D01*
X203536734Y-104959500D01*
X203533805Y-104959774D01*
X203533798Y-104959775D01*
X203513933Y-104961638D01*
X203513930Y-104961638D01*
X203506301Y-104962354D01*
X203499063Y-104964886D01*
X203499061Y-104964887D01*
X203387034Y-105004087D01*
X203378118Y-105007207D01*
X203370525Y-105012810D01*
X203370519Y-105012814D01*
X203276442Y-105082246D01*
X203276438Y-105082249D01*
X203268850Y-105087850D01*
X203263249Y-105095438D01*
X203263246Y-105095442D01*
X203193814Y-105189519D01*
X203193810Y-105189525D01*
X203188207Y-105197118D01*
X203143354Y-105325301D01*
X203140500Y-105355734D01*
X203140500Y-106214266D01*
X203140774Y-106217195D01*
X203140775Y-106217201D01*
X203141939Y-106229615D01*
X203143354Y-106244699D01*
X203188207Y-106372882D01*
X203193812Y-106380477D01*
X203193814Y-106380480D01*
X203263246Y-106474557D01*
X203268850Y-106482150D01*
X203378118Y-106562793D01*
X203506301Y-106607646D01*
X203536734Y-106610500D01*
X204892313Y-106610500D01*
X204895266Y-106610500D01*
X204925699Y-106607646D01*
X205053882Y-106562793D01*
X205163150Y-106482150D01*
X205243793Y-106372882D01*
X205288646Y-106244699D01*
X205290049Y-106229728D01*
X205311616Y-106170190D01*
X205359420Y-106128661D01*
X205421389Y-106115631D01*
X205481870Y-106134390D01*
X205525588Y-106180201D01*
X205541500Y-106241493D01*
X205541500Y-108128507D01*
X205525588Y-108189799D01*
X205481870Y-108235610D01*
X205421389Y-108254369D01*
X205359420Y-108241339D01*
X205311616Y-108199810D01*
X205290050Y-108140272D01*
X205290028Y-108140047D01*
X205288646Y-108125301D01*
X205243793Y-107997118D01*
X205219310Y-107963945D01*
X205168753Y-107895442D01*
X205163150Y-107887850D01*
X205155557Y-107882246D01*
X205061480Y-107812814D01*
X205061477Y-107812812D01*
X205053882Y-107807207D01*
X204925699Y-107762354D01*
X204918067Y-107761638D01*
X204918066Y-107761638D01*
X204898201Y-107759775D01*
X204898195Y-107759774D01*
X204895266Y-107759500D01*
X203536734Y-107759500D01*
X203533805Y-107759774D01*
X203533798Y-107759775D01*
X203513933Y-107761638D01*
X203513930Y-107761638D01*
X203506301Y-107762354D01*
X203499063Y-107764886D01*
X203499061Y-107764887D01*
X203387034Y-107804087D01*
X203378118Y-107807207D01*
X203370525Y-107812810D01*
X203370519Y-107812814D01*
X203276442Y-107882246D01*
X203276438Y-107882249D01*
X203268850Y-107887850D01*
X203263249Y-107895438D01*
X203263246Y-107895442D01*
X203193814Y-107989519D01*
X203193810Y-107989525D01*
X203188207Y-107997118D01*
X203185087Y-108006033D01*
X203185087Y-108006034D01*
X203156873Y-108086667D01*
X203143354Y-108125301D01*
X203142638Y-108132932D01*
X203142638Y-108132934D01*
X203141482Y-108145263D01*
X203121015Y-108203175D01*
X203075601Y-108244529D01*
X203016032Y-108259500D01*
X202240968Y-108259500D01*
X202181399Y-108244529D01*
X202135985Y-108203175D01*
X202115518Y-108145263D01*
X202115050Y-108140272D01*
X202113646Y-108125301D01*
X202068793Y-107997118D01*
X202044310Y-107963945D01*
X201993753Y-107895442D01*
X201988150Y-107887850D01*
X201980557Y-107882246D01*
X201886480Y-107812814D01*
X201886477Y-107812812D01*
X201878882Y-107807207D01*
X201750699Y-107762354D01*
X201743067Y-107761638D01*
X201743066Y-107761638D01*
X201723201Y-107759775D01*
X201723195Y-107759774D01*
X201720266Y-107759500D01*
X200361734Y-107759500D01*
X200358805Y-107759774D01*
X200358798Y-107759775D01*
X200338933Y-107761638D01*
X200338930Y-107761638D01*
X200331301Y-107762354D01*
X200324063Y-107764886D01*
X200324061Y-107764887D01*
X200212034Y-107804087D01*
X200203118Y-107807207D01*
X200195525Y-107812810D01*
X200195519Y-107812814D01*
X200101442Y-107882246D01*
X200101438Y-107882249D01*
X200093850Y-107887850D01*
X200088249Y-107895438D01*
X200088246Y-107895442D01*
X200018814Y-107989519D01*
X200018810Y-107989525D01*
X200013207Y-107997118D01*
X200010087Y-108006033D01*
X200010087Y-108006034D01*
X199981873Y-108086667D01*
X199968354Y-108125301D01*
X199967638Y-108132932D01*
X199967638Y-108132934D01*
X199966482Y-108145263D01*
X199946015Y-108203175D01*
X199900601Y-108244529D01*
X199841032Y-108259500D01*
X199319687Y-108259500D01*
X199260118Y-108244530D01*
X199214705Y-108203176D01*
X199194238Y-108145266D01*
X199193363Y-108135941D01*
X199193362Y-108135936D01*
X199192646Y-108128301D01*
X199147793Y-108000118D01*
X199113903Y-107954199D01*
X199072753Y-107898442D01*
X199067150Y-107890850D01*
X199055492Y-107882246D01*
X198965480Y-107815814D01*
X198965477Y-107815812D01*
X198957882Y-107810207D01*
X198829699Y-107765354D01*
X198822067Y-107764638D01*
X198822066Y-107764638D01*
X198802201Y-107762775D01*
X198802195Y-107762774D01*
X198799266Y-107762500D01*
X197440734Y-107762500D01*
X197437805Y-107762774D01*
X197437798Y-107762775D01*
X197417933Y-107764638D01*
X197417930Y-107764638D01*
X197410301Y-107765354D01*
X197403063Y-107767886D01*
X197403061Y-107767887D01*
X197291034Y-107807087D01*
X197282118Y-107810207D01*
X197274525Y-107815810D01*
X197274519Y-107815814D01*
X197180442Y-107885246D01*
X197180438Y-107885249D01*
X197172850Y-107890850D01*
X197167249Y-107898438D01*
X197167246Y-107898442D01*
X197097814Y-107992519D01*
X197097810Y-107992525D01*
X197092207Y-108000118D01*
X197089087Y-108009033D01*
X197089087Y-108009034D01*
X197059553Y-108093439D01*
X197047354Y-108128301D01*
X197046638Y-108135928D01*
X197046636Y-108135941D01*
X197045762Y-108145266D01*
X197025295Y-108203176D01*
X196979882Y-108244530D01*
X196920313Y-108259500D01*
X196017687Y-108259500D01*
X195958118Y-108244530D01*
X195912705Y-108203176D01*
X195892238Y-108145266D01*
X195891363Y-108135941D01*
X195891362Y-108135936D01*
X195890646Y-108128301D01*
X195845793Y-108000118D01*
X195811903Y-107954199D01*
X195770753Y-107898442D01*
X195765150Y-107890850D01*
X195753492Y-107882246D01*
X195663480Y-107815814D01*
X195663477Y-107815812D01*
X195655882Y-107810207D01*
X195527699Y-107765354D01*
X195520067Y-107764638D01*
X195520066Y-107764638D01*
X195500201Y-107762775D01*
X195500195Y-107762774D01*
X195497266Y-107762500D01*
X194138734Y-107762500D01*
X194135805Y-107762774D01*
X194135798Y-107762775D01*
X194115933Y-107764638D01*
X194115930Y-107764638D01*
X194108301Y-107765354D01*
X194101063Y-107767886D01*
X194101061Y-107767887D01*
X193989034Y-107807087D01*
X193980118Y-107810207D01*
X193972525Y-107815810D01*
X193972519Y-107815814D01*
X193878442Y-107885246D01*
X193878438Y-107885249D01*
X193870850Y-107890850D01*
X193865249Y-107898438D01*
X193865246Y-107898442D01*
X193795814Y-107992519D01*
X193795810Y-107992525D01*
X193790207Y-108000118D01*
X193787087Y-108009033D01*
X193787087Y-108009034D01*
X193757553Y-108093439D01*
X193745354Y-108128301D01*
X193744638Y-108135932D01*
X193744638Y-108135934D01*
X193743482Y-108148263D01*
X193723015Y-108206175D01*
X193677601Y-108247529D01*
X193618032Y-108262500D01*
X193484588Y-108262500D01*
X193428859Y-108249506D01*
X193384625Y-108213204D01*
X193341282Y-108156718D01*
X193326357Y-108145266D01*
X193222391Y-108065490D01*
X193215841Y-108060464D01*
X193208214Y-108057304D01*
X193208211Y-108057303D01*
X193077391Y-108003116D01*
X193077390Y-108003115D01*
X193069762Y-107999956D01*
X193061579Y-107998878D01*
X193061573Y-107998877D01*
X192921188Y-107980396D01*
X192913000Y-107979318D01*
X192904812Y-107980396D01*
X192764426Y-107998877D01*
X192764418Y-107998879D01*
X192756238Y-107999956D01*
X192748611Y-108003115D01*
X192748608Y-108003116D01*
X192617788Y-108057303D01*
X192617782Y-108057306D01*
X192610159Y-108060464D01*
X192603611Y-108065487D01*
X192603608Y-108065490D01*
X192491263Y-108151695D01*
X192491259Y-108151698D01*
X192484718Y-108156718D01*
X192479698Y-108163259D01*
X192479695Y-108163263D01*
X192393490Y-108275608D01*
X192393487Y-108275611D01*
X192388464Y-108282159D01*
X192385306Y-108289782D01*
X192385303Y-108289788D01*
X192331116Y-108420608D01*
X192327956Y-108428238D01*
X192326879Y-108436418D01*
X192326877Y-108436426D01*
X192309001Y-108572215D01*
X192307318Y-108585000D01*
X192308396Y-108593188D01*
X192326877Y-108733573D01*
X192326878Y-108733579D01*
X192327956Y-108741762D01*
X192331115Y-108749390D01*
X192331116Y-108749391D01*
X192385303Y-108880211D01*
X192385304Y-108880214D01*
X192388464Y-108887841D01*
X192484718Y-109013282D01*
X192610159Y-109109536D01*
X192756238Y-109170044D01*
X192913000Y-109190682D01*
X193069762Y-109170044D01*
X193215841Y-109109536D01*
X193341282Y-109013282D01*
X193380021Y-108962795D01*
X193424255Y-108926494D01*
X193479984Y-108913500D01*
X193618032Y-108913500D01*
X193677601Y-108928471D01*
X193723015Y-108969825D01*
X193743481Y-109027736D01*
X193745354Y-109047699D01*
X193790207Y-109175882D01*
X193795812Y-109183477D01*
X193795814Y-109183480D01*
X193863032Y-109274557D01*
X193870850Y-109285150D01*
X193878442Y-109290753D01*
X193968454Y-109357185D01*
X193980118Y-109365793D01*
X194108301Y-109410646D01*
X194138734Y-109413500D01*
X195494313Y-109413500D01*
X195497266Y-109413500D01*
X195527699Y-109410646D01*
X195655882Y-109365793D01*
X195765150Y-109285150D01*
X195845793Y-109175882D01*
X195890646Y-109047699D01*
X195891363Y-109040058D01*
X195892801Y-109024733D01*
X195913268Y-108966823D01*
X195958682Y-108925470D01*
X196018250Y-108910500D01*
X196919750Y-108910500D01*
X196979318Y-108925470D01*
X197024732Y-108966823D01*
X197045199Y-109024733D01*
X197046636Y-109040058D01*
X197046638Y-109040065D01*
X197047354Y-109047699D01*
X197092207Y-109175882D01*
X197097812Y-109183477D01*
X197097814Y-109183480D01*
X197165032Y-109274557D01*
X197172850Y-109285150D01*
X197180442Y-109290753D01*
X197270454Y-109357185D01*
X197282118Y-109365793D01*
X197410301Y-109410646D01*
X197440734Y-109413500D01*
X198796313Y-109413500D01*
X198799266Y-109413500D01*
X198829699Y-109410646D01*
X198957882Y-109365793D01*
X199067150Y-109285150D01*
X199147793Y-109175882D01*
X199192646Y-109047699D01*
X199193363Y-109040058D01*
X199194801Y-109024733D01*
X199215268Y-108966823D01*
X199260682Y-108925470D01*
X199320250Y-108910500D01*
X199841032Y-108910500D01*
X199900601Y-108925471D01*
X199946015Y-108966825D01*
X199966481Y-109024736D01*
X199968354Y-109044699D01*
X200013207Y-109172882D01*
X200018812Y-109180477D01*
X200018814Y-109180480D01*
X200045714Y-109216928D01*
X200093850Y-109282150D01*
X200203118Y-109362793D01*
X200331301Y-109407646D01*
X200361734Y-109410500D01*
X201717313Y-109410500D01*
X201720266Y-109410500D01*
X201750699Y-109407646D01*
X201878882Y-109362793D01*
X201988150Y-109282150D01*
X202068793Y-109172882D01*
X202113646Y-109044699D01*
X202115518Y-109024736D01*
X202135985Y-108966825D01*
X202181399Y-108925471D01*
X202240968Y-108910500D01*
X203016032Y-108910500D01*
X203075601Y-108925471D01*
X203121015Y-108966825D01*
X203141481Y-109024736D01*
X203143354Y-109044699D01*
X203188207Y-109172882D01*
X203193812Y-109180477D01*
X203193814Y-109180480D01*
X203220714Y-109216928D01*
X203268850Y-109282150D01*
X203378118Y-109362793D01*
X203506301Y-109407646D01*
X203536734Y-109410500D01*
X204892313Y-109410500D01*
X204895266Y-109410500D01*
X204925699Y-109407646D01*
X205053882Y-109362793D01*
X205163150Y-109282150D01*
X205243793Y-109172882D01*
X205288646Y-109044699D01*
X205290049Y-109029728D01*
X205311616Y-108970190D01*
X205359420Y-108928661D01*
X205421389Y-108915631D01*
X205481870Y-108934390D01*
X205525588Y-108980201D01*
X205541500Y-109041493D01*
X205541500Y-109794984D01*
X205531909Y-109843202D01*
X205504595Y-109884079D01*
X204880079Y-110508595D01*
X204839202Y-110535909D01*
X204790984Y-110545500D01*
X194075710Y-110545500D01*
X194064728Y-110545020D01*
X194038175Y-110542696D01*
X194038164Y-110542696D01*
X194027193Y-110541737D01*
X194010393Y-110546238D01*
X193990798Y-110551488D01*
X193980075Y-110553865D01*
X193953812Y-110558496D01*
X193953804Y-110558498D01*
X193942955Y-110560412D01*
X193933414Y-110565919D01*
X193930122Y-110567118D01*
X193926953Y-110568595D01*
X193916316Y-110571446D01*
X193907294Y-110577762D01*
X193907285Y-110577767D01*
X193885443Y-110593061D01*
X193876181Y-110598962D01*
X193853092Y-110612293D01*
X193853088Y-110612295D01*
X193843545Y-110617806D01*
X193836460Y-110626248D01*
X193836460Y-110626249D01*
X193819319Y-110646676D01*
X193811895Y-110654776D01*
X192386787Y-112079885D01*
X192378686Y-112087309D01*
X192358252Y-112104455D01*
X192358244Y-112104464D01*
X192349806Y-112111545D01*
X192344295Y-112121089D01*
X192344294Y-112121091D01*
X192330964Y-112144178D01*
X192325063Y-112153441D01*
X192309766Y-112175288D01*
X192309763Y-112175293D01*
X192303446Y-112184316D01*
X192300595Y-112194952D01*
X192299120Y-112198117D01*
X192297920Y-112201413D01*
X192292412Y-112210955D01*
X192290498Y-112221807D01*
X192290498Y-112221808D01*
X192285869Y-112248056D01*
X192283492Y-112258779D01*
X192276589Y-112284542D01*
X192276588Y-112284546D01*
X192273736Y-112295193D01*
X192274696Y-112306175D01*
X192274697Y-112306175D01*
X192277020Y-112332728D01*
X192277500Y-112343710D01*
X192277500Y-119318052D01*
X192266887Y-119368666D01*
X192236837Y-119410753D01*
X192192412Y-119437225D01*
X192043428Y-119488370D01*
X192043415Y-119488375D01*
X192038497Y-119490064D01*
X192033919Y-119492541D01*
X192033911Y-119492545D01*
X191838956Y-119598050D01*
X191838952Y-119598051D01*
X191834374Y-119600530D01*
X191830268Y-119603725D01*
X191830263Y-119603729D01*
X191655327Y-119739887D01*
X191651216Y-119743087D01*
X191647688Y-119746918D01*
X191647684Y-119746923D01*
X191497555Y-119910007D01*
X191497549Y-119910013D01*
X191494021Y-119913847D01*
X191491172Y-119918206D01*
X191491167Y-119918214D01*
X191412750Y-120038241D01*
X191367076Y-120108151D01*
X191364983Y-120112921D01*
X191364981Y-120112926D01*
X191275936Y-120315927D01*
X191275933Y-120315933D01*
X191273843Y-120320700D01*
X191272564Y-120325748D01*
X191272563Y-120325753D01*
X191250512Y-120412832D01*
X191216866Y-120545695D01*
X191216436Y-120550883D01*
X191216435Y-120550890D01*
X191199330Y-120757327D01*
X191197700Y-120777000D01*
X191216866Y-121008305D01*
X191273843Y-121233300D01*
X191275935Y-121238069D01*
X191275936Y-121238072D01*
X191297067Y-121286246D01*
X191367076Y-121445849D01*
X191494021Y-121640153D01*
X191651216Y-121810913D01*
X191834374Y-121953470D01*
X192038497Y-122063936D01*
X192043426Y-122065628D01*
X192043428Y-122065629D01*
X192053201Y-122068984D01*
X192258019Y-122139298D01*
X192486951Y-122177500D01*
X192713838Y-122177500D01*
X192719049Y-122177500D01*
X192947981Y-122139298D01*
X193167503Y-122063936D01*
X193371626Y-121953470D01*
X193554784Y-121810913D01*
X193711979Y-121640153D01*
X193838924Y-121445849D01*
X193932157Y-121233300D01*
X193989134Y-121008305D01*
X194008300Y-120777000D01*
X194697700Y-120777000D01*
X194716866Y-121008305D01*
X194773843Y-121233300D01*
X194775935Y-121238069D01*
X194775936Y-121238072D01*
X194797067Y-121286246D01*
X194867076Y-121445849D01*
X194994021Y-121640153D01*
X195151216Y-121810913D01*
X195334374Y-121953470D01*
X195538497Y-122063936D01*
X195543426Y-122065628D01*
X195543428Y-122065629D01*
X195553201Y-122068984D01*
X195758019Y-122139298D01*
X195986951Y-122177500D01*
X196213838Y-122177500D01*
X196219049Y-122177500D01*
X196375272Y-122151431D01*
X198591236Y-122151431D01*
X198598902Y-122159615D01*
X198742711Y-122257663D01*
X198750855Y-122262365D01*
X198972998Y-122369343D01*
X198981754Y-122372780D01*
X199217367Y-122445457D01*
X199226524Y-122447547D01*
X199470341Y-122484297D01*
X199479719Y-122485000D01*
X199726281Y-122485000D01*
X199735658Y-122484297D01*
X199979475Y-122447547D01*
X199988632Y-122445457D01*
X200224245Y-122372780D01*
X200233001Y-122369343D01*
X200455145Y-122262365D01*
X200463289Y-122257664D01*
X200607096Y-122159615D01*
X200614763Y-122151430D01*
X200608750Y-122141960D01*
X199614729Y-121147939D01*
X199602999Y-121141167D01*
X199591270Y-121147939D01*
X198597250Y-122141958D01*
X198591236Y-122151431D01*
X196375272Y-122151431D01*
X196447981Y-122139298D01*
X196667503Y-122063936D01*
X196871626Y-121953470D01*
X197054784Y-121810913D01*
X197211979Y-121640153D01*
X197338924Y-121445849D01*
X197432157Y-121233300D01*
X197489134Y-121008305D01*
X197507911Y-120781697D01*
X197890563Y-120781697D01*
X197908988Y-121027572D01*
X197910391Y-121036879D01*
X197965255Y-121277253D01*
X197968029Y-121286246D01*
X198058106Y-121515758D01*
X198062189Y-121524238D01*
X198185471Y-121737767D01*
X198190762Y-121745528D01*
X198217160Y-121778631D01*
X198228577Y-121786731D01*
X198240829Y-121779959D01*
X199232060Y-120788729D01*
X199238831Y-120777000D01*
X199967167Y-120777000D01*
X199973939Y-120788729D01*
X200965169Y-121779959D01*
X200977422Y-121786731D01*
X200988838Y-121778631D01*
X201015234Y-121745533D01*
X201020531Y-121737763D01*
X201143810Y-121524238D01*
X201147893Y-121515758D01*
X201237970Y-121286246D01*
X201240744Y-121277253D01*
X201295608Y-121036879D01*
X201297011Y-121027572D01*
X201315437Y-120781697D01*
X201315437Y-120772303D01*
X201297011Y-120526427D01*
X201295608Y-120517120D01*
X201240744Y-120276746D01*
X201237970Y-120267753D01*
X201147893Y-120038241D01*
X201143810Y-120029761D01*
X201020528Y-119816232D01*
X201015237Y-119808471D01*
X200988838Y-119775367D01*
X200977421Y-119767267D01*
X200965169Y-119774039D01*
X199973939Y-120765270D01*
X199967167Y-120777000D01*
X199238831Y-120777000D01*
X199238832Y-120776999D01*
X199232060Y-120765270D01*
X198240830Y-119774040D01*
X198228577Y-119767268D01*
X198217159Y-119775369D01*
X198190771Y-119808460D01*
X198185466Y-119816240D01*
X198062189Y-120029761D01*
X198058106Y-120038241D01*
X197968029Y-120267753D01*
X197965255Y-120276746D01*
X197910391Y-120517120D01*
X197908988Y-120526427D01*
X197890563Y-120772303D01*
X197890563Y-120781697D01*
X197507911Y-120781697D01*
X197508300Y-120777000D01*
X197489134Y-120545695D01*
X197432157Y-120320700D01*
X197338924Y-120108151D01*
X197211979Y-119913847D01*
X197054784Y-119743087D01*
X196871626Y-119600530D01*
X196706077Y-119510939D01*
X196672088Y-119492545D01*
X196672085Y-119492543D01*
X196667503Y-119490064D01*
X196662579Y-119488373D01*
X196662571Y-119488370D01*
X196452911Y-119416394D01*
X196452905Y-119416392D01*
X196447981Y-119414702D01*
X196442844Y-119413844D01*
X196442841Y-119413844D01*
X196375268Y-119402568D01*
X198591236Y-119402568D01*
X198597250Y-119412040D01*
X199591270Y-120406060D01*
X199603000Y-120412832D01*
X199614729Y-120406060D01*
X200608748Y-119412040D01*
X200614762Y-119402567D01*
X200607096Y-119394383D01*
X200463289Y-119296336D01*
X200455145Y-119291634D01*
X200233001Y-119184656D01*
X200224245Y-119181219D01*
X199988632Y-119108542D01*
X199979475Y-119106452D01*
X199735658Y-119069702D01*
X199726281Y-119069000D01*
X199479719Y-119069000D01*
X199470341Y-119069702D01*
X199226524Y-119106452D01*
X199217367Y-119108542D01*
X198981754Y-119181219D01*
X198972998Y-119184656D01*
X198750854Y-119291635D01*
X198742709Y-119296337D01*
X198598903Y-119394382D01*
X198591236Y-119402568D01*
X196375268Y-119402568D01*
X196224186Y-119377357D01*
X196224183Y-119377356D01*
X196219049Y-119376500D01*
X195986951Y-119376500D01*
X195981817Y-119377356D01*
X195981813Y-119377357D01*
X195763158Y-119413844D01*
X195763152Y-119413845D01*
X195758019Y-119414702D01*
X195753097Y-119416391D01*
X195753088Y-119416394D01*
X195543428Y-119488370D01*
X195543415Y-119488375D01*
X195538497Y-119490064D01*
X195533919Y-119492541D01*
X195533911Y-119492545D01*
X195338956Y-119598050D01*
X195338952Y-119598051D01*
X195334374Y-119600530D01*
X195330268Y-119603725D01*
X195330263Y-119603729D01*
X195155327Y-119739887D01*
X195151216Y-119743087D01*
X195147688Y-119746918D01*
X195147684Y-119746923D01*
X194997555Y-119910007D01*
X194997549Y-119910013D01*
X194994021Y-119913847D01*
X194991172Y-119918206D01*
X194991167Y-119918214D01*
X194912750Y-120038241D01*
X194867076Y-120108151D01*
X194864983Y-120112921D01*
X194864981Y-120112926D01*
X194775936Y-120315927D01*
X194775933Y-120315933D01*
X194773843Y-120320700D01*
X194772564Y-120325748D01*
X194772563Y-120325753D01*
X194750512Y-120412832D01*
X194716866Y-120545695D01*
X194716436Y-120550883D01*
X194716435Y-120550890D01*
X194699330Y-120757327D01*
X194697700Y-120777000D01*
X194008300Y-120777000D01*
X193989134Y-120545695D01*
X193932157Y-120320700D01*
X193838924Y-120108151D01*
X193711979Y-119913847D01*
X193554784Y-119743087D01*
X193371626Y-119600530D01*
X193206077Y-119510939D01*
X193172088Y-119492545D01*
X193172085Y-119492543D01*
X193167503Y-119490064D01*
X193162579Y-119488373D01*
X193162571Y-119488370D01*
X193013588Y-119437225D01*
X192969163Y-119410753D01*
X192939113Y-119368666D01*
X192928500Y-119318052D01*
X192928500Y-112511016D01*
X192938091Y-112462798D01*
X192965405Y-112421921D01*
X194153922Y-111233405D01*
X194194799Y-111206091D01*
X194243017Y-111196500D01*
X204958290Y-111196500D01*
X204969272Y-111196980D01*
X205006807Y-111200264D01*
X205043217Y-111190507D01*
X205053937Y-111188130D01*
X205091045Y-111181588D01*
X205100599Y-111176070D01*
X205103882Y-111174876D01*
X205107030Y-111173408D01*
X205117684Y-111170554D01*
X205148558Y-111148934D01*
X205157808Y-111143042D01*
X205190455Y-111124194D01*
X205214685Y-111095315D01*
X205222102Y-111087222D01*
X206083229Y-110226095D01*
X206091299Y-110218699D01*
X206120194Y-110194455D01*
X206139042Y-110161808D01*
X206144934Y-110152558D01*
X206166554Y-110121684D01*
X206169408Y-110111030D01*
X206170876Y-110107882D01*
X206172070Y-110104599D01*
X206177588Y-110095045D01*
X206184130Y-110057937D01*
X206186507Y-110047217D01*
X206196264Y-110010807D01*
X206192979Y-109973257D01*
X206192500Y-109962276D01*
X206192500Y-101619710D01*
X206192980Y-101608728D01*
X206195303Y-101582175D01*
X206195302Y-101582170D01*
X206196263Y-101571193D01*
X206186511Y-101534799D01*
X206184131Y-101524065D01*
X206177588Y-101486955D01*
X206172072Y-101477402D01*
X206170881Y-101474129D01*
X206169408Y-101470971D01*
X206166554Y-101460316D01*
X206144932Y-101429437D01*
X206139042Y-101420191D01*
X206120194Y-101387545D01*
X206091329Y-101363324D01*
X206083226Y-101355899D01*
X205730104Y-101002778D01*
X205722677Y-100994673D01*
X205709492Y-100978960D01*
X205698455Y-100965806D01*
X205688910Y-100960295D01*
X205688909Y-100960294D01*
X205665817Y-100946962D01*
X205656548Y-100941056D01*
X205634718Y-100925771D01*
X205634715Y-100925769D01*
X205625684Y-100919446D01*
X205615036Y-100916592D01*
X205611863Y-100915113D01*
X205608585Y-100913920D01*
X205599045Y-100908412D01*
X205588192Y-100906498D01*
X205588189Y-100906497D01*
X205561946Y-100901870D01*
X205551218Y-100899492D01*
X205525456Y-100892589D01*
X205525454Y-100892588D01*
X205514807Y-100889736D01*
X205503822Y-100890697D01*
X205477272Y-100893020D01*
X205466290Y-100893500D01*
X205166633Y-100893500D01*
X205109850Y-100879980D01*
X205065254Y-100842321D01*
X204993757Y-100745446D01*
X204993753Y-100745442D01*
X204988150Y-100737850D01*
X204979935Y-100731787D01*
X204886480Y-100662814D01*
X204886477Y-100662812D01*
X204878882Y-100657207D01*
X204750699Y-100612354D01*
X204743067Y-100611638D01*
X204743066Y-100611638D01*
X204723201Y-100609775D01*
X204723195Y-100609774D01*
X204720266Y-100609500D01*
X204717313Y-100609500D01*
X204667500Y-100609500D01*
X204604500Y-100592619D01*
X204558381Y-100546500D01*
X204541500Y-100483500D01*
X204541500Y-100222710D01*
X204541980Y-100211728D01*
X204543155Y-100198293D01*
X204545264Y-100174193D01*
X204535504Y-100137772D01*
X204533130Y-100127059D01*
X204532222Y-100121909D01*
X204526588Y-100089955D01*
X204521073Y-100080404D01*
X204519883Y-100077133D01*
X204518408Y-100073970D01*
X204515554Y-100063316D01*
X204493936Y-100032443D01*
X204488039Y-100023186D01*
X204469194Y-99990545D01*
X204440317Y-99966314D01*
X204432214Y-99958888D01*
X202495605Y-98022279D01*
X202468291Y-97981402D01*
X202458700Y-97933184D01*
X202458700Y-95789589D01*
X202474232Y-95728984D01*
X202517000Y-95683322D01*
X202576459Y-95663859D01*
X202637950Y-95675394D01*
X202647412Y-95679806D01*
X202741455Y-95723659D01*
X202788861Y-95729900D01*
X204515138Y-95729899D01*
X204562545Y-95723659D01*
X204666579Y-95675147D01*
X204747747Y-95593979D01*
X204796259Y-95489945D01*
X204802500Y-95442539D01*
X204802499Y-95116262D01*
X204800008Y-95097339D01*
X204810738Y-95027647D01*
X204857233Y-94974632D01*
X204924931Y-94954900D01*
X205592783Y-94954900D01*
X205641001Y-94964491D01*
X205681879Y-94991805D01*
X206266596Y-95576523D01*
X206293909Y-95617400D01*
X206303500Y-95665618D01*
X206303500Y-100818290D01*
X206303019Y-100829272D01*
X206299736Y-100866807D01*
X206302588Y-100877454D01*
X206302589Y-100877456D01*
X206309492Y-100903218D01*
X206311870Y-100913946D01*
X206316497Y-100940189D01*
X206316498Y-100940192D01*
X206318412Y-100951045D01*
X206323920Y-100960585D01*
X206325113Y-100963863D01*
X206326592Y-100967036D01*
X206329446Y-100977684D01*
X206335769Y-100986715D01*
X206335771Y-100986718D01*
X206351056Y-101008548D01*
X206356961Y-101017816D01*
X206375806Y-101050455D01*
X206384247Y-101057538D01*
X206384249Y-101057540D01*
X206404681Y-101074684D01*
X206412785Y-101082111D01*
X206692595Y-101361921D01*
X206719909Y-101402798D01*
X206729500Y-101451016D01*
X206729500Y-122068984D01*
X206719909Y-122117202D01*
X206692595Y-122158079D01*
X205896079Y-122954595D01*
X205855202Y-122981909D01*
X205806984Y-122991500D01*
X179638016Y-122991500D01*
X179589798Y-122981909D01*
X179548921Y-122954595D01*
X178965405Y-122371079D01*
X178938091Y-122330202D01*
X178928500Y-122281984D01*
X178928500Y-122235948D01*
X178939113Y-122185334D01*
X178969163Y-122143247D01*
X179013588Y-122116775D01*
X179029717Y-122111238D01*
X179167503Y-122063936D01*
X179371626Y-121953470D01*
X179554784Y-121810913D01*
X179711979Y-121640153D01*
X179838924Y-121445849D01*
X179932157Y-121233300D01*
X179989134Y-121008305D01*
X180008300Y-120777000D01*
X180697700Y-120777000D01*
X180716866Y-121008305D01*
X180773843Y-121233300D01*
X180775935Y-121238069D01*
X180775936Y-121238072D01*
X180797067Y-121286246D01*
X180867076Y-121445849D01*
X180994021Y-121640153D01*
X181151216Y-121810913D01*
X181334374Y-121953470D01*
X181538497Y-122063936D01*
X181543426Y-122065628D01*
X181543428Y-122065629D01*
X181553201Y-122068984D01*
X181758019Y-122139298D01*
X181986951Y-122177500D01*
X182213838Y-122177500D01*
X182219049Y-122177500D01*
X182447981Y-122139298D01*
X182667503Y-122063936D01*
X182871626Y-121953470D01*
X183054784Y-121810913D01*
X183211979Y-121640153D01*
X183338924Y-121445849D01*
X183432157Y-121233300D01*
X183489134Y-121008305D01*
X183508300Y-120777000D01*
X184197700Y-120777000D01*
X184216866Y-121008305D01*
X184273843Y-121233300D01*
X184275935Y-121238069D01*
X184275936Y-121238072D01*
X184297067Y-121286246D01*
X184367076Y-121445849D01*
X184494021Y-121640153D01*
X184651216Y-121810913D01*
X184834374Y-121953470D01*
X185038497Y-122063936D01*
X185043426Y-122065628D01*
X185043428Y-122065629D01*
X185053201Y-122068984D01*
X185258019Y-122139298D01*
X185486951Y-122177500D01*
X185713838Y-122177500D01*
X185719049Y-122177500D01*
X185947981Y-122139298D01*
X186167503Y-122063936D01*
X186371626Y-121953470D01*
X186554784Y-121810913D01*
X186711979Y-121640153D01*
X186838924Y-121445849D01*
X186932157Y-121233300D01*
X186989134Y-121008305D01*
X187008300Y-120777000D01*
X186989134Y-120545695D01*
X186932157Y-120320700D01*
X186838924Y-120108151D01*
X186711979Y-119913847D01*
X186554784Y-119743087D01*
X186371626Y-119600530D01*
X186206077Y-119510939D01*
X186172088Y-119492545D01*
X186172085Y-119492543D01*
X186167503Y-119490064D01*
X186162579Y-119488373D01*
X186162571Y-119488370D01*
X185952911Y-119416394D01*
X185952905Y-119416392D01*
X185947981Y-119414702D01*
X185942844Y-119413844D01*
X185942841Y-119413844D01*
X185724186Y-119377357D01*
X185724183Y-119377356D01*
X185719049Y-119376500D01*
X185486951Y-119376500D01*
X185481817Y-119377356D01*
X185481813Y-119377357D01*
X185263158Y-119413844D01*
X185263152Y-119413845D01*
X185258019Y-119414702D01*
X185253097Y-119416391D01*
X185253088Y-119416394D01*
X185043428Y-119488370D01*
X185043415Y-119488375D01*
X185038497Y-119490064D01*
X185033919Y-119492541D01*
X185033911Y-119492545D01*
X184838956Y-119598050D01*
X184838952Y-119598051D01*
X184834374Y-119600530D01*
X184830268Y-119603725D01*
X184830263Y-119603729D01*
X184655327Y-119739887D01*
X184651216Y-119743087D01*
X184647688Y-119746918D01*
X184647684Y-119746923D01*
X184497555Y-119910007D01*
X184497549Y-119910013D01*
X184494021Y-119913847D01*
X184491172Y-119918206D01*
X184491167Y-119918214D01*
X184412750Y-120038241D01*
X184367076Y-120108151D01*
X184364983Y-120112921D01*
X184364981Y-120112926D01*
X184275936Y-120315927D01*
X184275933Y-120315933D01*
X184273843Y-120320700D01*
X184272564Y-120325748D01*
X184272563Y-120325753D01*
X184250512Y-120412832D01*
X184216866Y-120545695D01*
X184216436Y-120550883D01*
X184216435Y-120550890D01*
X184199330Y-120757327D01*
X184197700Y-120777000D01*
X183508300Y-120777000D01*
X183489134Y-120545695D01*
X183432157Y-120320700D01*
X183338924Y-120108151D01*
X183211979Y-119913847D01*
X183054784Y-119743087D01*
X182871626Y-119600530D01*
X182706077Y-119510939D01*
X182672088Y-119492545D01*
X182672085Y-119492543D01*
X182667503Y-119490064D01*
X182662579Y-119488373D01*
X182662571Y-119488370D01*
X182513588Y-119437225D01*
X182469163Y-119410753D01*
X182439113Y-119368666D01*
X182428500Y-119318052D01*
X182428500Y-118185016D01*
X182438091Y-118136798D01*
X182465405Y-118095921D01*
X182807441Y-117753885D01*
X186017229Y-114544095D01*
X186025299Y-114536699D01*
X186054194Y-114512455D01*
X186073042Y-114479808D01*
X186078934Y-114470558D01*
X186100554Y-114439684D01*
X186103408Y-114429030D01*
X186104876Y-114425882D01*
X186106070Y-114422599D01*
X186111588Y-114413045D01*
X186118130Y-114375937D01*
X186120507Y-114365217D01*
X186130264Y-114328807D01*
X186126979Y-114291257D01*
X186126500Y-114280276D01*
X186126500Y-102803016D01*
X186136091Y-102754798D01*
X186163405Y-102713921D01*
X188057921Y-100819405D01*
X188098798Y-100792091D01*
X188147016Y-100782500D01*
X190970633Y-100782500D01*
X191035528Y-100800497D01*
X191081885Y-100849347D01*
X191096460Y-100915096D01*
X191075091Y-100978960D01*
X191025770Y-101021082D01*
X191018816Y-101022946D01*
X191009792Y-101029263D01*
X191009784Y-101029268D01*
X190987941Y-101044563D01*
X190978678Y-101050464D01*
X190955591Y-101063793D01*
X190955585Y-101063797D01*
X190946045Y-101069306D01*
X190938960Y-101077748D01*
X190938960Y-101077749D01*
X190921814Y-101098182D01*
X190914390Y-101106282D01*
X188886787Y-103133885D01*
X188878686Y-103141309D01*
X188858252Y-103158455D01*
X188858244Y-103158464D01*
X188849806Y-103165545D01*
X188844295Y-103175089D01*
X188844294Y-103175091D01*
X188830964Y-103198178D01*
X188825063Y-103207441D01*
X188809766Y-103229288D01*
X188809763Y-103229293D01*
X188803446Y-103238316D01*
X188800595Y-103248952D01*
X188799120Y-103252117D01*
X188797920Y-103255413D01*
X188792412Y-103264955D01*
X188790498Y-103275807D01*
X188790498Y-103275808D01*
X188785869Y-103302056D01*
X188783492Y-103312779D01*
X188776589Y-103338542D01*
X188776588Y-103338546D01*
X188773736Y-103349193D01*
X188774696Y-103360175D01*
X188774697Y-103360175D01*
X188777020Y-103386728D01*
X188777500Y-103397710D01*
X188777500Y-119318052D01*
X188766887Y-119368666D01*
X188736837Y-119410753D01*
X188692412Y-119437225D01*
X188543428Y-119488370D01*
X188543415Y-119488375D01*
X188538497Y-119490064D01*
X188533919Y-119492541D01*
X188533911Y-119492545D01*
X188338956Y-119598050D01*
X188338952Y-119598051D01*
X188334374Y-119600530D01*
X188330268Y-119603725D01*
X188330263Y-119603729D01*
X188155327Y-119739887D01*
X188151216Y-119743087D01*
X188147688Y-119746918D01*
X188147684Y-119746923D01*
X187997555Y-119910007D01*
X187997549Y-119910013D01*
X187994021Y-119913847D01*
X187991172Y-119918206D01*
X187991167Y-119918214D01*
X187912750Y-120038241D01*
X187867076Y-120108151D01*
X187864983Y-120112921D01*
X187864981Y-120112926D01*
X187775936Y-120315927D01*
X187775933Y-120315933D01*
X187773843Y-120320700D01*
X187772564Y-120325748D01*
X187772563Y-120325753D01*
X187750512Y-120412832D01*
X187716866Y-120545695D01*
X187716436Y-120550883D01*
X187716435Y-120550890D01*
X187699330Y-120757327D01*
X187697700Y-120777000D01*
X187716866Y-121008305D01*
X187773843Y-121233300D01*
X187775935Y-121238069D01*
X187775936Y-121238072D01*
X187797067Y-121286246D01*
X187867076Y-121445849D01*
X187994021Y-121640153D01*
X188151216Y-121810913D01*
X188334374Y-121953470D01*
X188538497Y-122063936D01*
X188543426Y-122065628D01*
X188543428Y-122065629D01*
X188553201Y-122068984D01*
X188758019Y-122139298D01*
X188986951Y-122177500D01*
X189213838Y-122177500D01*
X189219049Y-122177500D01*
X189447981Y-122139298D01*
X189667503Y-122063936D01*
X189871626Y-121953470D01*
X190054784Y-121810913D01*
X190211979Y-121640153D01*
X190338924Y-121445849D01*
X190432157Y-121233300D01*
X190489134Y-121008305D01*
X190508300Y-120777000D01*
X190489134Y-120545695D01*
X190432157Y-120320700D01*
X190338924Y-120108151D01*
X190211979Y-119913847D01*
X190054784Y-119743087D01*
X189871626Y-119600530D01*
X189706077Y-119510939D01*
X189672088Y-119492545D01*
X189672085Y-119492543D01*
X189667503Y-119490064D01*
X189662579Y-119488373D01*
X189662571Y-119488370D01*
X189513588Y-119437225D01*
X189469163Y-119410753D01*
X189439113Y-119368666D01*
X189428500Y-119318052D01*
X189428500Y-106217266D01*
X193742500Y-106217266D01*
X193742774Y-106220195D01*
X193742775Y-106220201D01*
X193744357Y-106237066D01*
X193745354Y-106247699D01*
X193790207Y-106375882D01*
X193795812Y-106383477D01*
X193795814Y-106383480D01*
X193863032Y-106474557D01*
X193870850Y-106485150D01*
X193878442Y-106490753D01*
X193968454Y-106557185D01*
X193980118Y-106565793D01*
X194108301Y-106610646D01*
X194138734Y-106613500D01*
X195494313Y-106613500D01*
X195497266Y-106613500D01*
X195527699Y-106610646D01*
X195655882Y-106565793D01*
X195765150Y-106485150D01*
X195845793Y-106375882D01*
X195890646Y-106247699D01*
X195893500Y-106217266D01*
X197044500Y-106217266D01*
X197044774Y-106220195D01*
X197044775Y-106220201D01*
X197046357Y-106237066D01*
X197047354Y-106247699D01*
X197092207Y-106375882D01*
X197097812Y-106383477D01*
X197097814Y-106383480D01*
X197165032Y-106474557D01*
X197172850Y-106485150D01*
X197180442Y-106490753D01*
X197270454Y-106557185D01*
X197282118Y-106565793D01*
X197410301Y-106610646D01*
X197440734Y-106613500D01*
X198796313Y-106613500D01*
X198799266Y-106613500D01*
X198829699Y-106610646D01*
X198957882Y-106565793D01*
X199067150Y-106485150D01*
X199147793Y-106375882D01*
X199192646Y-106247699D01*
X199195500Y-106217266D01*
X199195500Y-106214266D01*
X199965500Y-106214266D01*
X199965774Y-106217195D01*
X199965775Y-106217201D01*
X199966939Y-106229615D01*
X199968354Y-106244699D01*
X200013207Y-106372882D01*
X200018812Y-106380477D01*
X200018814Y-106380480D01*
X200088246Y-106474557D01*
X200093850Y-106482150D01*
X200203118Y-106562793D01*
X200331301Y-106607646D01*
X200361734Y-106610500D01*
X201717313Y-106610500D01*
X201720266Y-106610500D01*
X201750699Y-106607646D01*
X201878882Y-106562793D01*
X201988150Y-106482150D01*
X202068793Y-106372882D01*
X202113646Y-106244699D01*
X202116500Y-106214266D01*
X202116500Y-105355734D01*
X202113646Y-105325301D01*
X202068793Y-105197118D01*
X201988150Y-105087850D01*
X201980557Y-105082246D01*
X201886480Y-105012814D01*
X201886477Y-105012812D01*
X201878882Y-105007207D01*
X201750699Y-104962354D01*
X201743067Y-104961638D01*
X201743066Y-104961638D01*
X201723201Y-104959775D01*
X201723195Y-104959774D01*
X201720266Y-104959500D01*
X201717313Y-104959500D01*
X201492500Y-104959500D01*
X201429500Y-104942619D01*
X201383381Y-104896500D01*
X201366500Y-104833500D01*
X201366500Y-103986500D01*
X201383381Y-103923500D01*
X201429500Y-103877381D01*
X201492500Y-103860500D01*
X201542313Y-103860500D01*
X201545266Y-103860500D01*
X201575699Y-103857646D01*
X201703882Y-103812793D01*
X201813150Y-103732150D01*
X201893793Y-103622882D01*
X201938646Y-103494699D01*
X201941500Y-103464266D01*
X201941500Y-102830734D01*
X201938646Y-102800301D01*
X201893793Y-102672118D01*
X201813150Y-102562850D01*
X201805557Y-102557246D01*
X201711480Y-102487814D01*
X201711477Y-102487812D01*
X201703882Y-102482207D01*
X201575699Y-102437354D01*
X201568067Y-102436638D01*
X201568066Y-102436638D01*
X201548201Y-102434775D01*
X201548195Y-102434774D01*
X201545266Y-102434500D01*
X200536734Y-102434500D01*
X200533805Y-102434774D01*
X200533798Y-102434775D01*
X200513933Y-102436638D01*
X200513930Y-102436638D01*
X200506301Y-102437354D01*
X200499063Y-102439886D01*
X200499061Y-102439887D01*
X200387034Y-102479087D01*
X200378118Y-102482207D01*
X200370525Y-102487810D01*
X200370519Y-102487814D01*
X200276442Y-102557246D01*
X200276438Y-102557249D01*
X200268850Y-102562850D01*
X200263249Y-102570438D01*
X200263246Y-102570442D01*
X200193814Y-102664519D01*
X200193810Y-102664525D01*
X200188207Y-102672118D01*
X200185087Y-102681033D01*
X200185087Y-102681034D01*
X200173580Y-102713921D01*
X200143354Y-102800301D01*
X200140500Y-102830734D01*
X200140500Y-103464266D01*
X200143354Y-103494699D01*
X200188207Y-103622882D01*
X200193812Y-103630477D01*
X200193814Y-103630480D01*
X200263246Y-103724557D01*
X200268850Y-103732150D01*
X200378118Y-103812793D01*
X200506301Y-103857646D01*
X200536734Y-103860500D01*
X200589500Y-103860500D01*
X200652500Y-103877381D01*
X200698619Y-103923500D01*
X200715500Y-103986500D01*
X200715500Y-104833500D01*
X200698619Y-104896500D01*
X200652500Y-104942619D01*
X200589500Y-104959500D01*
X200361734Y-104959500D01*
X200358805Y-104959774D01*
X200358798Y-104959775D01*
X200338933Y-104961638D01*
X200338930Y-104961638D01*
X200331301Y-104962354D01*
X200324063Y-104964886D01*
X200324061Y-104964887D01*
X200212034Y-105004087D01*
X200203118Y-105007207D01*
X200195525Y-105012810D01*
X200195519Y-105012814D01*
X200101442Y-105082246D01*
X200101438Y-105082249D01*
X200093850Y-105087850D01*
X200088249Y-105095438D01*
X200088246Y-105095442D01*
X200018814Y-105189519D01*
X200018810Y-105189525D01*
X200013207Y-105197118D01*
X199968354Y-105325301D01*
X199965500Y-105355734D01*
X199965500Y-106214266D01*
X199195500Y-106214266D01*
X199195500Y-105358734D01*
X199192646Y-105328301D01*
X199147793Y-105200118D01*
X199067150Y-105090850D01*
X199055492Y-105082246D01*
X198965480Y-105015814D01*
X198965477Y-105015812D01*
X198957882Y-105010207D01*
X198829699Y-104965354D01*
X198822067Y-104964638D01*
X198822066Y-104964638D01*
X198802201Y-104962775D01*
X198802195Y-104962774D01*
X198799266Y-104962500D01*
X198796313Y-104962500D01*
X198571500Y-104962500D01*
X198508500Y-104945619D01*
X198462381Y-104899500D01*
X198445500Y-104836500D01*
X198445500Y-103986500D01*
X198462381Y-103923500D01*
X198508500Y-103877381D01*
X198571500Y-103860500D01*
X198621313Y-103860500D01*
X198624266Y-103860500D01*
X198654699Y-103857646D01*
X198782882Y-103812793D01*
X198892150Y-103732150D01*
X198972793Y-103622882D01*
X199017646Y-103494699D01*
X199020500Y-103464266D01*
X199020500Y-102830734D01*
X199017646Y-102800301D01*
X198972793Y-102672118D01*
X198892150Y-102562850D01*
X198884557Y-102557246D01*
X198790480Y-102487814D01*
X198790477Y-102487812D01*
X198782882Y-102482207D01*
X198654699Y-102437354D01*
X198647067Y-102436638D01*
X198647066Y-102436638D01*
X198627201Y-102434775D01*
X198627195Y-102434774D01*
X198624266Y-102434500D01*
X197615734Y-102434500D01*
X197612805Y-102434774D01*
X197612798Y-102434775D01*
X197592933Y-102436638D01*
X197592930Y-102436638D01*
X197585301Y-102437354D01*
X197578063Y-102439886D01*
X197578061Y-102439887D01*
X197466034Y-102479087D01*
X197457118Y-102482207D01*
X197449525Y-102487810D01*
X197449519Y-102487814D01*
X197355442Y-102557246D01*
X197355438Y-102557249D01*
X197347850Y-102562850D01*
X197342249Y-102570438D01*
X197342246Y-102570442D01*
X197272814Y-102664519D01*
X197272810Y-102664525D01*
X197267207Y-102672118D01*
X197264087Y-102681033D01*
X197264087Y-102681034D01*
X197252580Y-102713921D01*
X197222354Y-102800301D01*
X197219500Y-102830734D01*
X197219500Y-103464266D01*
X197222354Y-103494699D01*
X197267207Y-103622882D01*
X197272812Y-103630477D01*
X197272814Y-103630480D01*
X197342246Y-103724557D01*
X197347850Y-103732150D01*
X197457118Y-103812793D01*
X197585301Y-103857646D01*
X197615734Y-103860500D01*
X197668500Y-103860500D01*
X197731500Y-103877381D01*
X197777619Y-103923500D01*
X197794500Y-103986500D01*
X197794500Y-104836500D01*
X197777619Y-104899500D01*
X197731500Y-104945619D01*
X197668500Y-104962500D01*
X197440734Y-104962500D01*
X197437805Y-104962774D01*
X197437798Y-104962775D01*
X197417933Y-104964638D01*
X197417930Y-104964638D01*
X197410301Y-104965354D01*
X197403063Y-104967886D01*
X197403061Y-104967887D01*
X197291034Y-105007087D01*
X197282118Y-105010207D01*
X197274525Y-105015810D01*
X197274519Y-105015814D01*
X197180442Y-105085246D01*
X197180438Y-105085249D01*
X197172850Y-105090850D01*
X197167249Y-105098438D01*
X197167246Y-105098442D01*
X197097814Y-105192519D01*
X197097810Y-105192525D01*
X197092207Y-105200118D01*
X197047354Y-105328301D01*
X197046638Y-105335930D01*
X197046638Y-105335933D01*
X197045057Y-105352798D01*
X197044500Y-105358734D01*
X197044500Y-106217266D01*
X195893500Y-106217266D01*
X195893500Y-105358734D01*
X195890646Y-105328301D01*
X195845793Y-105200118D01*
X195765150Y-105090850D01*
X195753492Y-105082246D01*
X195663480Y-105015814D01*
X195663477Y-105015812D01*
X195655882Y-105010207D01*
X195527699Y-104965354D01*
X195520067Y-104964638D01*
X195520066Y-104964638D01*
X195500201Y-104962775D01*
X195500195Y-104962774D01*
X195497266Y-104962500D01*
X195494313Y-104962500D01*
X195269500Y-104962500D01*
X195206500Y-104945619D01*
X195160381Y-104899500D01*
X195143500Y-104836500D01*
X195143500Y-103986500D01*
X195160381Y-103923500D01*
X195206500Y-103877381D01*
X195269500Y-103860500D01*
X195319313Y-103860500D01*
X195322266Y-103860500D01*
X195352699Y-103857646D01*
X195480882Y-103812793D01*
X195590150Y-103732150D01*
X195670793Y-103622882D01*
X195715646Y-103494699D01*
X195718500Y-103464266D01*
X195718500Y-102830734D01*
X195715646Y-102800301D01*
X195670793Y-102672118D01*
X195590150Y-102562850D01*
X195582557Y-102557246D01*
X195488480Y-102487814D01*
X195488477Y-102487812D01*
X195480882Y-102482207D01*
X195352699Y-102437354D01*
X195345067Y-102436638D01*
X195345066Y-102436638D01*
X195325201Y-102434775D01*
X195325195Y-102434774D01*
X195322266Y-102434500D01*
X194313734Y-102434500D01*
X194310805Y-102434774D01*
X194310798Y-102434775D01*
X194290933Y-102436638D01*
X194290930Y-102436638D01*
X194283301Y-102437354D01*
X194276063Y-102439886D01*
X194276061Y-102439887D01*
X194164034Y-102479087D01*
X194155118Y-102482207D01*
X194147525Y-102487810D01*
X194147519Y-102487814D01*
X194053442Y-102557246D01*
X194053438Y-102557249D01*
X194045850Y-102562850D01*
X194040249Y-102570438D01*
X194040246Y-102570442D01*
X193970814Y-102664519D01*
X193970810Y-102664525D01*
X193965207Y-102672118D01*
X193962087Y-102681033D01*
X193962087Y-102681034D01*
X193950580Y-102713921D01*
X193920354Y-102800301D01*
X193917500Y-102830734D01*
X193917500Y-103464266D01*
X193920354Y-103494699D01*
X193965207Y-103622882D01*
X193970812Y-103630477D01*
X193970814Y-103630480D01*
X194040246Y-103724557D01*
X194045850Y-103732150D01*
X194155118Y-103812793D01*
X194283301Y-103857646D01*
X194313734Y-103860500D01*
X194366500Y-103860500D01*
X194429500Y-103877381D01*
X194475619Y-103923500D01*
X194492500Y-103986500D01*
X194492500Y-104836500D01*
X194475619Y-104899500D01*
X194429500Y-104945619D01*
X194366500Y-104962500D01*
X194138734Y-104962500D01*
X194135805Y-104962774D01*
X194135798Y-104962775D01*
X194115933Y-104964638D01*
X194115930Y-104964638D01*
X194108301Y-104965354D01*
X194101063Y-104967886D01*
X194101061Y-104967887D01*
X193989034Y-105007087D01*
X193980118Y-105010207D01*
X193972525Y-105015810D01*
X193972519Y-105015814D01*
X193878442Y-105085246D01*
X193878438Y-105085249D01*
X193870850Y-105090850D01*
X193865249Y-105098438D01*
X193865246Y-105098442D01*
X193795814Y-105192519D01*
X193795810Y-105192525D01*
X193790207Y-105200118D01*
X193745354Y-105328301D01*
X193744638Y-105335930D01*
X193744638Y-105335933D01*
X193743057Y-105352798D01*
X193742500Y-105358734D01*
X193742500Y-106217266D01*
X189428500Y-106217266D01*
X189428500Y-103565016D01*
X189438091Y-103516798D01*
X189465405Y-103475921D01*
X191256421Y-101684905D01*
X191297298Y-101657591D01*
X191345516Y-101648000D01*
X193823360Y-101648000D01*
X193873747Y-101658513D01*
X193915725Y-101688299D01*
X193942286Y-101732379D01*
X193965207Y-101797882D01*
X193970812Y-101805477D01*
X193970814Y-101805480D01*
X194037039Y-101895211D01*
X194045850Y-101907150D01*
X194155118Y-101987793D01*
X194283301Y-102032646D01*
X194313734Y-102035500D01*
X195319313Y-102035500D01*
X195322266Y-102035500D01*
X195352699Y-102032646D01*
X195480882Y-101987793D01*
X195590150Y-101907150D01*
X195670793Y-101797882D01*
X195715646Y-101669699D01*
X195718500Y-101639266D01*
X195718500Y-101005734D01*
X195715646Y-100975301D01*
X195696102Y-100919446D01*
X195691605Y-100906595D01*
X195687693Y-100836942D01*
X195721437Y-100775887D01*
X198234629Y-98262695D01*
X198242699Y-98255299D01*
X198271594Y-98231055D01*
X198290442Y-98198408D01*
X198296334Y-98189158D01*
X198317954Y-98158284D01*
X198319095Y-98154021D01*
X198360041Y-98106080D01*
X198423905Y-98084712D01*
X198489653Y-98099288D01*
X198538503Y-98145644D01*
X198556500Y-98210539D01*
X198556500Y-98415783D01*
X198546909Y-98464001D01*
X198519595Y-98504879D01*
X198030777Y-98993695D01*
X198022678Y-99001116D01*
X198014420Y-99008046D01*
X197981645Y-99027936D01*
X197971993Y-99031934D01*
X197951791Y-99040302D01*
X197951787Y-99040304D01*
X197944159Y-99043464D01*
X197937610Y-99048488D01*
X197937605Y-99048492D01*
X197825263Y-99134695D01*
X197825259Y-99134698D01*
X197818718Y-99139718D01*
X197813698Y-99146259D01*
X197813695Y-99146263D01*
X197727490Y-99258608D01*
X197727487Y-99258611D01*
X197722464Y-99265159D01*
X197719306Y-99272782D01*
X197719303Y-99272788D01*
X197669529Y-99392955D01*
X197661956Y-99411238D01*
X197660879Y-99419418D01*
X197660877Y-99419426D01*
X197645458Y-99536556D01*
X197641318Y-99568000D01*
X197642396Y-99576188D01*
X197660877Y-99716573D01*
X197660878Y-99716579D01*
X197661956Y-99724762D01*
X197665115Y-99732390D01*
X197665116Y-99732391D01*
X197719303Y-99863211D01*
X197719304Y-99863214D01*
X197722464Y-99870841D01*
X197818718Y-99996282D01*
X197825263Y-100001304D01*
X197872204Y-100037323D01*
X197908506Y-100081557D01*
X197921500Y-100137286D01*
X197921500Y-100483500D01*
X197904619Y-100546500D01*
X197858500Y-100592619D01*
X197795500Y-100609500D01*
X197615734Y-100609500D01*
X197612805Y-100609774D01*
X197612798Y-100609775D01*
X197592933Y-100611638D01*
X197592930Y-100611638D01*
X197585301Y-100612354D01*
X197578063Y-100614886D01*
X197578061Y-100614887D01*
X197466034Y-100654087D01*
X197457118Y-100657207D01*
X197449525Y-100662810D01*
X197449519Y-100662814D01*
X197355442Y-100732246D01*
X197355438Y-100732249D01*
X197347850Y-100737850D01*
X197342249Y-100745438D01*
X197342246Y-100745442D01*
X197272814Y-100839519D01*
X197272810Y-100839525D01*
X197267207Y-100847118D01*
X197264087Y-100856033D01*
X197264087Y-100856034D01*
X197230842Y-100951045D01*
X197222354Y-100975301D01*
X197219500Y-101005734D01*
X197219500Y-101639266D01*
X197219774Y-101642195D01*
X197219775Y-101642201D01*
X197221305Y-101658513D01*
X197222354Y-101669699D01*
X197267207Y-101797882D01*
X197272812Y-101805477D01*
X197272814Y-101805480D01*
X197339039Y-101895211D01*
X197347850Y-101907150D01*
X197457118Y-101987793D01*
X197585301Y-102032646D01*
X197615734Y-102035500D01*
X198621313Y-102035500D01*
X198624266Y-102035500D01*
X198654699Y-102032646D01*
X198782882Y-101987793D01*
X198892150Y-101907150D01*
X198972793Y-101797882D01*
X199017646Y-101669699D01*
X199020500Y-101639266D01*
X199020500Y-101005734D01*
X199017646Y-100975301D01*
X198972793Y-100847118D01*
X198955573Y-100823786D01*
X198918225Y-100773181D01*
X198892150Y-100737850D01*
X198883935Y-100731787D01*
X198790480Y-100662814D01*
X198790477Y-100662812D01*
X198782882Y-100657207D01*
X198656884Y-100613118D01*
X198612798Y-100586555D01*
X198583013Y-100544576D01*
X198572500Y-100494190D01*
X198572500Y-100137286D01*
X198585494Y-100081557D01*
X198621796Y-100037323D01*
X198675282Y-99996282D01*
X198771536Y-99870841D01*
X198832044Y-99724762D01*
X198852682Y-99568000D01*
X198832044Y-99411238D01*
X198776932Y-99278186D01*
X198767342Y-99229972D01*
X198776933Y-99181754D01*
X198804244Y-99140880D01*
X199098229Y-98846895D01*
X199106299Y-98839499D01*
X199135194Y-98815255D01*
X199154042Y-98782608D01*
X199159934Y-98773358D01*
X199181554Y-98742484D01*
X199184408Y-98731830D01*
X199185876Y-98728682D01*
X199187070Y-98725399D01*
X199192588Y-98715845D01*
X199199130Y-98678737D01*
X199201507Y-98668017D01*
X199211264Y-98631607D01*
X199207979Y-98594057D01*
X199207500Y-98583076D01*
X199207500Y-92424898D01*
X199207980Y-92413916D01*
X199208794Y-92404612D01*
X199211263Y-92376393D01*
X199201506Y-92339983D01*
X199199132Y-92329270D01*
X199194502Y-92303011D01*
X199192588Y-92292155D01*
X199187074Y-92282605D01*
X199185883Y-92279331D01*
X199184406Y-92276164D01*
X199181553Y-92265516D01*
X199159941Y-92234650D01*
X199154035Y-92225379D01*
X199140707Y-92202293D01*
X199140705Y-92202290D01*
X199135194Y-92192745D01*
X199126751Y-92185660D01*
X199126749Y-92185658D01*
X199106329Y-92168524D01*
X199098226Y-92161099D01*
X198750304Y-91813178D01*
X198742877Y-91805073D01*
X198718655Y-91776206D01*
X198709110Y-91770695D01*
X198709109Y-91770694D01*
X198686017Y-91757362D01*
X198676748Y-91751456D01*
X198654918Y-91736171D01*
X198654915Y-91736169D01*
X198645884Y-91729846D01*
X198635236Y-91726992D01*
X198632063Y-91725513D01*
X198628785Y-91724320D01*
X198619245Y-91718812D01*
X198608392Y-91716898D01*
X198608389Y-91716897D01*
X198582146Y-91712270D01*
X198571418Y-91709892D01*
X198545656Y-91702989D01*
X198545654Y-91702988D01*
X198535007Y-91700136D01*
X198524022Y-91701097D01*
X198497472Y-91703420D01*
X198486490Y-91703900D01*
X197924932Y-91703900D01*
X197857233Y-91684168D01*
X197810738Y-91631151D01*
X197800010Y-91561455D01*
X197801095Y-91553213D01*
X197802500Y-91542539D01*
X197802499Y-91216262D01*
X197800008Y-91197339D01*
X197810738Y-91127647D01*
X197857233Y-91074632D01*
X197924931Y-91054900D01*
X200538090Y-91054900D01*
X200549072Y-91055380D01*
X200586607Y-91058664D01*
X200623017Y-91048907D01*
X200633737Y-91046530D01*
X200670845Y-91039988D01*
X200680399Y-91034470D01*
X200683682Y-91033276D01*
X200686830Y-91031808D01*
X200697484Y-91028954D01*
X200728358Y-91007334D01*
X200737608Y-91001442D01*
X200770255Y-90982594D01*
X200794484Y-90953718D01*
X200801896Y-90945629D01*
X201536642Y-90210883D01*
X201544710Y-90203490D01*
X201573594Y-90179255D01*
X201592438Y-90146614D01*
X201598327Y-90137368D01*
X201619954Y-90106484D01*
X201622808Y-90095830D01*
X201624276Y-90092682D01*
X201625470Y-90089400D01*
X201630988Y-90079845D01*
X201637534Y-90042712D01*
X201639903Y-90032026D01*
X201649663Y-89995607D01*
X201646379Y-89958069D01*
X201645900Y-89947088D01*
X201645900Y-89176768D01*
X202207647Y-89176768D01*
X202218802Y-89179400D01*
X203385410Y-89179400D01*
X203398493Y-89175893D01*
X203402000Y-89162810D01*
X203902000Y-89162810D01*
X203905506Y-89175893D01*
X203918590Y-89179400D01*
X205085198Y-89179400D01*
X205096352Y-89176768D01*
X205095767Y-89165319D01*
X205064767Y-89058620D01*
X205058520Y-89044182D01*
X204985180Y-88920173D01*
X204975532Y-88907735D01*
X204873664Y-88805867D01*
X204864073Y-88798427D01*
X212572760Y-88798427D01*
X212578769Y-88807859D01*
X213285170Y-89514260D01*
X213296899Y-89521032D01*
X213308630Y-89514259D01*
X214015032Y-88807856D01*
X214021038Y-88798428D01*
X214013486Y-88790185D01*
X213957902Y-88751266D01*
X213948413Y-88745787D01*
X213750953Y-88653710D01*
X213740661Y-88649964D01*
X213530212Y-88593574D01*
X213519419Y-88591671D01*
X213302375Y-88572683D01*
X213291425Y-88572683D01*
X213074380Y-88591671D01*
X213063587Y-88593574D01*
X212853138Y-88649964D01*
X212842846Y-88653710D01*
X212645385Y-88745787D01*
X212635895Y-88751267D01*
X212580313Y-88790185D01*
X212572760Y-88798427D01*
X204864073Y-88798427D01*
X204861226Y-88796219D01*
X204737217Y-88722879D01*
X204722779Y-88716632D01*
X204582986Y-88676018D01*
X204570399Y-88673719D01*
X204543383Y-88671593D01*
X204538458Y-88671400D01*
X203918590Y-88671400D01*
X203905506Y-88674906D01*
X203902000Y-88687990D01*
X203902000Y-89162810D01*
X203402000Y-89162810D01*
X203402000Y-88687991D01*
X203398493Y-88674907D01*
X203385410Y-88671401D01*
X202765547Y-88671401D01*
X202760610Y-88671594D01*
X202733607Y-88673719D01*
X202721007Y-88676020D01*
X202581220Y-88716632D01*
X202566782Y-88722879D01*
X202442773Y-88796219D01*
X202430335Y-88805867D01*
X202328467Y-88907735D01*
X202318819Y-88920173D01*
X202245479Y-89044182D01*
X202239232Y-89058620D01*
X202208232Y-89165319D01*
X202207647Y-89176768D01*
X201645900Y-89176768D01*
X201645900Y-86642103D01*
X206996200Y-86642103D01*
X206996525Y-86648492D01*
X207006107Y-86742288D01*
X207008967Y-86755646D01*
X207060235Y-86910364D01*
X207066392Y-86923567D01*
X207151711Y-87061891D01*
X207160758Y-87073332D01*
X207275667Y-87188241D01*
X207287108Y-87197288D01*
X207425432Y-87282607D01*
X207438635Y-87288764D01*
X207593353Y-87340032D01*
X207606711Y-87342892D01*
X207700507Y-87352474D01*
X207706897Y-87352800D01*
X207958610Y-87352800D01*
X207971693Y-87349293D01*
X207975200Y-87336210D01*
X208483200Y-87336210D01*
X208486706Y-87349293D01*
X208499790Y-87352800D01*
X208751503Y-87352800D01*
X208757892Y-87352474D01*
X208851688Y-87342892D01*
X208865046Y-87340032D01*
X209019764Y-87288764D01*
X209032967Y-87282607D01*
X209171291Y-87197288D01*
X209182732Y-87188241D01*
X209289373Y-87081600D01*
X214573082Y-87081600D01*
X214580473Y-87089918D01*
X214807180Y-87254629D01*
X214813861Y-87258869D01*
X215083472Y-87407089D01*
X215090607Y-87410447D01*
X215376669Y-87523707D01*
X215384195Y-87526152D01*
X215682178Y-87602662D01*
X215689950Y-87604144D01*
X215995178Y-87642703D01*
X216003069Y-87643200D01*
X216310731Y-87643200D01*
X216318621Y-87642703D01*
X216623849Y-87604144D01*
X216631621Y-87602662D01*
X216929604Y-87526152D01*
X216937130Y-87523707D01*
X217223192Y-87410447D01*
X217230327Y-87407089D01*
X217499938Y-87258869D01*
X217506619Y-87254629D01*
X217733326Y-87089917D01*
X217740717Y-87081600D01*
X217734715Y-87072225D01*
X216168629Y-85506139D01*
X216156900Y-85499367D01*
X216145170Y-85506139D01*
X214579083Y-87072225D01*
X214573082Y-87081600D01*
X209289373Y-87081600D01*
X209297641Y-87073332D01*
X209306688Y-87061891D01*
X209392007Y-86923567D01*
X209398164Y-86910364D01*
X209449432Y-86755646D01*
X209452292Y-86742288D01*
X209461874Y-86648492D01*
X209462200Y-86642103D01*
X209462200Y-86615390D01*
X209458693Y-86602306D01*
X209445610Y-86598800D01*
X208499790Y-86598800D01*
X208486706Y-86602306D01*
X208483200Y-86615390D01*
X208483200Y-87336210D01*
X207975200Y-87336210D01*
X207975200Y-86615390D01*
X207971693Y-86602306D01*
X207958610Y-86598800D01*
X207012790Y-86598800D01*
X206999706Y-86602306D01*
X206996200Y-86615390D01*
X206996200Y-86642103D01*
X201645900Y-86642103D01*
X201645900Y-85632616D01*
X201655491Y-85584398D01*
X201682805Y-85543521D01*
X201977121Y-85249205D01*
X202017998Y-85221891D01*
X202066216Y-85212300D01*
X202283102Y-85212300D01*
X202347879Y-85230226D01*
X202394224Y-85278905D01*
X202465343Y-85411962D01*
X202465347Y-85411969D01*
X202468264Y-85417425D01*
X202472189Y-85422208D01*
X202472190Y-85422209D01*
X202549253Y-85516110D01*
X202587043Y-85562157D01*
X202731775Y-85680936D01*
X202896899Y-85769196D01*
X203076069Y-85823547D01*
X203262400Y-85841899D01*
X203448731Y-85823547D01*
X203627901Y-85769196D01*
X203793025Y-85680936D01*
X203937757Y-85562157D01*
X204056536Y-85417425D01*
X204130575Y-85278905D01*
X204176921Y-85230226D01*
X204241698Y-85212300D01*
X207296788Y-85212300D01*
X207359152Y-85228816D01*
X207405167Y-85274035D01*
X207422769Y-85336101D01*
X207407344Y-85398744D01*
X207362935Y-85445541D01*
X207287108Y-85492311D01*
X207275667Y-85501358D01*
X207160758Y-85616267D01*
X207151711Y-85627708D01*
X207066392Y-85766032D01*
X207060235Y-85779235D01*
X207008967Y-85933953D01*
X207006107Y-85947311D01*
X206996525Y-86041107D01*
X206996200Y-86047498D01*
X206996200Y-86074210D01*
X206999706Y-86087293D01*
X207012790Y-86090800D01*
X209445610Y-86090800D01*
X209458693Y-86087293D01*
X209462200Y-86074210D01*
X209462200Y-86047498D01*
X209461874Y-86041107D01*
X209452292Y-85947311D01*
X209449432Y-85933953D01*
X209398164Y-85779235D01*
X209392007Y-85766032D01*
X209306688Y-85627708D01*
X209297641Y-85616267D01*
X209182732Y-85501358D01*
X209171291Y-85492311D01*
X209032967Y-85406992D01*
X209019757Y-85400832D01*
X208873062Y-85352222D01*
X208820830Y-85318855D01*
X208790827Y-85264621D01*
X208790312Y-85202643D01*
X208819411Y-85147918D01*
X208832634Y-85139158D01*
X213644190Y-85139158D01*
X213663506Y-85446194D01*
X213664499Y-85454055D01*
X213722145Y-85756246D01*
X213724116Y-85763923D01*
X213819184Y-86056509D01*
X213822099Y-86063872D01*
X213953089Y-86342240D01*
X213956901Y-86349174D01*
X214121747Y-86608930D01*
X214126400Y-86615335D01*
X214201726Y-86706387D01*
X214213209Y-86714279D01*
X214225386Y-86707502D01*
X215785960Y-85146929D01*
X215792732Y-85135200D01*
X216521067Y-85135200D01*
X216527839Y-85146929D01*
X218088413Y-86707503D01*
X218100588Y-86714280D01*
X218112072Y-86706387D01*
X218187399Y-86615335D01*
X218192052Y-86608930D01*
X218356898Y-86349174D01*
X218360710Y-86342240D01*
X218491700Y-86063872D01*
X218494615Y-86056509D01*
X218589683Y-85763923D01*
X218591654Y-85756246D01*
X218649300Y-85454055D01*
X218650293Y-85446194D01*
X218669610Y-85139158D01*
X218669610Y-85131242D01*
X218650293Y-84824205D01*
X218649300Y-84816344D01*
X218591654Y-84514153D01*
X218589683Y-84506476D01*
X218494615Y-84213890D01*
X218491700Y-84206527D01*
X218360710Y-83928159D01*
X218356898Y-83921225D01*
X218192052Y-83661469D01*
X218187399Y-83655064D01*
X218112072Y-83564011D01*
X218100589Y-83556119D01*
X218088412Y-83562896D01*
X216527839Y-85123470D01*
X216521067Y-85135200D01*
X215792732Y-85135200D01*
X215785960Y-85123470D01*
X214225386Y-83562896D01*
X214213210Y-83556119D01*
X214201725Y-83564012D01*
X214126395Y-83655070D01*
X214121750Y-83661463D01*
X213956901Y-83921225D01*
X213953089Y-83928159D01*
X213822099Y-84206527D01*
X213819184Y-84213890D01*
X213724116Y-84506476D01*
X213722145Y-84514153D01*
X213664499Y-84816344D01*
X213663506Y-84824205D01*
X213644190Y-85131242D01*
X213644190Y-85139158D01*
X208832634Y-85139158D01*
X208871078Y-85113690D01*
X208917082Y-85097593D01*
X209026350Y-85016950D01*
X209106993Y-84907682D01*
X209151846Y-84779499D01*
X209154700Y-84749066D01*
X209154700Y-84140534D01*
X209151846Y-84110101D01*
X209106993Y-83981918D01*
X209026350Y-83872650D01*
X208945275Y-83812814D01*
X208924680Y-83797614D01*
X208924677Y-83797612D01*
X208917082Y-83792007D01*
X208788899Y-83747154D01*
X208781267Y-83746438D01*
X208781266Y-83746438D01*
X208761401Y-83744575D01*
X208761395Y-83744574D01*
X208758466Y-83744300D01*
X207699934Y-83744300D01*
X207697005Y-83744574D01*
X207696998Y-83744575D01*
X207677133Y-83746438D01*
X207677130Y-83746438D01*
X207669501Y-83747154D01*
X207662263Y-83749686D01*
X207662261Y-83749687D01*
X207550234Y-83788887D01*
X207541318Y-83792007D01*
X207533725Y-83797610D01*
X207533719Y-83797614D01*
X207439642Y-83867046D01*
X207439638Y-83867049D01*
X207432050Y-83872650D01*
X207426449Y-83880238D01*
X207426446Y-83880242D01*
X207357014Y-83974319D01*
X207357010Y-83974325D01*
X207351407Y-83981918D01*
X207348287Y-83990833D01*
X207348287Y-83990834D01*
X207311282Y-84096590D01*
X207306554Y-84110101D01*
X207305838Y-84117730D01*
X207305838Y-84117733D01*
X207304413Y-84132933D01*
X207303700Y-84140534D01*
X207303700Y-84143487D01*
X207303700Y-84435300D01*
X207286819Y-84498300D01*
X207240700Y-84544419D01*
X207177700Y-84561300D01*
X204241698Y-84561300D01*
X204176921Y-84543374D01*
X204130576Y-84494695D01*
X204059456Y-84361637D01*
X204059453Y-84361633D01*
X204056536Y-84356175D01*
X203937757Y-84211443D01*
X203793025Y-84092664D01*
X203787566Y-84089746D01*
X203633359Y-84007321D01*
X203633356Y-84007319D01*
X203627901Y-84004404D01*
X203621981Y-84002608D01*
X203621976Y-84002606D01*
X203454660Y-83951851D01*
X203454654Y-83951849D01*
X203448731Y-83950053D01*
X203442571Y-83949446D01*
X203442565Y-83949445D01*
X203268563Y-83932308D01*
X203262400Y-83931701D01*
X203256237Y-83932308D01*
X203082234Y-83949445D01*
X203082226Y-83949446D01*
X203076069Y-83950053D01*
X203070147Y-83951849D01*
X203070139Y-83951851D01*
X202902823Y-84002606D01*
X202902814Y-84002609D01*
X202896899Y-84004404D01*
X202891447Y-84007317D01*
X202891440Y-84007321D01*
X202737233Y-84089746D01*
X202737228Y-84089749D01*
X202731775Y-84092664D01*
X202726996Y-84096585D01*
X202726990Y-84096590D01*
X202591822Y-84207520D01*
X202591816Y-84207525D01*
X202587043Y-84211443D01*
X202583125Y-84216216D01*
X202583120Y-84216222D01*
X202472190Y-84351390D01*
X202472185Y-84351396D01*
X202468264Y-84356175D01*
X202465350Y-84361625D01*
X202465343Y-84361637D01*
X202394224Y-84494695D01*
X202347879Y-84543374D01*
X202283102Y-84561300D01*
X201898911Y-84561300D01*
X201887929Y-84560820D01*
X201861378Y-84558497D01*
X201850394Y-84557536D01*
X201839748Y-84560388D01*
X201839742Y-84560389D01*
X201813992Y-84567289D01*
X201803265Y-84569667D01*
X201777012Y-84574296D01*
X201777003Y-84574298D01*
X201766155Y-84576212D01*
X201756614Y-84581719D01*
X201753317Y-84582920D01*
X201750152Y-84584395D01*
X201739516Y-84587246D01*
X201730493Y-84593563D01*
X201730488Y-84593566D01*
X201708641Y-84608863D01*
X201699378Y-84614764D01*
X201676291Y-84628093D01*
X201676285Y-84628097D01*
X201666745Y-84633606D01*
X201659660Y-84642048D01*
X201659660Y-84642049D01*
X201642514Y-84662482D01*
X201635090Y-84670582D01*
X201104187Y-85201485D01*
X201096086Y-85208909D01*
X201075652Y-85226055D01*
X201075644Y-85226064D01*
X201067206Y-85233145D01*
X201061695Y-85242689D01*
X201061694Y-85242691D01*
X201048364Y-85265778D01*
X201042463Y-85275041D01*
X201027166Y-85296888D01*
X201027163Y-85296893D01*
X201020846Y-85305916D01*
X201017995Y-85316552D01*
X201016520Y-85319717D01*
X201015320Y-85323013D01*
X201009812Y-85332555D01*
X201007898Y-85343407D01*
X201007898Y-85343408D01*
X201003269Y-85369656D01*
X201000892Y-85380379D01*
X200993989Y-85406142D01*
X200993988Y-85406146D01*
X200991136Y-85416793D01*
X200992096Y-85427775D01*
X200992097Y-85427775D01*
X200994420Y-85454328D01*
X200994900Y-85465310D01*
X200994900Y-89779782D01*
X200985309Y-89828000D01*
X200957996Y-89868877D01*
X200459879Y-90366995D01*
X200419001Y-90394309D01*
X200370783Y-90403900D01*
X199666615Y-90403900D01*
X199609412Y-90390167D01*
X199564679Y-90351961D01*
X199542166Y-90297611D01*
X199546782Y-90238964D01*
X199577517Y-90188807D01*
X199961840Y-89804484D01*
X199969898Y-89797099D01*
X199998794Y-89772855D01*
X200017642Y-89740208D01*
X200023534Y-89730958D01*
X200045154Y-89700084D01*
X200048008Y-89689430D01*
X200049476Y-89686282D01*
X200050670Y-89682999D01*
X200056188Y-89673445D01*
X200062730Y-89636337D01*
X200065107Y-89625617D01*
X200074864Y-89589207D01*
X200071579Y-89551657D01*
X200071100Y-89540676D01*
X200071100Y-85516110D01*
X200071580Y-85505128D01*
X200073044Y-85488394D01*
X200074864Y-85467593D01*
X200065104Y-85431172D01*
X200062730Y-85420459D01*
X200061232Y-85411962D01*
X200056188Y-85383355D01*
X200050673Y-85373804D01*
X200049483Y-85370533D01*
X200048008Y-85367370D01*
X200045154Y-85356716D01*
X200023536Y-85325843D01*
X200017639Y-85316586D01*
X199998794Y-85283945D01*
X199969917Y-85259714D01*
X199961814Y-85252288D01*
X199380109Y-84670583D01*
X199372682Y-84662479D01*
X199355539Y-84642049D01*
X199348455Y-84633606D01*
X199338910Y-84628095D01*
X199338909Y-84628094D01*
X199315817Y-84614762D01*
X199306551Y-84608859D01*
X199306344Y-84608714D01*
X199297531Y-84602543D01*
X199267783Y-84573278D01*
X199249227Y-84535906D01*
X199244796Y-84521299D01*
X199156536Y-84356175D01*
X199037757Y-84211443D01*
X198893025Y-84092664D01*
X198887566Y-84089746D01*
X198733359Y-84007321D01*
X198733356Y-84007319D01*
X198727901Y-84004404D01*
X198721981Y-84002608D01*
X198721976Y-84002606D01*
X198554660Y-83951851D01*
X198554654Y-83951849D01*
X198548731Y-83950053D01*
X198542571Y-83949446D01*
X198542565Y-83949445D01*
X198368563Y-83932308D01*
X198362400Y-83931701D01*
X198356237Y-83932308D01*
X198182234Y-83949445D01*
X198182226Y-83949446D01*
X198176069Y-83950053D01*
X198170147Y-83951849D01*
X198170139Y-83951851D01*
X198002823Y-84002606D01*
X198002814Y-84002609D01*
X197996899Y-84004404D01*
X197991447Y-84007317D01*
X197991440Y-84007321D01*
X197837233Y-84089746D01*
X197837228Y-84089749D01*
X197831775Y-84092664D01*
X197826996Y-84096585D01*
X197826990Y-84096590D01*
X197691822Y-84207520D01*
X197691816Y-84207525D01*
X197687043Y-84211443D01*
X197683125Y-84216216D01*
X197683120Y-84216222D01*
X197572190Y-84351390D01*
X197572185Y-84351396D01*
X197568264Y-84356175D01*
X197565350Y-84361625D01*
X197565343Y-84361637D01*
X197494224Y-84494695D01*
X197447879Y-84543374D01*
X197383102Y-84561300D01*
X193939100Y-84561300D01*
X193876100Y-84544419D01*
X193829981Y-84498300D01*
X193813100Y-84435300D01*
X193813100Y-84158687D01*
X193813100Y-84155734D01*
X193810246Y-84125301D01*
X193765393Y-83997118D01*
X193684750Y-83887850D01*
X193677157Y-83882246D01*
X193583080Y-83812814D01*
X193583077Y-83812812D01*
X193575482Y-83807207D01*
X193447299Y-83762354D01*
X193439667Y-83761638D01*
X193439666Y-83761638D01*
X193419801Y-83759775D01*
X193419795Y-83759774D01*
X193416866Y-83759500D01*
X192358334Y-83759500D01*
X192355405Y-83759774D01*
X192355398Y-83759775D01*
X192335533Y-83761638D01*
X192335530Y-83761638D01*
X192327901Y-83762354D01*
X192320663Y-83764886D01*
X192320661Y-83764887D01*
X192243157Y-83792007D01*
X192199718Y-83807207D01*
X192192125Y-83812810D01*
X192192119Y-83812814D01*
X192098042Y-83882246D01*
X192098038Y-83882249D01*
X192090450Y-83887850D01*
X192084849Y-83895438D01*
X192084846Y-83895442D01*
X192015414Y-83989519D01*
X192015410Y-83989525D01*
X192009807Y-83997118D01*
X192006687Y-84006033D01*
X192006687Y-84006034D01*
X191970273Y-84110101D01*
X191964954Y-84125301D01*
X191964238Y-84132930D01*
X191964238Y-84132933D01*
X191963249Y-84143487D01*
X191962100Y-84155734D01*
X191962100Y-84764266D01*
X191962374Y-84767195D01*
X191962375Y-84767201D01*
X191964207Y-84786738D01*
X191964954Y-84794699D01*
X192009807Y-84922882D01*
X192015412Y-84930477D01*
X192015414Y-84930480D01*
X192073628Y-85009357D01*
X192090450Y-85032150D01*
X192098042Y-85037753D01*
X192179122Y-85097593D01*
X192199718Y-85112793D01*
X192245721Y-85128890D01*
X192297388Y-85163118D01*
X192326487Y-85217843D01*
X192325972Y-85279821D01*
X192295969Y-85334055D01*
X192243737Y-85367422D01*
X192097043Y-85416031D01*
X192083832Y-85422192D01*
X191945508Y-85507511D01*
X191934067Y-85516558D01*
X191819158Y-85631467D01*
X191810111Y-85642908D01*
X191724792Y-85781232D01*
X191718635Y-85794435D01*
X191667367Y-85949153D01*
X191664507Y-85962511D01*
X191654925Y-86056307D01*
X191654600Y-86062698D01*
X191654600Y-86089410D01*
X191658106Y-86102493D01*
X191671190Y-86106000D01*
X194104010Y-86106000D01*
X194117093Y-86102493D01*
X194120600Y-86089410D01*
X194120600Y-86062698D01*
X194120274Y-86056307D01*
X194110692Y-85962511D01*
X194107832Y-85949153D01*
X194056564Y-85794435D01*
X194050407Y-85781232D01*
X193965088Y-85642908D01*
X193956041Y-85631467D01*
X193841132Y-85516558D01*
X193829691Y-85507511D01*
X193729222Y-85445541D01*
X193684813Y-85398744D01*
X193669388Y-85336101D01*
X193686990Y-85274035D01*
X193733005Y-85228816D01*
X193795369Y-85212300D01*
X197383102Y-85212300D01*
X197447879Y-85230226D01*
X197494224Y-85278905D01*
X197565343Y-85411962D01*
X197565347Y-85411969D01*
X197568264Y-85417425D01*
X197572189Y-85422208D01*
X197572190Y-85422209D01*
X197649253Y-85516110D01*
X197687043Y-85562157D01*
X197831775Y-85680936D01*
X197996899Y-85769196D01*
X198176069Y-85823547D01*
X198362400Y-85841899D01*
X198548731Y-85823547D01*
X198727901Y-85769196D01*
X198893025Y-85680936D01*
X199037757Y-85562157D01*
X199090775Y-85497554D01*
X199147671Y-85458176D01*
X199216784Y-85454780D01*
X199277268Y-85488394D01*
X199383195Y-85594321D01*
X199410509Y-85635198D01*
X199420100Y-85683416D01*
X199420100Y-89373384D01*
X199410509Y-89421602D01*
X199383195Y-89462479D01*
X199128679Y-89716995D01*
X199087802Y-89744309D01*
X199039584Y-89753900D01*
X198696275Y-89753900D01*
X197924932Y-89753900D01*
X197857233Y-89734168D01*
X197810738Y-89681151D01*
X197800010Y-89611455D01*
X197801961Y-89596631D01*
X197802500Y-89592539D01*
X197802499Y-89266262D01*
X197796259Y-89218855D01*
X197747747Y-89114821D01*
X197666579Y-89033653D01*
X197587230Y-88996652D01*
X197571282Y-88989215D01*
X197571281Y-88989214D01*
X197562545Y-88985141D01*
X197552987Y-88983882D01*
X197552985Y-88983882D01*
X197519226Y-88979438D01*
X197519225Y-88979437D01*
X197515139Y-88978900D01*
X197511017Y-88978900D01*
X197298653Y-88978900D01*
X197232116Y-88959899D01*
X197185647Y-88908628D01*
X197173260Y-88840549D01*
X197198691Y-88776195D01*
X197222136Y-88745641D01*
X197282644Y-88599562D01*
X197303282Y-88442800D01*
X197282644Y-88286038D01*
X197222136Y-88139959D01*
X197125882Y-88014518D01*
X197000441Y-87918264D01*
X196992814Y-87915104D01*
X196992811Y-87915103D01*
X196861991Y-87860916D01*
X196861990Y-87860915D01*
X196854362Y-87857756D01*
X196846179Y-87856678D01*
X196846173Y-87856677D01*
X196705788Y-87838196D01*
X196697600Y-87837118D01*
X196689412Y-87838196D01*
X196549026Y-87856677D01*
X196549018Y-87856679D01*
X196540838Y-87857756D01*
X196533211Y-87860915D01*
X196533208Y-87860916D01*
X196402388Y-87915103D01*
X196402382Y-87915106D01*
X196394759Y-87918264D01*
X196388211Y-87923287D01*
X196388208Y-87923290D01*
X196275863Y-88009495D01*
X196275859Y-88009498D01*
X196269318Y-88014518D01*
X196264298Y-88021059D01*
X196264295Y-88021063D01*
X196178090Y-88133408D01*
X196178087Y-88133411D01*
X196173064Y-88139959D01*
X196169906Y-88147582D01*
X196169903Y-88147588D01*
X196115716Y-88278408D01*
X196112556Y-88286038D01*
X196111479Y-88294218D01*
X196111477Y-88294226D01*
X196096048Y-88411426D01*
X196091918Y-88442800D01*
X196092996Y-88450988D01*
X196111477Y-88591373D01*
X196111478Y-88591379D01*
X196112556Y-88599562D01*
X196115715Y-88607190D01*
X196115716Y-88607191D01*
X196169903Y-88738011D01*
X196169904Y-88738014D01*
X196173064Y-88745641D01*
X196178090Y-88752191D01*
X196178093Y-88752196D01*
X196196510Y-88776198D01*
X196221940Y-88840552D01*
X196209553Y-88908630D01*
X196163083Y-88959901D01*
X196096547Y-88978901D01*
X195788862Y-88978901D01*
X195784781Y-88979438D01*
X195784768Y-88979439D01*
X195751013Y-88983882D01*
X195751007Y-88983883D01*
X195741455Y-88985141D01*
X195732722Y-88989212D01*
X195732719Y-88989214D01*
X195647413Y-89028993D01*
X195647410Y-89028994D01*
X195637421Y-89033653D01*
X195629625Y-89041448D01*
X195629622Y-89041451D01*
X195564051Y-89107022D01*
X195564048Y-89107025D01*
X195556253Y-89114821D01*
X195551594Y-89124810D01*
X195551593Y-89124813D01*
X195511815Y-89210117D01*
X195511813Y-89210120D01*
X195507741Y-89218855D01*
X195506483Y-89228410D01*
X195506482Y-89228414D01*
X195502039Y-89262168D01*
X195501500Y-89266261D01*
X195501500Y-89270381D01*
X195501500Y-89270382D01*
X195501500Y-89588413D01*
X195501500Y-89588428D01*
X195501501Y-89592538D01*
X195502038Y-89596619D01*
X195502039Y-89596631D01*
X195506482Y-89630386D01*
X195506483Y-89630390D01*
X195507741Y-89639945D01*
X195511813Y-89648679D01*
X195511815Y-89648683D01*
X195536281Y-89701151D01*
X195548086Y-89754400D01*
X195536281Y-89807649D01*
X195511816Y-89860114D01*
X195511814Y-89860119D01*
X195507741Y-89868855D01*
X195506483Y-89878410D01*
X195506482Y-89878414D01*
X195505589Y-89885199D01*
X195501500Y-89916261D01*
X195501500Y-89920381D01*
X195501500Y-89920382D01*
X195501500Y-90238413D01*
X195501500Y-90238428D01*
X195501501Y-90242538D01*
X195502038Y-90246619D01*
X195502039Y-90246631D01*
X195506482Y-90280386D01*
X195506483Y-90280390D01*
X195507741Y-90289945D01*
X195511813Y-90298679D01*
X195511815Y-90298683D01*
X195536281Y-90351151D01*
X195548086Y-90404400D01*
X195536281Y-90457649D01*
X195511816Y-90510114D01*
X195511814Y-90510119D01*
X195507741Y-90518855D01*
X195506483Y-90528410D01*
X195506482Y-90528414D01*
X195503772Y-90549000D01*
X195501500Y-90566261D01*
X195501500Y-90570382D01*
X195501500Y-90570383D01*
X195501500Y-90723983D01*
X195487767Y-90781186D01*
X195449561Y-90825919D01*
X195395211Y-90848432D01*
X195336564Y-90843816D01*
X195286405Y-90813078D01*
X194093109Y-89619783D01*
X194085682Y-89611679D01*
X194073053Y-89596628D01*
X194061455Y-89582806D01*
X194051910Y-89577295D01*
X194051909Y-89577294D01*
X194028817Y-89563962D01*
X194019548Y-89558056D01*
X193997718Y-89542771D01*
X193997715Y-89542769D01*
X193988684Y-89536446D01*
X193978036Y-89533592D01*
X193974863Y-89532113D01*
X193971585Y-89530920D01*
X193962045Y-89525412D01*
X193951192Y-89523498D01*
X193951189Y-89523497D01*
X193924946Y-89518870D01*
X193914218Y-89516492D01*
X193877807Y-89506736D01*
X193878264Y-89505028D01*
X193850725Y-89497156D01*
X193812924Y-89467773D01*
X193788815Y-89426414D01*
X193765793Y-89360618D01*
X193685150Y-89251350D01*
X193654073Y-89228414D01*
X193583480Y-89176314D01*
X193583477Y-89176312D01*
X193575882Y-89170707D01*
X193447699Y-89125854D01*
X193440067Y-89125138D01*
X193440066Y-89125138D01*
X193420201Y-89123275D01*
X193420195Y-89123274D01*
X193417266Y-89123000D01*
X192408734Y-89123000D01*
X192405805Y-89123274D01*
X192405798Y-89123275D01*
X192385933Y-89125138D01*
X192385930Y-89125138D01*
X192378301Y-89125854D01*
X192371063Y-89128386D01*
X192371061Y-89128387D01*
X192259034Y-89167587D01*
X192250118Y-89170707D01*
X192242525Y-89176310D01*
X192242519Y-89176314D01*
X192148442Y-89245746D01*
X192148438Y-89245749D01*
X192140850Y-89251350D01*
X192135249Y-89258938D01*
X192135246Y-89258942D01*
X192065814Y-89353019D01*
X192065810Y-89353025D01*
X192060207Y-89360618D01*
X192057089Y-89369530D01*
X192057087Y-89369534D01*
X192033013Y-89438335D01*
X192015354Y-89488801D01*
X192014638Y-89496430D01*
X192014638Y-89496433D01*
X192012967Y-89514259D01*
X192012500Y-89519234D01*
X192012500Y-90152766D01*
X192012774Y-90155695D01*
X192012775Y-90155701D01*
X192014638Y-90175566D01*
X192015354Y-90183199D01*
X192060207Y-90311382D01*
X192065812Y-90318977D01*
X192065814Y-90318980D01*
X192128488Y-90403900D01*
X192140850Y-90420650D01*
X192250118Y-90501293D01*
X192378301Y-90546146D01*
X192408734Y-90549000D01*
X193414313Y-90549000D01*
X193417266Y-90549000D01*
X193447699Y-90546146D01*
X193575882Y-90501293D01*
X193685150Y-90420650D01*
X193720575Y-90372649D01*
X193761004Y-90337194D01*
X193812537Y-90321823D01*
X193865785Y-90329340D01*
X193911049Y-90358376D01*
X195148294Y-91595621D01*
X195155721Y-91603725D01*
X195179945Y-91632594D01*
X195212591Y-91651442D01*
X195221837Y-91657332D01*
X195252716Y-91678954D01*
X195263371Y-91681808D01*
X195266529Y-91683281D01*
X195269802Y-91684472D01*
X195279355Y-91689988D01*
X195316465Y-91696531D01*
X195327199Y-91698911D01*
X195363593Y-91708663D01*
X195374573Y-91707702D01*
X195385559Y-91708664D01*
X195385378Y-91710730D01*
X195423055Y-91715896D01*
X195469695Y-91746687D01*
X195498429Y-91794621D01*
X195503605Y-91850268D01*
X195502038Y-91862168D01*
X195502037Y-91862180D01*
X195501500Y-91866261D01*
X195501500Y-91870381D01*
X195501500Y-91870382D01*
X195501500Y-92188413D01*
X195501500Y-92188428D01*
X195501501Y-92192538D01*
X195502038Y-92196619D01*
X195502039Y-92196631D01*
X195506482Y-92230386D01*
X195506483Y-92230390D01*
X195507741Y-92239945D01*
X195511813Y-92248679D01*
X195511815Y-92248683D01*
X195536281Y-92301151D01*
X195548086Y-92354400D01*
X195536281Y-92407649D01*
X195511816Y-92460114D01*
X195511814Y-92460119D01*
X195507741Y-92468855D01*
X195506483Y-92478410D01*
X195506482Y-92478414D01*
X195502171Y-92511162D01*
X195501500Y-92516261D01*
X195501500Y-92520381D01*
X195501500Y-92520382D01*
X195501500Y-92838413D01*
X195501500Y-92838428D01*
X195501501Y-92842538D01*
X195503991Y-92861460D01*
X195493262Y-92931153D01*
X195446767Y-92984168D01*
X195379069Y-93003900D01*
X194870531Y-93003900D01*
X194813328Y-92990167D01*
X194768595Y-92951961D01*
X194746082Y-92897611D01*
X194750698Y-92838964D01*
X194781436Y-92788805D01*
X194782536Y-92787704D01*
X194789082Y-92782682D01*
X194885336Y-92657241D01*
X194945844Y-92511162D01*
X194966482Y-92354400D01*
X194945844Y-92197638D01*
X194885336Y-92051559D01*
X194789082Y-91926118D01*
X194663641Y-91829864D01*
X194656014Y-91826704D01*
X194656011Y-91826703D01*
X194525191Y-91772516D01*
X194525190Y-91772515D01*
X194517562Y-91769356D01*
X194509379Y-91768278D01*
X194509373Y-91768277D01*
X194368988Y-91749796D01*
X194360800Y-91748718D01*
X194352612Y-91749796D01*
X194212226Y-91768277D01*
X194212218Y-91768279D01*
X194204038Y-91769356D01*
X194196409Y-91772515D01*
X194196405Y-91772517D01*
X194144955Y-91793828D01*
X194077958Y-91802012D01*
X194016350Y-91774443D01*
X193977809Y-91719034D01*
X193972195Y-91702990D01*
X193959293Y-91666118D01*
X193951688Y-91655814D01*
X193884253Y-91564442D01*
X193878650Y-91556850D01*
X193853669Y-91538413D01*
X193776980Y-91481814D01*
X193776977Y-91481812D01*
X193769382Y-91476207D01*
X193641199Y-91431354D01*
X193633567Y-91430638D01*
X193633566Y-91430638D01*
X193613701Y-91428775D01*
X193613695Y-91428774D01*
X193610766Y-91428500D01*
X192977234Y-91428500D01*
X192974305Y-91428774D01*
X192974298Y-91428775D01*
X192954433Y-91430638D01*
X192954430Y-91430638D01*
X192946801Y-91431354D01*
X192939563Y-91433886D01*
X192939561Y-91433887D01*
X192852669Y-91464292D01*
X192818618Y-91476207D01*
X192811025Y-91481810D01*
X192811019Y-91481814D01*
X192716942Y-91551246D01*
X192716938Y-91551249D01*
X192709350Y-91556850D01*
X192703749Y-91564438D01*
X192703746Y-91564442D01*
X192634314Y-91658519D01*
X192634310Y-91658525D01*
X192628707Y-91666118D01*
X192625587Y-91675033D01*
X192625587Y-91675034D01*
X192587231Y-91784651D01*
X192583854Y-91794301D01*
X192583138Y-91801930D01*
X192583138Y-91801933D01*
X192582084Y-91813178D01*
X192581000Y-91824734D01*
X192581000Y-92833266D01*
X192581274Y-92836195D01*
X192581275Y-92836201D01*
X192581885Y-92842703D01*
X192583854Y-92863699D01*
X192628707Y-92991882D01*
X192634312Y-92999477D01*
X192634314Y-92999480D01*
X192703746Y-93093557D01*
X192709350Y-93101150D01*
X192741839Y-93125128D01*
X192772981Y-93148112D01*
X192818618Y-93181793D01*
X192909626Y-93213638D01*
X192945157Y-93226071D01*
X192996545Y-93259992D01*
X193025723Y-93314213D01*
X193025723Y-93375787D01*
X192996545Y-93430008D01*
X192945157Y-93463929D01*
X192827534Y-93505087D01*
X192818618Y-93508207D01*
X192811025Y-93513810D01*
X192811019Y-93513814D01*
X192716942Y-93583246D01*
X192716938Y-93583249D01*
X192709350Y-93588850D01*
X192703749Y-93596438D01*
X192703746Y-93596442D01*
X192634314Y-93690519D01*
X192634310Y-93690525D01*
X192628707Y-93698118D01*
X192625587Y-93707033D01*
X192625587Y-93707034D01*
X192587367Y-93816262D01*
X192583854Y-93826301D01*
X192581000Y-93856734D01*
X192581000Y-94865266D01*
X192581274Y-94868195D01*
X192581275Y-94868201D01*
X192583138Y-94888066D01*
X192583854Y-94895699D01*
X192628707Y-95023882D01*
X192634312Y-95031477D01*
X192634314Y-95031480D01*
X192685045Y-95100218D01*
X192709350Y-95133150D01*
X192716942Y-95138753D01*
X192797453Y-95198173D01*
X192818618Y-95213793D01*
X192888910Y-95238389D01*
X192945157Y-95258071D01*
X192996545Y-95291992D01*
X193025723Y-95346213D01*
X193025723Y-95407787D01*
X192996545Y-95462008D01*
X192945157Y-95495929D01*
X192827534Y-95537087D01*
X192818618Y-95540207D01*
X192811025Y-95545810D01*
X192811019Y-95545814D01*
X192716942Y-95615246D01*
X192716938Y-95615249D01*
X192709350Y-95620850D01*
X192703749Y-95628438D01*
X192703746Y-95628442D01*
X192634314Y-95722519D01*
X192634310Y-95722525D01*
X192628707Y-95730118D01*
X192625587Y-95739033D01*
X192625587Y-95739034D01*
X192604084Y-95800488D01*
X192583854Y-95858301D01*
X192581000Y-95888734D01*
X192581000Y-96897266D01*
X192583854Y-96927699D01*
X192628707Y-97055882D01*
X192634312Y-97063477D01*
X192634314Y-97063480D01*
X192687245Y-97135199D01*
X192709350Y-97165150D01*
X192818618Y-97245793D01*
X192917277Y-97280315D01*
X192945157Y-97290071D01*
X192996545Y-97323992D01*
X193025723Y-97378213D01*
X193025723Y-97439787D01*
X192996545Y-97494008D01*
X192945157Y-97527929D01*
X192827534Y-97569087D01*
X192818618Y-97572207D01*
X192811025Y-97577810D01*
X192811019Y-97577814D01*
X192716942Y-97647246D01*
X192716938Y-97647249D01*
X192709350Y-97652850D01*
X192703749Y-97660438D01*
X192703746Y-97660442D01*
X192634314Y-97754519D01*
X192634310Y-97754525D01*
X192628707Y-97762118D01*
X192625587Y-97771033D01*
X192625587Y-97771034D01*
X192587528Y-97879802D01*
X192583854Y-97890301D01*
X192581000Y-97920734D01*
X192581000Y-98929266D01*
X192583854Y-98959699D01*
X192628707Y-99087882D01*
X192634312Y-99095477D01*
X192634314Y-99095480D01*
X192671794Y-99146263D01*
X192709350Y-99197150D01*
X192716942Y-99202753D01*
X192792976Y-99258869D01*
X192818618Y-99277793D01*
X192946801Y-99322646D01*
X192977234Y-99325500D01*
X193607813Y-99325500D01*
X193610766Y-99325500D01*
X193641199Y-99322646D01*
X193769382Y-99277793D01*
X193770067Y-99279751D01*
X193827211Y-99268049D01*
X193893187Y-99293372D01*
X193935153Y-99350231D01*
X193939907Y-99420740D01*
X193905956Y-99482717D01*
X193294076Y-100094597D01*
X193253202Y-100121909D01*
X193204984Y-100131500D01*
X187979710Y-100131500D01*
X187968728Y-100131020D01*
X187942177Y-100128697D01*
X187931193Y-100127736D01*
X187920546Y-100130588D01*
X187920542Y-100130589D01*
X187894779Y-100137492D01*
X187884056Y-100139869D01*
X187857808Y-100144498D01*
X187857807Y-100144498D01*
X187846955Y-100146412D01*
X187837413Y-100151920D01*
X187834117Y-100153120D01*
X187830952Y-100154595D01*
X187820316Y-100157446D01*
X187811293Y-100163763D01*
X187811288Y-100163766D01*
X187789441Y-100179063D01*
X187780178Y-100184964D01*
X187757091Y-100198293D01*
X187757085Y-100198297D01*
X187747545Y-100203806D01*
X187740460Y-100212248D01*
X187740460Y-100212249D01*
X187723314Y-100232682D01*
X187715890Y-100240782D01*
X185584787Y-102371885D01*
X185576686Y-102379309D01*
X185556252Y-102396455D01*
X185556244Y-102396464D01*
X185547806Y-102403545D01*
X185542295Y-102413089D01*
X185542294Y-102413091D01*
X185528964Y-102436178D01*
X185523063Y-102445441D01*
X185507766Y-102467288D01*
X185507763Y-102467293D01*
X185501446Y-102476316D01*
X185498595Y-102486952D01*
X185497120Y-102490117D01*
X185495920Y-102493413D01*
X185490412Y-102502955D01*
X185488498Y-102513807D01*
X185488498Y-102513808D01*
X185483869Y-102540056D01*
X185481492Y-102550779D01*
X185474589Y-102576542D01*
X185474588Y-102576546D01*
X185471736Y-102587193D01*
X185472696Y-102598175D01*
X185472697Y-102598175D01*
X185475020Y-102624728D01*
X185475500Y-102635710D01*
X185475500Y-114112984D01*
X185465909Y-114161202D01*
X185438595Y-114202079D01*
X181886787Y-117753885D01*
X181878686Y-117761309D01*
X181858252Y-117778455D01*
X181858244Y-117778464D01*
X181849806Y-117785545D01*
X181844295Y-117795089D01*
X181844294Y-117795091D01*
X181830964Y-117818178D01*
X181825063Y-117827441D01*
X181809766Y-117849288D01*
X181809763Y-117849293D01*
X181803446Y-117858316D01*
X181800595Y-117868952D01*
X181799120Y-117872117D01*
X181797920Y-117875413D01*
X181792412Y-117884955D01*
X181790498Y-117895807D01*
X181790498Y-117895808D01*
X181785869Y-117922056D01*
X181783492Y-117932779D01*
X181776589Y-117958542D01*
X181776588Y-117958546D01*
X181773736Y-117969193D01*
X181774696Y-117980175D01*
X181774697Y-117980175D01*
X181777020Y-118006728D01*
X181777500Y-118017710D01*
X181777500Y-119318052D01*
X181766887Y-119368666D01*
X181736837Y-119410753D01*
X181692412Y-119437225D01*
X181543428Y-119488370D01*
X181543415Y-119488375D01*
X181538497Y-119490064D01*
X181533919Y-119492541D01*
X181533911Y-119492545D01*
X181338956Y-119598050D01*
X181338952Y-119598051D01*
X181334374Y-119600530D01*
X181330268Y-119603725D01*
X181330263Y-119603729D01*
X181155327Y-119739887D01*
X181151216Y-119743087D01*
X181147688Y-119746918D01*
X181147684Y-119746923D01*
X180997555Y-119910007D01*
X180997549Y-119910013D01*
X180994021Y-119913847D01*
X180991172Y-119918206D01*
X180991167Y-119918214D01*
X180912750Y-120038241D01*
X180867076Y-120108151D01*
X180864983Y-120112921D01*
X180864981Y-120112926D01*
X180775936Y-120315927D01*
X180775933Y-120315933D01*
X180773843Y-120320700D01*
X180772564Y-120325748D01*
X180772563Y-120325753D01*
X180750512Y-120412832D01*
X180716866Y-120545695D01*
X180716436Y-120550883D01*
X180716435Y-120550890D01*
X180699330Y-120757327D01*
X180697700Y-120777000D01*
X180008300Y-120777000D01*
X179989134Y-120545695D01*
X179932157Y-120320700D01*
X179838924Y-120108151D01*
X179711979Y-119913847D01*
X179554784Y-119743087D01*
X179371626Y-119600530D01*
X179206077Y-119510939D01*
X179172088Y-119492545D01*
X179172085Y-119492543D01*
X179167503Y-119490064D01*
X179162579Y-119488373D01*
X179162571Y-119488370D01*
X178952911Y-119416394D01*
X178952905Y-119416392D01*
X178947981Y-119414702D01*
X178942844Y-119413844D01*
X178942841Y-119413844D01*
X178724186Y-119377357D01*
X178724183Y-119377356D01*
X178719049Y-119376500D01*
X178486951Y-119376500D01*
X178481817Y-119377356D01*
X178481813Y-119377357D01*
X178263158Y-119413844D01*
X178263152Y-119413845D01*
X178258019Y-119414702D01*
X178253097Y-119416391D01*
X178253088Y-119416394D01*
X178043428Y-119488370D01*
X178043415Y-119488375D01*
X178038497Y-119490064D01*
X178033919Y-119492541D01*
X178033911Y-119492545D01*
X177838956Y-119598050D01*
X177838952Y-119598051D01*
X177834374Y-119600530D01*
X177830268Y-119603725D01*
X177830263Y-119603729D01*
X177655327Y-119739887D01*
X177651216Y-119743087D01*
X177647688Y-119746918D01*
X177647684Y-119746923D01*
X177497555Y-119910007D01*
X177497549Y-119910013D01*
X177494021Y-119913847D01*
X177491172Y-119918206D01*
X177491167Y-119918214D01*
X177412750Y-120038241D01*
X177367076Y-120108151D01*
X177364983Y-120112921D01*
X177364981Y-120112926D01*
X177275936Y-120315927D01*
X177275933Y-120315933D01*
X177273843Y-120320700D01*
X177272564Y-120325748D01*
X177272563Y-120325753D01*
X177250512Y-120412832D01*
X177216866Y-120545695D01*
X177216436Y-120550883D01*
X177216435Y-120550890D01*
X177199330Y-120757327D01*
X177197700Y-120777000D01*
X176503500Y-120777000D01*
X176503500Y-119557252D01*
X176491867Y-119498769D01*
X176447552Y-119432448D01*
X176416128Y-119411451D01*
X176391547Y-119395026D01*
X176391546Y-119395025D01*
X176381231Y-119388133D01*
X176322748Y-119376500D01*
X173883252Y-119376500D01*
X173877184Y-119377706D01*
X173877183Y-119377707D01*
X173836939Y-119385712D01*
X173836937Y-119385712D01*
X173824769Y-119388133D01*
X173814454Y-119395024D01*
X173814452Y-119395026D01*
X173768761Y-119425556D01*
X173768758Y-119425558D01*
X173758448Y-119432448D01*
X173751558Y-119442758D01*
X173751556Y-119442761D01*
X173721026Y-119488452D01*
X173721024Y-119488454D01*
X173714133Y-119498769D01*
X173702500Y-119557252D01*
X173702500Y-121996748D01*
X172091409Y-121996748D01*
X172104627Y-108955119D01*
X181838683Y-108955119D01*
X181846786Y-108963065D01*
X182017544Y-109067706D01*
X182026339Y-109072187D01*
X182236487Y-109159233D01*
X182245873Y-109162283D01*
X182467054Y-109215384D01*
X182476800Y-109216928D01*
X182703570Y-109234775D01*
X182713430Y-109234775D01*
X182940199Y-109216928D01*
X182949945Y-109215384D01*
X183171126Y-109162283D01*
X183180512Y-109159233D01*
X183390662Y-109072186D01*
X183399457Y-109067705D01*
X183570208Y-108963068D01*
X183578314Y-108955119D01*
X183572287Y-108945497D01*
X182720229Y-108093439D01*
X182708499Y-108086667D01*
X182696771Y-108093438D01*
X181844708Y-108945500D01*
X181838683Y-108955119D01*
X172104627Y-108955119D01*
X172105876Y-107722500D01*
X176422857Y-107722500D01*
X176443385Y-107944036D01*
X176504271Y-108158028D01*
X176506867Y-108163241D01*
X176506868Y-108163244D01*
X176547344Y-108244530D01*
X176603442Y-108357189D01*
X176606952Y-108361837D01*
X176734006Y-108530085D01*
X176734010Y-108530089D01*
X176737519Y-108534736D01*
X176741821Y-108538658D01*
X176741824Y-108538661D01*
X176837928Y-108626271D01*
X176901938Y-108684624D01*
X177091099Y-108801747D01*
X177298560Y-108882118D01*
X177517257Y-108923000D01*
X177733916Y-108923000D01*
X177739743Y-108923000D01*
X177958440Y-108882118D01*
X178165901Y-108801747D01*
X178355062Y-108684624D01*
X178519481Y-108534736D01*
X178653558Y-108357189D01*
X178752729Y-108158028D01*
X178813615Y-107944036D01*
X178833686Y-107727430D01*
X181196225Y-107727430D01*
X181214071Y-107954199D01*
X181215615Y-107963945D01*
X181268716Y-108185126D01*
X181271766Y-108194512D01*
X181358812Y-108404660D01*
X181363293Y-108413455D01*
X181467933Y-108584212D01*
X181475879Y-108592316D01*
X181485497Y-108586291D01*
X182337559Y-107734230D01*
X182344332Y-107722499D01*
X183072667Y-107722499D01*
X183079439Y-107734229D01*
X183931497Y-108586287D01*
X183941119Y-108592314D01*
X183949068Y-108584208D01*
X184053705Y-108413457D01*
X184058186Y-108404662D01*
X184145233Y-108194512D01*
X184148283Y-108185126D01*
X184201384Y-107963945D01*
X184202928Y-107954199D01*
X184220775Y-107727430D01*
X184220775Y-107717570D01*
X184202928Y-107490800D01*
X184201384Y-107481054D01*
X184148283Y-107259873D01*
X184145233Y-107250487D01*
X184058187Y-107040339D01*
X184053706Y-107031544D01*
X183949065Y-106860786D01*
X183941119Y-106852683D01*
X183931500Y-106858708D01*
X183079438Y-107710771D01*
X183072667Y-107722499D01*
X182344332Y-107722499D01*
X182337560Y-107710770D01*
X181485499Y-106858709D01*
X181475878Y-106852683D01*
X181467933Y-106860785D01*
X181363293Y-107031544D01*
X181358812Y-107040339D01*
X181271766Y-107250487D01*
X181268716Y-107259873D01*
X181215615Y-107481054D01*
X181214071Y-107490800D01*
X181196225Y-107717570D01*
X181196225Y-107727430D01*
X178833686Y-107727430D01*
X178834143Y-107722500D01*
X178813615Y-107500964D01*
X178752729Y-107286972D01*
X178653558Y-107087811D01*
X178519481Y-106910264D01*
X178515177Y-106906341D01*
X178515175Y-106906338D01*
X178359364Y-106764298D01*
X178359365Y-106764298D01*
X178355062Y-106760376D01*
X178165901Y-106643253D01*
X178089100Y-106613500D01*
X178034483Y-106592341D01*
X177992287Y-106565307D01*
X177963966Y-106523963D01*
X177957049Y-106489878D01*
X181838683Y-106489878D01*
X181844709Y-106499499D01*
X182696770Y-107351560D01*
X182708499Y-107358332D01*
X182720230Y-107351559D01*
X183572291Y-106499497D01*
X183578316Y-106489879D01*
X183570212Y-106481933D01*
X183399455Y-106377293D01*
X183390660Y-106372812D01*
X183180512Y-106285766D01*
X183171126Y-106282716D01*
X182949945Y-106229615D01*
X182940199Y-106228071D01*
X182713430Y-106210225D01*
X182703570Y-106210225D01*
X182476800Y-106228071D01*
X182467054Y-106229615D01*
X182245873Y-106282716D01*
X182236487Y-106285766D01*
X182026339Y-106372812D01*
X182017544Y-106377293D01*
X181846785Y-106481933D01*
X181838683Y-106489878D01*
X177957049Y-106489878D01*
X177954000Y-106474850D01*
X177954000Y-99799516D01*
X177963591Y-99751298D01*
X177990905Y-99710421D01*
X178913921Y-98787405D01*
X178954798Y-98760091D01*
X179003016Y-98750500D01*
X190630000Y-98750500D01*
X190693000Y-98767381D01*
X190739119Y-98813500D01*
X190756000Y-98876500D01*
X190756000Y-98929266D01*
X190758854Y-98959699D01*
X190803707Y-99087882D01*
X190809312Y-99095477D01*
X190809314Y-99095480D01*
X190846794Y-99146263D01*
X190884350Y-99197150D01*
X190891942Y-99202753D01*
X190967976Y-99258869D01*
X190993618Y-99277793D01*
X191121801Y-99322646D01*
X191152234Y-99325500D01*
X191782813Y-99325500D01*
X191785766Y-99325500D01*
X191816199Y-99322646D01*
X191944382Y-99277793D01*
X192053650Y-99197150D01*
X192134293Y-99087882D01*
X192179146Y-98959699D01*
X192182000Y-98929266D01*
X192182000Y-97920734D01*
X192179146Y-97890301D01*
X192134293Y-97762118D01*
X192127049Y-97752303D01*
X192059253Y-97660442D01*
X192053650Y-97652850D01*
X192028109Y-97634000D01*
X191951980Y-97577814D01*
X191951977Y-97577812D01*
X191944382Y-97572207D01*
X191817841Y-97527928D01*
X191766454Y-97494009D01*
X191737276Y-97439787D01*
X191737276Y-97378213D01*
X191766454Y-97323991D01*
X191817842Y-97290071D01*
X191944382Y-97245793D01*
X192053650Y-97165150D01*
X192134293Y-97055882D01*
X192179146Y-96927699D01*
X192182000Y-96897266D01*
X192182000Y-95888734D01*
X192179146Y-95858301D01*
X192134293Y-95730118D01*
X192126519Y-95719585D01*
X192059253Y-95628442D01*
X192053650Y-95620850D01*
X192017241Y-95593979D01*
X191951980Y-95545814D01*
X191951977Y-95545812D01*
X191944382Y-95540207D01*
X191817841Y-95495928D01*
X191766454Y-95462009D01*
X191737276Y-95407787D01*
X191737276Y-95346213D01*
X191766454Y-95291991D01*
X191817842Y-95258071D01*
X191944382Y-95213793D01*
X192053650Y-95133150D01*
X192134293Y-95023882D01*
X192179146Y-94895699D01*
X192182000Y-94865266D01*
X192182000Y-93856734D01*
X192179146Y-93826301D01*
X192134293Y-93698118D01*
X192112664Y-93668812D01*
X192059253Y-93596442D01*
X192053650Y-93588850D01*
X191987386Y-93539945D01*
X191951980Y-93513814D01*
X191951977Y-93513812D01*
X191944382Y-93508207D01*
X191817841Y-93463928D01*
X191766454Y-93430009D01*
X191737276Y-93375787D01*
X191737276Y-93314213D01*
X191766454Y-93259991D01*
X191817842Y-93226071D01*
X191818542Y-93225826D01*
X191944382Y-93181793D01*
X192053650Y-93101150D01*
X192134293Y-92991882D01*
X192179146Y-92863699D01*
X192182000Y-92833266D01*
X192182000Y-91824734D01*
X192179146Y-91794301D01*
X192134293Y-91666118D01*
X192126688Y-91655814D01*
X192059253Y-91564442D01*
X192053650Y-91556850D01*
X192028669Y-91538413D01*
X191951980Y-91481814D01*
X191951977Y-91481812D01*
X191944382Y-91476207D01*
X191816199Y-91431354D01*
X191808567Y-91430638D01*
X191808566Y-91430638D01*
X191788701Y-91428775D01*
X191788695Y-91428774D01*
X191785766Y-91428500D01*
X191152234Y-91428500D01*
X191149305Y-91428774D01*
X191149298Y-91428775D01*
X191129433Y-91430638D01*
X191129430Y-91430638D01*
X191121801Y-91431354D01*
X191114563Y-91433886D01*
X191114561Y-91433887D01*
X191027669Y-91464292D01*
X190993618Y-91476207D01*
X190986025Y-91481810D01*
X190986019Y-91481814D01*
X190891942Y-91551246D01*
X190891938Y-91551249D01*
X190884350Y-91556850D01*
X190878749Y-91564438D01*
X190878746Y-91564442D01*
X190809314Y-91658519D01*
X190809310Y-91658525D01*
X190803707Y-91666118D01*
X190800587Y-91675033D01*
X190800587Y-91675034D01*
X190762231Y-91784651D01*
X190758854Y-91794301D01*
X190758138Y-91801930D01*
X190758138Y-91801933D01*
X190757084Y-91813178D01*
X190756000Y-91824734D01*
X190756000Y-91827687D01*
X190756000Y-91877500D01*
X190739119Y-91940500D01*
X190693000Y-91986619D01*
X190630000Y-92003500D01*
X188528017Y-92003500D01*
X188479799Y-91993909D01*
X188438922Y-91966595D01*
X187179405Y-90707079D01*
X187152091Y-90666202D01*
X187142500Y-90617984D01*
X187142500Y-86657303D01*
X191654600Y-86657303D01*
X191654925Y-86663692D01*
X191664507Y-86757488D01*
X191667367Y-86770846D01*
X191718635Y-86925564D01*
X191724792Y-86938767D01*
X191810111Y-87077091D01*
X191819158Y-87088532D01*
X191934067Y-87203441D01*
X191945508Y-87212488D01*
X192071659Y-87290299D01*
X192118031Y-87340835D01*
X192131063Y-87408173D01*
X192106892Y-87472361D01*
X192067193Y-87526152D01*
X192060207Y-87535618D01*
X192057088Y-87544532D01*
X192057087Y-87544534D01*
X192022443Y-87643543D01*
X192015354Y-87663801D01*
X192012500Y-87694234D01*
X192012500Y-88327766D01*
X192012774Y-88330695D01*
X192012775Y-88330701D01*
X192013576Y-88339241D01*
X192015354Y-88358199D01*
X192060207Y-88486382D01*
X192065812Y-88493977D01*
X192065814Y-88493980D01*
X192135246Y-88588057D01*
X192140850Y-88595650D01*
X192250118Y-88676293D01*
X192378301Y-88721146D01*
X192408734Y-88724000D01*
X193414313Y-88724000D01*
X193417266Y-88724000D01*
X193447699Y-88721146D01*
X193575882Y-88676293D01*
X193685150Y-88595650D01*
X193765793Y-88486382D01*
X193768760Y-88477902D01*
X193810459Y-88431891D01*
X193869380Y-88411426D01*
X193930897Y-88421729D01*
X193971274Y-88453466D01*
X193972450Y-88452291D01*
X193978295Y-88458136D01*
X193983318Y-88464682D01*
X194108759Y-88560936D01*
X194254838Y-88621444D01*
X194411600Y-88642082D01*
X194568362Y-88621444D01*
X194714441Y-88560936D01*
X194839882Y-88464682D01*
X194936136Y-88339241D01*
X194996644Y-88193162D01*
X195017282Y-88036400D01*
X194996644Y-87879638D01*
X194936136Y-87733559D01*
X194839882Y-87608118D01*
X194757017Y-87544534D01*
X194720991Y-87516890D01*
X194714441Y-87511864D01*
X194706814Y-87508704D01*
X194706811Y-87508703D01*
X194575991Y-87454516D01*
X194575990Y-87454515D01*
X194568362Y-87451356D01*
X194560179Y-87450278D01*
X194560173Y-87450277D01*
X194419788Y-87431796D01*
X194411600Y-87430718D01*
X194403412Y-87431796D01*
X194263026Y-87450277D01*
X194263018Y-87450279D01*
X194254838Y-87451356D01*
X194247211Y-87454515D01*
X194247208Y-87454516D01*
X194116388Y-87508703D01*
X194116382Y-87508706D01*
X194108759Y-87511864D01*
X194102211Y-87516887D01*
X194102208Y-87516890D01*
X193989865Y-87603093D01*
X193989859Y-87603098D01*
X193983318Y-87608118D01*
X193981090Y-87611020D01*
X193928943Y-87641780D01*
X193866025Y-87643543D01*
X193810105Y-87614654D01*
X193775136Y-87562319D01*
X193768912Y-87544532D01*
X193765793Y-87535618D01*
X193760184Y-87528018D01*
X193760182Y-87528014D01*
X193703217Y-87450829D01*
X193679046Y-87386642D01*
X193692077Y-87319303D01*
X193738450Y-87268767D01*
X193829688Y-87212491D01*
X193841132Y-87203441D01*
X193956041Y-87088532D01*
X193965088Y-87077091D01*
X194050407Y-86938767D01*
X194056564Y-86925564D01*
X194107832Y-86770846D01*
X194110692Y-86757488D01*
X194120274Y-86663692D01*
X194120600Y-86657303D01*
X194120600Y-86630590D01*
X194117093Y-86617506D01*
X194104010Y-86614000D01*
X191671190Y-86614000D01*
X191658106Y-86617506D01*
X191654600Y-86630590D01*
X191654600Y-86657303D01*
X187142500Y-86657303D01*
X187142500Y-83188798D01*
X214573081Y-83188798D01*
X214579083Y-83198173D01*
X216145170Y-84764260D01*
X216156899Y-84771032D01*
X216168629Y-84764260D01*
X217734715Y-83198173D01*
X217740716Y-83188798D01*
X217733325Y-83180480D01*
X217506619Y-83015770D01*
X217499938Y-83011530D01*
X217230327Y-82863310D01*
X217223192Y-82859952D01*
X216937130Y-82746692D01*
X216929604Y-82744247D01*
X216631621Y-82667737D01*
X216623849Y-82666255D01*
X216318621Y-82627696D01*
X216310731Y-82627200D01*
X216003069Y-82627200D01*
X215995178Y-82627696D01*
X215689950Y-82666255D01*
X215682178Y-82667737D01*
X215384195Y-82744247D01*
X215376669Y-82746692D01*
X215090607Y-82859952D01*
X215083472Y-82863310D01*
X214813861Y-83011530D01*
X214807180Y-83015770D01*
X214580472Y-83180481D01*
X214573081Y-83188798D01*
X187142500Y-83188798D01*
X187142500Y-75838710D01*
X187142980Y-75827728D01*
X187143036Y-75827082D01*
X187146264Y-75790193D01*
X187136504Y-75753772D01*
X187134130Y-75743059D01*
X187127588Y-75705955D01*
X187122073Y-75696404D01*
X187120883Y-75693133D01*
X187119408Y-75689970D01*
X187116554Y-75679316D01*
X187094936Y-75648443D01*
X187089039Y-75639186D01*
X187070194Y-75606545D01*
X187041317Y-75582314D01*
X187033214Y-75574888D01*
X186045109Y-74586783D01*
X186037682Y-74578679D01*
X186020539Y-74558249D01*
X186013455Y-74549806D01*
X186003910Y-74544295D01*
X186003909Y-74544294D01*
X185980817Y-74530962D01*
X185971548Y-74525056D01*
X185949718Y-74509771D01*
X185949715Y-74509769D01*
X185940684Y-74503446D01*
X185930036Y-74500592D01*
X185926863Y-74499113D01*
X185923585Y-74497920D01*
X185914045Y-74492412D01*
X185903192Y-74490498D01*
X185903189Y-74490497D01*
X185876946Y-74485870D01*
X185866218Y-74483492D01*
X185840456Y-74476589D01*
X185840454Y-74476588D01*
X185829807Y-74473736D01*
X185818822Y-74474697D01*
X185792272Y-74477020D01*
X185781290Y-74477500D01*
X179257016Y-74477500D01*
X179208798Y-74467909D01*
X179167921Y-74440595D01*
X178117905Y-73390579D01*
X178090591Y-73349702D01*
X178081000Y-73301484D01*
X178081000Y-66679150D01*
X178084050Y-66664119D01*
X181965683Y-66664119D01*
X181973786Y-66672065D01*
X182144544Y-66776706D01*
X182153339Y-66781187D01*
X182363487Y-66868233D01*
X182372873Y-66871283D01*
X182594054Y-66924384D01*
X182603800Y-66925928D01*
X182830570Y-66943775D01*
X182840430Y-66943775D01*
X183067199Y-66925928D01*
X183076945Y-66924384D01*
X183298126Y-66871283D01*
X183307512Y-66868233D01*
X183517662Y-66781186D01*
X183526457Y-66776705D01*
X183697208Y-66672068D01*
X183705314Y-66664119D01*
X183699287Y-66654497D01*
X182847229Y-65802439D01*
X182835499Y-65795667D01*
X182823771Y-65802438D01*
X181971708Y-66654500D01*
X181965683Y-66664119D01*
X178084050Y-66664119D01*
X178090966Y-66630037D01*
X178119287Y-66588693D01*
X178161483Y-66561659D01*
X178187426Y-66551607D01*
X178292901Y-66510747D01*
X178482062Y-66393624D01*
X178646481Y-66243736D01*
X178780558Y-66066189D01*
X178879729Y-65867028D01*
X178940615Y-65653036D01*
X178960686Y-65436430D01*
X181323225Y-65436430D01*
X181341071Y-65663199D01*
X181342615Y-65672945D01*
X181395716Y-65894126D01*
X181398766Y-65903512D01*
X181485812Y-66113660D01*
X181490293Y-66122455D01*
X181594933Y-66293212D01*
X181602879Y-66301316D01*
X181612497Y-66295291D01*
X182464559Y-65443230D01*
X182471332Y-65431499D01*
X183199667Y-65431499D01*
X183206439Y-65443229D01*
X184058497Y-66295287D01*
X184068119Y-66301314D01*
X184076068Y-66293208D01*
X184180705Y-66122457D01*
X184185186Y-66113662D01*
X184272233Y-65903512D01*
X184275283Y-65894126D01*
X184328384Y-65672945D01*
X184329928Y-65663199D01*
X184347775Y-65436430D01*
X184347775Y-65426570D01*
X184329928Y-65199800D01*
X184328384Y-65190054D01*
X184275283Y-64968873D01*
X184272233Y-64959487D01*
X184185187Y-64749339D01*
X184180706Y-64740544D01*
X184076065Y-64569786D01*
X184068119Y-64561683D01*
X184058500Y-64567708D01*
X183206438Y-65419771D01*
X183199667Y-65431499D01*
X182471332Y-65431499D01*
X182464560Y-65419770D01*
X181612499Y-64567709D01*
X181602878Y-64561683D01*
X181594933Y-64569785D01*
X181490293Y-64740544D01*
X181485812Y-64749339D01*
X181398766Y-64959487D01*
X181395716Y-64968873D01*
X181342615Y-65190054D01*
X181341071Y-65199800D01*
X181323225Y-65426570D01*
X181323225Y-65436430D01*
X178960686Y-65436430D01*
X178961143Y-65431500D01*
X178940615Y-65209964D01*
X178879729Y-64995972D01*
X178780558Y-64796811D01*
X178646481Y-64619264D01*
X178642177Y-64615341D01*
X178642175Y-64615338D01*
X178486364Y-64473298D01*
X178486365Y-64473298D01*
X178482062Y-64469376D01*
X178292901Y-64352253D01*
X178260629Y-64339751D01*
X178090875Y-64273987D01*
X178090869Y-64273985D01*
X178085440Y-64271882D01*
X178079720Y-64270812D01*
X178079714Y-64270811D01*
X177872467Y-64232070D01*
X177872466Y-64232069D01*
X177866743Y-64231000D01*
X177644257Y-64231000D01*
X177638534Y-64232069D01*
X177638532Y-64232070D01*
X177431285Y-64270811D01*
X177431276Y-64270813D01*
X177425560Y-64271882D01*
X177420132Y-64273984D01*
X177420124Y-64273987D01*
X177223537Y-64350146D01*
X177223534Y-64350147D01*
X177218099Y-64352253D01*
X177213143Y-64355321D01*
X177213138Y-64355324D01*
X177033891Y-64466309D01*
X177028938Y-64469376D01*
X177024639Y-64473294D01*
X177024635Y-64473298D01*
X176868824Y-64615338D01*
X176868816Y-64615346D01*
X176864519Y-64619264D01*
X176861014Y-64623904D01*
X176861006Y-64623914D01*
X176733952Y-64792162D01*
X176733948Y-64792167D01*
X176730442Y-64796811D01*
X176727847Y-64802021D01*
X176727844Y-64802027D01*
X176633868Y-64990755D01*
X176633865Y-64990761D01*
X176631271Y-64995972D01*
X176570385Y-65209964D01*
X176549857Y-65431500D01*
X176570385Y-65653036D01*
X176631271Y-65867028D01*
X176730442Y-66066189D01*
X176733952Y-66070837D01*
X176861006Y-66239085D01*
X176861010Y-66239089D01*
X176864519Y-66243736D01*
X176868821Y-66247658D01*
X176868824Y-66247661D01*
X176921072Y-66295291D01*
X177028938Y-66393624D01*
X177218099Y-66510747D01*
X177313300Y-66547628D01*
X177349517Y-66561659D01*
X177391713Y-66588693D01*
X177420034Y-66630037D01*
X177430000Y-66679150D01*
X177430000Y-73468790D01*
X177429519Y-73479772D01*
X177426236Y-73517307D01*
X177429088Y-73527954D01*
X177429089Y-73527956D01*
X177435992Y-73553718D01*
X177438370Y-73564446D01*
X177442997Y-73590689D01*
X177442998Y-73590692D01*
X177444912Y-73601545D01*
X177450420Y-73611085D01*
X177451613Y-73614363D01*
X177453092Y-73617536D01*
X177455946Y-73628184D01*
X177462269Y-73637215D01*
X177462271Y-73637218D01*
X177477556Y-73659048D01*
X177483461Y-73668316D01*
X177502306Y-73700955D01*
X177510747Y-73708038D01*
X177510749Y-73708040D01*
X177531181Y-73725184D01*
X177539285Y-73732611D01*
X178825889Y-75019215D01*
X178833316Y-75027319D01*
X178857545Y-75056194D01*
X178890186Y-75075039D01*
X178899443Y-75080936D01*
X178930316Y-75102554D01*
X178940970Y-75105408D01*
X178944133Y-75106883D01*
X178947404Y-75108073D01*
X178956955Y-75113588D01*
X178994063Y-75120131D01*
X179004772Y-75122504D01*
X179041193Y-75132264D01*
X179078742Y-75128979D01*
X179089724Y-75128500D01*
X185613984Y-75128500D01*
X185662202Y-75138091D01*
X185703079Y-75165405D01*
X186454595Y-75916921D01*
X186481909Y-75957798D01*
X186491500Y-76006016D01*
X186491500Y-90785290D01*
X186491019Y-90796272D01*
X186487736Y-90833807D01*
X186490588Y-90844454D01*
X186490589Y-90844456D01*
X186497492Y-90870218D01*
X186499870Y-90880946D01*
X186504497Y-90907189D01*
X186504498Y-90907192D01*
X186506412Y-90918045D01*
X186511920Y-90927585D01*
X186513113Y-90930863D01*
X186514592Y-90934036D01*
X186517446Y-90944684D01*
X186523769Y-90953715D01*
X186523771Y-90953718D01*
X186539056Y-90975548D01*
X186544962Y-90984817D01*
X186556145Y-91004187D01*
X186563806Y-91017455D01*
X186572247Y-91024538D01*
X186572249Y-91024540D01*
X186592681Y-91041684D01*
X186600785Y-91049111D01*
X188096894Y-92545221D01*
X188104321Y-92553325D01*
X188128545Y-92582194D01*
X188138090Y-92587705D01*
X188138093Y-92587707D01*
X188161179Y-92601035D01*
X188170450Y-92606941D01*
X188201316Y-92628553D01*
X188211964Y-92631406D01*
X188215131Y-92632883D01*
X188218405Y-92634074D01*
X188227955Y-92639588D01*
X188265074Y-92646133D01*
X188275783Y-92648506D01*
X188312193Y-92658263D01*
X188349730Y-92654979D01*
X188360712Y-92654500D01*
X190630000Y-92654500D01*
X190693000Y-92671381D01*
X190739119Y-92717500D01*
X190756000Y-92780500D01*
X190756000Y-92833266D01*
X190756274Y-92836195D01*
X190756275Y-92836201D01*
X190756885Y-92842703D01*
X190758854Y-92863699D01*
X190803707Y-92991882D01*
X190809312Y-92999477D01*
X190809314Y-92999480D01*
X190878746Y-93093557D01*
X190884350Y-93101150D01*
X190916839Y-93125128D01*
X190947981Y-93148112D01*
X190993618Y-93181793D01*
X191084626Y-93213638D01*
X191120157Y-93226071D01*
X191171545Y-93259992D01*
X191200723Y-93314213D01*
X191200723Y-93375787D01*
X191171545Y-93430008D01*
X191120157Y-93463929D01*
X191002534Y-93505087D01*
X190993618Y-93508207D01*
X190986025Y-93513810D01*
X190986019Y-93513814D01*
X190891942Y-93583246D01*
X190891938Y-93583249D01*
X190884350Y-93588850D01*
X190878749Y-93596438D01*
X190878746Y-93596442D01*
X190809314Y-93690519D01*
X190809310Y-93690525D01*
X190803707Y-93698118D01*
X190800587Y-93707033D01*
X190800587Y-93707034D01*
X190762367Y-93816262D01*
X190758854Y-93826301D01*
X190756000Y-93856734D01*
X190756000Y-93859687D01*
X190756000Y-93909500D01*
X190739119Y-93972500D01*
X190693000Y-94018619D01*
X190630000Y-94035500D01*
X187766016Y-94035500D01*
X187717798Y-94025909D01*
X187676921Y-93998595D01*
X185782405Y-92104079D01*
X185755091Y-92063202D01*
X185745500Y-92014984D01*
X185745500Y-83204710D01*
X185745980Y-83193728D01*
X185747139Y-83180480D01*
X185749264Y-83156193D01*
X185739504Y-83119772D01*
X185737130Y-83109059D01*
X185730588Y-83071955D01*
X185725073Y-83062404D01*
X185723883Y-83059133D01*
X185722408Y-83055970D01*
X185719554Y-83045316D01*
X185697936Y-83014443D01*
X185692039Y-83005186D01*
X185673194Y-82972545D01*
X185644317Y-82948314D01*
X185636214Y-82940888D01*
X185029109Y-82333783D01*
X185021682Y-82325679D01*
X185004539Y-82305249D01*
X184997455Y-82296806D01*
X184987910Y-82291295D01*
X184987909Y-82291294D01*
X184964817Y-82277962D01*
X184955548Y-82272056D01*
X184933718Y-82256771D01*
X184933715Y-82256769D01*
X184924684Y-82250446D01*
X184914036Y-82247592D01*
X184910863Y-82246113D01*
X184907585Y-82244920D01*
X184898045Y-82239412D01*
X184887192Y-82237498D01*
X184887189Y-82237497D01*
X184860946Y-82232870D01*
X184850218Y-82230492D01*
X184824456Y-82223589D01*
X184824454Y-82223588D01*
X184813807Y-82220736D01*
X184802822Y-82221697D01*
X184776272Y-82224020D01*
X184765290Y-82224500D01*
X178876018Y-82224500D01*
X178827800Y-82214909D01*
X178786923Y-82187596D01*
X178117905Y-81518579D01*
X178090591Y-81477701D01*
X178081000Y-81429483D01*
X178081000Y-80776150D01*
X178084050Y-80761119D01*
X181965683Y-80761119D01*
X181973786Y-80769065D01*
X182144544Y-80873706D01*
X182153339Y-80878187D01*
X182363487Y-80965233D01*
X182372873Y-80968283D01*
X182594054Y-81021384D01*
X182603800Y-81022928D01*
X182830570Y-81040775D01*
X182840430Y-81040775D01*
X183067199Y-81022928D01*
X183076945Y-81021384D01*
X183298126Y-80968283D01*
X183307512Y-80965233D01*
X183517662Y-80878186D01*
X183526457Y-80873705D01*
X183697208Y-80769068D01*
X183705314Y-80761119D01*
X183699287Y-80751497D01*
X182847229Y-79899439D01*
X182835499Y-79892667D01*
X182823771Y-79899438D01*
X181971708Y-80751500D01*
X181965683Y-80761119D01*
X178084050Y-80761119D01*
X178090966Y-80727037D01*
X178119287Y-80685693D01*
X178161483Y-80658659D01*
X178187426Y-80648607D01*
X178292901Y-80607747D01*
X178482062Y-80490624D01*
X178646481Y-80340736D01*
X178780558Y-80163189D01*
X178879729Y-79964028D01*
X178940615Y-79750036D01*
X178960686Y-79533430D01*
X181323225Y-79533430D01*
X181341071Y-79760199D01*
X181342615Y-79769945D01*
X181395716Y-79991126D01*
X181398766Y-80000512D01*
X181485812Y-80210660D01*
X181490293Y-80219455D01*
X181594933Y-80390212D01*
X181602879Y-80398316D01*
X181612497Y-80392291D01*
X182464559Y-79540230D01*
X182471332Y-79528499D01*
X183199667Y-79528499D01*
X183206439Y-79540229D01*
X184058497Y-80392287D01*
X184068119Y-80398314D01*
X184076068Y-80390208D01*
X184180705Y-80219457D01*
X184185186Y-80210662D01*
X184272233Y-80000512D01*
X184275283Y-79991126D01*
X184328384Y-79769945D01*
X184329928Y-79760199D01*
X184347775Y-79533430D01*
X184347775Y-79523570D01*
X184329928Y-79296800D01*
X184328384Y-79287054D01*
X184275283Y-79065873D01*
X184272233Y-79056487D01*
X184185187Y-78846339D01*
X184180706Y-78837544D01*
X184076065Y-78666786D01*
X184068119Y-78658683D01*
X184058500Y-78664708D01*
X183206438Y-79516771D01*
X183199667Y-79528499D01*
X182471332Y-79528499D01*
X182464560Y-79516770D01*
X181612499Y-78664709D01*
X181602878Y-78658683D01*
X181594933Y-78666785D01*
X181490293Y-78837544D01*
X181485812Y-78846339D01*
X181398766Y-79056487D01*
X181395716Y-79065873D01*
X181342615Y-79287054D01*
X181341071Y-79296800D01*
X181323225Y-79523570D01*
X181323225Y-79533430D01*
X178960686Y-79533430D01*
X178961143Y-79528500D01*
X178940615Y-79306964D01*
X178879729Y-79092972D01*
X178780558Y-78893811D01*
X178646481Y-78716264D01*
X178642177Y-78712341D01*
X178642175Y-78712338D01*
X178486364Y-78570298D01*
X178486365Y-78570298D01*
X178482062Y-78566376D01*
X178292901Y-78449253D01*
X178260629Y-78436751D01*
X178090875Y-78370987D01*
X178090869Y-78370985D01*
X178085440Y-78368882D01*
X178079720Y-78367812D01*
X178079714Y-78367811D01*
X177872467Y-78329070D01*
X177872466Y-78329069D01*
X177866743Y-78328000D01*
X177644257Y-78328000D01*
X177638534Y-78329069D01*
X177638532Y-78329070D01*
X177431285Y-78367811D01*
X177431276Y-78367813D01*
X177425560Y-78368882D01*
X177420132Y-78370984D01*
X177420124Y-78370987D01*
X177223537Y-78447146D01*
X177223534Y-78447147D01*
X177218099Y-78449253D01*
X177213143Y-78452321D01*
X177213138Y-78452324D01*
X177033891Y-78563309D01*
X177028938Y-78566376D01*
X177024639Y-78570294D01*
X177024635Y-78570298D01*
X176868824Y-78712338D01*
X176868816Y-78712346D01*
X176864519Y-78716264D01*
X176861014Y-78720904D01*
X176861006Y-78720914D01*
X176733952Y-78889162D01*
X176733948Y-78889167D01*
X176730442Y-78893811D01*
X176727847Y-78899021D01*
X176727844Y-78899027D01*
X176633868Y-79087755D01*
X176633865Y-79087761D01*
X176631271Y-79092972D01*
X176570385Y-79306964D01*
X176549857Y-79528500D01*
X176570385Y-79750036D01*
X176631271Y-79964028D01*
X176730442Y-80163189D01*
X176733952Y-80167837D01*
X176861006Y-80336085D01*
X176861010Y-80336089D01*
X176864519Y-80340736D01*
X176868821Y-80344658D01*
X176868824Y-80344661D01*
X176921072Y-80392291D01*
X177028938Y-80490624D01*
X177218099Y-80607747D01*
X177313300Y-80644628D01*
X177349517Y-80658659D01*
X177391713Y-80685693D01*
X177420034Y-80727037D01*
X177430000Y-80776150D01*
X177430000Y-81596790D01*
X177429519Y-81607772D01*
X177426236Y-81645307D01*
X177429088Y-81655954D01*
X177429089Y-81655956D01*
X177435992Y-81681718D01*
X177438370Y-81692446D01*
X177442997Y-81718689D01*
X177442998Y-81718692D01*
X177444912Y-81729545D01*
X177450420Y-81739085D01*
X177451613Y-81742363D01*
X177453092Y-81745536D01*
X177455946Y-81756184D01*
X177462269Y-81765215D01*
X177462271Y-81765218D01*
X177477556Y-81787048D01*
X177483461Y-81796316D01*
X177502306Y-81828955D01*
X177510747Y-81836038D01*
X177510749Y-81836040D01*
X177531175Y-81853179D01*
X177539280Y-81860606D01*
X178444900Y-82766227D01*
X178452325Y-82774331D01*
X178469455Y-82794745D01*
X178476545Y-82803194D01*
X178509191Y-82822042D01*
X178518437Y-82827932D01*
X178549316Y-82849554D01*
X178559971Y-82852408D01*
X178563129Y-82853881D01*
X178566402Y-82855072D01*
X178575955Y-82860588D01*
X178613065Y-82867131D01*
X178623799Y-82869511D01*
X178660193Y-82879263D01*
X178697730Y-82875979D01*
X178708712Y-82875500D01*
X184597984Y-82875500D01*
X184646202Y-82885091D01*
X184687079Y-82912405D01*
X185057595Y-83282921D01*
X185084909Y-83323798D01*
X185094500Y-83372016D01*
X185094500Y-92182290D01*
X185094019Y-92193272D01*
X185090736Y-92230807D01*
X185093588Y-92241454D01*
X185093589Y-92241456D01*
X185100492Y-92267218D01*
X185102870Y-92277946D01*
X185107497Y-92304189D01*
X185107498Y-92304192D01*
X185109412Y-92315045D01*
X185114920Y-92324585D01*
X185116113Y-92327863D01*
X185117592Y-92331036D01*
X185120446Y-92341684D01*
X185126769Y-92350715D01*
X185126771Y-92350718D01*
X185142056Y-92372548D01*
X185147962Y-92381817D01*
X185153728Y-92391805D01*
X185166806Y-92414455D01*
X185175247Y-92421538D01*
X185175249Y-92421540D01*
X185195681Y-92438684D01*
X185203785Y-92446111D01*
X187334889Y-94577215D01*
X187342316Y-94585319D01*
X187366545Y-94614194D01*
X187399186Y-94633039D01*
X187408443Y-94638936D01*
X187439316Y-94660554D01*
X187449970Y-94663408D01*
X187453133Y-94664883D01*
X187456404Y-94666073D01*
X187465955Y-94671588D01*
X187503063Y-94678131D01*
X187513772Y-94680504D01*
X187550193Y-94690264D01*
X187587727Y-94686980D01*
X187598710Y-94686500D01*
X190630000Y-94686500D01*
X190693000Y-94703381D01*
X190739119Y-94749500D01*
X190756000Y-94812500D01*
X190756000Y-94865266D01*
X190756274Y-94868195D01*
X190756275Y-94868201D01*
X190758138Y-94888066D01*
X190758854Y-94895699D01*
X190803707Y-95023882D01*
X190809312Y-95031477D01*
X190809314Y-95031480D01*
X190860045Y-95100218D01*
X190884350Y-95133150D01*
X190891942Y-95138753D01*
X190972453Y-95198173D01*
X190993618Y-95213793D01*
X191063910Y-95238389D01*
X191120157Y-95258071D01*
X191171545Y-95291992D01*
X191200723Y-95346213D01*
X191200723Y-95407787D01*
X191171545Y-95462008D01*
X191120157Y-95495929D01*
X191002534Y-95537087D01*
X190993618Y-95540207D01*
X190986025Y-95545810D01*
X190986019Y-95545814D01*
X190891942Y-95615246D01*
X190891938Y-95615249D01*
X190884350Y-95620850D01*
X190878749Y-95628438D01*
X190878746Y-95628442D01*
X190809314Y-95722519D01*
X190809310Y-95722525D01*
X190803707Y-95730118D01*
X190800587Y-95739033D01*
X190800587Y-95739034D01*
X190779084Y-95800488D01*
X190758854Y-95858301D01*
X190756000Y-95888734D01*
X190756000Y-95891687D01*
X190756000Y-95941500D01*
X190739119Y-96004500D01*
X190693000Y-96050619D01*
X190630000Y-96067500D01*
X179257016Y-96067500D01*
X179208798Y-96057909D01*
X179167921Y-96030595D01*
X177990905Y-94853579D01*
X177963591Y-94812702D01*
X177954000Y-94764484D01*
X177954000Y-94746150D01*
X177957050Y-94731119D01*
X181838683Y-94731119D01*
X181846786Y-94739065D01*
X182017544Y-94843706D01*
X182026339Y-94848187D01*
X182236487Y-94935233D01*
X182245873Y-94938283D01*
X182467054Y-94991384D01*
X182476800Y-94992928D01*
X182703570Y-95010775D01*
X182713430Y-95010775D01*
X182940199Y-94992928D01*
X182949945Y-94991384D01*
X183171126Y-94938283D01*
X183180512Y-94935233D01*
X183390662Y-94848186D01*
X183399457Y-94843705D01*
X183570208Y-94739068D01*
X183578314Y-94731119D01*
X183572287Y-94721497D01*
X182720229Y-93869439D01*
X182708499Y-93862667D01*
X182696771Y-93869438D01*
X181844708Y-94721500D01*
X181838683Y-94731119D01*
X177957050Y-94731119D01*
X177963966Y-94697037D01*
X177992287Y-94655693D01*
X178034483Y-94628659D01*
X178060426Y-94618607D01*
X178165901Y-94577747D01*
X178355062Y-94460624D01*
X178519481Y-94310736D01*
X178653558Y-94133189D01*
X178752729Y-93934028D01*
X178813615Y-93720036D01*
X178833686Y-93503430D01*
X181196225Y-93503430D01*
X181214071Y-93730199D01*
X181215615Y-93739945D01*
X181268716Y-93961126D01*
X181271766Y-93970512D01*
X181358812Y-94180660D01*
X181363293Y-94189455D01*
X181467933Y-94360212D01*
X181475879Y-94368316D01*
X181485497Y-94362291D01*
X182337559Y-93510230D01*
X182344332Y-93498499D01*
X183072667Y-93498499D01*
X183079439Y-93510229D01*
X183931497Y-94362287D01*
X183941119Y-94368314D01*
X183949068Y-94360208D01*
X184053705Y-94189457D01*
X184058186Y-94180662D01*
X184145233Y-93970512D01*
X184148283Y-93961126D01*
X184201384Y-93739945D01*
X184202928Y-93730199D01*
X184220775Y-93503430D01*
X184220775Y-93493570D01*
X184202928Y-93266800D01*
X184201384Y-93257054D01*
X184148283Y-93035873D01*
X184145233Y-93026487D01*
X184058187Y-92816339D01*
X184053706Y-92807544D01*
X183949065Y-92636786D01*
X183941119Y-92628683D01*
X183931500Y-92634708D01*
X183079438Y-93486771D01*
X183072667Y-93498499D01*
X182344332Y-93498499D01*
X182337560Y-93486770D01*
X181485499Y-92634709D01*
X181475878Y-92628683D01*
X181467933Y-92636785D01*
X181363293Y-92807544D01*
X181358812Y-92816339D01*
X181271766Y-93026487D01*
X181268716Y-93035873D01*
X181215615Y-93257054D01*
X181214071Y-93266800D01*
X181196225Y-93493570D01*
X181196225Y-93503430D01*
X178833686Y-93503430D01*
X178834143Y-93498500D01*
X178813615Y-93276964D01*
X178752729Y-93062972D01*
X178653558Y-92863811D01*
X178547819Y-92723789D01*
X178522993Y-92690914D01*
X178522990Y-92690910D01*
X178519481Y-92686264D01*
X178515177Y-92682341D01*
X178515175Y-92682338D01*
X178359364Y-92540298D01*
X178359365Y-92540298D01*
X178355062Y-92536376D01*
X178165901Y-92419253D01*
X178128875Y-92404909D01*
X177963875Y-92340987D01*
X177963869Y-92340985D01*
X177958440Y-92338882D01*
X177952720Y-92337812D01*
X177952714Y-92337811D01*
X177745467Y-92299070D01*
X177745466Y-92299069D01*
X177739743Y-92298000D01*
X177517257Y-92298000D01*
X177511534Y-92299069D01*
X177511532Y-92299070D01*
X177304285Y-92337811D01*
X177304276Y-92337813D01*
X177298560Y-92338882D01*
X177293132Y-92340984D01*
X177293124Y-92340987D01*
X177096537Y-92417146D01*
X177096534Y-92417147D01*
X177091099Y-92419253D01*
X177086143Y-92422321D01*
X177086138Y-92422324D01*
X176928651Y-92519836D01*
X176901938Y-92536376D01*
X176897639Y-92540294D01*
X176897635Y-92540298D01*
X176741824Y-92682338D01*
X176741816Y-92682346D01*
X176737519Y-92686264D01*
X176734014Y-92690904D01*
X176734006Y-92690914D01*
X176606952Y-92859162D01*
X176606948Y-92859167D01*
X176603442Y-92863811D01*
X176600847Y-92869021D01*
X176600844Y-92869027D01*
X176506868Y-93057755D01*
X176506865Y-93057761D01*
X176504271Y-93062972D01*
X176502677Y-93068573D01*
X176502677Y-93068574D01*
X176456890Y-93229500D01*
X176443385Y-93276964D01*
X176422857Y-93498500D01*
X176423394Y-93504295D01*
X176441148Y-93695900D01*
X176443385Y-93720036D01*
X176444977Y-93725634D01*
X176444978Y-93725635D01*
X176446277Y-93730199D01*
X176504271Y-93934028D01*
X176506867Y-93939241D01*
X176506868Y-93939244D01*
X176600844Y-94127972D01*
X176603442Y-94133189D01*
X176606952Y-94137837D01*
X176734006Y-94306085D01*
X176734010Y-94306089D01*
X176737519Y-94310736D01*
X176741821Y-94314658D01*
X176741824Y-94314661D01*
X176821402Y-94387206D01*
X176901938Y-94460624D01*
X177091099Y-94577747D01*
X177163378Y-94605748D01*
X177222517Y-94628659D01*
X177264713Y-94655693D01*
X177293034Y-94697037D01*
X177303000Y-94746150D01*
X177303000Y-94931790D01*
X177302519Y-94942772D01*
X177299236Y-94980307D01*
X177302088Y-94990954D01*
X177302089Y-94990956D01*
X177308992Y-95016718D01*
X177311370Y-95027446D01*
X177315997Y-95053689D01*
X177315998Y-95053692D01*
X177317912Y-95064545D01*
X177323420Y-95074085D01*
X177324613Y-95077363D01*
X177326092Y-95080536D01*
X177328946Y-95091184D01*
X177335269Y-95100215D01*
X177335271Y-95100218D01*
X177350556Y-95122048D01*
X177356461Y-95131316D01*
X177375306Y-95163955D01*
X177383747Y-95171038D01*
X177383749Y-95171040D01*
X177404181Y-95188184D01*
X177412285Y-95195611D01*
X178825889Y-96609215D01*
X178833316Y-96617319D01*
X178857545Y-96646194D01*
X178890186Y-96665039D01*
X178899443Y-96670936D01*
X178930316Y-96692554D01*
X178940970Y-96695408D01*
X178944133Y-96696883D01*
X178947404Y-96698073D01*
X178956955Y-96703588D01*
X178994063Y-96710131D01*
X179004772Y-96712504D01*
X179041193Y-96722264D01*
X179078742Y-96718979D01*
X179089724Y-96718500D01*
X190630000Y-96718500D01*
X190693000Y-96735381D01*
X190739119Y-96781500D01*
X190756000Y-96844500D01*
X190756000Y-96897266D01*
X190758854Y-96927699D01*
X190803707Y-97055882D01*
X190809312Y-97063477D01*
X190809314Y-97063480D01*
X190862245Y-97135199D01*
X190884350Y-97165150D01*
X190993618Y-97245793D01*
X191092277Y-97280315D01*
X191120157Y-97290071D01*
X191171545Y-97323992D01*
X191200723Y-97378213D01*
X191200723Y-97439787D01*
X191171545Y-97494008D01*
X191120157Y-97527929D01*
X191002534Y-97569087D01*
X190993618Y-97572207D01*
X190986025Y-97577810D01*
X190986019Y-97577814D01*
X190891942Y-97647246D01*
X190891938Y-97647249D01*
X190884350Y-97652850D01*
X190878749Y-97660438D01*
X190878746Y-97660442D01*
X190809314Y-97754519D01*
X190809310Y-97754525D01*
X190803707Y-97762118D01*
X190800587Y-97771033D01*
X190800587Y-97771034D01*
X190762528Y-97879802D01*
X190758854Y-97890301D01*
X190756000Y-97920734D01*
X190756000Y-97923687D01*
X190756000Y-97973500D01*
X190739119Y-98036500D01*
X190693000Y-98082619D01*
X190630000Y-98099500D01*
X178835710Y-98099500D01*
X178824728Y-98099020D01*
X178798177Y-98096697D01*
X178787193Y-98095736D01*
X178776546Y-98098588D01*
X178776542Y-98098589D01*
X178750779Y-98105492D01*
X178740056Y-98107869D01*
X178713808Y-98112498D01*
X178713807Y-98112498D01*
X178702955Y-98114412D01*
X178693413Y-98119920D01*
X178690117Y-98121120D01*
X178686952Y-98122595D01*
X178676316Y-98125446D01*
X178667293Y-98131763D01*
X178667288Y-98131766D01*
X178645441Y-98147063D01*
X178636178Y-98152964D01*
X178613091Y-98166293D01*
X178613085Y-98166297D01*
X178603545Y-98171806D01*
X178596460Y-98180248D01*
X178596460Y-98180249D01*
X178579314Y-98200682D01*
X178571890Y-98208782D01*
X177412287Y-99368385D01*
X177404186Y-99375809D01*
X177383752Y-99392955D01*
X177383744Y-99392964D01*
X177375306Y-99400045D01*
X177369795Y-99409589D01*
X177369794Y-99409591D01*
X177356464Y-99432678D01*
X177350563Y-99441941D01*
X177335266Y-99463788D01*
X177335263Y-99463793D01*
X177328946Y-99472816D01*
X177326095Y-99483452D01*
X177324620Y-99486617D01*
X177323420Y-99489913D01*
X177317912Y-99499455D01*
X177315998Y-99510307D01*
X177315998Y-99510308D01*
X177311369Y-99536556D01*
X177308992Y-99547279D01*
X177302089Y-99573042D01*
X177302088Y-99573046D01*
X177299236Y-99583693D01*
X177300196Y-99594675D01*
X177300197Y-99594675D01*
X177302520Y-99621228D01*
X177303000Y-99632210D01*
X177303000Y-106474850D01*
X177293034Y-106523963D01*
X177264713Y-106565307D01*
X177222517Y-106592341D01*
X177096537Y-106641146D01*
X177096534Y-106641147D01*
X177091099Y-106643253D01*
X177086143Y-106646321D01*
X177086138Y-106646324D01*
X176906891Y-106757309D01*
X176901938Y-106760376D01*
X176897639Y-106764294D01*
X176897635Y-106764298D01*
X176741824Y-106906338D01*
X176741816Y-106906346D01*
X176737519Y-106910264D01*
X176734014Y-106914904D01*
X176734006Y-106914914D01*
X176606952Y-107083162D01*
X176606948Y-107083167D01*
X176603442Y-107087811D01*
X176600847Y-107093021D01*
X176600844Y-107093027D01*
X176506868Y-107281755D01*
X176506865Y-107281761D01*
X176504271Y-107286972D01*
X176443385Y-107500964D01*
X176422857Y-107722500D01*
X172105876Y-107722500D01*
X172121541Y-92265878D01*
X181838683Y-92265878D01*
X181844709Y-92275499D01*
X182696770Y-93127560D01*
X182708499Y-93134332D01*
X182720230Y-93127559D01*
X183572291Y-92275497D01*
X183578316Y-92265879D01*
X183570212Y-92257933D01*
X183399455Y-92153293D01*
X183390660Y-92148812D01*
X183180512Y-92061766D01*
X183171126Y-92058716D01*
X182949945Y-92005615D01*
X182940199Y-92004071D01*
X182713430Y-91986225D01*
X182703570Y-91986225D01*
X182476800Y-92004071D01*
X182467054Y-92005615D01*
X182245873Y-92058716D01*
X182236487Y-92061766D01*
X182026339Y-92148812D01*
X182017544Y-92153293D01*
X181846785Y-92257933D01*
X181838683Y-92265878D01*
X172121541Y-92265878D01*
X172135700Y-78295878D01*
X181965683Y-78295878D01*
X181971709Y-78305499D01*
X182823770Y-79157560D01*
X182835499Y-79164332D01*
X182847230Y-79157559D01*
X183699291Y-78305497D01*
X183705316Y-78295879D01*
X183697212Y-78287933D01*
X183526455Y-78183293D01*
X183517660Y-78178812D01*
X183307512Y-78091766D01*
X183298126Y-78088716D01*
X183076945Y-78035615D01*
X183067199Y-78034071D01*
X182840430Y-78016225D01*
X182830570Y-78016225D01*
X182603800Y-78034071D01*
X182594054Y-78035615D01*
X182372873Y-78088716D01*
X182363487Y-78091766D01*
X182153339Y-78178812D01*
X182144544Y-78183293D01*
X181973785Y-78287933D01*
X181965683Y-78295878D01*
X172135700Y-78295878D01*
X172149987Y-64198878D01*
X181965683Y-64198878D01*
X181971709Y-64208499D01*
X182823770Y-65060560D01*
X182835499Y-65067332D01*
X182847230Y-65060559D01*
X183699291Y-64208497D01*
X183705316Y-64198879D01*
X183697212Y-64190933D01*
X183526455Y-64086293D01*
X183517660Y-64081812D01*
X183307512Y-63994766D01*
X183298126Y-63991716D01*
X183076945Y-63938615D01*
X183067199Y-63937071D01*
X182840430Y-63919225D01*
X182830570Y-63919225D01*
X182603800Y-63937071D01*
X182594054Y-63938615D01*
X182372873Y-63991716D01*
X182363487Y-63994766D01*
X182153339Y-64081812D01*
X182144544Y-64086293D01*
X181973785Y-64190933D01*
X181965683Y-64198878D01*
X172149987Y-64198878D01*
X172158006Y-56286400D01*
X213278551Y-56286400D01*
X213278939Y-56291330D01*
X213297928Y-56532614D01*
X213297929Y-56532622D01*
X213298317Y-56537548D01*
X213299471Y-56542356D01*
X213299472Y-56542360D01*
X213355971Y-56777698D01*
X213355972Y-56777703D01*
X213357127Y-56782511D01*
X213453534Y-57015259D01*
X213585164Y-57230059D01*
X213748776Y-57421624D01*
X213940341Y-57585236D01*
X214155141Y-57716866D01*
X214387889Y-57813273D01*
X214632852Y-57872083D01*
X214821118Y-57886900D01*
X214944413Y-57886900D01*
X214946882Y-57886900D01*
X215135148Y-57872083D01*
X215380111Y-57813273D01*
X215612859Y-57716866D01*
X215827659Y-57585236D01*
X216019224Y-57421624D01*
X216182836Y-57230059D01*
X216314466Y-57015259D01*
X216410873Y-56782511D01*
X216469683Y-56537548D01*
X216489449Y-56286400D01*
X216469683Y-56035252D01*
X216410873Y-55790289D01*
X216314466Y-55557541D01*
X216182836Y-55342741D01*
X216019224Y-55151176D01*
X215827659Y-54987564D01*
X215612859Y-54855934D01*
X215380111Y-54759527D01*
X215375303Y-54758372D01*
X215375298Y-54758371D01*
X215139960Y-54701872D01*
X215139956Y-54701871D01*
X215135148Y-54700717D01*
X215130222Y-54700329D01*
X215130214Y-54700328D01*
X214949338Y-54686093D01*
X214949330Y-54686092D01*
X214946882Y-54685900D01*
X214821118Y-54685900D01*
X214818670Y-54686092D01*
X214818661Y-54686093D01*
X214637785Y-54700328D01*
X214637775Y-54700329D01*
X214632852Y-54700717D01*
X214628045Y-54701871D01*
X214628039Y-54701872D01*
X214392701Y-54758371D01*
X214392692Y-54758373D01*
X214387889Y-54759527D01*
X214383321Y-54761418D01*
X214383315Y-54761421D01*
X214159715Y-54854039D01*
X214159710Y-54854041D01*
X214155141Y-54855934D01*
X214150926Y-54858516D01*
X214150920Y-54858520D01*
X213944558Y-54984979D01*
X213944550Y-54984984D01*
X213940341Y-54987564D01*
X213936580Y-54990775D01*
X213936576Y-54990779D01*
X213752538Y-55147962D01*
X213752531Y-55147968D01*
X213748776Y-55151176D01*
X213745568Y-55154931D01*
X213745562Y-55154938D01*
X213588379Y-55338976D01*
X213588375Y-55338980D01*
X213585164Y-55342741D01*
X213582584Y-55346950D01*
X213582579Y-55346958D01*
X213456120Y-55553320D01*
X213456116Y-55553326D01*
X213453534Y-55557541D01*
X213451641Y-55562110D01*
X213451639Y-55562115D01*
X213359021Y-55785715D01*
X213359018Y-55785721D01*
X213357127Y-55790289D01*
X213355973Y-55795092D01*
X213355971Y-55795101D01*
X213299472Y-56030439D01*
X213298317Y-56035252D01*
X213297929Y-56040175D01*
X213297928Y-56040185D01*
X213278939Y-56281470D01*
X213278551Y-56286400D01*
X172158006Y-56286400D01*
X172160991Y-53341047D01*
X172177902Y-53278126D01*
X172223986Y-53232063D01*
X172286917Y-53215179D01*
X200676121Y-53198721D01*
X218822358Y-53238127D01*
G37*
%TD.AperFunction*%
%TD*%
M02*
